<svg id="_x33_0" enable-background="new 0 0 64 64" height="512" viewBox="0 0 64 64" width="512" xmlns="http://www.w3.org/2000/svg"><g><path d="m19 23h2v2h-2z"/><path d="m23 23h2v2h-2z"/><path d="m27 23h2v2h-2z"/><path d="m53.968 9c-1.654 0-3 1.346-3 3 0 1.302.839 2.402 2.001 2.816l.027 15.182c0 .268-.104.52-.292.708-.189.19-.44.294-.707.294h-2.997v-10c0-1.103-.897-2-2-2h-30c-1.103 0-2 .897-2 2v10h-3c-.551 0-1-.448-1-1v-11.025c.595-.044.84-.188.958-.667l.308-.937c.087-.266.287-.479.546-.588.257-.108.549-.099.8.026l1.54.764 2.423-2.423-.764-1.539c-.125-.251-.134-.543-.027-.801.108-.259.323-.458.589-.545l1.627-.536v-3.458l-1.628-.535c-.266-.088-.481-.287-.589-.546s-.098-.55.026-.8l.765-1.54-2.423-2.423-1.541.763c-.25.124-.541.134-.799.026-.259-.108-.458-.322-.545-.588l-.536-1.628h-3.46l-.536 1.629c-.087.266-.286.479-.546.588-.257.107-.548.097-.799-.027l-1.54-.764-2.423 2.424.764 1.539c.125.251.135.542.026.8-.107.259-.322.458-.588.545l-1.628.537v3.459l1.628.536c.267.087.481.286.589.545.108.258.098.55-.026.8l-.765 1.54 2.423 2.423 1.541-.764c.249-.126.54-.135.799-.026.259.108.458.322.545.588l.288.866c.132.528.381.686.978.735v11.027c0 1.654 1.346 3 3 3h3v2h-3c-1.654 0-3 1.346-3 3v13.101c-1.959.399-3.504 1.948-3.9 3.909-.034-.001-.066-.01-.1-.01-2.206 0-4 1.794-4 4s1.794 4 4 4h10c2.206 0 4-1.794 4-4s-1.794-4-4-4c-.034 0-.066.009-.1.01-.396-1.961-1.941-3.51-3.9-3.909v-13.101c0-.552.449-1 1-1h3v10c0 1.103.897 2 2 2h30c1.103 0 2-.897 2-2v-10h3c.551 0 1 .448 1 1v11h2v-11c0-1.654-1.346-3-3-3h-3v-2h2.997c.802 0 1.556-.313 2.123-.881.567-.567.878-1.322.877-2.125l-.027-15.179c1.161-.415 1.999-1.514 1.999-2.815-.001-1.654-1.347-3-3.001-3zm-46.008 5.938c-.794-.332-1.69-.302-2.46.081l-.252.125-.391-.392.125-.252c.381-.77.411-1.665.081-2.459-.332-.795-.991-1.405-1.81-1.676l-.253-.083v-.564l.254-.084c.818-.27 1.478-.88 1.809-1.675.331-.793.302-1.689-.081-2.46l-.125-.251.391-.392.251.125c.771.383 1.668.414 2.46.082.795-.333 1.406-.992 1.675-1.809l.083-.254h.565l.083.254c.269.817.879 1.477 1.674 1.809s1.691.302 2.46-.081l.252-.125.391.392-.124.251c-.382.77-.411 1.666-.081 2.459.332.795.991 1.405 1.81 1.676l.253.083v.564l-.254.084c-.818.27-1.478.88-1.81 1.675-.33.794-.3 1.689.082 2.46l.125.251-.391.392-.251-.125c-.771-.383-1.668-.414-2.461-.081-.795.332-1.405.991-1.674 1.809l-.082.251c-.184 0-.383 0-.568 0l-.083-.251c-.268-.818-.879-1.477-1.673-1.809zm4.998 40.641c-1.167.7-1.958 1.964-1.958 3.421h2c0-1.103.897-2 2-2s2 .897 2 2-.897 2-2 2h-10c-1.103 0-2-.897-2-2s.897-2 2-2 2 .897 2 2h2c0-1.457-.791-2.721-1.958-3.421.207-1.454 1.448-2.579 2.958-2.579s2.751 1.125 2.958 2.579zm34.042-34.579v6h-30v-6zm-30 26v-18h30l.001 18zm36.968-36c.551 0 1 .448 1 1s-.449 1-1 1-1-.448-1-1 .449-1 1-1z"/><path d="m61.329 5.741 1.342-1.482c-4.781-4.328-12.561-4.328-17.342 0l1.342 1.482c4.042-3.658 10.616-3.658 14.658 0z"/><path d="m48.352 7.284 1.396 1.432c2.345-2.287 6.158-2.287 8.503 0l1.396-1.432c-3.113-3.039-8.181-3.039-11.295 0z"/><path d="m13 10c0-1.654-1.346-3-3-3s-3 1.346-3 3 1.346 3 3 3 3-1.346 3-3zm-4 0c0-.552.449-1 1-1s1 .448 1 1-.449 1-1 1-1-.448-1-1z"/><path d="m57 47v16h6v-16zm4 14h-2v-12h2z"/><path d="m49 63h6v-12h-6zm2-10h2v8h-2z"/><path d="m41 63h6v-8h-6zm2-6h2v4h-2z"/><path d="m19 45h12v-14h-12zm2-12h8v10h-8z"/><path d="m33 31h12v2h-12z"/><path d="m33 35h12v2h-12z"/><path d="m33 39h12v2h-12z"/><path d="m33 43h12v2h-12z"/></g></svg>