<svg xmlns="http://www.w3.org/2000/svg" width="69" height="64"><rect id="backgroundrect" width="100%" height="100%" x="0" y="0" fill="none" stroke="none"/><g class="currentLayer"><g id="svg_1"><g id="svg_2"><g id="svg_3"><path fill="#000" id="svg_4" d="M0 50.976h65.117v2.584H0z"/></g></g><g id="svg_5"><g id="svg_6"><g id="svg_7"><path fill="#000" d="M50.052 49.209H1.857V38.465h48.195V49.21zM3.157 47.907h45.585v-8.141H3.157v8.141z" id="svg_8"/></g></g><g id="svg_9"><g id="svg_10"><path fill="#000" d="M12.77 49.209H7.23V38.465h5.539V49.21h.001zm-4.239-1.302h2.93v-8.141H8.53v8.141z" id="svg_11"/></g></g><g id="svg_12"><g id="svg_13"><path fill="#000" d="M45.32 49.209h-5.53V38.465h5.53V49.21zm-4.223-1.302h2.923v-8.141h-2.923v8.141z" id="svg_14"/></g></g></g><g id="svg_15"><g id="svg_16"><g id="svg_17"><path fill="#000" d="M50.052 37.245H1.857v-10.74h48.195v10.74zM3.157 35.951h45.585v-8.143H3.157v8.143z" id="svg_18"/></g></g><g id="svg_19"><g id="svg_20"><path fill="#000" d="M12.77 37.245H7.23v-10.74h5.539v10.74h.001zm-4.239-1.294h2.93v-8.143H8.53v8.143z" id="svg_21"/></g></g><g id="svg_22"><g id="svg_23"><path fill="#000" d="M45.32 37.245h-5.53v-10.74h5.53v10.74zm-4.223-1.294h2.923v-8.143h-2.923v8.143z" id="svg_24"/></g></g></g><g id="svg_25"><g id="svg_26"><g id="svg_27"><path fill="#000" d="M50.052 25.29H1.857V14.548h48.195V25.29zM3.157 23.987h45.585v-8.14H3.157v8.14z" id="svg_28"/></g></g><g id="svg_29"><g id="svg_30"><path fill="#000" d="M12.77 25.29H7.23V14.548h5.539V25.29h.001zm-4.239-1.303h2.93v-8.14H8.53v8.14z" id="svg_31"/></g></g><g id="svg_32"><g id="svg_33"><path fill="#000" d="M45.32 25.29h-5.53V14.548h5.53V25.29zm-4.223-1.303h2.923v-8.14h-2.923v8.14z" id="svg_34"/></g></g></g><g id="svg_35"><g id="svg_36"><g id="svg_37"><path fill="#000" d="M58.35 49.346L46.448 2.656 56.86 0l11.9 46.698-10.412 2.648zM48.03 3.593l11.267 44.18 7.887-2.022L55.92 1.585l-7.89 2.008z" id="svg_38"/></g></g><g id="svg_39"><g id="svg_40"><path fill="#000" d="M49.142 13.224L47.78 7.86l10.402-2.655 1.37 5.363-10.41 2.656zm.22-4.426l.722 2.843 7.879-2.013-.71-2.84-7.89 2.01z" id="svg_41"/></g></g><g id="svg_42"><g id="svg_43"><path fill="#000" d="M57.188 44.78l-1.37-5.366 10.41-2.656 1.373 5.367-10.413 2.656zm.214-4.43l.728 2.838 7.888-2.007-.729-2.842-7.887 2.011z" id="svg_44"/></g></g></g></g></g></svg>
