<svg xmlns="http://www.w3.org/2000/svg" xmlns:xlink="http://www.w3.org/1999/xlink" version="1.1" enable-background="new 0 0 100 100" xml:space="preserve" width="69" height="54"><rect id="backgroundrect" width="100%" height="100%" x="0" y="0" fill="none" stroke="none" class=""/><g class="currentLayer"><title>Layer 1</title><g id="svg_1" class=""><g id="svg_2"><g id="svg_3"><rect x="0" y="50.97645443056136" fill="#000000" width="65.11652492838493" height="2.584485868990015" id="svg_4"/></g></g><g id="svg_5"><g id="svg_6"><g id="svg_7"><path fill="#000000" d="M50.05212253420607,49.20858012881041 H1.8566665896083447 V38.465241733512876 H50.05212253420607 V49.20858012881041 zM3.156551582088623,47.907239498040674 H48.74204807369963 V39.765854545137884 H3.156551582088623 V47.907239498040674 z" id="svg_8"/></g></g><g id="svg_9"><g id="svg_10"><path fill="#000000" d="M12.770314664771709,49.20858012881041 h-5.540159329652786 V38.465241733512876 h5.5387036913633345 v10.744066214442254 H12.770314664771709 zM8.531495965888652,47.907239498040674 h2.9287442383766176 V39.765854545137884 h-2.9287442383766176 V47.907239498040674 z" id="svg_11"/></g></g><g id="svg_12"><g id="svg_13"><path fill="#000000" d="M45.320570274343645,49.20858012881041 h-5.531425499916076 V38.465241733512876 h5.531425499916076 V49.20858012881041 zM41.097035777499826,47.907239498040674 h2.922921685218811 V39.765854545137884 h-2.922921685218811 V47.907239498040674 z" id="svg_14"/></g></g></g><g id="svg_15"><g id="svg_16"><g id="svg_17"><path fill="#000000" d="M50.05212253420607,37.24541684695244 H1.8566665896083447 V26.504989728233813 H50.05212253420607 V37.24541684695244 zM3.156551582088623,35.951354407629964 H48.74204807369963 V27.807785997292992 H3.156551582088623 V35.951354407629964 z" id="svg_18"/></g></g><g id="svg_19"><g id="svg_20"><path fill="#000000" d="M12.770314664771709,37.24541684695244 h-5.540159329652786 V26.504989728233813 h5.5387036913633345 v10.740427118718625 H12.770314664771709 zM8.531495965888652,35.951354407629964 h2.9287442383766176 V27.807785997292992 h-2.9287442383766176 V35.951354407629964 z" id="svg_21"/></g></g><g id="svg_22"><g id="svg_23"><path fill="#000000" d="M45.320570274343645,37.24541684695244 h-5.531425499916076 V26.504989728233813 h5.531425499916076 V37.24541684695244 zM41.097035777499826,35.951354407629964 h2.922921685218811 V27.807785997292992 h-2.922921685218811 V35.951354407629964 z" id="svg_24"/></g></g></g><g id="svg_25"><g id="svg_26"><g id="svg_27"><path fill="#000000" d="M50.05212253420607,25.28953175654173 H1.8566665896083447 V14.547648999533653 H50.05212253420607 V25.28953175654173 zM3.156551582088623,23.987463306627276 H48.74204807369963 V15.846806172869206 H3.156551582088623 V23.987463306627276 z" id="svg_28"/></g></g><g id="svg_29"><g id="svg_30"><path fill="#000000" d="M12.770314664771709,25.28953175654173 h-5.540159329652786 V14.547648999533653 h5.5387036913633345 v10.741882757008076 H12.770314664771709 zM8.531495965888652,23.987463306627276 h2.9287442383766176 V15.846806172869206 h-2.9287442383766176 V23.987463306627276 z" id="svg_31"/></g></g><g id="svg_32"><g id="svg_33"><path fill="#000000" d="M45.320570274343645,25.28953175654173 h-5.531425499916076 V14.547648999533653 h5.531425499916076 V25.28953175654173 zM41.097035777499826,23.987463306627276 h2.922921685218811 V15.846806172869206 h-2.922921685218811 V23.987463306627276 z" id="svg_34"/></g></g></g><g id="svg_35"><g id="svg_36"><g id="svg_37"><path fill="#000000" d="M58.34926078408018,49.346137947163584 L46.44868994866863,2.6550841747140885 l10.41218068444729,-2.655084239959717 l11.899843016266823,46.698331963896756 L58.34926078408018,49.346137947163584 zM48.03024095015779,3.593243052265645 l11.266640360355378,44.17934990400076 l7.88737607139349,-2.0211537649035454 L55.91907265984074,1.5851900319671637 L48.03024095015779,3.593243052265645 z" id="svg_38"/></g></g><g id="svg_39"><g id="svg_40"><path fill="#000000" d="M49.14162078415409,13.223745975277424 l-1.361749619781971,-5.364027096629143 l10.401991216421127,-2.655084239959717 l1.3704834495186806,5.363299277484416 L49.14162078415409,13.223745975277424 zM49.362877804150735,8.797877756199837 l0.7212687724232674,2.843589398443699 l7.87864224165678,-2.0138755734562874 l-0.7103514852523803,-2.839222483575344 L49.362877804150735,8.797877756199837 z" id="svg_41"/></g></g><g id="svg_42"><g id="svg_43"><path fill="#000000" d="M57.18766142909781,44.78052845229865 l-1.3704834495186806,-5.366938373208046 l10.410725046157838,-2.6558120591044427 l1.372666906952858,5.366938373208046 L57.18766142909781,44.78052845229865 zM57.401640257647195,40.3502933183527 l0.7285469638705253,2.8377668452858926 l7.88737607139349,-2.0065973820090295 l-0.7285469638705253,-2.8428615792989733 L57.401640257647195,40.3502933183527 z" id="svg_44"/></g></g></g></g></g></svg>