<svg width="80" height="80" xmlns="http://www.w3.org/2000/svg"><g id="Page-1" stroke="none" stroke-width="1" fill="none" fill-rule="evenodd"><g id="business-set1-04" fill="#CD2122"><path d="M71.712 32.555v18.6c0 3.479-2.131 6.333-4.81 6.535l-2.187 4.048a.497.497 0 01-.691.194l-7.467-4.346H42.446a.5.5 0 110-1h14.247c.088 0 .175.023.252.068l7.137 4.154 2.07-3.835a.458.458 0 01.12-.151l.002-.001a.496.496 0 01.32-.12h.003c2.27 0 4.115-2.488 4.115-5.547V32.555c0-3.058-1.845-5.547-4.115-5.547h-11.57a.5.5 0 110-1h11.57c2.82 0 5.115 2.937 5.115 6.547zM43.492 26.6H17.899a.5.5 0 100 1h25.595a.5.5 0 100-1zm0 8.36H17.899a.5.5 0 100 1h25.595a.5.5 0 100-1zm0 9.068H17.899a.5.5 0 100 1h25.595a.5.5 0 100-1zm3.65 11.063H26.2l-7.866 5.166a.5.5 0 01-.675-.12l-3.642-4.915c-3.183-.173-5.73-3.553-5.73-7.682V25.688c0-4.24 2.686-7.688 5.987-7.688H47.07c3.3 0 5.986 3.449 5.986 7.688V48.02c0 4.059-2.47 7.015-5.888 7.07a.513.513 0 01-.028.001zm-.071-1c2.89 0 4.986-2.553 4.986-6.071V25.688C52.057 22 49.82 19 47.071 19H14.274c-2.75 0-4.986 3-4.986 6.688V47.54c0 3.689 2.237 6.689 4.986 6.689h.006a.499.499 0 01.318.12h.001a.488.488 0 01.05.05.256.256 0 01.03.037l3.501 4.726 7.596-4.989a.497.497 0 01.274-.082h21.02z" id="Shape"/></g></g></svg>