<svg width="80" height="80" xmlns="http://www.w3.org/2000/svg"><g id="Page-1" stroke="none" stroke-width="1" fill="none" fill-rule="evenodd"><g id="business-set1-05" fill="#CD2122"><path d="M29.91 27.969c.004.005.005.011.009.016.17.207.151.51-.05.69a16.36 16.36 0 00-1.853 1.947 16.19 16.19 0 00-3.524 11.969 16.191 16.191 0 005.972 10.953 16.313 16.313 0 002.41 1.6l.989-2.306 1.585 3.966.008.022-3.987 1.594 1.009-2.352a17.182 17.182 0 01-8.98-13.37 17.188 17.188 0 013.74-12.704 17.294 17.294 0 011.966-2.066.498.498 0 01.705.04zm16.813 15.233c0 2.318-1.581 4.01-4.256 4.585v.895a.5.5 0 01-.5.5h-3.309a.5.5 0 01-.5-.5v-.809c-.963-.142-2.005-.4-3.24-.802a.5.5 0 01-.324-.618l.81-2.72a.498.498 0 01.61-.339c3.181.862 3.825.902 4.773.902 1.074 0 1.212-.508 1.212-.951 0-.338-.073-.616-.996-.867l-2.59-.695c-1.777-.482-3.816-1.403-3.816-4.265 0-2.157 1.539-3.806 4.048-4.377v-.899a.5.5 0 01.5-.5h3.307a.5.5 0 01.5.5v.774c.737.086 1.645.245 2.706.475a.5.5 0 01.38.608l-.672 2.74a.495.495 0 01-.589.37c-2.324-.493-3.315-.643-4.245-.643-1.258 0-1.258.7-1.258.931 0 .172 0 .46 1.043.744l2.59.695c2.567.678 3.816 2.074 3.816 4.266zm-4.838 3.678c1.154-.191 3.838-.931 3.838-3.678 0-1.72-.949-2.738-3.075-3.3l-2.592-.695c-.83-.228-1.782-.626-1.782-1.71 0-1.191.866-1.931 2.258-1.931.94 0 1.908.135 3.979.565l.432-1.768c-1.023-.21-1.873-.343-2.53-.396a.5.5 0 01-.46-.498v-.727h-2.308v.809a.5.5 0 01-.416.492c-2.24.39-3.632 1.72-3.632 3.475 0 1.774.862 2.699 3.077 3.3l2.59.694c.808.22 1.735.627 1.735 1.833 0 1.222-.827 1.951-2.212 1.951-1.062 0-1.808-.076-4.564-.81l-.53 1.781c1.152.354 2.121.568 3.022.67a.5.5 0 01.443.497v.748h2.309v-.809a.5.5 0 01.418-.493zm26.91-31.906v49.884a.5.5 0 01-.496.5l-26.272.168h-.003a.5.5 0 01-.5-.5v-6.913c-.282.014-.562.048-.846.048-.678 0-1.36-.054-2.04-.135v6.832a.5.5 0 01-.5.5H11.704a.5.5 0 01-.5-.5V15.144a.5.5 0 01.5-.5h26.434a.5.5 0 01.5.5v8.54a17.312 17.312 0 012.886-.095v-8.445a.5.5 0 01.497-.5l26.272-.17h.003a.5.5 0 01.5.5zm-1 .504l-25.27.163v8.025a17.298 17.298 0 019.04 3.73 17.297 17.297 0 015.285 7.248.5.5 0 01-.288.646c-.005.002-.01 0-.015.002a.5.5 0 01-.631-.29 16.298 16.298 0 00-4.979-6.828 16.326 16.326 0 00-15.9-2.594l1.09 2.289-4.032-1.431-.015-.005 1.435-4.048 1.09 2.289a17.272 17.272 0 013.033-.842v-8.188H12.204v48.714h25.434v-6.569a.49.49 0 01-.145-.426c0-.004.004-.007.005-.011a.5.5 0 01.568-.402 16.344 16.344 0 0015.32-5.853 16.334 16.334 0 003.6-9.923l-2.523.181 2.792-3.224.02-.022 3.247 2.81-2.534.183a17.334 17.334 0 01-3.823 10.623 17.344 17.344 0 01-11.64 6.332v6.465l25.27-.16V15.477z" id="Shape"/></g></g></svg>