<svg width="80" height="80" xmlns="http://www.w3.org/2000/svg"><g id="Page-1" stroke="none" stroke-width="1" fill="none" fill-rule="evenodd"><g id="business-set1-03" fill="#CD2122"><path d="M34.488 51.647h-4.416c.276-.745.467-1.52.57-2.317l2.563-.049-3.094-2.978-.012.012-2.967 3.081 2.494-.047a9.601 9.601 0 01-2.017 4.674 9.674 9.674 0 01-9.07 3.465.5.5 0 00-.565.394l-.106-.026v6.781a.5.5 0 00.5.5h16.12a.5.5 0 00.5-.5v-12.49a.5.5 0 00-.5-.5zm-.5 12.49h-15.12v-5.603c.406.047.812.079 1.217.079 3.191 0 6.265-1.438 8.302-3.962.5-.62.9-1.3 1.247-2.004h4.354v11.49zm18.467-24.976h-.003l-16.02.099a.5.5 0 00-.498.5v24.975a.498.498 0 00.5.5h.003l16.02-.098a.5.5 0 00.498-.5V39.661a.498.498 0 00-.5-.5zm-.5 24.979l-15.02.092V40.257l15.02-.093V64.14zm18.09-36.571H54.362a.5.5 0 00-.5.5v36.568a.5.5 0 00.5.5h15.683a.5.5 0 00.5-.5V28.07a.5.5 0 00-.5-.5zm-.5 36.568H54.862V28.57h14.683v35.568zM18.858 40.898L14.9 39.253l-.008-.003 1.648-3.966.976 2.365a10.656 10.656 0 016.961.618L35.9 25.428a.5.5 0 01.787.05l7.29 10.683 14.985-18.994-1.174-.926 3.705-1.476-.573 3.947-1.173-.926L44.34 37.315a.467.467 0 01-.41.19.5.5 0 01-.395-.218l-7.313-10.716-10.83 12.173c.484.277.955.578 1.395.933a10.643 10.643 0 013.252 4.462.5.5 0 01-.288.646c-.005.001-.009 0-.013.002a.5.5 0 01-.633-.29 9.644 9.644 0 00-2.946-4.042 9.66 9.66 0 00-8.256-1.87l.955 2.313zm-3.289 12.637l1.359 4.06.004.013-4.073 1.364 1.143-2.292c-.198-.14-.398-.275-.59-.43-4.57-3.687-5.286-10.404-1.599-14.973.365-.454.773-.883 1.21-1.273a.5.5 0 01.706.041c.005.005.006.012.01.017.17.206.151.51-.05.69a9.597 9.597 0 00-1.098 1.152 9.586 9.586 0 00-2.086 7.085 9.586 9.586 0 003.536 6.484c.134.108.275.2.413.3l1.115-2.238zm5.507-4.164c0-.412-.252-.602-.743-.735l-1.412-.38c-1.108-.3-1.877-.802-1.877-2.06 0-1.16.92-1.94 2.205-2.162v-.713h1.802v.668c.416.033.97.123 1.688.279l-.366 1.493c-1.259-.268-1.826-.357-2.368-.357-.58 0-.957.256-.957.78 0 .334.24.524.768.669l1.412.378c1.096.29 1.876.848 1.876 2.062 0 1.292-.97 2.05-2.318 2.273v.713h-1.801v-.68c-.492-.055-1.096-.178-1.953-.456l.44-1.482c1.727.468 2.105.501 2.672.501.63 0 .932-.3.932-.791z" id="Shape"/></g></g></svg>