<svg width="80" height="75" xmlns="http://www.w3.org/2000/svg"><g id="Page-1" stroke="none" stroke-width="1" fill="none" fill-rule="evenodd"><g id="business-set1-02" fill="#444444"><path d="M29.412 40.563l26.266-4.557a.5.5 0 10-.172-.986L29.24 39.578a.5.5 0 10.172.985zm2.773 15.989l26.268-4.558a.498.498 0 00.406-.578l-1.784-10.278a.497.497 0 00-.578-.408L30.23 45.288a.5.5 0 00-.406.578l1.783 10.278a.497.497 0 00.578.408zm23.99-14.75l1.614 9.292-25.283 4.387-1.612-9.293L56.175 41.8zM49.316 53.58a.5.5 0 00.406-.579l-1.585-9.136a.5.5 0 10-.984.171l1.585 9.136a.5.5 0 00.578.408zM34.003 34.497a6.897 6.897 0 004.473-2.819 6.795 6.795 0 001.17-5.135c-.572-3.296-3.432-5.689-6.799-5.689-.397 0-.8.035-1.195.103a6.895 6.895 0 00-4.472 2.82 6.797 6.797 0 00-1.17 5.133c.573 3.297 3.432 5.69 6.798 5.69.398 0 .799-.034 1.195-.103zm4.658-7.783a5.805 5.805 0 01-1 4.385 5.9 5.9 0 01-3.83 2.413 6 6 0 01-1.023.089c-2.879 0-5.324-2.045-5.813-4.862a5.807 5.807 0 011-4.383 5.903 5.903 0 013.829-2.413 6.01 6.01 0 011.023-.089c2.88 0 5.324 2.044 5.814 4.86zm7.089 6.309l9.135-1.586a.5.5 0 10-.172-.985l-9.135 1.586a.5.5 0 10.172.985zm-.992-5.71l9.137-1.586a.5.5 0 10-.172-.985l-9.137 1.585a.5.5 0 10.172.985zm-.99-5.71l9.136-1.586a.5.5 0 10-.172-.985l-9.137 1.585a.5.5 0 10.172.985zm-10.628 6.55l5.71-.991a.5.5 0 10-.172-.986l-5.217.905-.906-5.217a.5.5 0 10-.984.17l.991 5.711a.5.5 0 00.578.407zm-5.674 35.1l36.545-6.341a.5.5 0 00.407-.579l-7.729-44.54a.497.497 0 00-.578-.406l-36.545 6.341a.5.5 0 00-.406.578l7.728 44.54a.497.497 0 00.578.407zM55.79 12.457l7.557 43.555-35.56 6.17-7.557-43.554 35.56-6.17zm-32.1 56.157l35.403-6.143a.498.498 0 00.406-.578l-.594-3.427a.499.499 0 10-.985.171l.51 2.934-34.419 5.972-7.36-42.412 2.934-.509a.5.5 0 10-.171-.985l-3.426.594a.497.497 0 00-.406.578l7.53 43.397a.5.5 0 00.578.408z" id="Shape"/></g></g></svg>
