<svg width="90" height="90" xmlns="http://www.w3.org/2000/svg"><g id="Page-1" stroke="none" stroke-width="1" fill="none" fill-rule="evenodd"><g id="callout2" fill="#FFF"><path d="M33.712 76.088c-1.393 0-2.743-.644-4.015-1.914L6.795 51.27c-2.55-2.55-2.55-5.477 0-8.028l6.058-6.055c2.538-2.54 5.487-2.542 8.029 0l13.084 13.037 35.166-34.421c2.516-2.517 5.475-2.529 8.018.012l6.057 6.055c2.547 2.551 2.547 5.477 0 8.029L37.712 74.188c-1.255 1.257-2.606 1.9-4 1.9zM16.865 38.34c-.55 0-1.17.342-1.843 1.016l-6.058 6.055c-1.36 1.362-1.36 2.327 0 3.689l22.903 22.903c1.349 1.348 2.342 1.348 3.69 0L81.05 27.715c1.346-1.347 1.346-2.313-.015-3.675l-6.056-6.054c-1.347-1.348-2.343-1.35-3.689-.001L35.03 53.479c-.6.585-1.561.583-2.157-.01l-14.16-14.108c-.677-.678-1.297-1.02-1.848-1.02z" id="Shape"/></g></g></svg>