<svg id="Layer_5" enable-background="new 0 0 64 64" height="512" viewBox="0 0 64 64" width="512" xmlns="http://www.w3.org/2000/svg"><g><path d="m38 23c-1.654 0-3 1.346-3 3s1.346 3 3 3 3-1.346 3-3-1.346-3-3-3zm0 4c-.552 0-1-.449-1-1s.448-1 1-1 1 .449 1 1-.448 1-1 1z"/><path d="m26 35c-1.654 0-3 1.346-3 3s1.346 3 3 3 3-1.346 3-3-1.346-3-3-3zm0 4c-.552 0-1-.449-1-1s.448-1 1-1 1 .449 1 1-.448 1-1 1z"/><path d="m20 53c-1.654 0-3 1.346-3 3s1.346 3 3 3 3-1.346 3-3-1.346-3-3-3zm0 4c-.552 0-1-.449-1-1s.448-1 1-1 1 .449 1 1-.448 1-1 1z"/><path d="m28 53c-1.654 0-3 1.346-3 3s1.346 3 3 3 3-1.346 3-3-1.346-3-3-3zm0 4c-.552 0-1-.449-1-1s.448-1 1-1 1 .449 1 1-.448 1-1 1z"/><path d="m37 37h-6v2h8v-8h-2z"/><path d="m27 27h6v-2h-8v8h2z"/><path d="m33 45v4h2v-4h2v4h2v-4h2v4h2v-4c1.103 0 2-.897 2-2h4v-2h-4v-2h4v-2h-4v-2h4v-2h-4v-2h4v-2h-4v-2h4v-2h-4v-2h4v-2h-4c0-1.103-.897-2-2-2v-4h-2v4h-2v-4h-2v4h-2v-4h-2v4h-2v-4h-2v4h-2v-4h-2v4h-2v-4h-2v4c-1.103 0-2 .897-2 2h-4v2h4v2h-4v2h4v2h-4v2h4v2h-4v2h4v2h-4v2h4v2h-4v2h4c0 1.103.897 2 2 2v4h2v-4h2v4h2v-4h2v4h2v-4zm-12-24h22l.001 22h-22.001z"/><path d="m5 55h2v2h-2z"/><path d="m9 55h2v2h-2z"/><path d="m51 5h2v2h-2z"/><path d="m55 5h2v2h-2z"/><path d="m45 7h2v4h14v-10h-14v4h-2v-4h-14v10h14zm4-4h10v6h-10zm-6 6h-10v-6h10z"/><path d="m35 5h2v2h-2z"/><path d="m39 5h2v2h-2z"/><path d="m13 49h-2v2h-2v-2h-2v2h-2v-2h-2v2h-2v10h2v2h2v-2h2v2h2v-2h2v2h2v-2h2v-10h-2zm0 10h-10v-6h10z"/><path d="m60 57c-1.654 0-3 1.346-3 3s1.346 3 3 3 3-1.346 3-3-1.346-3-3-3zm0 4c-.552 0-1-.449-1-1s.448-1 1-1 1 .449 1 1-.448 1-1 1z"/><path d="m41 59h14v2h-14z"/><path d="m59 33v22h2v-24h-4.184c-.414-1.161-1.514-2-2.816-2-1.654 0-3 1.346-3 3s1.346 3 3 3c1.302 0 2.402-.839 2.816-2zm-5 0c-.552 0-1-.449-1-1s.448-1 1-1 1 .449 1 1-.448 1-1 1z"/><path d="m53 55h-20v2h22v-20h-2z"/><path d="m53 13h2v14h-2z"/><path d="m57 26c0 1.654 1.346 3 3 3s3-1.346 3-3-1.346-3-3-3-3 1.346-3 3zm4 0c0 .551-.448 1-1 1s-1-.449-1-1 .448-1 1-1 1 .449 1 1z"/><path d="m59 13h2v8h-2z"/><path d="m4 47c1.654 0 3-1.346 3-3s-1.346-3-3-3-3 1.346-3 3 1.346 3 3 3zm0-4c.552 0 1 .449 1 1s-.448 1-1 1-1-.449-1-1 .448-1 1-1z"/><path d="m11 21h-2v3h-6v15h2v-13h6z"/><path d="m7 31c0 1.654 1.346 3 3 3s3-1.346 3-3-1.346-3-3-3-3 1.346-3 3zm4 0c0 .551-.448 1-1 1s-1-.449-1-1 .448-1 1-1 1 .449 1 1z"/><path d="m9 36h2v10h-2z"/><path d="m4 7c1.654 0 3-1.346 3-3s-1.346-3-3-3-3 1.346-3 3 1.346 3 3 3zm0-4c.552 0 1 .449 1 1s-.448 1-1 1-1-.449-1-1 .448-1 1-1z"/><path d="m26 9c1.654 0 3-1.346 3-3s-1.346-3-3-3-3 1.346-3 3 1.346 3 3 3zm0-4c.552 0 1 .449 1 1s-.448 1-1 1-1-.449-1-1 .448-1 1-1z"/><path d="m15 14h4v-7h2v-2h-4v7h-4v7h2z"/><path d="m5 8h-2v8h6v3h2v-5h-6z"/></g></svg>