<?xml version="1.0" encoding="UTF-8" standalone="no"?>
<svg
   xmlns:dc="http://purl.org/dc/elements/1.1/"
   xmlns:cc="http://creativecommons.org/ns#"
   xmlns:rdf="http://www.w3.org/1999/02/22-rdf-syntax-ns#"
   xmlns:svg="http://www.w3.org/2000/svg"
   xmlns="http://www.w3.org/2000/svg"
   xmlns:sodipodi="http://sodipodi.sourceforge.net/DTD/sodipodi-0.dtd"
   xmlns:inkscape="http://www.inkscape.org/namespaces/inkscape"
   version="1.1"
   id="svg867"
   xml:space="preserve"
   width="1587.4"
   height="1122.52"
   viewBox="0 0 1587.4 1122.52"
   sodipodi:docname="echothrust_white_horizontal_sm.svg"
   inkscape:version="1.0.1 (3bc2e813f5, 2020-09-07)"><metadata
     id="metadata873"><rdf:RDF><cc:Work
         rdf:about=""><dc:format>image/svg+xml</dc:format><dc:type
           rdf:resource="http://purl.org/dc/dcmitype/StillImage" /><dc:title></dc:title></cc:Work></rdf:RDF></metadata><defs
     id="defs871"><clipPath
       clipPathUnits="userSpaceOnUse"
       id="clipPath883"><path
         d="M 0,841.89 H 1190.551 V 0 H 0 Z"
         id="path881" /></clipPath><clipPath
       clipPathUnits="userSpaceOnUse"
       id="clipPath891"><path
         d="M 385.443,359.135 H 750.289 V 293.947 H 385.443 Z"
         id="path889" /></clipPath><clipPath
       clipPathUnits="userSpaceOnUse"
       id="clipPath895"><path
         d="m 750.284,333.662 c 0.687,-17.562 -80.43,-34.987 -181.177,-38.921 -100.747,-3.932 -182.974,7.117 -183.66,24.679 -0.685,17.563 80.43,34.988 181.178,38.921 100.747,3.933 182.974,-7.116 183.659,-24.679"
         id="path893" /></clipPath><clipPath
       clipPathUnits="userSpaceOnUse"
       id="clipPath899"><path
         d="M -32768,32767 H 32767 V -32768 H -32768 Z"
         id="path897" /></clipPath><radialGradient
       fx="0"
       fy="0"
       cx="0"
       cy="0"
       r="1"
       gradientUnits="userSpaceOnUse"
       gradientTransform="matrix(182.41873,7.1211324,1.2413678,-31.799541,567.86591,326.54129)"
       spreadMethod="pad"
       id="radialGradient905"><stop
         style="stop-opacity:1;stop-color:#ffffff"
         offset="0"
         id="stop901" /><stop
         style="stop-opacity:0;stop-color:#ffffff"
         offset="1"
         id="stop903" /></radialGradient><mask
       maskUnits="userSpaceOnUse"
       x="0"
       y="0"
       width="1"
       height="1"
       id="mask907"><g
         id="g917"><g
           clip-path="url(#clipPath899)"
           id="g915"><g
             id="g913"><g
               id="g911"><path
                 d="M -32768,32767 H 32767 V -32768 H -32768 Z"
                 style="fill:url(#radialGradient905);stroke:none"
                 id="path909" /></g></g></g></g></mask><radialGradient
       fx="0"
       fy="0"
       cx="0"
       cy="0"
       r="1"
       gradientUnits="userSpaceOnUse"
       gradientTransform="matrix(182.41873,7.1211324,1.2413678,-31.799541,567.86591,326.54129)"
       spreadMethod="pad"
       id="radialGradient923"><stop
         style="stop-opacity:1;stop-color:#335e62"
         offset="0"
         id="stop919" /><stop
         style="stop-opacity:1;stop-color:#ffffff"
         offset="1"
         id="stop921" /></radialGradient><clipPath
       clipPathUnits="userSpaceOnUse"
       id="clipPath949"><path
         d="M 505.155,335.634 H 659.496 V 308.058 H 505.155 Z"
         id="path947" /></clipPath><clipPath
       clipPathUnits="userSpaceOnUse"
       id="clipPath953"><path
         d="m 659.494,324.859 c 0.29,-7.43 -34.024,-14.801 -76.644,-16.465 -42.619,-1.663 -77.404,3.01 -77.694,10.44 -0.29,7.429 34.025,14.801 76.644,16.464 42.619,1.664 77.404,-3.01 77.694,-10.439"
         id="path951" /></clipPath><clipPath
       clipPathUnits="userSpaceOnUse"
       id="clipPath957"><path
         d="M -32768,32767 H 32767 V -32768 H -32768 Z"
         id="path955" /></clipPath><radialGradient
       fx="0"
       fy="0"
       cx="0"
       cy="0"
       r="1"
       gradientUnits="userSpaceOnUse"
       gradientTransform="matrix(77.168739,3.0124581,0.5251368,-13.452185,582.32513,321.84616)"
       spreadMethod="pad"
       id="radialGradient963"><stop
         style="stop-opacity:1;stop-color:#ffffff"
         offset="0"
         id="stop959" /><stop
         style="stop-opacity:0;stop-color:#ffffff"
         offset="1"
         id="stop961" /></radialGradient><mask
       maskUnits="userSpaceOnUse"
       x="0"
       y="0"
       width="1"
       height="1"
       id="mask965"><g
         id="g975"><g
           clip-path="url(#clipPath957)"
           id="g973"><g
             id="g971"><g
               id="g969"><path
                 d="M -32768,32767 H 32767 V -32768 H -32768 Z"
                 style="fill:url(#radialGradient963);stroke:none"
                 id="path967" /></g></g></g></g></mask><radialGradient
       fx="0"
       fy="0"
       cx="0"
       cy="0"
       r="1"
       gradientUnits="userSpaceOnUse"
       gradientTransform="matrix(77.168739,3.0124581,0.5251368,-13.452185,582.32513,321.84616)"
       spreadMethod="pad"
       id="radialGradient981"><stop
         style="stop-opacity:1;stop-color:#335e62"
         offset="0"
         id="stop977" /><stop
         style="stop-opacity:1;stop-color:#ffffff"
         offset="1"
         id="stop979" /></radialGradient><clipPath
       clipPathUnits="userSpaceOnUse"
       id="clipPath1019"><path
         d="m 663.988,647.474 c -9.352,-4.277 -18.878,-7.816 -28.516,-10.749 v 0 c -29.118,-18.402 -40.82,-55.88 -26.062,-88.139 v 0 c 14.881,-32.529 51.421,-48.267 84.661,-37.814 v 0 c 2.764,0.774 5.537,1.878 8.247,3.118 v 0 l 127.408,58.285 c 6.639,3.037 10.536,9.572 10.37,16.381 v 0 c 0.023,0.667 -0.089,1.271 -0.263,2.01 v 0 c -0.125,0.271 -0.113,0.605 -0.163,1.073 v 0 c -0.124,0.271 -0.112,0.605 -0.299,1.011 v 0 c -0.062,0.136 -0.124,0.272 -0.05,0.469 v 0 c -3.386,17.792 -8.907,35.59 -16.843,52.939 v 0 c -0.682,1.491 -1.302,2.846 -2.12,4.275 v 0 c -10.266,21.365 -23.475,40.564 -38.909,57.106 v 0 c -7.012,7.446 -14.306,14.435 -22.156,20.842 v 0 c -22.921,-34.088 -55.319,-62.513 -95.305,-80.807"
         id="path1017" /></clipPath><linearGradient
       x1="0"
       y1="0"
       x2="1"
       y2="0"
       gradientUnits="userSpaceOnUse"
       gradientTransform="matrix(213.06772,97.471947,97.471947,-213.06772,602.99249,562.61493)"
       spreadMethod="pad"
       id="linearGradient1031"><stop
         style="stop-opacity:1;stop-color:#94c11f"
         offset="0"
         id="stop1025" /><stop
         style="stop-opacity:1;stop-color:#dedc00"
         offset="0.997296"
         id="stop1027" /><stop
         style="stop-opacity:1;stop-color:#dedc00"
         offset="1"
         id="stop1029" /></linearGradient><clipPath
       clipPathUnits="userSpaceOnUse"
       id="clipPath1041"><path
         d="M 0,841.89 H 1190.551 V 0 H 0 Z"
         id="path1039" /></clipPath><clipPath
       clipPathUnits="userSpaceOnUse"
       id="clipPath1049"><path
         d="M 603.026,728.281 H 840.101 V 507.564 H 603.026 Z"
         id="path1047" /></clipPath><clipPath
       clipPathUnits="userSpaceOnUse"
       id="clipPath1053"><path
         d="m 822.478,646.058 c 7.936,-17.348 13.458,-35.147 16.843,-52.939 -0.074,-0.197 -0.011,-0.333 0.05,-0.469 0.187,-0.406 0.175,-0.74 0.299,-1.011 0.05,-0.468 0.038,-0.801 0.163,-1.073 0.174,-0.739 0.286,-1.343 0.263,-2.01 0.166,-6.808 -3.732,-13.344 -10.369,-16.381 L 702.317,513.89 c -2.71,-1.24 -5.482,-2.344 -8.246,-3.117 -33.24,-10.454 -69.78,5.284 -84.661,37.813 -14.757,32.258 -3.056,69.737 26.062,88.139 9.638,2.933 19.164,6.472 28.515,10.75 39.987,18.293 72.385,46.718 95.306,80.806 7.85,-6.407 15.144,-13.396 22.156,-20.842 15.435,-16.542 28.643,-35.741 38.909,-57.106 0.818,-1.428 1.438,-2.784 2.12,-4.275"
         id="path1051" /></clipPath><clipPath
       clipPathUnits="userSpaceOnUse"
       id="clipPath1057"><path
         d="M -32768,32767 H 32767 V -32768 H -32768 Z"
         id="path1055" /></clipPath><radialGradient
       fx="0"
       fy="0"
       cx="0"
       cy="0"
       r="1"
       gradientUnits="userSpaceOnUse"
       gradientTransform="matrix(-78.9216,-68.069878,-68.069878,78.9216,709.02881,578.0119)"
       spreadMethod="pad"
       id="radialGradient1065"><stop
         style="stop-opacity:1;stop-color:#ffffff"
         offset="0"
         id="stop1059" /><stop
         style="stop-opacity:0;stop-color:#ffffff"
         offset="0.997296"
         id="stop1061" /><stop
         style="stop-opacity:0;stop-color:#ffffff"
         offset="1"
         id="stop1063" /></radialGradient><mask
       maskUnits="userSpaceOnUse"
       x="0"
       y="0"
       width="1"
       height="1"
       id="mask1067"><g
         id="g1077"><g
           clip-path="url(#clipPath1057)"
           id="g1075"><g
             id="g1073"><g
               id="g1071"><path
                 d="M -32768,32767 H 32767 V -32768 H -32768 Z"
                 style="fill:url(#radialGradient1065);stroke:none"
                 id="path1069" /></g></g></g></g></mask><radialGradient
       fx="0"
       fy="0"
       cx="0"
       cy="0"
       r="1"
       gradientUnits="userSpaceOnUse"
       gradientTransform="matrix(-78.9216,-68.069878,-68.069878,78.9216,709.02881,578.0119)"
       spreadMethod="pad"
       id="radialGradient1085"><stop
         style="stop-opacity:1;stop-color:#ffffff"
         offset="0"
         id="stop1079" /><stop
         style="stop-opacity:1;stop-color:#ffffff"
         offset="0.997296"
         id="stop1081" /><stop
         style="stop-opacity:1;stop-color:#ffffff"
         offset="1"
         id="stop1083" /></radialGradient><clipPath
       clipPathUnits="userSpaceOnUse"
       id="clipPath1111"><path
         d="M 402.576,453.966 C 455.653,337.945 592.551,286.985 708.574,340.061 v 0 c 21.009,9.612 34.925,28.271 39.317,49.13 v 0 c 3.026,14.167 1.691,29.62 -4.82,43.852 v 0 c -15.749,34.427 -55.89,50.156 -90.739,35.689 v 0 l -0.679,-0.311 c -0.477,-0.381 -0.885,-0.568 -1.426,-0.816 v 0 l -0.272,-0.124 -1.218,-0.557 c -22.23,-10.17 -45.258,-16.443 -68.367,-19.312 v 0 c -73.141,-8.874 -146.638,18.149 -196.728,72.106 v 0 c 2.966,-22.247 9.138,-44.336 18.934,-65.752"
         id="path1109" /></clipPath><linearGradient
       x1="0"
       y1="0"
       x2="1"
       y2="0"
       gradientUnits="userSpaceOnUse"
       gradientTransform="matrix(273.6535,125.18808,125.18808,-273.6535,436.52448,379.75861)"
       spreadMethod="pad"
       id="linearGradient1123"><stop
         style="stop-opacity:1;stop-color:#94c11f"
         offset="0"
         id="stop1117" /><stop
         style="stop-opacity:1;stop-color:#dedc00"
         offset="0.997296"
         id="stop1119" /><stop
         style="stop-opacity:1;stop-color:#dedc00"
         offset="1"
         id="stop1121" /></linearGradient><clipPath
       clipPathUnits="userSpaceOnUse"
       id="clipPath1133"><path
         d="M 402.576,453.966 C 455.653,337.945 592.551,286.985 708.574,340.061 v 0 c 21.009,9.612 34.925,28.271 39.317,49.13 v 0 c 3.026,14.167 1.691,29.62 -4.82,43.852 v 0 c -15.749,34.427 -55.89,50.156 -90.739,35.689 v 0 l -0.679,-0.311 c -0.477,-0.381 -0.885,-0.568 -1.426,-0.816 v 0 l -0.272,-0.124 -1.218,-0.557 c -22.23,-10.17 -45.258,-16.443 -68.367,-19.312 v 0 c -73.141,-8.874 -146.638,18.149 -196.728,72.106 v 0 c 2.966,-22.247 9.138,-44.336 18.934,-65.752"
         id="path1131" /></clipPath><clipPath
       clipPathUnits="userSpaceOnUse"
       id="clipPath1141"><path
         d="M -32768,32767 H 32767 V -32768 H -32768 Z"
         id="path1139" /></clipPath><linearGradient
       x1="0"
       y1="0"
       x2="1"
       y2="0"
       gradientUnits="userSpaceOnUse"
       gradientTransform="matrix(238.73785,-1.97304,-1.97304,-238.73785,391.49243,420.26324)"
       spreadMethod="pad"
       id="linearGradient1149"><stop
         style="stop-opacity:1;stop-color:#ffffff"
         offset="0"
         id="stop1143" /><stop
         style="stop-opacity:0;stop-color:#ffffff"
         offset="0.994591"
         id="stop1145" /><stop
         style="stop-opacity:0;stop-color:#ffffff"
         offset="1"
         id="stop1147" /></linearGradient><mask
       maskUnits="userSpaceOnUse"
       x="0"
       y="0"
       width="1"
       height="1"
       id="mask1151"><g
         id="g1161"><g
           clip-path="url(#clipPath1141)"
           id="g1159"><g
             id="g1157"><g
               id="g1155"><path
                 d="M -32768,32767 H 32767 V -32768 H -32768 Z"
                 style="fill:url(#linearGradient1149);stroke:none"
                 id="path1153" /></g></g></g></g></mask><linearGradient
       x1="0"
       y1="0"
       x2="1"
       y2="0"
       gradientUnits="userSpaceOnUse"
       gradientTransform="matrix(238.73785,-1.97304,-1.97304,-238.73785,391.49243,420.26324)"
       spreadMethod="pad"
       id="linearGradient1173"><stop
         style="stop-opacity:1;stop-color:#4a650e"
         offset="0"
         id="stop1167" /><stop
         style="stop-opacity:1;stop-color:#dedc00"
         offset="0.994591"
         id="stop1169" /><stop
         style="stop-opacity:1;stop-color:#dedc00"
         offset="1"
         id="stop1171" /></linearGradient><clipPath
       clipPathUnits="userSpaceOnUse"
       id="clipPath1183"><path
         d="M 0,841.89 H 1190.551 V 0 H 0 Z"
         id="path1181" /></clipPath><clipPath
       clipPathUnits="userSpaceOnUse"
       id="clipPath1191"><path
         d="M 383.642,519.718 H 749.433 V 319.054 H 383.642 Z"
         id="path1189" /></clipPath><clipPath
       clipPathUnits="userSpaceOnUse"
       id="clipPath1195"><path
         d="m 743.071,433.043 c 6.511,-14.231 7.846,-29.684 4.82,-43.852 -4.392,-20.859 -18.308,-39.518 -39.318,-49.129 -116.022,-53.078 -252.92,-2.118 -305.996,113.904 -9.797,21.415 -15.969,43.506 -18.935,65.751 50.089,-53.957 123.587,-80.979 196.727,-72.105 23.11,2.869 46.138,9.142 68.368,19.311 l 1.218,0.558 0.272,0.124 c 0.542,0.248 0.949,0.434 1.426,0.817 l 0.679,0.31 c 34.85,14.467 74.99,-1.262 90.739,-35.689"
         id="path1193" /></clipPath><clipPath
       clipPathUnits="userSpaceOnUse"
       id="clipPath1199"><path
         d="M -32768,32767 H 32767 V -32768 H -32768 Z"
         id="path1197" /></clipPath><radialGradient
       fx="0"
       fy="0"
       cx="0"
       cy="0"
       r="1"
       gradientUnits="userSpaceOnUse"
       gradientTransform="matrix(147.50804,0,0,-147.50804,566.5376,419.38599)"
       spreadMethod="pad"
       id="radialGradient1207"><stop
         style="stop-opacity:1;stop-color:#ffffff"
         offset="0"
         id="stop1201" /><stop
         style="stop-opacity:0;stop-color:#ffffff"
         offset="0.997296"
         id="stop1203" /><stop
         style="stop-opacity:0;stop-color:#ffffff"
         offset="1"
         id="stop1205" /></radialGradient><mask
       maskUnits="userSpaceOnUse"
       x="0"
       y="0"
       width="1"
       height="1"
       id="mask1209"><g
         id="g1219"><g
           clip-path="url(#clipPath1199)"
           id="g1217"><g
             id="g1215"><g
               id="g1213"><path
                 d="M -32768,32767 H 32767 V -32768 H -32768 Z"
                 style="fill:url(#radialGradient1207);stroke:none"
                 id="path1211" /></g></g></g></g></mask><radialGradient
       fx="0"
       fy="0"
       cx="0"
       cy="0"
       r="1"
       gradientUnits="userSpaceOnUse"
       gradientTransform="matrix(147.50804,0,0,-147.50804,566.5376,419.38599)"
       spreadMethod="pad"
       id="radialGradient1227"><stop
         style="stop-opacity:1;stop-color:#ffffff"
         offset="0"
         id="stop1221" /><stop
         style="stop-opacity:1;stop-color:#ffffff"
         offset="0.997296"
         id="stop1223" /><stop
         style="stop-opacity:1;stop-color:#ffffff"
         offset="1"
         id="stop1225" /></radialGradient><clipPath
       clipPathUnits="userSpaceOnUse"
       id="clipPath1253"><path
         d="m 562.837,775.433 c -34.95,-38.608 -55.606,-88.05 -59.192,-139.681 v 0 c -2.488,-37.198 3.857,-75.436 20.475,-111.76 v 0 c 1.797,-3.931 3.941,-7.54 5.812,-11.273 v 0 c -18.702,41.599 -3.424,89.893 34.215,113.667 v 0 c 3.412,2.217 6.948,4.162 10.743,5.899 v 0 c 20.059,9.176 41.645,10.364 61.331,4.947 v 0 c -0.272,-0.125 -0.478,-0.383 -0.749,-0.507 v 0 c 9.638,2.933 19.164,6.472 28.516,10.749 v 0 c 39.986,18.294 72.384,46.719 95.305,80.807 v 0 c -41.292,33.853 -93.392,52.609 -146.871,52.609 v 0 c -16.489,-10e-4 -33.111,-1.784 -49.585,-5.457"
         id="path1251" /></clipPath><linearGradient
       x1="0"
       y1="0"
       x2="1"
       y2="0"
       gradientUnits="userSpaceOnUse"
       gradientTransform="matrix(271.75739,124.32066,124.32066,-271.75739,482.54453,614.87122)"
       spreadMethod="pad"
       id="linearGradient1265"><stop
         style="stop-opacity:1;stop-color:#678816"
         offset="0"
         id="stop1259" /><stop
         style="stop-opacity:1;stop-color:#dedc00"
         offset="0.997296"
         id="stop1261" /><stop
         style="stop-opacity:1;stop-color:#dedc00"
         offset="1"
         id="stop1263" /></linearGradient><clipPath
       clipPathUnits="userSpaceOnUse"
       id="clipPath1275"><path
         d="m 562.837,775.433 c -34.95,-38.608 -55.606,-88.05 -59.192,-139.681 v 0 c -2.488,-37.198 3.857,-75.436 20.475,-111.76 v 0 c 1.797,-3.931 3.941,-7.54 5.812,-11.273 v 0 c -18.702,41.599 -3.424,89.893 34.215,113.667 v 0 c 3.412,2.217 6.948,4.162 10.743,5.899 v 0 c 20.059,9.176 41.645,10.364 61.331,4.947 v 0 c -0.272,-0.125 -0.478,-0.383 -0.749,-0.507 v 0 c 9.638,2.933 19.164,6.472 28.516,10.749 v 0 c 39.986,18.294 72.384,46.719 95.305,80.807 v 0 c -41.292,33.853 -93.392,52.609 -146.871,52.609 v 0 c -16.489,-10e-4 -33.111,-1.784 -49.585,-5.457"
         id="path1273" /></clipPath><clipPath
       clipPathUnits="userSpaceOnUse"
       id="clipPath1283"><path
         d="M -32768,32767 H 32767 V -32768 H -32768 Z"
         id="path1281" /></clipPath><linearGradient
       x1="0"
       y1="0"
       x2="1"
       y2="0"
       gradientUnits="userSpaceOnUse"
       gradientTransform="matrix(83.412811,128.18587,128.18587,-83.412811,540.62469,569.40314)"
       spreadMethod="pad"
       id="linearGradient1291"><stop
         style="stop-opacity:1;stop-color:#ffffff"
         offset="0"
         id="stop1285" /><stop
         style="stop-opacity:0;stop-color:#ffffff"
         offset="0.997296"
         id="stop1287" /><stop
         style="stop-opacity:0;stop-color:#ffffff"
         offset="1"
         id="stop1289" /></linearGradient><mask
       maskUnits="userSpaceOnUse"
       x="0"
       y="0"
       width="1"
       height="1"
       id="mask1293"><g
         id="g1303"><g
           clip-path="url(#clipPath1283)"
           id="g1301"><g
             id="g1299"><g
               id="g1297"><path
                 d="M -32768,32767 H 32767 V -32768 H -32768 Z"
                 style="fill:url(#linearGradient1291);stroke:none"
                 id="path1295" /></g></g></g></g></mask><linearGradient
       x1="0"
       y1="0"
       x2="1"
       y2="0"
       gradientUnits="userSpaceOnUse"
       gradientTransform="matrix(83.412811,128.18587,128.18587,-83.412811,540.62469,569.40314)"
       spreadMethod="pad"
       id="linearGradient1315"><stop
         style="stop-opacity:1;stop-color:#233800"
         offset="0"
         id="stop1309" /><stop
         style="stop-opacity:1;stop-color:#dedc00"
         offset="0.997296"
         id="stop1311" /><stop
         style="stop-opacity:1;stop-color:#dedc00"
         offset="1"
         id="stop1313" /></linearGradient><clipPath
       clipPathUnits="userSpaceOnUse"
       id="clipPath1325"><path
         d="m 562.837,775.433 c -34.95,-38.608 -55.606,-88.05 -59.192,-139.681 v 0 c -2.488,-37.198 3.857,-75.436 20.475,-111.76 v 0 c 1.797,-3.931 3.941,-7.54 5.812,-11.273 v 0 c -18.702,41.599 -3.424,89.893 34.215,113.667 v 0 c 3.412,2.217 6.948,4.162 10.743,5.899 v 0 c 20.059,9.176 41.645,10.364 61.331,4.947 v 0 c -0.272,-0.125 -0.478,-0.383 -0.749,-0.507 v 0 c 9.638,2.933 19.164,6.472 28.516,10.749 v 0 c 39.986,18.294 72.384,46.719 95.305,80.807 v 0 c -41.292,33.853 -93.392,52.609 -146.871,52.609 v 0 c -16.489,-10e-4 -33.111,-1.784 -49.585,-5.457"
         id="path1323" /></clipPath><clipPath
       clipPathUnits="userSpaceOnUse"
       id="clipPath1333"><path
         d="M -32768,32767 H 32767 V -32768 H -32768 Z"
         id="path1331" /></clipPath><linearGradient
       x1="0"
       y1="0"
       x2="1"
       y2="0"
       gradientUnits="userSpaceOnUse"
       gradientTransform="matrix(-114.43633,136.13977,136.13977,114.43633,661.78125,600.07562)"
       spreadMethod="pad"
       id="linearGradient1341"><stop
         style="stop-opacity:1;stop-color:#ffffff"
         offset="0"
         id="stop1335" /><stop
         style="stop-opacity:0;stop-color:#ffffff"
         offset="0.997296"
         id="stop1337" /><stop
         style="stop-opacity:0;stop-color:#ffffff"
         offset="1"
         id="stop1339" /></linearGradient><mask
       maskUnits="userSpaceOnUse"
       x="0"
       y="0"
       width="1"
       height="1"
       id="mask1343"><g
         id="g1353"><g
           clip-path="url(#clipPath1333)"
           id="g1351"><g
             id="g1349"><g
               id="g1347"><path
                 d="M -32768,32767 H 32767 V -32768 H -32768 Z"
                 style="fill:url(#linearGradient1341);stroke:none"
                 id="path1345" /></g></g></g></g></mask><linearGradient
       x1="0"
       y1="0"
       x2="1"
       y2="0"
       gradientUnits="userSpaceOnUse"
       gradientTransform="matrix(-114.43633,136.13977,136.13977,114.43633,661.78125,600.07562)"
       spreadMethod="pad"
       id="linearGradient1365"><stop
         style="stop-opacity:1;stop-color:#233800"
         offset="0"
         id="stop1359" /><stop
         style="stop-opacity:1;stop-color:#dedc00"
         offset="0.997296"
         id="stop1361" /><stop
         style="stop-opacity:1;stop-color:#dedc00"
         offset="1"
         id="stop1363" /></linearGradient><clipPath
       clipPathUnits="userSpaceOnUse"
       id="clipPath1375"><path
         d="M 0,841.89 H 1190.551 V 0 H 0 Z"
         id="path1373" /></clipPath><clipPath
       clipPathUnits="userSpaceOnUse"
       id="clipPath1383"><path
         d="m 503.123,780.89 h 256.17 V 512.719 h -256.17 z"
         id="path1381" /></clipPath><clipPath
       clipPathUnits="userSpaceOnUse"
       id="clipPath1387"><path
         d="m 759.293,728.281 c -22.921,-34.088 -55.319,-62.513 -95.306,-80.806 -9.351,-4.278 -18.877,-7.817 -28.515,-10.75 0.271,0.124 0.477,0.382 0.749,0.506 -19.686,5.419 -41.271,4.231 -61.331,-4.946 -3.795,-1.737 -7.331,-3.681 -10.743,-5.898 -37.639,-23.775 -52.917,-72.069 -34.215,-113.668 -1.871,3.733 -4.015,7.343 -5.813,11.273 -16.617,36.324 -22.962,74.562 -20.474,111.76 3.586,51.631 24.242,101.073 59.192,139.681 69.904,15.588 142.434,-2.862 196.456,-47.152"
         id="path1385" /></clipPath><clipPath
       clipPathUnits="userSpaceOnUse"
       id="clipPath1391"><path
         d="M -32768,32767 H 32767 V -32768 H -32768 Z"
         id="path1389" /></clipPath><radialGradient
       fx="0"
       fy="0"
       cx="0"
       cy="0"
       r="1"
       gradientUnits="userSpaceOnUse"
       gradientTransform="matrix(131.1194,0,0,-131.1194,631.20825,646.80463)"
       spreadMethod="pad"
       id="radialGradient1399"><stop
         style="stop-opacity:1;stop-color:#ffffff"
         offset="0"
         id="stop1393" /><stop
         style="stop-opacity:0;stop-color:#ffffff"
         offset="0.997296"
         id="stop1395" /><stop
         style="stop-opacity:0;stop-color:#ffffff"
         offset="1"
         id="stop1397" /></radialGradient><mask
       maskUnits="userSpaceOnUse"
       x="0"
       y="0"
       width="1"
       height="1"
       id="mask1401"><g
         id="g1411"><g
           clip-path="url(#clipPath1391)"
           id="g1409"><g
             id="g1407"><g
               id="g1405"><path
                 d="M -32768,32767 H 32767 V -32768 H -32768 Z"
                 style="fill:url(#radialGradient1399);stroke:none"
                 id="path1403" /></g></g></g></g></mask><radialGradient
       fx="0"
       fy="0"
       cx="0"
       cy="0"
       r="1"
       gradientUnits="userSpaceOnUse"
       gradientTransform="matrix(131.1194,0,0,-131.1194,631.20825,646.80463)"
       spreadMethod="pad"
       id="radialGradient1419"><stop
         style="stop-opacity:1;stop-color:#ffffff"
         offset="0"
         id="stop1413" /><stop
         style="stop-opacity:1;stop-color:#ffffff"
         offset="0.997296"
         id="stop1415" /><stop
         style="stop-opacity:1;stop-color:#ffffff"
         offset="1"
         id="stop1417" /></radialGradient><clipPath
       clipPathUnits="userSpaceOnUse"
       id="clipPath1445"><path
         d="M 516.481,759.964 C 476.362,741.61 444.099,713.246 421.175,679.157 v 0 C 389.894,632.885 376.057,576.072 383.642,519.718 v 0 c 50.09,-53.957 123.587,-80.98 196.728,-72.106 v 0 c 23.109,2.869 46.137,9.142 68.367,19.312 v 0 l 1.157,0.529 c -0.387,-0.177 -0.777,-0.347 -1.219,-0.393 v 0 c -41.921,-18.36 -90.328,-2.477 -113.612,35.878 v 0 c -0.508,0.751 -0.88,1.564 -1.313,2.514 v 0 c -1.388,2.315 -2.566,4.89 -3.818,7.267 v 0 c -1.871,3.733 -4.015,7.342 -5.812,11.273 v 0 c -16.618,36.324 -22.963,74.562 -20.475,111.76 v 0 c 3.586,51.631 24.242,101.073 59.192,139.681 v 0 c -15.658,-3.394 -31.174,-8.524 -46.356,-15.469 M 649.894,467.453 c 0.02,0.009 0.041,0.018 0.061,0.028 v 0 z"
         id="path1443" /></clipPath><linearGradient
       x1="0"
       y1="0"
       x2="1"
       y2="0"
       gradientUnits="userSpaceOnUse"
       gradientTransform="matrix(244.92084,112.04377,112.04377,-244.92084,382.6188,521.95404)"
       spreadMethod="pad"
       id="linearGradient1457"><stop
         style="stop-opacity:1;stop-color:#678816"
         offset="0"
         id="stop1451" /><stop
         style="stop-opacity:1;stop-color:#dedc00"
         offset="0.997296"
         id="stop1453" /><stop
         style="stop-opacity:1;stop-color:#dedc00"
         offset="1"
         id="stop1455" /></linearGradient><clipPath
       clipPathUnits="userSpaceOnUse"
       id="clipPath1467"><path
         d="M 0,841.89 H 1190.551 V 0 H 0 Z"
         id="path1465" /></clipPath><clipPath
       clipPathUnits="userSpaceOnUse"
       id="clipPath1475"><path
         d="m 381.605,775.433 h 268.35 V 445.949 h -268.35 z"
         id="path1473" /></clipPath><clipPath
       clipPathUnits="userSpaceOnUse"
       id="clipPath1479"><path
         d="m 648.675,467.059 c 0.466,0.049 0.873,0.236 1.28,0.422 l -1.218,-0.558 c -22.23,-10.169 -45.258,-16.442 -68.368,-19.311 -73.14,-8.874 -146.638,18.148 -196.727,72.105 -7.585,56.355 6.252,113.168 37.533,159.44 22.924,34.09 55.187,62.453 95.306,80.807 15.182,6.945 30.698,12.075 46.356,15.469 -34.95,-38.608 -55.606,-88.05 -59.192,-139.681 -2.488,-37.198 3.857,-75.436 20.474,-111.76 1.798,-3.93 3.942,-7.54 5.813,-11.273 1.252,-2.377 2.43,-4.952 3.818,-7.268 0.434,-0.949 0.805,-1.762 1.313,-2.513 23.285,-38.355 71.691,-54.237 113.612,-35.879"
         id="path1477" /></clipPath><clipPath
       clipPathUnits="userSpaceOnUse"
       id="clipPath1483"><path
         d="M -32768,32767 H 32767 V -32768 H -32768 Z"
         id="path1481" /></clipPath><radialGradient
       fx="0"
       fy="0"
       cx="0"
       cy="0"
       r="1"
       gradientUnits="userSpaceOnUse"
       gradientTransform="matrix(134.84245,61.686291,61.686291,-134.84245,505.07922,577.97595)"
       spreadMethod="pad"
       id="radialGradient1491"><stop
         style="stop-opacity:1;stop-color:#ffffff"
         offset="0"
         id="stop1485" /><stop
         style="stop-opacity:0;stop-color:#ffffff"
         offset="0.997296"
         id="stop1487" /><stop
         style="stop-opacity:0;stop-color:#ffffff"
         offset="1"
         id="stop1489" /></radialGradient><mask
       maskUnits="userSpaceOnUse"
       x="0"
       y="0"
       width="1"
       height="1"
       id="mask1493"><g
         id="g1503"><g
           clip-path="url(#clipPath1483)"
           id="g1501"><g
             id="g1499"><g
               id="g1497"><path
                 d="M -32768,32767 H 32767 V -32768 H -32768 Z"
                 style="fill:url(#radialGradient1491);stroke:none"
                 id="path1495" /></g></g></g></g></mask><radialGradient
       fx="0"
       fy="0"
       cx="0"
       cy="0"
       r="1"
       gradientUnits="userSpaceOnUse"
       gradientTransform="matrix(134.84245,61.686291,61.686291,-134.84245,505.07922,577.97595)"
       spreadMethod="pad"
       id="radialGradient1511"><stop
         style="stop-opacity:1;stop-color:#ffffff"
         offset="0"
         id="stop1505" /><stop
         style="stop-opacity:1;stop-color:#ffffff"
         offset="0.997296"
         id="stop1507" /><stop
         style="stop-opacity:1;stop-color:#ffffff"
         offset="1"
         id="stop1509" /></radialGradient></defs><sodipodi:namedview
     pagecolor="#ffffff"
     bordercolor="#666666"
     borderopacity="1"
     objecttolerance="10"
     gridtolerance="10"
     guidetolerance="10"
     inkscape:pageopacity="0"
     inkscape:pageshadow="2"
     inkscape:window-width="1920"
     inkscape:window-height="1033"
     id="namedview869"
     showgrid="false"
     showborder="false"
     inkscape:zoom="0.33135945"
     inkscape:cx="105.76298"
     inkscape:cy="403.89803"
     inkscape:window-x="-4"
     inkscape:window-y="-4"
     inkscape:window-maximized="1"
     inkscape:current-layer="g2098" /><g
     id="g875"
     inkscape:groupmode="layer"
     inkscape:label="final logo"
     transform="matrix(1.3333333,0,0,-1.3333333,0,1122.52)"><g
       id="g877"
       transform="matrix(0.18565366,0,0,0.18565366,-24.224939,640.44172)"><g
         id="g879"
         clip-path="url(#clipPath883)"><g
           id="g885"><g
             id="g887" /><g
             id="g941"><g
               clip-path="url(#clipPath891)"
               opacity="0.639999"
               id="g939"><g
                 id="g937"><g
                   clip-path="url(#clipPath895)"
                   id="g935"><g
                     id="g933"><g
                       id="g925" /><g
                       mask="url(#mask907)"
                       id="g931"><g
                         id="g929"><path
                           d="m 750.284,333.662 c 0.687,-17.562 -80.43,-34.987 -181.177,-38.921 -100.747,-3.932 -182.974,7.117 -183.66,24.679 -0.685,17.563 80.43,34.988 181.178,38.921 100.747,3.933 182.974,-7.116 183.659,-24.679"
                           style="fill:url(#radialGradient923);stroke:none"
                           id="path927" /></g></g></g></g></g></g></g></g><g
           id="g943"><g
             id="g945" /><g
             id="g999"><g
               clip-path="url(#clipPath949)"
               opacity="0.639999"
               id="g997"><g
                 id="g995"><g
                   clip-path="url(#clipPath953)"
                   id="g993"><g
                     id="g991"><g
                       id="g983" /><g
                       mask="url(#mask965)"
                       id="g989"><g
                         id="g987"><path
                           d="m 659.494,324.859 c 0.29,-7.43 -34.024,-14.801 -76.644,-16.465 -42.619,-1.663 -77.404,3.01 -77.694,10.44 -0.29,7.429 34.025,14.801 76.644,16.464 42.619,1.664 77.404,-3.01 77.694,-10.439"
                           style="fill:url(#radialGradient981);stroke:none"
                           id="path985" /></g></g></g></g></g></g></g></g></g></g><g
       id="g2098"><text
         transform="scale(1,-1)"
         style="font-variant:normal;font-weight:normal;font-stretch:normal;font-size:10.3488px;font-family:'CF Asty Std';-inkscape-font-specification:CFAstyStd-Book;writing-mode:lr-tb;fill:#ffffff;fill-opacity:1;fill-rule:nonzero;stroke:none;stroke-width:0.185653"
         id="text1003"
         x="118.67831"
         y="-710.53448"><tspan
           x="118.67831 134.3877 152.40482 167.53465 184.41342 199.97791 212.22046 230.23756 247.86145"
           y="-710.53448"
           sodipodi:role="line"
           id="tspan1001"
           style="stroke-width:0.185653">SOLUTIONS</tspan></text><text
         transform="scale(1,-1)"
         style="font-variant:normal;font-weight:normal;font-stretch:normal;font-size:34.2099px;font-family:UB-Rockwell;-inkscape-font-specification:UB-Rockwell;writing-mode:lr-tb;fill:#ffffff;fill-opacity:1;fill-rule:nonzero;stroke:none;stroke-width:0.185653"
         id="text1007"
         x="106.17934"
         y="-726.4021"><tspan
           x="106.17934 124.13947 141.65489 159.34134"
           y="-726.4021"
           sodipodi:role="line"
           id="tspan1005"
           style="stroke-width:0.185653">echo</tspan></text><text
         transform="scale(1,-1)"
         style="font-variant:normal;font-weight:bold;font-stretch:normal;font-size:34.2099px;font-family:UB-Rockwell;-inkscape-font-specification:UB-Rockwell-Bold;writing-mode:lr-tb;fill:#ffffff;fill-opacity:1;fill-rule:nonzero;stroke:none;stroke-width:0.185653"
         id="text1011"
         x="177.47253"
         y="-726.4021"><tspan
           x="177.47253 188.146 207.16664 220.78212 239.80276 256.05243"
           y="-726.4021"
           sodipodi:role="line"
           id="tspan1009"
           style="stroke-width:0.185653">thrust</tspan></text></g><g
       id="g1013"
       transform="matrix(0.18565366,0,0,0.18565366,-24.224939,640.44172)"><g
         id="g1015"
         clip-path="url(#clipPath1019)"><g
           id="g1021"><g
             id="g1023"><path
               d="m 663.988,647.474 c -9.352,-4.277 -18.878,-7.816 -28.516,-10.749 v 0 c -29.118,-18.402 -40.82,-55.88 -26.062,-88.139 v 0 c 14.881,-32.529 51.421,-48.267 84.661,-37.814 v 0 c 2.764,0.774 5.537,1.878 8.247,3.118 v 0 l 127.408,58.285 c 6.639,3.037 10.536,9.572 10.37,16.381 v 0 c 0.023,0.667 -0.089,1.271 -0.263,2.01 v 0 c -0.125,0.271 -0.113,0.605 -0.163,1.073 v 0 c -0.124,0.271 -0.112,0.605 -0.299,1.011 v 0 c -0.062,0.136 -0.124,0.272 -0.05,0.469 v 0 c -3.386,17.792 -8.907,35.59 -16.843,52.939 v 0 c -0.682,1.491 -1.302,2.846 -2.12,4.275 v 0 c -10.266,21.365 -23.475,40.564 -38.909,57.106 v 0 c -7.012,7.446 -14.306,14.435 -22.156,20.842 v 0 c -22.921,-34.088 -55.319,-62.513 -95.305,-80.807"
               style="fill:url(#linearGradient1031);stroke:none"
               id="path1033" /></g></g></g></g><g
       id="g1035"
       transform="matrix(0.18565366,0,0,0.18565366,-24.224939,640.44172)"><g
         id="g1037"
         clip-path="url(#clipPath1041)"><g
           id="g1043"><g
             id="g1045" /><g
             id="g1103"><g
               clip-path="url(#clipPath1049)"
               opacity="0.630005"
               id="g1101"><g
                 id="g1099"><g
                   clip-path="url(#clipPath1053)"
                   id="g1097"><g
                     id="g1095"><g
                       id="g1087" /><g
                       mask="url(#mask1067)"
                       id="g1093"><g
                         id="g1091"><path
                           d="m 822.478,646.058 c 7.936,-17.348 13.458,-35.147 16.843,-52.939 -0.074,-0.197 -0.011,-0.333 0.05,-0.469 0.187,-0.406 0.175,-0.74 0.299,-1.011 0.05,-0.468 0.038,-0.801 0.163,-1.073 0.174,-0.739 0.286,-1.343 0.263,-2.01 0.166,-6.808 -3.732,-13.344 -10.369,-16.381 L 702.317,513.89 c -2.71,-1.24 -5.482,-2.344 -8.246,-3.117 -33.24,-10.454 -69.78,5.284 -84.661,37.813 -14.757,32.258 -3.056,69.737 26.062,88.139 9.638,2.933 19.164,6.472 28.515,10.75 39.987,18.293 72.385,46.718 95.306,80.806 7.85,-6.407 15.144,-13.396 22.156,-20.842 15.435,-16.542 28.643,-35.741 38.909,-57.106 0.818,-1.428 1.438,-2.784 2.12,-4.275"
                           style="fill:url(#radialGradient1085);stroke:none"
                           id="path1089" /></g></g></g></g></g></g></g></g></g></g><g
       id="g1105"
       transform="matrix(0.18565366,0,0,0.18565366,-24.224939,640.44172)"><g
         id="g1107"
         clip-path="url(#clipPath1111)"><g
           id="g1113"><g
             id="g1115"><path
               d="M 402.576,453.966 C 455.653,337.945 592.551,286.985 708.574,340.061 v 0 c 21.009,9.612 34.925,28.271 39.317,49.13 v 0 c 3.026,14.167 1.691,29.62 -4.82,43.852 v 0 c -15.749,34.427 -55.89,50.156 -90.739,35.689 v 0 l -0.679,-0.311 c -0.477,-0.381 -0.885,-0.568 -1.426,-0.816 v 0 l -0.272,-0.124 -1.218,-0.557 c -22.23,-10.17 -45.258,-16.443 -68.367,-19.312 v 0 c -73.141,-8.874 -146.638,18.149 -196.728,72.106 v 0 c 2.966,-22.247 9.138,-44.336 18.934,-65.752"
               style="fill:url(#linearGradient1123);stroke:none"
               id="path1125" /></g></g></g></g><g
       id="g1127"
       transform="matrix(0.18565366,0,0,0.18565366,-24.224939,640.44172)"><g
         id="g1129"
         clip-path="url(#clipPath1133)"><g
           id="g1135"><g
             id="g1137" /><g
             id="g1163"
             mask="url(#mask1151)"><g
               id="g1165"><path
                 d="M 402.576,453.966 C 455.653,337.945 592.551,286.985 708.574,340.061 v 0 c 21.009,9.612 34.925,28.271 39.317,49.13 v 0 c 3.026,14.167 1.691,29.62 -4.82,43.852 v 0 c -15.749,34.427 -55.89,50.156 -90.739,35.689 v 0 l -0.679,-0.311 c -0.477,-0.381 -0.885,-0.568 -1.426,-0.816 v 0 l -0.272,-0.124 -1.218,-0.557 c -22.23,-10.17 -45.258,-16.443 -68.367,-19.312 v 0 c -73.141,-8.874 -146.638,18.149 -196.728,72.106 v 0 c 2.966,-22.247 9.138,-44.336 18.934,-65.752"
                 style="fill:url(#linearGradient1173);stroke:none"
                 id="path1175" /></g></g></g></g></g><g
       id="g1177"
       transform="matrix(0.18565366,0,0,0.18565366,-24.224939,640.44172)"><g
         id="g1179"
         clip-path="url(#clipPath1183)"><g
           id="g1185"><g
             id="g1187" /><g
             id="g1245"><g
               clip-path="url(#clipPath1191)"
               opacity="0.630005"
               id="g1243"><g
                 id="g1241"><g
                   clip-path="url(#clipPath1195)"
                   id="g1239"><g
                     id="g1237"><g
                       id="g1229" /><g
                       mask="url(#mask1209)"
                       id="g1235"><g
                         id="g1233"><path
                           d="m 743.071,433.043 c 6.511,-14.231 7.846,-29.684 4.82,-43.852 -4.392,-20.859 -18.308,-39.518 -39.318,-49.129 -116.022,-53.078 -252.92,-2.118 -305.996,113.904 -9.797,21.415 -15.969,43.506 -18.935,65.751 50.089,-53.957 123.587,-80.979 196.727,-72.105 23.11,2.869 46.138,9.142 68.368,19.311 l 1.218,0.558 0.272,0.124 c 0.542,0.248 0.949,0.434 1.426,0.817 l 0.679,0.31 c 34.85,14.467 74.99,-1.262 90.739,-35.689"
                           style="fill:url(#radialGradient1227);stroke:none"
                           id="path1231" /></g></g></g></g></g></g></g></g></g></g><g
       id="g1247"
       transform="matrix(0.18565366,0,0,0.18565366,-24.224939,640.44172)"><g
         id="g1249"
         clip-path="url(#clipPath1253)"><g
           id="g1255"><g
             id="g1257"><path
               d="m 562.837,775.433 c -34.95,-38.608 -55.606,-88.05 -59.192,-139.681 v 0 c -2.488,-37.198 3.857,-75.436 20.475,-111.76 v 0 c 1.797,-3.931 3.941,-7.54 5.812,-11.273 v 0 c -18.702,41.599 -3.424,89.893 34.215,113.667 v 0 c 3.412,2.217 6.948,4.162 10.743,5.899 v 0 c 20.059,9.176 41.645,10.364 61.331,4.947 v 0 c -0.272,-0.125 -0.478,-0.383 -0.749,-0.507 v 0 c 9.638,2.933 19.164,6.472 28.516,10.749 v 0 c 39.986,18.294 72.384,46.719 95.305,80.807 v 0 c -41.292,33.853 -93.392,52.609 -146.871,52.609 v 0 c -16.489,-10e-4 -33.111,-1.784 -49.585,-5.457"
               style="fill:url(#linearGradient1265);stroke:none"
               id="path1267" /></g></g></g></g><g
       id="g1269"
       transform="matrix(0.18565366,0,0,0.18565366,-24.224939,640.44172)"><g
         id="g1271"
         clip-path="url(#clipPath1275)"><g
           id="g1277"><g
             id="g1279" /><g
             id="g1305"
             mask="url(#mask1293)"><g
               id="g1307"><path
                 d="m 562.837,775.433 c -34.95,-38.608 -55.606,-88.05 -59.192,-139.681 v 0 c -2.488,-37.198 3.857,-75.436 20.475,-111.76 v 0 c 1.797,-3.931 3.941,-7.54 5.812,-11.273 v 0 c -18.702,41.599 -3.424,89.893 34.215,113.667 v 0 c 3.412,2.217 6.948,4.162 10.743,5.899 v 0 c 20.059,9.176 41.645,10.364 61.331,4.947 v 0 c -0.272,-0.125 -0.478,-0.383 -0.749,-0.507 v 0 c 9.638,2.933 19.164,6.472 28.516,10.749 v 0 c 39.986,18.294 72.384,46.719 95.305,80.807 v 0 c -41.292,33.853 -93.392,52.609 -146.871,52.609 v 0 c -16.489,-10e-4 -33.111,-1.784 -49.585,-5.457"
                 style="fill:url(#linearGradient1315);stroke:none"
                 id="path1317" /></g></g></g></g></g><g
       id="g1319"
       transform="matrix(0.18565366,0,0,0.18565366,-24.224939,640.44172)"><g
         id="g1321"
         clip-path="url(#clipPath1325)"><g
           id="g1327"><g
             id="g1329" /><g
             id="g1355"
             mask="url(#mask1343)"><g
               id="g1357"><path
                 d="m 562.837,775.433 c -34.95,-38.608 -55.606,-88.05 -59.192,-139.681 v 0 c -2.488,-37.198 3.857,-75.436 20.475,-111.76 v 0 c 1.797,-3.931 3.941,-7.54 5.812,-11.273 v 0 c -18.702,41.599 -3.424,89.893 34.215,113.667 v 0 c 3.412,2.217 6.948,4.162 10.743,5.899 v 0 c 20.059,9.176 41.645,10.364 61.331,4.947 v 0 c -0.272,-0.125 -0.478,-0.383 -0.749,-0.507 v 0 c 9.638,2.933 19.164,6.472 28.516,10.749 v 0 c 39.986,18.294 72.384,46.719 95.305,80.807 v 0 c -41.292,33.853 -93.392,52.609 -146.871,52.609 v 0 c -16.489,-10e-4 -33.111,-1.784 -49.585,-5.457"
                 style="fill:url(#linearGradient1365);stroke:none"
                 id="path1367" /></g></g></g></g></g><g
       id="g1369"
       transform="matrix(0.18565366,0,0,0.18565366,-24.224939,640.44172)"><g
         id="g1371"
         clip-path="url(#clipPath1375)"><g
           id="g1377"><g
             id="g1379" /><g
             id="g1437"><g
               clip-path="url(#clipPath1383)"
               opacity="0.630005"
               id="g1435"><g
                 id="g1433"><g
                   clip-path="url(#clipPath1387)"
                   id="g1431"><g
                     id="g1429"><g
                       id="g1421" /><g
                       mask="url(#mask1401)"
                       id="g1427"><g
                         id="g1425"><path
                           d="m 759.293,728.281 c -22.921,-34.088 -55.319,-62.513 -95.306,-80.806 -9.351,-4.278 -18.877,-7.817 -28.515,-10.75 0.271,0.124 0.477,0.382 0.749,0.506 -19.686,5.419 -41.271,4.231 -61.331,-4.946 -3.795,-1.737 -7.331,-3.681 -10.743,-5.898 -37.639,-23.775 -52.917,-72.069 -34.215,-113.668 -1.871,3.733 -4.015,7.343 -5.813,11.273 -16.617,36.324 -22.962,74.562 -20.474,111.76 3.586,51.631 24.242,101.073 59.192,139.681 69.904,15.588 142.434,-2.862 196.456,-47.152"
                           style="fill:url(#radialGradient1419);stroke:none"
                           id="path1423" /></g></g></g></g></g></g></g></g></g></g><g
       id="g1439"
       transform="matrix(0.18565366,0,0,0.18565366,-24.224939,640.44172)"><g
         id="g1441"
         clip-path="url(#clipPath1445)"><g
           id="g1447"><g
             id="g1449"><path
               d="M 516.481,759.964 C 476.362,741.61 444.099,713.246 421.175,679.157 v 0 C 389.894,632.885 376.057,576.072 383.642,519.718 v 0 c 50.09,-53.957 123.587,-80.98 196.728,-72.106 v 0 c 23.109,2.869 46.137,9.142 68.367,19.312 v 0 l 1.157,0.529 c -0.387,-0.177 -0.777,-0.347 -1.219,-0.393 v 0 c -41.921,-18.36 -90.328,-2.477 -113.612,35.878 v 0 c -0.508,0.751 -0.88,1.564 -1.313,2.514 v 0 c -1.388,2.315 -2.566,4.89 -3.818,7.267 v 0 c -1.871,3.733 -4.015,7.342 -5.812,11.273 v 0 c -16.618,36.324 -22.963,74.562 -20.475,111.76 v 0 c 3.586,51.631 24.242,101.073 59.192,139.681 v 0 c -15.658,-3.394 -31.174,-8.524 -46.356,-15.469 M 649.894,467.453 c 0.02,0.009 0.041,0.018 0.061,0.028 v 0 z"
               style="fill:url(#linearGradient1457);stroke:none"
               id="path1459" /></g></g></g></g><g
       id="g1461"
       transform="matrix(0.18565366,0,0,0.18565366,-24.224939,640.44172)"><g
         id="g1463"
         clip-path="url(#clipPath1467)"><g
           id="g1469"><g
             id="g1471" /><g
             id="g1529"><g
               clip-path="url(#clipPath1475)"
               opacity="0.630005"
               id="g1527"><g
                 id="g1525"><g
                   clip-path="url(#clipPath1479)"
                   id="g1523"><g
                     id="g1521"><g
                       id="g1513" /><g
                       mask="url(#mask1493)"
                       id="g1519"><g
                         id="g1517"><path
                           d="m 648.675,467.059 c 0.466,0.049 0.873,0.236 1.28,0.422 l -1.218,-0.558 c -22.23,-10.169 -45.258,-16.442 -68.368,-19.311 -73.14,-8.874 -146.638,18.148 -196.727,72.105 -7.585,56.355 6.252,113.168 37.533,159.44 22.924,34.09 55.187,62.453 95.306,80.807 15.182,6.945 30.698,12.075 46.356,15.469 -34.95,-38.608 -55.606,-88.05 -59.192,-139.681 -2.488,-37.198 3.857,-75.436 20.474,-111.76 1.798,-3.93 3.942,-7.54 5.813,-11.273 1.252,-2.377 2.43,-4.952 3.818,-7.268 0.434,-0.949 0.805,-1.762 1.313,-2.513 23.285,-38.355 71.691,-54.237 113.612,-35.879"
                           style="fill:url(#radialGradient1511);stroke:none"
                           id="path1515" /></g></g></g></g></g></g></g></g></g></g></g></svg>
