<svg id="outline" height="80" viewBox="0 0 512 512" width="64" xmlns="http://www.w3.org/2000/svg" fill="#444444"><path d="m192 144h16v16h-16z"/><path d="m224 144h16v16h-16z"/><path d="m256 144h16v16h-16z"/><path d="m288 144h16v16h-16z"/><path d="m344 320h-8v-64h40a8.00039 8.00039 0 0 0 8-8v-32a8.00039 8.00039 0 0 0 -8-8h-64a8.00039 8.00039 0 0 0 -8 8v32a8.00039 8.00039 0 0 0 8 8h8v64h-40a8.00039 8.00039 0 0 0 -8 8v40h-56v-24a40.04584 40.04584 0 0 0 -40-40h-16v-8a8.00039 8.00039 0 0 0 -8-8h-64a8.00039 8.00039 0 0 0 -8 8v32a8.00039 8.00039 0 0 0 8 8h64a8.00039 8.00039 0 0 0 8-8v-8h16a24.0275 24.0275 0 0 1 24 24v24h-40v-8a8.00039 8.00039 0 0 0 -8-8h-64a8.00039 8.00039 0 0 0 -8 8v32a8.00039 8.00039 0 0 0 8 8h64a8.00039 8.00039 0 0 0 8-8v-8h112v8a8.00039 8.00039 0 0 0 8 8h64a8.00039 8.00039 0 0 0 8-8v-64a8.00039 8.00039 0 0 0 -8-8zm8-96h16v16h-16zm-240 96h-16v-16h16zm32 0h-16v-16h16zm-32 64h-16v-16h16zm32 0h-16v-16h16zm160 0h-16v-16h16zm0-32h-16v-16h16zm16-128h16v16h-16zm16 160h-16v-16h16zm0-32h-16v-16h16z"/><path d="m112 272a40 40 0 1 0 -40-40 40.04584 40.04584 0 0 0 40 40zm0-64a24 24 0 1 1 -24 24 24.0275 24.0275 0 0 1 24-24z"/><path d="m184 256a8.00039 8.00039 0 0 0 8 8h8v16h16v-16h16v16h16v-16h8a8.00039 8.00039 0 0 0 8-8v-16h16v-16h-16v-16a8.00039 8.00039 0 0 0 -8-8h-8v-16h-16v16h-16v-16h-16v16h-8a8.00039 8.00039 0 0 0 -8 8v16h-16v16h16zm16-40h48v32h-48z"/><path d="m496 320h-48v-208a8.00039 8.00039 0 0 0 -8-8h-288v-8a8.00039 8.00039 0 0 0 -8-8h-64v-8a8.00039 8.00039 0 0 0 -8-8h-48a8.00039 8.00039 0 0 0 -8 8v88a8.00039 8.00039 0 0 0 8 8h16v256a8.00039 8.00039 0 0 0 8 8h392a8.00039 8.00039 0 0 0 8-8v-32h48a8.00039 8.00039 0 0 0 8-8v-64a8.00039 8.00039 0 0 0 -8-8zm-416-216h56v40h-56zm-48 56v-72h32v72zm400 264h-376v-248h16a8.00039 8.00039 0 0 0 8-8v-8h64a8.00039 8.00039 0 0 0 8-8v-32h280v200h-56v16h32v16h-32v16h32v16h-32v16h56zm-6.24585-40h-1.75415v-48h13.75415zm32 0h-15.5083l12-48h15.5083zm30.24585 0h-13.75415l12-48h1.75415z"/></svg>
