<svg xmlns="http://www.w3.org/2000/svg" version="1.1" id="Capa_1" x="0" y="0" viewBox="0 0 484.366 484.366" xml:space="preserve" width="512" height="512"><g fill="#FFF"><path d="M483.629 457.833l-7.731-38.872a38.8 38.8 0 00-30.517-30.478l-10.474-2.07a15.298 15.298 0 01-11.998-11.881l-1.982-9.621a8.487 8.487 0 012.895-8.275c9.449-7.826 18.095-19.354 23.133-32.958 6.945-1.253 13.291-7.937 15.338-17.141 2.52-11.401-2.504-22.218-11.211-24.156-.111-.015-.221-.008-.316-.015-2.628-29.613-14.03-51.54-51.964-51.54-37.288 0-49.13 21.919-51.917 51.523-.111.023-.236.017-.362.031-8.724 1.939-13.732 12.755-11.212 24.156 2.046 9.204 8.377 15.888 15.338 17.141 5.039 13.612 13.7 25.132 23.131 32.966a8.5 8.5 0 012.914 8.259l-2 9.622a15.284 15.284 0 01-12 11.896l-10.471 2.063a38.803 38.803 0 00-30.518 30.478l-7.732 38.872a22.203 22.203 0 0021.778 26.533h126.101a22.208 22.208 0 0017.165-8.117 22.207 22.207 0 004.612-18.416zm-320.967-38.872a38.8 38.8 0 00-30.518-30.478l-10.472-2.07a15.298 15.298 0 01-11.999-11.881l-1.984-9.621a8.487 8.487 0 012.898-8.275c9.447-7.826 18.092-19.354 23.131-32.958 6.945-1.253 13.292-7.937 15.338-17.141 2.52-11.401-2.504-22.218-11.212-24.156-.109-.015-.221-.008-.314-.015-2.63-29.613-14.032-51.54-51.966-51.54-37.288 0-49.13 21.919-51.916 51.523-.111.023-.237.017-.363.031-8.724 1.939-13.731 12.755-11.212 24.156 2.048 9.204 8.377 15.888 15.339 17.141 5.038 13.612 13.699 25.132 23.133 32.966a8.505 8.505 0 012.911 8.259l-1.999 9.622a15.285 15.285 0 01-11.999 11.896l-10.473 2.063a38.8 38.8 0 00-30.516 30.478L.736 457.833a22.208 22.208 0 004.613 18.416 22.206 22.206 0 0017.165 8.117h126.101a22.205 22.205 0 0021.778-26.533l-7.731-38.872zm171.829-165.632a5.114 5.114 0 00.74-6.37L317.5 210.78h24.612c12.692 0 22.959-10.267 22.959-22.958V83.773c0-12.691-10.267-22.958-22.959-22.958H284.92v66.199c0 24.07-19.574 43.643-43.65 43.643h-67.995l-17.637 11.787v5.378c0 12.691 10.282 22.958 22.958 22.958h74.279l75.206 43.146c2.016 1.331 4.694 1.088 6.41-.597z"/><path d="M77.753 149.974h24.613l-18.156 36.43c-1.307 2.032-.977 4.7.74 6.377a5.036 5.036 0 003.559 1.448 5.09 5.09 0 002.835-.857l75.647-43.398h74.278c12.676 0 22.959-10.291 22.959-22.959V22.959C264.229 10.283 253.946 0 241.27 0H77.753C65.062 0 54.795 10.283 54.795 22.959v104.056c0 12.668 10.267 22.959 22.958 22.959zm127.551-92.159c9.48 0 17.18 7.685 17.18 17.172 0 9.479-7.7 17.164-17.18 17.164s-17.165-7.685-17.165-17.164c0-9.487 7.685-17.172 17.165-17.172zm-45.793 0c9.479 0 17.165 7.685 17.165 17.172 0 9.479-7.686 17.164-17.165 17.164s-17.18-7.685-17.18-17.164c.001-9.487 7.702-17.172 17.18-17.172zm-45.807 0c9.513 0 17.181 7.685 17.181 17.172 0 9.479-7.668 17.164-17.181 17.164-9.464 0-17.163-7.685-17.163-17.164 0-9.487 7.699-17.172 17.163-17.172z"/></g></svg>