<svg xmlns="http://www.w3.org/2000/svg" xmlns:xlink="http://www.w3.org/1999/xlink" version="1.1" enable-background="new 0 0 100 100" xml:space="preserve" width="69" height="54"><rect id="backgroundrect" width="100%" height="100%" x="0" y="0" fill="none" stroke="none" class=""/><g class="currentLayer"><title>Layer 1</title><g id="svg_1" class=""><path d="M35.52540007214955,0.8185713291168213 c0,-0.31200000000000033 -0.253,-0.5660000000000006 -0.5660000000000006,-0.5660000000000006 s-0.5680000000000006,0.254 -0.5680000000000006,0.5660000000000006 s0.256,0.5660000000000006 0.5680000000000006,0.5660000000000006 S35.52540007214955,1.1315713291168201 35.52540007214955,0.8185713291168213 L35.52540007214955,0.8185713291168213 z" id="svg_2"/></g><path d="M10.07563035153652,35.060836418777235 v-1.3109416594799894 h-2.2988044218604706 c-1.3165087270578917,0 -2.384052963421247,-0.9296381652168255 -2.384052963421247,-2.076079423410716 V0.9822584149077989 c0,-1.146441258193889 1.0675442363633534,-2.076079423410716 2.384052963421247,-2.076079423410716 h53.28711960947277 c1.3165087270578917,0 2.384052963421247,0.9296381652168255 2.384052963421247,2.076079423410716 v30.691556920978723 c0,1.146441258193889 -1.0675442363633534,2.076079423410716 -2.384052963421247,2.076079423410716 h-2.2988044218604706 v1.3109416594799894 h2.9381684835662907 c0.39718070499907315,0 0.7488309389372725,0.2193338683814655 0.8757350178516045,0.544116711946328 l6.128207658107601,15.4039862947906 c0.0833110747071223,0.2193338683814655 0.12884154576799198,0.4479472465790703 0.12884154576799198,0.6807785837840135 c0,1.146441258193889 -1.0675442363633534,2.076079423410716 -2.384052963421247,2.076079423410716 H34.419901367699005 H2.387761876237448 c-0.26833915923107904,0 -0.5318346513280238,-0.037961631066022995 -0.7817678754493935,-0.11388489319806896 c-1.246759920326349,-0.37539835165289376 -1.9054986505687108,-1.5589576491113382 -1.4734435422038668,-2.642973113996657 l6.126270191253947,-15.4039862947906 c0.12884154576799198,-0.3247828435648632 0.48049177970619317,-0.544116711946328 0.8757350178516045,-0.544116711946328 H10.07563035153652 zM8.100382894236263,31.39205567419649 h52.64000568035234 V1.2640180765978344 H8.100382894236263 V31.39205567419649 zM15.183761711195288,35.060836418777235 h19.23613965650373 h19.23613965650373 v-1.3109416594799894 H15.183761711195288 V35.060836418777235 zM34.419901367699005,51.284793944593915 h6.543794298216384 c0.2702766260847332,0 0.48824164712081136,-0.18980815533011508 0.48824164712081136,-0.423483084336524 c0,-0.04808473268362934 -0.011624801121924025,-0.09363868996285692 -0.028093269377983093,-0.1383490554406179 l-1.2525723208873105,-3.1465974194725597 c-0.0242183356706752,-0.06748734411737455 -0.09881080953635443,-0.11219770959513507 -0.17824695053616885,-0.11219770959513507 h-5.573123404535727 h-5.574092137962558 c-0.0833110747071223,0 -0.1530598814386669,0.04471036547776072 -0.17824695053616885,0.11219770959513507 l-1.2525723208873105,3.1465974194725597 c-0.0871860084144305,0.22102105198439986 0.04553047106086917,0.4631318990054793 0.3012760957431983,0.5390551611375275 c0.051342871621831536,0.016871836029343553 0.10365447667048996,0.022776978639613914 0.1588722819996295,0.022776978639613914 H34.419901367699005 z" id="svg_3" class="selected"/><path d="M38.559948755553656,14.777629537603456 c0.5725601400834641,0 1.0361364190200026,0.4382109416915594 1.0361364190200026,0.9803661169925474 v6.363780057670933 c0,0.5421551753009928 -0.46436601706079517,0.9803661169925474 -1.0361364190200026,0.9803661169925474 H28.750611514206494 c-0.5725601400834641,0 -1.0361364190200026,-0.4382109416915594 -1.0361364190200026,-0.9803661169925474 v-6.363780057670933 c0,-0.5421551753009928 0.46436601706079517,-0.9803661169925474 1.0361364190200026,-0.9803661169925474 h0.5938830694382966 v-2.8917435350192133 c0,-2.2276969203057244 1.9064278319468668,-4.032886703997572 4.260637180345214,-4.032886703997572 c2.350260657777082,0 4.259847442220961,1.8051897836918491 4.259847442220961,4.032886703997572 v2.8917435350192133 H38.559948755553656 zM30.593860296213112,11.885886002584243 v2.8917435350192133 h6.0185942449325065 v-2.8917435350192133 c0,-1.5741195089773574 -1.3465035018514535,-2.8483711209951337 -3.007322777155621,-2.8483711209951337 C31.94352275056158,9.037514881589109 30.593860296213112,10.31101869336509 30.593860296213112,11.885886002584243 zM34.548079084348146,17.60356665134476 c-0.15399893422934538,-0.49354815958435083 -0.7028669305852165,-0.7754688507408645 -1.2240940925922303,-0.6296478035909457 c-0.5196476857585095,0.14582104714992192 -0.817378958601908,0.6647944149552851 -0.6633800243725638,1.159838175023222 c0.09555831303461944,0.3006156972013768 0.345905298422837,0.5376683738502236 0.6633800243725638,0.6281522031073558 v2.0242952545376287 h0.5615038063439206 v-2.0242952545376287 C34.40513648385834,18.616088178734472 34.701288280453234,18.0978626111709 34.548079084348146,17.60356665134476 z" id="svg_4" class=""/></g></svg>