<svg xmlns="http://www.w3.org/2000/svg" width="69" height="54"><rect id="backgroundrect" width="100%" height="100%" x="0" y="0" fill="none" stroke="none"/><g class="currentLayer"><g id="svg_1"><path d="M35.525.819a.566.566 0 10-1.132 0 .566.566 0 001.132 0z" id="svg_2"/></g><path d="M10.076 35.06v-1.31h-2.3c-1.316 0-2.383-.93-2.383-2.076V.982c0-1.146 1.067-2.076 2.384-2.076h53.287c1.316 0 2.384.93 2.384 2.076v30.692c0 1.146-1.068 2.076-2.384 2.076h-2.299v1.31h2.938c.397 0 .75.22.876.545l6.128 15.404c.084.22.13.448.13.68 0 1.147-1.068 2.077-2.385 2.077H2.388a2.69 2.69 0 01-.782-.114C.359 53.277-.3 52.093.133 51.009l6.126-15.404c.129-.325.48-.544.876-.544h2.94zM8.1 31.393h52.64V1.264H8.1v30.128zm7.084 3.669h38.472V33.75H15.184v1.31zM34.42 51.285h6.544c.27 0 .488-.19.488-.424a.398.398 0 00-.028-.138l-1.253-3.147c-.024-.067-.099-.112-.178-.112H28.846c-.084 0-.153.045-.178.112l-1.253 3.147c-.087.221.046.463.301.539a.5.5 0 00.16.023h6.544z" id="svg_3" class="selected"/><path d="M38.56 14.778c.573 0 1.036.438 1.036.98v6.364c0 .542-.464.98-1.036.98h-9.81c-.572 0-1.036-.438-1.036-.98v-6.364c0-.542.465-.98 1.037-.98h.593v-2.892c0-2.228 1.907-4.033 4.261-4.033 2.35 0 4.26 1.805 4.26 4.033v2.892h.695zm-7.966-2.892v2.892h6.018v-2.892c0-1.574-1.346-2.848-3.007-2.848s-3.011 1.273-3.011 2.848zm3.954 5.718c-.154-.494-.703-.776-1.224-.63-.52.146-.817.665-.663 1.16a.97.97 0 00.663.628v2.024h.561v-2.024c.52-.146.816-.664.663-1.158z" id="svg_4"/></g></svg>