<svg xmlns="http://www.w3.org/2000/svg" preserveAspectRatio="xMidYMid" width="110" height="94"><defs><style>.cls-1,.cls-2{fill:#fff}.cls-1{fill-rule:evenodd}</style></defs><path d="M114 84H3a3 3 0 01-3-3V3a3 3 0 013-3h111a3 3 0 013 3v78a3 3 0 01-3 3zm1-79a3 3 0 00-3-3H5a3 3 0 00-3 3v74a3 3 0 003 3h107a3 3 0 003-3V5zM17.5 8a1.5 1.5 0 11.001-3.001A1.5 1.5 0 0117.5 8zm-5 0a1.5 1.5 0 11.001-3.001A1.5 1.5 0 0112.5 8zm-5 0a1.5 1.5 0 11.001-3.001A1.5 1.5 0 017.5 8z" class="cls-1"/><rect x="35" y="89" width="55" height="5" rx="2" ry="2" class="cls-2"/><path d="M73.199 34.489v-1.568l4.116-1.82-4.116-1.736v-1.554l5.74 2.688v1.26l-5.74 2.73zm-3.43-4.844c-.476.373-.791.67-.945.889a1.206 1.206 0 00-.231.707v.462h-1.232c-.224-.289-.336-.653-.336-1.092 0-.233.088-.467.266-.7.177-.233.494-.539.952-.917.457-.378.76-.672.91-.882.149-.21.224-.488.224-.833 0-.681-.495-1.022-1.484-1.022-.56 0-1.148.065-1.764.196l-.322.07-.084-1.162c.868-.308 1.656-.462 2.366-.462.98 0 1.701.18 2.163.539.462.359.693.936.693 1.729 0 .625-.077 1.101-.231 1.428-.154.327-.469.677-.945 1.05zm-11.2 2.982h1.638v2.016h-1.638v-2.016zm-3.906 0h1.638v2.016h-1.638v-2.016zm-8.792 2.17a8.22 8.22 0 01-1.33-.126v2.982h-1.526v-10.01h1.512v.434c.644-.392 1.246-.588 1.806-.588.924 0 1.601.282 2.03.847.43.565.644 1.512.644 2.842s-.245 2.266-.735 2.807c-.49.541-1.29.812-2.401.812zm.196-5.95c-.438 0-.877.098-1.316.294l-.21.098v4.13c.374.075.784.112 1.232.112.635 0 1.074-.182 1.316-.546.243-.364.364-.985.364-1.862 0-1.484-.462-2.226-1.386-2.226zm-6.916 2.086c0-.756-.079-1.293-.237-1.61-.159-.317-.495-.476-1.008-.476-.448 0-.897.075-1.344.224l-.225.084v5.488h-1.525v-9.912h1.525v3.276c.691-.345 1.331-.518 1.919-.518.933 0 1.57.264 1.911.791.34.527.511 1.398.511 2.611v3.752h-1.527v-3.71zm-9.561 3.864a8.21 8.21 0 01-1.33-.126v2.982h-1.526v-10.01h1.512v.434c.644-.392 1.246-.588 1.806-.588.924 0 1.6.282 2.03.847.429.565.644 1.512.644 2.842s-.245 2.266-.735 2.807c-.49.541-1.291.812-2.401.812zm.196-5.95a3.2 3.2 0 00-1.316.294l-.21.098v4.13c.373.075.784.112 1.232.112.634 0 1.073-.182 1.316-.546.242-.364.364-.985.364-1.862 0-1.484-.462-2.226-1.386-2.226zm-6.202.798c-.476.373-.791.67-.945.889a1.206 1.206 0 00-.231.707v.462h-1.232c-.224-.289-.336-.653-.336-1.092 0-.233.088-.467.266-.7.177-.233.494-.539.952-.917.457-.378.76-.672.91-.882.149-.21.224-.488.224-.833 0-.681-.495-1.022-1.484-1.022-.56 0-1.148.065-1.764.196l-.322.07-.084-1.162c.868-.308 1.656-.462 2.366-.462.98 0 1.701.18 2.163.539.462.359.693.936.693 1.729 0 .625-.077 1.101-.231 1.428-.154.327-.469.677-.945 1.05zm-12.012.854l5.74-2.688v1.554l-4.116 1.736 4.116 1.82v1.568l-5.74-2.73v-1.26zm10.99 4.144h-1.624v-1.96h1.624v1.96zm46.185 0h-1.624v-1.96h1.624v1.96z" class="cls-1"/><path class="cls-2" d="M11 51h11v2H11zm15 0h23v2H26zM11 65h23v2H11zm42-14h42v2H53zm-42 7h42v2H11zm46 0h11v2H57z"/></svg>