<svg xmlns="http://www.w3.org/2000/svg" width="38" height="40.344"><rect id="backgroundrect" width="100%" height="100%" x="0" y="0" fill="none" stroke="none"/><g class="currentLayer"><g id="svg_1"><path style="line-height:normal;text-indent:0;text-align:start;text-decoration-line:none;text-decoration-style:solid;text-decoration-color:#000;text-transform:none;block-progression:tb;white-space:normal;isolation:auto;mix-blend-mode:normal;solid-color:#000;solid-opacity:1" d="M19.082 0C8.548 0 0 8.548 0 19.082s8.548 19.082 19.082 19.082 19.082-8.548 19.082-19.082S29.616 0 19.082 0zm0 .795c10.104 0 18.287 8.183 18.287 18.287s-8.183 18.287-18.287 18.287S.795 29.186.795 19.082 8.978.795 19.082.795zm-3.975 5.566v10.336h7.95V6.36h-7.95zm.795.795h6.36v8.746h-6.36V7.156zm.802.795v.795h4.763V7.95h-4.763zm0 1.59v.795h4.763v-.795h-4.763zm0 1.59v.795h4.763v-.795h-4.763zm2.378 1.59c-.654 0-1.193.539-1.193 1.193s.539 1.193 1.193 1.193 1.193-.54 1.193-1.193a1.2 1.2 0 00-1.193-1.193zm0 .795c.224 0 .398.174.398.398a.392.392 0 01-.398.397.392.392 0 01-.398-.397c0-.224.174-.398.398-.398zm-.398 3.976v1.59H9.94v2.385h.795v-1.59h7.95v1.59h.796v-1.59h7.95v1.59h.795v-2.385H19.48v-1.59h-.796zm-11.926 4.77v5.566h1.988v1.59H7.95v.795h4.77v-.795h-.795v-1.59h1.988v-5.566H6.758zm8.746 0v5.566h1.988v1.59h-.795v.795h4.77v-.795h-.795v-1.59h1.988v-5.566h-7.156zm8.746 0v5.566h1.988v1.59h-.795v.795h4.77v-.795h-.795v-1.59h1.988v-5.566H24.25zm-16.697.795h5.566v3.976H7.553v-3.976zm8.746 0h5.566v3.976h-5.566v-3.976zm8.746 0h5.566v3.976h-5.566v-3.976zm-15.504 4.77h1.59v1.591h-1.59v-1.59zm8.746 0h1.59v1.591h-1.59v-1.59zm8.746 0h1.59v1.591h-1.59v-1.59z" id="svg_2" color="#000" font-style="normal" font-variant="normal" font-weight="400" font-stretch="normal" font-size="medium" font-family="sans-serif" text-decoration="none" letter-spacing="normal" word-spacing="normal" direction="ltr" writing-mode="lr-tb" baseline-shift="baseline" text-anchor="start" clip-rule="nonzero" display="inline" overflow="visible" visibility="visible" opacity="1" color-interpolation="sRGB" color-interpolation-filters="linearRGB" fill="#000" fill-opacity="1" fill-rule="nonzero" stroke="none" stroke-width="1" stroke-linecap="butt" stroke-linejoin="miter" stroke-miterlimit="4" stroke-dasharray="none" stroke-dashoffset="0" stroke-opacity="1" color-rendering="auto" image-rendering="auto" shape-rendering="auto" text-rendering="auto"/></g></g></svg>