<svg width="86" height="86" xmlns="http://www.w3.org/2000/svg"><defs><linearGradient x1="50.524%" y1="60.13%" x2="50%" y2="60.65%" id="linearGradient-1"><stop stop-color="#E74C3C" offset="0%"/><stop stop-color="#A82A1D" offset="100%"/></linearGradient></defs><g id="Page-1" stroke="none" stroke-width="1" fill="none" fill-rule="evenodd"><g id="ib-ico-5"><g id="kli23" transform="translate(0 11)"><path d="M42.76 50.958l-4.6-4.597a1.777 1.777 0 01-.44-.44l-4.5-4.498a1.746 1.746 0 01-.56-.56L10.07 18.29c-.854.809-1.61 1.523-2.2 2.083l43.325 42.365h29.374v-3.225l-29.254-.006-8.188-8.183a1.763 1.763 0 01-.366-.366zm15.522-7.924c-.351-.927-.702-1.835-1.05-2.719L42.43 45.628l2.22 2.218L57.233 43.1a1.763 1.763 0 011.05-.065zm1.021 2.743a204.032 204.032 0 011.812 5.175 1.799 1.799 0 001.69 1.206h10.32a7.452 7.452 0 016.516 3.829l-26.852-.007-5.398-5.393 11.1-4.188c.338-.128.615-.349.812-.622zm-3.383-8.742c-.4-.979-.788-1.915-1.16-2.803l-17.346 6.385 2.248 2.246 16.258-5.828zm-2.553-6.061a350.232 350.232 0 00-1.666-3.776c-5.167-.236-12.87-3.244-17.425-8.138-2.62-2.832-3.896-5.97-3.651-9.105.138-1.802-.376-3.512-1.389-4.595-.46-.5-1.253-1.097-2.422-1.097-1.399 0-2.975.829-4.548 2.405-1.237 1.235-5.75 5.519-9.628 9.191l22.025 22.009 18.704-6.894zm3.836-.08c-1.2-2.793-2.174-4.947-2.732-6.182-.298-.666-.967-.998-1.693-1.04l-.414.01c-4.304 0-11.433-2.686-15.481-7.02-1.973-2.109-2.887-4.285-2.72-6.436.212-2.807-.63-5.451-2.32-7.264C30.508 1.53 28.723.737 26.821.737c-1.647 0-4.197.596-7.051 3.438C17.567 6.37 4.229 18.947 4.098 19.074c-.344.32-.55.78-.553 1.255a1.78 1.78 0 00.524 1.273l45.157 44.15a1.8 1.8 0 001.246.511H82.34c.974 0 1.771-.793 1.785-1.77v-4.93c0-6.034-4.933-10.939-10.993-10.939h-9.05c-2.196-6.421-4.613-12.41-6.535-16.925a1.798 1.798 0 00-.09-.35 1.799 1.799 0 00-.254-.455z" id="Shape" fill="url(#linearGradient-1)"/><path d="M9.736 41.579H2.653a1.773 1.773 0 01-1.771-1.763c0-.97.797-1.764 1.77-1.764h7.084c.974 0 1.77.794 1.77 1.764s-.796 1.763-1.77 1.763zm7.083 7.052H2.653a1.772 1.772 0 01-1.771-1.763c0-.97.797-1.763 1.77-1.763H16.82c.974 0 1.771.794 1.771 1.763 0 .97-.797 1.763-1.77 1.763zm7.084 7.053H2.653a1.772 1.772 0 01-1.771-1.763c0-.97.797-1.763 1.77-1.763h21.25c.975 0 1.772.793 1.772 1.763 0 .97-.797 1.763-1.771 1.763z" id="Shape" fill="#CD2122"/></g></g></g></svg>