<svg width="86" height="86" xmlns="http://www.w3.org/2000/svg"><defs><linearGradient x1="49.085%" y1="50%" x2="49.39%" y2="49.258%" id="linearGradient-1"><stop stop-color="#3498DB" offset="0%"/><stop stop-color="#1A699C" offset="100%"/></linearGradient></defs><g id="Page-1" stroke="none" stroke-width="1" fill="none" fill-rule="evenodd"><g id="ib-ico-2" fill="url(#linearGradient-1)"><g id="Group" transform="translate(19 7)"><path d="M48.922 25.034C48.922 11.572 38.112.63 24.812.63 11.511.63.7 11.572.7 25.034c0 9.84 5.833 18.736 14.778 22.515.389.157.778.236 1.166.236 1.167 0 2.256-.708 2.723-1.89.622-1.574-.078-3.306-1.634-3.935-6.766-2.834-11.122-9.526-11.122-16.926 0-10.155 8.167-18.343 18.122-18.343 10.034 0 18.123 8.266 18.123 18.343 0 5.353-2.256 10.392-6.3 13.855-.156.08-.234.237-.39.394-.466.63-4.2 5.353-5.21 10.706l-13.067 2.362c-1.633.315-2.722 1.89-2.411 3.464.233 1.496 1.478 2.519 2.955 2.519.156 0 .39 0 .545-.079L34.222 55.5c1.4-.236 2.49-1.496 2.49-2.991 0-3.464 2.8-7.794 3.966-9.369 5.289-4.487 8.244-11.1 8.244-18.106zM32.2 57.862l-12.989 2.361c-1.633.315-2.722 1.89-2.411 3.464.233 1.496 1.478 2.52 2.956 2.52.155 0 .388 0 .544-.08l12.989-2.361c1.633-.315 2.722-1.89 2.411-3.464-.311-1.653-1.867-2.755-3.5-2.44zm-1.789 8.108L21 67.702c-1.633.315-2.722 1.89-2.411 3.464.233 1.496 1.478 2.52 2.955 2.52.156 0 .39 0 .545-.08l9.411-1.732c1.633-.314 2.722-1.889 2.411-3.463-.311-1.654-1.867-2.756-3.5-2.44z" id="Shape"/></g></g></g></svg>