<svg width="108" height="86" xmlns="http://www.w3.org/2000/svg"><defs><linearGradient x1="49.085%" y1="50%" x2="49.39%" y2="49.258%" id="linearGradient-1"><stop stop-color="#3498DB" offset="0%"/><stop stop-color="#1A699C" offset="100%"/></linearGradient></defs><g id="Page-1" stroke="none" stroke-width="1" fill="none" fill-rule="evenodd"><g id="ib-ico-1" fill="url(#linearGradient-1)"><path d="M66.524 26.705L37.402 55.22a17.235 17.235 0 01-12.221 5.071c-9.535 0-17.292-7.757-17.292-17.292 0-9.534 7.757-17.29 17.292-17.29 4.767 0 9.09 1.939 12.221 5.07l2.961 2.899a8.626 8.626 0 001.759 9.674l12.229-12.23a8.624 8.624 0 00-10-1.603l-2.876-2.814c-4.174-4.174-9.938-6.76-16.294-6.76-12.713 0-23.056 10.342-23.056 23.054 0 12.713 10.343 23.057 23.056 23.057 6.355 0 12.12-2.587 16.295-6.762l29.122-28.516a17.238 17.238 0 0112.22-5.07c9.536 0 17.292 7.756 17.292 17.291 0 9.536-7.756 17.292-17.292 17.292a17.16 17.16 0 01-9.218-2.688 8.626 8.626 0 00-1.959-9.191l-2.212 2.214-5.765-5.764-2.037 2.037 5.764 5.765-3.727 3.726-5.764-5.764-2.038 2.038 5.765 5.764-2.214 2.213a8.622 8.622 0 006.115 2.531 8.604 8.604 0 004.293-1.147 22.928 22.928 0 0012.997 4.03c12.714 0 23.057-10.343 23.057-23.056 0-12.712-10.343-23.055-23.057-23.055-6.355 0-12.12 2.587-16.294 6.76z" id="Shape"/></g></g></svg>