<svg width="86" height="86" xmlns="http://www.w3.org/2000/svg"><defs><linearGradient x1="49.085%" y1="50%" x2="49.39%" y2="49.258%" id="linearGradient-1"><stop stop-color="#3498DB" offset="0%"/><stop stop-color="#1A699C" offset="100%"/></linearGradient></defs><g id="Page-1" stroke="none" stroke-width="1" fill="none" fill-rule="evenodd"><g id="ib-ico-3" fill="url(#linearGradient-1)"><path d="M76.8 43.92a3.328 3.328 0 00-.365-.83L60.082 18.612l-.248-.215c-.349-.332-3.566-3.151-7.596-2.902-2.256.149-4.296 1.227-5.921 3.15a2.738 2.738 0 00.332 3.865c1.16.978 2.885.83 3.864-.332.862-1.028 1.592-1.194 2.056-1.227 1.294-.083 2.704.78 3.367 1.294L67.38 39.376h-8.624c-2.306 0-4.594.646-6.585 1.807-3.88-2.338-8.06-3.2-12.156-2.454-2.654.48-4.793 1.526-6.22 2.405-1.973-1.128-4.245-1.758-6.517-1.758h-8.11l11.476-17.182c.597-.465 2.04-1.377 3.35-1.294.481.033 1.211.183 2.09 1.227a2.752 2.752 0 003.864.332c1.161-.978 1.294-2.703.332-3.864-1.625-1.924-3.665-3.002-5.92-3.151-4.03-.249-7.248 2.57-7.597 2.902l-.248.216-16.187 24.18c-2.455 2.29-3.997 5.54-3.997 9.155v.15l.713 6.302.017.116c.497 3.25 1.89 6.22 3.897 8.359 2.305 2.454 5.274 3.748 8.591 3.748h7.015c6.303 0 11.08-4.61 12.472-12.024l.017-.1.713-6.236c.315-2.52-.315-5.025-1.758-7.18 2.322-1.095 5.821-1.875 9.95.082-1.392 2.123-1.99 4.577-1.724 7.065l.713 6.302.033.133c1.642 7.48 6.303 11.941 12.456 11.941h7.015c3.317 0 6.269-1.293 8.558-3.748 1.99-2.123 3.35-5.009 3.93-8.309l.73-6.468v-.15c0-3.018-1.078-5.804-2.87-7.96zm-42.474 7.629l-.696 6.087c-.448 2.321-2.024 7.463-7.082 7.463h-7.016c-4.345 0-6.534-3.98-7.081-7.414l-.664-5.92c.034-1.99.913-3.765 2.272-5.026.1-.066.183-.149.282-.248a7.096 7.096 0 014.511-1.642h8.409c2.106 0 4.279.978 5.672 2.554.763.862 1.625 2.288 1.393 4.146zm39.207 6.103c-.647 3.616-2.853 7.447-7.082 7.447h-7.015c-4.66 0-6.435-4.644-7.082-7.497l-.68-6.003c-.2-1.94.696-3.4 1.476-4.28 1.393-1.542 3.483-2.47 5.589-2.47h8.409c3.847 0 6.965 3.084 7.048 6.916l-.663 5.887z" id="Shape"/></g></g></svg>