<svg width="86" height="86" xmlns="http://www.w3.org/2000/svg"><defs><linearGradient x1="49.085%" y1="50%" x2="49.39%" y2="49.258%" id="linearGradient-1"><stop stop-color="#E74C3C" offset="0%"/><stop stop-color="#A82A1D" offset="100%"/></linearGradient></defs><g id="Page-1" stroke="none" stroke-width="1" fill="none" fill-rule="evenodd"><g id="ib-ico-4"><g id="Group" transform="translate(5)"><path d="M72.259 19.102L41.64 1.377c-2.15-1.25-4.984-1.249-7.135 0L3.765 19.102C1.579 20.37 0 22.736 0 25.275v35.449c0 2.54 1.554 4.907 3.74 6.174l30.62 17.725a7.256 7.256 0 003.593.956 7.16 7.16 0 003.568-.956l30.728-17.725C74.434 65.63 76 63.263 76 60.724V25.275c0-2.539-1.555-4.904-3.741-6.173zM15.085 69.868c.076-4.182 3.4-7.757 7.483-7.757H36.1V82.33c0-.059-.179-.215-.302-.288L15.085 69.868zM24.7 43.394c.95-3.846 4.902-7.083 9.155-7.083h8.152c5.006 0 9.132 4.072 9.619 8.979-.373 7.192-6.293 13.049-13.536 13.049-6.762 0-12.44-4.891-13.39-11.409v-3.536zm3.855-8.521c2.453-2.439 5.82-3.836 9.534-3.836 3.853 0 7.328 1.46 9.8 4.062-1.755-.945-3.757-1.655-5.882-1.655h-8.152c-1.896 0-3.688.666-5.3 1.429zM40.118 82.14c-.316.183-.739.322-1.09.415 0-.024-.076-.049-.076-.072V62.11h15.5c3.893 0 7.1 3.27 7.454 7.184L40.118 82.14zM73.15 60.724c0 1.518-1.008 2.932-2.316 3.692l-6.366 3.537c-.805-3.78-3.668-6.808-7.468-7.888v-1.334c0-.789-.287-1.398-1.074-1.398H55.1v-2.252a1.43 1.43 0 00-1.425-1.433 1.43 1.43 0 00-1.425 1.433v2.252h-3.455c2.247-1.91 3.967-4.513 4.906-7.415 2.63-.14 4.499-2.324 4.499-5.002 0-.066-.252-.138-.252-.203V34.53c.95-.48 1.584-1.353 1.584-2.36 0-1.518-1.113-2.753-2.621-2.753-1.51 0-2.91 1.234-2.91 2.753 0 .973 1.096 1.826 1.096 2.315v5.896c0-.261-.918-.416-1.552-.459-2.075-6.734-8.21-11.639-15.574-11.639-7.388 0-13.59 4.933-15.647 11.695-2.327.423-4.074 2.467-4.074 4.928a5.038 5.038 0 004.188 4.955c.938 2.926 2.681 5.561 4.944 7.472H19.78c-.786 0-1.73.609-1.73 1.4v1.828c-2.85 1.427-5.255 4.383-5.826 7.93l-7.137-4.075c-1.306-.759-2.237-2.172-2.237-3.692V25.275c0-1.518 1.008-2.932 2.315-3.69L35.784 3.858a4.404 4.404 0 012.168-.57c.742 0 1.499.198 2.143.57l30.73 17.725c1.306.759 2.325 2.174 2.325 3.691v35.449z" id="Shape" fill="url(#linearGradient-1)"/><path d="M45.473 48.57a1.421 1.421 0 002.017 0 1.439 1.439 0 000-2.027l-5.979-6.012a1.418 1.418 0 00-2.015 0 1.439 1.439 0 000 2.027l5.977 6.012zm-2.704-.892a1.418 1.418 0 00-2.015 0 1.439 1.439 0 000 2.027l2.556 2.572c.278.28.643.419 1.008.419s.73-.14 1.008-.42a1.439 1.439 0 000-2.026l-2.557-2.572zm-17.195 17.65c-1.892 0-3.432 1.548-3.432 3.451 0 1.902 1.54 3.451 3.432 3.451s3.432-1.549 3.432-3.451c0-1.903-1.54-3.451-3.432-3.451zm16.36 8.849l-1.403 1.411a1.439 1.439 0 000 2.027 1.42 1.42 0 002.017 0l1.402-1.411a1.439 1.439 0 000-2.027 1.42 1.42 0 00-2.016 0zm0-5.194l-1.403 1.41a1.439 1.439 0 000 2.028 1.42 1.42 0 002.017 0l1.402-1.412a1.439 1.439 0 000-2.026 1.42 1.42 0 00-2.016 0zM15.53 32.217l-.939-.516-.513-.945c-.25-.46-.73-.746-1.25-.746s-1 .286-1.25.746l-.514.944-.939.517a1.435 1.435 0 00-.74 1.257c0 .524.283 1.006.74 1.258l.939.517.514.944a1.422 1.422 0 002.5-.001l.513-.944.939-.516c.457-.252.74-.734.74-1.258s-.283-1.006-.74-1.257zm18.858-15.082l-.938-.516-.514-.944c-.25-.46-.73-.746-1.25-.746s-1 .285-1.25.745l-.514.944-.938.517a1.435 1.435 0 00-.741 1.258c0 .523.284 1.006.74 1.257l.94.517.513.944a1.422 1.422 0 002.5-.001l.514-.944.938-.516a1.435 1.435 0 000-2.515zm33.956 17.206l-.94-.516-.514-.945a1.42 1.42 0 00-2.5.001l-.511.944-.938.516a1.435 1.435 0 00-.74 1.257c0 .524.283 1.006.74 1.258l.938.516.512.944a1.421 1.421 0 002.5.001l.513-.944.94-.516a1.438 1.438 0 000-2.516zM48.986 16.756c-2.434 0-4.414 1.99-4.414 4.438 0 2.448 1.98 4.44 4.414 4.44 2.433 0 4.413-1.992 4.413-4.44 0-2.447-1.98-4.438-4.413-4.438z" id="Shape" fill="#CD2122"/></g></g></g></svg>