<svg width="300" height="300" xmlns="http://www.w3.org/2000/svg"><g id="Page-1" stroke="none" stroke-width="1" fill="none" fill-rule="evenodd"><g id="ico-results" fill="#000"><g id="Group" transform="translate(27 41)"><path d="M231.054 166.667h-48.122c-.789 0-1.43-.643-1.43-1.434 0-.792.641-1.435 1.43-1.435h48.122c.79 0 1.43.643 1.43 1.435a1.43 1.43 0 01-1.43 1.434zm0 11.953h-48.122c-.789 0-1.43-.643-1.43-1.435 0-.791.641-1.434 1.43-1.434h48.122c.79 0 1.43.643 1.43 1.434a1.43 1.43 0 01-1.43 1.434zm-20.724 12.308h-27.398c-.789 0-1.43-.643-1.43-1.434 0-.792.641-1.435 1.43-1.435h27.398c.79 0 1.43.643 1.43 1.435a1.43 1.43 0 01-1.43 1.434zM63.394 48.106H15.269c-.79 0-1.43-.642-1.43-1.434 0-.792.64-1.434 1.43-1.434h48.125c.79 0 1.43.642 1.43 1.434 0 .792-.64 1.434-1.43 1.434zm0 11.953H15.269c-.79 0-1.43-.643-1.43-1.434 0-.792.64-1.434 1.43-1.434h48.125c.79 0 1.43.642 1.43 1.434 0 .791-.64 1.434-1.43 1.434zM42.67 72.367h-27.4c-.79 0-1.431-.642-1.431-1.434 0-.792.64-1.434 1.43-1.434h27.4c.79 0 1.43.642 1.43 1.434 0 .792-.64 1.434-1.43 1.434z" id="Shape"/><path id="Rectangle-path" d="M148.779 174.693h10v18.857h-10zm-14.303-7.966h10v26.82h-10zm29.354-5.906h10v32.726h-10z"/><path d="M246 218H0V28.684h246V218zM5.72 212.263h234.56V34.421H5.72v177.842z" id="Shape"/><path d="M246 34.421H0v-26.4C0 3.065 5.012 0 9.654 0h226.692C240.988 0 246 3.066 246 8.02v26.401zM5.72 28.684h234.56V8.02c0-1.13-1.986-2.283-3.934-2.283H9.654c-1.948 0-3.933 1.153-3.933 2.283v20.664z" id="Shape"/><ellipse id="Oval" cx="20.618" cy="16.614" rx="4.411" ry="4.423"/><ellipse id="Oval" cx="34.921" cy="16.614" rx="4.411" ry="4.423"/><ellipse id="Oval" cx="49.223" cy="16.614" rx="4.411" ry="4.423"/><ellipse id="Oval" cx="16.533" cy="146.682" rx="3.564" ry="3.574"/><ellipse id="Oval" cx="38.299" cy="124.753" rx="3.564" ry="3.574"/><ellipse id="Oval" cx="113.512" cy="104.892" rx="3.564" ry="3.574"/><ellipse id="Oval" cx="135.477" cy="127.605" rx="3.564" ry="3.574"/><ellipse id="Oval" cx="174.331" cy="88.64" rx="3.564" ry="3.574"/><ellipse id="Oval" cx="198.659" cy="113.039" rx="3.564" ry="3.574"/><ellipse id="Oval" cx="65.982" cy="152.052" rx="3.564" ry="3.574"/><path d="M31.824 129.117l2.022 2.029-11.48 11.512-2.023-2.028 11.48-11.513zm12.938-.025l17.493 16.548-1.963 2.086L42.8 131.18l1.962-2.087zm62.041-19.496l2.023 2.029-35.969 36.068-2.022-2.028 35.968-36.069zm12.727-.001l12.696 12.73-2.023 2.03-12.696-12.732 2.023-2.028zm48.65-16.816l2.022 2.028-28.65 28.73-2.024-2.028 28.651-28.73zm12.29.002l15.072 15.119-2.023 2.028-15.072-15.119 2.022-2.028zm55.557-19.244l2.022 2.029-34.504 34.6-2.022-2.029 34.504-34.6z" id="Rectangle-path"/></g></g></g></svg>
