<svg width="300" height="300" xmlns="http://www.w3.org/2000/svg"><g id="Page-1" stroke="none" stroke-width="1" fill="none" fill-rule="evenodd"><g id="ico-world" fill="#FFF"><path d="M76.12 219.59c-1.384 0-2.593 1.099-2.593 2.487 0 1.389 1.209 2.593 2.593 2.593 1.389 0 2.487-1.204 2.487-2.593a2.467 2.467 0 00-2.487-2.486zm191.273-7.353c-1.384 0-2.592 1.209-2.592 2.593 0 1.388 1.208 2.486 2.592 2.486a2.467 2.467 0 002.487-2.486c0-1.384-1.098-2.593-2.487-2.593zm-191.273 0c-1.384 0-2.593 1.209-2.593 2.593 0 1.388 1.209 2.486 2.593 2.486a2.467 2.467 0 002.487-2.486c0-1.384-1.098-2.593-2.487-2.593zm-7.349 0c-1.389 0-2.597 1.209-2.597 2.593 0 1.388 1.208 2.486 2.597 2.486a2.47 2.47 0 002.487-2.486c0-1.384-1.103-2.593-2.487-2.593zm198.622-7.243c-1.384 0-2.592 1.098-2.592 2.487 0 1.384 1.208 2.486 2.592 2.486a2.47 2.47 0 002.487-2.486 2.467 2.467 0 00-2.487-2.487zm-7.349 0c-1.388 0-2.597 1.098-2.597 2.487 0 1.384 1.209 2.486 2.597 2.486a2.473 2.473 0 002.487-2.486 2.47 2.47 0 00-2.487-2.487zm-7.353 0c-1.389 0-2.598 1.098-2.598 2.487 0 1.384 1.21 2.486 2.598 2.486a2.47 2.47 0 002.486-2.486 2.467 2.467 0 00-2.486-2.487zm-7.354 0c-1.389 0-2.593 1.098-2.593 2.487 0 1.384 1.204 2.486 2.593 2.486a2.47 2.47 0 002.487-2.486 2.467 2.467 0 00-2.487-2.487zm-7.354 0c-1.384 0-2.592 1.098-2.592 2.487 0 1.384 1.208 2.486 2.592 2.486a2.47 2.47 0 002.487-2.486 2.467 2.467 0 00-2.487-2.487zm-73.633 0a2.47 2.47 0 00-2.487 2.487 2.473 2.473 0 002.487 2.486c1.389 0 2.597-1.102 2.597-2.486 0-1.389-1.208-2.487-2.597-2.487zm-7.349 0a2.467 2.467 0 00-2.487 2.487 2.47 2.47 0 002.487 2.486c1.384 0 2.593-1.102 2.593-2.486 0-1.389-1.209-2.487-2.593-2.487zm-73.527 0c-1.389 0-2.593 1.098-2.593 2.487 0 1.384 1.204 2.486 2.593 2.486a2.47 2.47 0 002.486-2.486 2.467 2.467 0 00-2.486-2.487zm-7.354 0c-1.384 0-2.593 1.098-2.593 2.487 0 1.384 1.209 2.486 2.593 2.486a2.47 2.47 0 002.487-2.486 2.467 2.467 0 00-2.487-2.487zm-7.349 0c-1.389 0-2.597 1.098-2.597 2.487 0 1.384 1.208 2.486 2.597 2.486a2.473 2.473 0 002.487-2.486 2.47 2.47 0 00-2.487-2.487zm198.622-7.354c-1.384 0-2.592 1.098-2.592 2.487s1.208 2.593 2.592 2.593c1.389 0 2.487-1.204 2.487-2.593a2.467 2.467 0 00-2.487-2.487zm-7.349 0c-1.388 0-2.597 1.098-2.597 2.487s1.209 2.593 2.597 2.593c1.384 0 2.487-1.204 2.487-2.593a2.47 2.47 0 00-2.487-2.487zm-7.353 0c-1.389 0-2.598 1.098-2.598 2.487s1.21 2.593 2.598 2.593 2.486-1.204 2.486-2.593a2.467 2.467 0 00-2.486-2.487zm-7.354 0c-1.389 0-2.593 1.098-2.593 2.487s1.204 2.593 2.593 2.593 2.487-1.204 2.487-2.593a2.467 2.467 0 00-2.487-2.487zm-7.354 0c-1.384 0-2.592 1.098-2.592 2.487s1.208 2.593 2.592 2.593c1.389 0 2.487-1.204 2.487-2.593a2.467 2.467 0 00-2.487-2.487zm-58.926 0a2.467 2.467 0 00-2.486 2.487c0 1.389 1.098 2.593 2.486 2.593 1.389 0 2.593-1.204 2.593-2.593s-1.204-2.487-2.593-2.487zm-14.707 0a2.47 2.47 0 00-2.487 2.487c0 1.389 1.103 2.593 2.487 2.593 1.389 0 2.597-1.204 2.597-2.593s-1.208-2.487-2.597-2.487zm-7.349 0a2.467 2.467 0 00-2.487 2.487c0 1.389 1.098 2.593 2.487 2.593 1.384 0 2.593-1.204 2.593-2.593s-1.209-2.487-2.593-2.487zm-66.174 0c-1.388 0-2.597 1.098-2.597 2.487s1.209 2.593 2.597 2.593c1.389 0 2.487-1.204 2.487-2.593a2.467 2.467 0 00-2.487-2.487zm-7.353 0c-1.389 0-2.593 1.098-2.593 2.487s1.204 2.593 2.593 2.593c1.388 0 2.486-1.204 2.486-2.593a2.467 2.467 0 00-2.486-2.487zm-7.354 0c-1.384 0-2.593 1.098-2.593 2.487s1.209 2.593 2.593 2.593c1.389 0 2.487-1.204 2.487-2.593a2.467 2.467 0 00-2.487-2.487zm-7.349 0c-1.389 0-2.597 1.098-2.597 2.487s1.208 2.593 2.597 2.593c1.384 0 2.487-1.204 2.487-2.593a2.47 2.47 0 00-2.487-2.487zm198.622-7.353c-1.384 0-2.592 1.209-2.592 2.597 0 1.384 1.208 2.487 2.592 2.487a2.47 2.47 0 002.487-2.487c0-1.388-1.098-2.597-2.487-2.597zm-7.349 0c-1.388 0-2.597 1.209-2.597 2.597 0 1.384 1.209 2.487 2.597 2.487a2.473 2.473 0 002.487-2.487c0-1.388-1.103-2.597-2.487-2.597zm-7.353 0c-1.389 0-2.598 1.209-2.598 2.597 0 1.384 1.21 2.487 2.598 2.487a2.47 2.47 0 002.486-2.487c0-1.388-1.098-2.597-2.486-2.597zm-7.354 0c-1.389 0-2.593 1.209-2.593 2.597 0 1.384 1.204 2.487 2.593 2.487a2.47 2.47 0 002.487-2.487c0-1.388-1.098-2.597-2.487-2.597zm-7.354 0c-1.384 0-2.592 1.209-2.592 2.597 0 1.384 1.208 2.487 2.592 2.487a2.47 2.47 0 002.487-2.487c0-1.388-1.098-2.597-2.487-2.597zm-51.572 0c-1.389 0-2.487 1.209-2.487 2.597a2.47 2.47 0 002.487 2.487c1.384 0 2.593-1.103 2.593-2.487 0-1.388-1.209-2.597-2.593-2.597zm-14.707 0c-1.389 0-2.487 1.209-2.487 2.597a2.47 2.47 0 002.487 2.487c1.388 0 2.597-1.103 2.597-2.487 0-1.388-1.209-2.597-2.597-2.597zm-7.354 0c-1.384 0-2.487 1.209-2.487 2.597a2.473 2.473 0 002.487 2.487c1.389 0 2.597-1.103 2.597-2.487 0-1.388-1.208-2.597-2.597-2.597zm-7.349 0c-1.389 0-2.487 1.209-2.487 2.597a2.47 2.47 0 002.487 2.487c1.384 0 2.593-1.103 2.593-2.487 0-1.388-1.209-2.597-2.593-2.597zm-7.354 0c-1.388 0-2.486 1.209-2.486 2.597a2.47 2.47 0 002.486 2.487c1.389 0 2.593-1.103 2.593-2.487 0-1.388-1.204-2.597-2.593-2.597zm-51.466 0c-1.389 0-2.487 1.209-2.487 2.597a2.47 2.47 0 002.487 2.487 2.473 2.473 0 002.487-2.487c0-1.388-1.103-2.597-2.487-2.597zm-7.354 0c-1.388 0-2.597 1.209-2.597 2.597 0 1.384 1.209 2.487 2.597 2.487a2.47 2.47 0 002.487-2.487c0-1.388-1.098-2.597-2.487-2.597zm-7.353 0c-1.389 0-2.593 1.209-2.593 2.597 0 1.384 1.204 2.487 2.593 2.487a2.47 2.47 0 002.486-2.487c0-1.388-1.098-2.597-2.486-2.597zm-7.354 0c-1.384 0-2.593 1.209-2.593 2.597 0 1.384 1.209 2.487 2.593 2.487a2.47 2.47 0 002.487-2.487c0-1.388-1.098-2.597-2.487-2.597zm-7.349 0c-1.389 0-2.597 1.209-2.597 2.597 0 1.384 1.208 2.487 2.597 2.487a2.473 2.473 0 002.487-2.487c0-1.388-1.103-2.597-2.487-2.597zm183.92-7.243c-1.389 0-2.598 1.098-2.598 2.486 0 1.39 1.21 2.593 2.598 2.593s2.486-1.204 2.486-2.593a2.467 2.467 0 00-2.486-2.486zm-80.987 0a2.467 2.467 0 00-2.487 2.486c0 1.39 1.098 2.593 2.487 2.593 1.388 0 2.597-1.204 2.597-2.593 0-1.388-1.209-2.486-2.597-2.486zm-7.354 0a2.47 2.47 0 00-2.487 2.486c0 1.39 1.103 2.593 2.487 2.593 1.389 0 2.597-1.204 2.597-2.593 0-1.388-1.208-2.486-2.597-2.486zm-7.349 0a2.467 2.467 0 00-2.487 2.486c0 1.39 1.098 2.593 2.487 2.593 1.384 0 2.593-1.204 2.593-2.593 0-1.388-1.209-2.486-2.593-2.486zm-7.354 0a2.467 2.467 0 00-2.486 2.486c0 1.39 1.098 2.593 2.486 2.593 1.389 0 2.593-1.204 2.593-2.593 0-1.388-1.204-2.486-2.593-2.486zm-51.466 0a2.467 2.467 0 00-2.487 2.486c0 1.39 1.098 2.593 2.487 2.593 1.384 0 2.487-1.204 2.487-2.593a2.47 2.47 0 00-2.487-2.486zm-7.354 0c-1.388 0-2.597 1.098-2.597 2.486 0 1.39 1.209 2.593 2.597 2.593 1.389 0 2.487-1.204 2.487-2.593a2.467 2.467 0 00-2.487-2.486zm-7.353 0c-1.389 0-2.593 1.098-2.593 2.486 0 1.39 1.204 2.593 2.593 2.593 1.388 0 2.486-1.204 2.486-2.593a2.467 2.467 0 00-2.486-2.486zm-7.354 0c-1.384 0-2.593 1.098-2.593 2.486 0 1.39 1.209 2.593 2.593 2.593 1.389 0 2.487-1.204 2.487-2.593a2.467 2.467 0 00-2.487-2.486zm-7.349 0c-1.389 0-2.597 1.098-2.597 2.486 0 1.39 1.208 2.593 2.597 2.593 1.384 0 2.487-1.204 2.487-2.593a2.47 2.47 0 00-2.487-2.486zm-7.354 0c-1.388 0-2.597 1.098-2.597 2.486 0 1.39 1.209 2.593 2.597 2.593 1.389 0 2.487-1.204 2.487-2.593a2.467 2.467 0 00-2.487-2.486zm205.976-7.354c-1.384 0-2.592 1.209-2.592 2.598 0 1.384 1.208 2.486 2.592 2.486a2.47 2.47 0 002.487-2.486c0-1.39-1.098-2.598-2.487-2.598zm-22.056 0c-1.389 0-2.593 1.209-2.593 2.598 0 1.384 1.204 2.486 2.593 2.486a2.47 2.47 0 002.487-2.486c0-1.39-1.098-2.598-2.487-2.598zm-73.633 0c-1.389 0-2.487 1.209-2.487 2.598a2.47 2.47 0 002.487 2.486c1.388 0 2.597-1.102 2.597-2.486 0-1.39-1.209-2.598-2.597-2.598zm-7.354 0c-1.384 0-2.487 1.209-2.487 2.598a2.473 2.473 0 002.487 2.486c1.389 0 2.597-1.102 2.597-2.486 0-1.39-1.208-2.598-2.597-2.598zm-7.349 0c-1.389 0-2.487 1.209-2.487 2.598a2.47 2.47 0 002.487 2.486c1.384 0 2.593-1.102 2.593-2.486 0-1.39-1.209-2.598-2.593-2.598zm-7.354 0c-1.388 0-2.486 1.209-2.486 2.598a2.47 2.47 0 002.486 2.486c1.389 0 2.593-1.102 2.593-2.486 0-1.39-1.204-2.598-2.593-2.598zm-51.466 0c-1.389 0-2.487 1.209-2.487 2.598a2.47 2.47 0 002.487 2.486 2.473 2.473 0 002.487-2.486c0-1.39-1.103-2.598-2.487-2.598zm-7.354 0c-1.388 0-2.597 1.209-2.597 2.598 0 1.384 1.209 2.486 2.597 2.486a2.47 2.47 0 002.487-2.486c0-1.39-1.098-2.598-2.487-2.598zm-7.353 0c-1.389 0-2.593 1.209-2.593 2.598 0 1.384 1.204 2.486 2.593 2.486a2.47 2.47 0 002.486-2.486c0-1.39-1.098-2.598-2.486-2.598zm-7.354 0c-1.384 0-2.593 1.209-2.593 2.598 0 1.384 1.209 2.486 2.593 2.486a2.47 2.47 0 002.487-2.486c0-1.39-1.098-2.598-2.487-2.598zm-7.349 0c-1.389 0-2.597 1.209-2.597 2.598 0 1.384 1.208 2.486 2.597 2.486a2.473 2.473 0 002.487-2.486c0-1.39-1.103-2.598-2.487-2.598zm-7.354 0c-1.388 0-2.597 1.209-2.597 2.598 0 1.384 1.209 2.486 2.597 2.486a2.47 2.47 0 002.487-2.486c0-1.39-1.098-2.598-2.487-2.598zm-7.353 0c-1.389 0-2.593 1.209-2.593 2.598 0 1.384 1.204 2.486 2.593 2.486a2.47 2.47 0 002.486-2.486c0-1.39-1.098-2.598-2.486-2.598zm183.92-7.243c-1.385 0-2.593 1.098-2.593 2.487s1.208 2.486 2.592 2.486a2.467 2.467 0 002.487-2.486 2.467 2.467 0 00-2.487-2.487zm-58.927 0a2.467 2.467 0 00-2.486 2.487 2.467 2.467 0 002.486 2.486c1.389 0 2.593-1.097 2.593-2.486 0-1.389-1.204-2.487-2.593-2.487zm-7.353 0a2.467 2.467 0 00-2.487 2.487 2.467 2.467 0 002.487 2.486c1.388 0 2.597-1.097 2.597-2.486 0-1.389-1.209-2.487-2.597-2.487zm-7.354 0a2.47 2.47 0 00-2.487 2.487 2.47 2.47 0 002.487 2.486c1.389 0 2.597-1.097 2.597-2.486 0-1.389-1.208-2.487-2.597-2.487zm-7.349 0a2.467 2.467 0 00-2.487 2.487 2.467 2.467 0 002.487 2.486c1.384 0 2.593-1.097 2.593-2.486 0-1.389-1.209-2.487-2.593-2.487zm-7.354 0a2.467 2.467 0 00-2.486 2.487 2.467 2.467 0 002.486 2.486c1.389 0 2.593-1.097 2.593-2.486 0-1.389-1.204-2.487-2.593-2.487zm-66.173 0c-1.389 0-2.593 1.098-2.593 2.487s1.204 2.486 2.593 2.486a2.467 2.467 0 002.486-2.486 2.467 2.467 0 00-2.486-2.487zm-7.354 0c-1.384 0-2.593 1.098-2.593 2.487s1.209 2.486 2.593 2.486a2.467 2.467 0 002.487-2.486 2.467 2.467 0 00-2.487-2.487zm-7.349 0c-1.389 0-2.597 1.098-2.597 2.487s1.208 2.486 2.597 2.486a2.47 2.47 0 002.487-2.486 2.47 2.47 0 00-2.487-2.487zm-7.354 0c-1.388 0-2.597 1.098-2.597 2.487s1.209 2.486 2.597 2.486a2.467 2.467 0 002.487-2.486 2.467 2.467 0 00-2.487-2.487zm176.566-7.353c-1.384 0-2.592 1.098-2.592 2.486 0 1.389 1.208 2.598 2.592 2.598 1.389 0 2.487-1.21 2.487-2.598a2.467 2.467 0 00-2.487-2.486zm-22.056 0c-1.389 0-2.593 1.098-2.593 2.486 0 1.389 1.204 2.598 2.593 2.598s2.487-1.21 2.487-2.598a2.467 2.467 0 00-2.487-2.486zm-36.87 0a2.467 2.467 0 00-2.486 2.486c0 1.389 1.098 2.598 2.486 2.598 1.389 0 2.593-1.21 2.593-2.598s-1.204-2.486-2.593-2.486zm-7.353 0a2.467 2.467 0 00-2.487 2.486c0 1.389 1.098 2.598 2.487 2.598 1.388 0 2.597-1.21 2.597-2.598s-1.209-2.486-2.597-2.486zm-7.354 0a2.47 2.47 0 00-2.487 2.486c0 1.389 1.103 2.598 2.487 2.598 1.389 0 2.597-1.21 2.597-2.598s-1.208-2.486-2.597-2.486zm-7.349 0a2.467 2.467 0 00-2.487 2.486c0 1.389 1.098 2.598 2.487 2.598 1.384 0 2.593-1.21 2.593-2.598s-1.209-2.486-2.593-2.486zm-7.354 0a2.467 2.467 0 00-2.486 2.486c0 1.389 1.098 2.598 2.486 2.598 1.389 0 2.593-1.21 2.593-2.598s-1.204-2.486-2.593-2.486zm-7.353 0a2.467 2.467 0 00-2.487 2.486c0 1.389 1.098 2.598 2.487 2.598 1.388 0 2.597-1.21 2.597-2.598s-1.209-2.486-2.597-2.486zm-7.354 0a2.47 2.47 0 00-2.487 2.486c0 1.389 1.103 2.598 2.487 2.598 1.389 0 2.487-1.21 2.487-2.598a2.467 2.467 0 00-2.487-2.486zm-7.349 0a2.467 2.467 0 00-2.487 2.486c0 1.389 1.098 2.598 2.487 2.598 1.384 0 2.487-1.21 2.487-2.598a2.47 2.47 0 00-2.487-2.486zm-51.471 0c-1.384 0-2.593 1.098-2.593 2.486 0 1.389 1.209 2.598 2.593 2.598 1.389 0 2.487-1.21 2.487-2.598a2.467 2.467 0 00-2.487-2.486zm-7.349 0c-1.389 0-2.597 1.098-2.597 2.486 0 1.389 1.208 2.598 2.597 2.598 1.384 0 2.487-1.21 2.487-2.598a2.47 2.47 0 00-2.487-2.486zm-7.354 0c-1.388 0-2.597 1.098-2.597 2.486 0 1.389 1.209 2.598 2.597 2.598 1.389 0 2.487-1.21 2.487-2.598a2.467 2.467 0 00-2.487-2.486zm-7.353 0c-1.389 0-2.593 1.098-2.593 2.486 0 1.389 1.204 2.598 2.593 2.598 1.388 0 2.486-1.21 2.486-2.598a2.467 2.467 0 00-2.486-2.486zm191.273-7.354c-1.389 0-2.593 1.209-2.593 2.597 0 1.389 1.204 2.487 2.593 2.487a2.467 2.467 0 002.487-2.487c0-1.388-1.098-2.597-2.487-2.597zm-7.354 0c-1.384 0-2.592 1.209-2.592 2.597 0 1.389 1.208 2.487 2.592 2.487a2.467 2.467 0 002.487-2.487c0-1.388-1.098-2.597-2.487-2.597zm-14.702 0c-1.389 0-2.598 1.209-2.598 2.597 0 1.389 1.21 2.487 2.598 2.487a2.467 2.467 0 002.486-2.487c0-1.388-1.098-2.597-2.486-2.597zm-7.354 0c-1.389 0-2.593 1.209-2.593 2.597 0 1.389 1.204 2.487 2.593 2.487a2.467 2.467 0 002.487-2.487c0-1.388-1.098-2.597-2.487-2.597zm-7.46 0c-1.388 0-2.486 1.209-2.486 2.597a2.467 2.467 0 002.486 2.487c1.389 0 2.593-1.098 2.593-2.487 0-1.388-1.204-2.597-2.593-2.597zm-22.056 0c-1.389 0-2.487 1.209-2.487 2.597a2.467 2.467 0 002.487 2.487c1.384 0 2.593-1.098 2.593-2.487 0-1.388-1.209-2.597-2.593-2.597zm-14.707 0c-1.389 0-2.487 1.209-2.487 2.597a2.467 2.467 0 002.487 2.487c1.388 0 2.597-1.098 2.597-2.487 0-1.388-1.209-2.597-2.597-2.597zm-7.354 0c-1.384 0-2.487 1.209-2.487 2.597a2.47 2.47 0 002.487 2.487c1.389 0 2.597-1.098 2.597-2.487 0-1.388-1.208-2.597-2.597-2.597zm-7.349 0c-1.389 0-2.487 1.209-2.487 2.597a2.467 2.467 0 002.487 2.487c1.384 0 2.593-1.098 2.593-2.487 0-1.388-1.209-2.597-2.593-2.597zm-7.354 0c-1.388 0-2.486 1.209-2.486 2.597a2.467 2.467 0 002.486 2.487c1.389 0 2.593-1.098 2.593-2.487 0-1.388-1.204-2.597-2.593-2.597zm-7.353 0c-1.389 0-2.487 1.209-2.487 2.597a2.467 2.467 0 002.487 2.487c1.388 0 2.597-1.098 2.597-2.487 0-1.388-1.209-2.597-2.597-2.597zm-7.354 0c-1.384 0-2.487 1.209-2.487 2.597a2.47 2.47 0 002.487 2.487 2.467 2.467 0 002.487-2.487c0-1.388-1.098-2.597-2.487-2.597zm-7.349 0c-1.389 0-2.487 1.209-2.487 2.597a2.467 2.467 0 002.487 2.487 2.47 2.47 0 002.487-2.487c0-1.388-1.103-2.597-2.487-2.597zm-7.354 0c-1.388 0-2.486 1.209-2.486 2.597a2.467 2.467 0 002.486 2.487 2.467 2.467 0 002.487-2.487c0-1.388-1.098-2.597-2.487-2.597zm-73.527 0c-1.384 0-2.593 1.209-2.593 2.597 0 1.389 1.209 2.487 2.593 2.487a2.467 2.467 0 002.487-2.487c0-1.388-1.098-2.597-2.487-2.597zm198.627-7.243c-1.389 0-2.593 1.098-2.593 2.487 0 1.388 1.204 2.592 2.593 2.592s2.487-1.204 2.487-2.592a2.467 2.467 0 00-2.487-2.487zm-7.354 0c-1.384 0-2.592 1.098-2.592 2.487 0 1.388 1.208 2.592 2.592 2.592 1.389 0 2.487-1.204 2.487-2.592a2.467 2.467 0 00-2.487-2.487zm-7.349 0c-1.388 0-2.597 1.098-2.597 2.487 0 1.388 1.209 2.592 2.597 2.592 1.384 0 2.487-1.204 2.487-2.592a2.47 2.47 0 00-2.487-2.487zm-7.353 0c-1.389 0-2.598 1.098-2.598 2.487 0 1.388 1.21 2.592 2.598 2.592s2.486-1.204 2.486-2.592a2.467 2.467 0 00-2.486-2.487zm-7.354 0c-1.389 0-2.593 1.098-2.593 2.487 0 1.388 1.204 2.592 2.593 2.592s2.487-1.204 2.487-2.592a2.467 2.467 0 00-2.487-2.487zm-7.46 0a2.467 2.467 0 00-2.486 2.487c0 1.388 1.098 2.592 2.486 2.592 1.389 0 2.593-1.204 2.593-2.592 0-1.389-1.204-2.487-2.593-2.487zm-14.707 0a2.47 2.47 0 00-2.487 2.487c0 1.388 1.103 2.592 2.487 2.592 1.389 0 2.597-1.204 2.597-2.592 0-1.389-1.208-2.487-2.597-2.487zm-7.349 0a2.467 2.467 0 00-2.487 2.487c0 1.388 1.098 2.592 2.487 2.592 1.384 0 2.593-1.204 2.593-2.592 0-1.389-1.209-2.487-2.593-2.487zm-7.354 0a2.467 2.467 0 00-2.486 2.487c0 1.388 1.098 2.592 2.486 2.592 1.389 0 2.593-1.204 2.593-2.592 0-1.389-1.204-2.487-2.593-2.487zm-14.707 0a2.47 2.47 0 00-2.487 2.487c0 1.388 1.103 2.592 2.487 2.592 1.389 0 2.597-1.204 2.597-2.592 0-1.389-1.208-2.487-2.597-2.487zm-7.349 0a2.467 2.467 0 00-2.487 2.487c0 1.388 1.098 2.592 2.487 2.592 1.384 0 2.593-1.204 2.593-2.592 0-1.389-1.209-2.487-2.593-2.487zm-7.354 0a2.467 2.467 0 00-2.486 2.487c0 1.388 1.098 2.592 2.486 2.592 1.389 0 2.593-1.204 2.593-2.592 0-1.389-1.204-2.487-2.593-2.487zm-7.353 0a2.467 2.467 0 00-2.487 2.487c0 1.388 1.098 2.592 2.487 2.592 1.388 0 2.597-1.204 2.597-2.592 0-1.389-1.209-2.487-2.597-2.487zm-7.354 0a2.47 2.47 0 00-2.487 2.487c0 1.388 1.103 2.592 2.487 2.592 1.389 0 2.487-1.204 2.487-2.592a2.467 2.467 0 00-2.487-2.487zm-7.349 0a2.467 2.467 0 00-2.487 2.487c0 1.388 1.098 2.592 2.487 2.592 1.384 0 2.487-1.204 2.487-2.592a2.47 2.47 0 00-2.487-2.487zm-7.354 0a2.467 2.467 0 00-2.486 2.487c0 1.388 1.098 2.592 2.486 2.592 1.389 0 2.487-1.204 2.487-2.592a2.467 2.467 0 00-2.487-2.487zm-80.876 0c-1.389 0-2.597 1.098-2.597 2.487 0 1.388 1.208 2.592 2.597 2.592 1.384 0 2.487-1.204 2.487-2.592a2.47 2.47 0 00-2.487-2.487zm-7.354 0c-1.388 0-2.597 1.098-2.597 2.487 0 1.388 1.209 2.592 2.597 2.592 1.389 0 2.487-1.204 2.487-2.592a2.467 2.467 0 00-2.487-2.487zm213.33-7.354c-1.389 0-2.593 1.21-2.593 2.598 0 1.384 1.204 2.486 2.593 2.486a2.47 2.47 0 002.487-2.486c0-1.389-1.098-2.598-2.487-2.598zm-7.354 0c-1.384 0-2.592 1.21-2.592 2.598 0 1.384 1.208 2.486 2.592 2.486a2.47 2.47 0 002.487-2.486c0-1.389-1.098-2.598-2.487-2.598zm-7.349 0c-1.388 0-2.597 1.21-2.597 2.598 0 1.384 1.209 2.486 2.597 2.486a2.473 2.473 0 002.487-2.486c0-1.389-1.103-2.598-2.487-2.598zm-7.353 0c-1.389 0-2.598 1.21-2.598 2.598 0 1.384 1.21 2.486 2.598 2.486a2.47 2.47 0 002.486-2.486c0-1.389-1.098-2.598-2.486-2.598zm-7.354 0c-1.389 0-2.593 1.21-2.593 2.598 0 1.384 1.204 2.486 2.593 2.486a2.47 2.47 0 002.487-2.486c0-1.389-1.098-2.598-2.487-2.598zm-7.46 0c-1.388 0-2.486 1.21-2.486 2.598a2.47 2.47 0 002.486 2.486c1.389 0 2.593-1.102 2.593-2.486 0-1.389-1.204-2.598-2.593-2.598zm-7.353 0c-1.389 0-2.487 1.21-2.487 2.598a2.47 2.47 0 002.487 2.486c1.388 0 2.597-1.102 2.597-2.486 0-1.389-1.209-2.598-2.597-2.598zm-7.354 0c-1.384 0-2.487 1.21-2.487 2.598a2.473 2.473 0 002.487 2.486c1.389 0 2.597-1.102 2.597-2.486 0-1.389-1.208-2.598-2.597-2.598zm-7.349 0c-1.389 0-2.487 1.21-2.487 2.598a2.47 2.47 0 002.487 2.486c1.384 0 2.593-1.102 2.593-2.486 0-1.389-1.209-2.598-2.593-2.598zm-7.354 0c-1.388 0-2.486 1.21-2.486 2.598a2.47 2.47 0 002.486 2.486c1.389 0 2.593-1.102 2.593-2.486 0-1.389-1.204-2.598-2.593-2.598zm-7.353 0c-1.389 0-2.487 1.21-2.487 2.598a2.47 2.47 0 002.487 2.486c1.388 0 2.597-1.102 2.597-2.486 0-1.389-1.209-2.598-2.597-2.598zm-7.354 0c-1.384 0-2.487 1.21-2.487 2.598a2.473 2.473 0 002.487 2.486c1.389 0 2.597-1.102 2.597-2.486 0-1.389-1.208-2.598-2.597-2.598zm-7.349 0c-1.389 0-2.487 1.21-2.487 2.598a2.47 2.47 0 002.487 2.486c1.384 0 2.593-1.102 2.593-2.486 0-1.389-1.209-2.598-2.593-2.598zm-7.354 0c-1.388 0-2.486 1.21-2.486 2.598a2.47 2.47 0 002.486 2.486c1.389 0 2.593-1.102 2.593-2.486 0-1.389-1.204-2.598-2.593-2.598zm-7.353 0c-1.389 0-2.487 1.21-2.487 2.598a2.47 2.47 0 002.487 2.486c1.388 0 2.597-1.102 2.597-2.486 0-1.389-1.209-2.598-2.597-2.598zm-7.354 0c-1.384 0-2.487 1.21-2.487 2.598a2.473 2.473 0 002.487 2.486 2.47 2.47 0 002.487-2.486c0-1.389-1.098-2.598-2.487-2.598zm-7.349 0c-1.389 0-2.487 1.21-2.487 2.598a2.47 2.47 0 002.487 2.486 2.473 2.473 0 002.487-2.486c0-1.389-1.103-2.598-2.487-2.598zm-66.174 0c-1.388 0-2.597 1.21-2.597 2.598 0 1.384 1.209 2.486 2.597 2.486a2.47 2.47 0 002.487-2.486c0-1.389-1.098-2.598-2.487-2.598zm-22.056 0c-1.389 0-2.597 1.21-2.597 2.598 0 1.384 1.208 2.486 2.597 2.486a2.473 2.473 0 002.487-2.486c0-1.389-1.103-2.598-2.487-2.598zm-7.354 0c-1.388 0-2.597 1.21-2.597 2.598 0 1.384 1.209 2.486 2.597 2.486a2.47 2.47 0 002.487-2.486c0-1.389-1.098-2.598-2.487-2.598zm213.33-7.243c-1.389 0-2.593 1.098-2.593 2.487s1.204 2.487 2.593 2.487a2.467 2.467 0 002.487-2.487 2.467 2.467 0 00-2.487-2.487zm-7.354 0c-1.384 0-2.592 1.098-2.592 2.487s1.208 2.487 2.592 2.487a2.467 2.467 0 002.487-2.487 2.467 2.467 0 00-2.487-2.487zm-7.349 0c-1.388 0-2.597 1.098-2.597 2.487s1.209 2.487 2.597 2.487a2.47 2.47 0 002.487-2.487 2.47 2.47 0 00-2.487-2.487zm-7.353 0c-1.389 0-2.598 1.098-2.598 2.487s1.21 2.487 2.598 2.487a2.467 2.467 0 002.486-2.487 2.467 2.467 0 00-2.486-2.487zm-7.354 0c-1.389 0-2.593 1.098-2.593 2.487s1.204 2.487 2.593 2.487a2.467 2.467 0 002.487-2.487 2.467 2.467 0 00-2.487-2.487zm-7.46 0a2.467 2.467 0 00-2.486 2.487 2.467 2.467 0 002.486 2.487c1.389 0 2.593-1.098 2.593-2.487s-1.204-2.487-2.593-2.487zm-7.353 0a2.467 2.467 0 00-2.487 2.487 2.467 2.467 0 002.487 2.487c1.388 0 2.597-1.098 2.597-2.487s-1.209-2.487-2.597-2.487zm-7.354 0a2.47 2.47 0 00-2.487 2.487 2.47 2.47 0 002.487 2.487c1.389 0 2.597-1.098 2.597-2.487s-1.208-2.487-2.597-2.487zm-7.349 0a2.467 2.467 0 00-2.487 2.487 2.467 2.467 0 002.487 2.487c1.384 0 2.593-1.098 2.593-2.487s-1.209-2.487-2.593-2.487zm-7.354 0a2.467 2.467 0 00-2.486 2.487 2.467 2.467 0 002.486 2.487c1.389 0 2.593-1.098 2.593-2.487s-1.204-2.487-2.593-2.487zm-7.353 0a2.467 2.467 0 00-2.487 2.487 2.467 2.467 0 002.487 2.487c1.388 0 2.597-1.098 2.597-2.487s-1.209-2.487-2.597-2.487zm-29.41 0a2.467 2.467 0 00-2.487 2.487 2.467 2.467 0 002.487 2.487c1.388 0 2.597-1.098 2.597-2.487s-1.209-2.487-2.597-2.487zm-7.354 0a2.47 2.47 0 00-2.487 2.487 2.47 2.47 0 002.487 2.487 2.467 2.467 0 002.487-2.487 2.467 2.467 0 00-2.487-2.487zm-73.523 0c-1.388 0-2.597 1.098-2.597 2.487s1.209 2.487 2.597 2.487a2.467 2.467 0 002.487-2.487 2.467 2.467 0 00-2.487-2.487zm-7.353 0c-1.389 0-2.593 1.098-2.593 2.487s1.204 2.487 2.593 2.487a2.467 2.467 0 002.486-2.487 2.467 2.467 0 00-2.486-2.487zm-7.354 0c-1.384 0-2.593 1.098-2.593 2.487s1.209 2.487 2.593 2.487a2.467 2.467 0 002.487-2.487 2.467 2.467 0 00-2.487-2.487zm-7.349 0c-1.389 0-2.597 1.098-2.597 2.487s1.208 2.487 2.597 2.487a2.47 2.47 0 002.487-2.487 2.47 2.47 0 00-2.487-2.487zm-7.354 0c-1.388 0-2.597 1.098-2.597 2.487s1.209 2.487 2.597 2.487a2.467 2.467 0 002.487-2.487 2.467 2.467 0 00-2.487-2.487zm-7.353 0c-1.389 0-2.593 1.098-2.593 2.487s1.204 2.487 2.593 2.487a2.467 2.467 0 002.486-2.487 2.467 2.467 0 00-2.486-2.487zm235.39-7.353c-1.388 0-2.597 1.098-2.597 2.486 0 1.389 1.209 2.598 2.597 2.598 1.384 0 2.487-1.209 2.487-2.598a2.47 2.47 0 00-2.487-2.486zm-7.353 0c-1.389 0-2.598 1.098-2.598 2.486 0 1.389 1.21 2.598 2.598 2.598s2.486-1.209 2.486-2.598a2.467 2.467 0 00-2.486-2.486zm-7.354 0c-1.389 0-2.593 1.098-2.593 2.486 0 1.389 1.204 2.598 2.593 2.598s2.487-1.209 2.487-2.598a2.467 2.467 0 00-2.487-2.486zm-7.354 0c-1.384 0-2.592 1.098-2.592 2.486 0 1.389 1.208 2.598 2.592 2.598 1.389 0 2.487-1.209 2.487-2.598a2.467 2.467 0 00-2.487-2.486zm-7.349 0c-1.388 0-2.597 1.098-2.597 2.486 0 1.389 1.209 2.598 2.597 2.598 1.384 0 2.487-1.209 2.487-2.598a2.47 2.47 0 00-2.487-2.486zm-7.353 0c-1.389 0-2.598 1.098-2.598 2.486 0 1.389 1.21 2.598 2.598 2.598s2.486-1.209 2.486-2.598a2.467 2.467 0 00-2.486-2.486zm-7.354 0c-1.389 0-2.593 1.098-2.593 2.486 0 1.389 1.204 2.598 2.593 2.598s2.487-1.209 2.487-2.598a2.467 2.467 0 00-2.487-2.486zm-7.46 0a2.467 2.467 0 00-2.486 2.486c0 1.389 1.098 2.598 2.486 2.598 1.389 0 2.593-1.209 2.593-2.598 0-1.388-1.204-2.486-2.593-2.486zm-7.353 0a2.467 2.467 0 00-2.487 2.486c0 1.389 1.098 2.598 2.487 2.598 1.388 0 2.597-1.209 2.597-2.598 0-1.388-1.209-2.486-2.597-2.486zm-7.354 0a2.47 2.47 0 00-2.487 2.486c0 1.389 1.103 2.598 2.487 2.598 1.389 0 2.597-1.209 2.597-2.598 0-1.388-1.208-2.486-2.597-2.486zm-7.349 0a2.467 2.467 0 00-2.487 2.486c0 1.389 1.098 2.598 2.487 2.598 1.384 0 2.593-1.209 2.593-2.598 0-1.388-1.209-2.486-2.593-2.486zm-7.354 0a2.467 2.467 0 00-2.486 2.486c0 1.389 1.098 2.598 2.486 2.598 1.389 0 2.593-1.209 2.593-2.598 0-1.388-1.204-2.486-2.593-2.486zm-7.353 0a2.467 2.467 0 00-2.487 2.486c0 1.389 1.098 2.598 2.487 2.598 1.388 0 2.597-1.209 2.597-2.598 0-1.388-1.209-2.486-2.597-2.486zm-7.354 0a2.47 2.47 0 00-2.487 2.486c0 1.389 1.103 2.598 2.487 2.598 1.389 0 2.597-1.209 2.597-2.598 0-1.388-1.208-2.486-2.597-2.486zm-7.349 0a2.467 2.467 0 00-2.487 2.486c0 1.389 1.098 2.598 2.487 2.598 1.384 0 2.593-1.209 2.593-2.598 0-1.388-1.209-2.486-2.593-2.486zm-7.354 0a2.467 2.467 0 00-2.486 2.486c0 1.389 1.098 2.598 2.486 2.598 1.389 0 2.593-1.209 2.593-2.598 0-1.388-1.204-2.486-2.593-2.486zm-14.707 0a2.47 2.47 0 00-2.487 2.486c0 1.389 1.103 2.598 2.487 2.598 1.389 0 2.487-1.209 2.487-2.598a2.467 2.467 0 00-2.487-2.486zm-66.169 0c-1.389 0-2.597 1.098-2.597 2.486 0 1.389 1.208 2.598 2.597 2.598 1.384 0 2.487-1.209 2.487-2.598a2.47 2.47 0 00-2.487-2.486zm-7.354 0c-1.388 0-2.597 1.098-2.597 2.486 0 1.389 1.209 2.598 2.597 2.598 1.389 0 2.487-1.209 2.487-2.598a2.467 2.467 0 00-2.487-2.486zm-7.353 0c-1.389 0-2.593 1.098-2.593 2.486 0 1.389 1.204 2.598 2.593 2.598 1.388 0 2.486-1.209 2.486-2.598a2.467 2.467 0 00-2.486-2.486zm-7.354 0c-1.384 0-2.593 1.098-2.593 2.486 0 1.389 1.209 2.598 2.593 2.598 1.389 0 2.487-1.209 2.487-2.598a2.467 2.467 0 00-2.487-2.486zm-7.349 0c-1.389 0-2.597 1.098-2.597 2.486 0 1.389 1.208 2.598 2.597 2.598 1.384 0 2.487-1.209 2.487-2.598a2.47 2.47 0 00-2.487-2.486zm-7.354 0c-1.388 0-2.597 1.098-2.597 2.486 0 1.389 1.209 2.598 2.597 2.598 1.389 0 2.487-1.209 2.487-2.598a2.467 2.467 0 00-2.487-2.486zm-7.353 0c-1.389 0-2.593 1.098-2.593 2.486 0 1.389 1.204 2.598 2.593 2.598 1.388 0 2.486-1.209 2.486-2.598a2.467 2.467 0 00-2.486-2.486zm257.447-7.354c-1.389 0-2.598 1.209-2.598 2.597 0 1.39 1.21 2.487 2.598 2.487a2.467 2.467 0 002.486-2.487c0-1.388-1.098-2.597-2.486-2.597zm-22.057 0c-1.388 0-2.597 1.209-2.597 2.597 0 1.39 1.209 2.487 2.597 2.487a2.47 2.47 0 002.487-2.487c0-1.388-1.103-2.597-2.487-2.597zm-7.353 0c-1.389 0-2.598 1.209-2.598 2.597 0 1.39 1.21 2.487 2.598 2.487a2.467 2.467 0 002.486-2.487c0-1.388-1.098-2.597-2.486-2.597zm-7.354 0c-1.389 0-2.593 1.209-2.593 2.597 0 1.39 1.204 2.487 2.593 2.487a2.467 2.467 0 002.487-2.487c0-1.388-1.098-2.597-2.487-2.597zm-7.354 0c-1.384 0-2.592 1.209-2.592 2.597 0 1.39 1.208 2.487 2.592 2.487a2.467 2.467 0 002.487-2.487c0-1.388-1.098-2.597-2.487-2.597zm-7.349 0c-1.388 0-2.597 1.209-2.597 2.597 0 1.39 1.209 2.487 2.597 2.487a2.47 2.47 0 002.487-2.487c0-1.388-1.103-2.597-2.487-2.597zm-7.353 0c-1.389 0-2.598 1.209-2.598 2.597 0 1.39 1.21 2.487 2.598 2.487a2.467 2.467 0 002.486-2.487c0-1.388-1.098-2.597-2.486-2.597zm-7.354 0c-1.389 0-2.593 1.209-2.593 2.597 0 1.39 1.204 2.487 2.593 2.487a2.467 2.467 0 002.487-2.487c0-1.388-1.098-2.597-2.487-2.597zm-7.46 0c-1.388 0-2.486 1.209-2.486 2.597a2.467 2.467 0 002.486 2.487c1.389 0 2.593-1.098 2.593-2.487 0-1.388-1.204-2.597-2.593-2.597zm-7.353 0c-1.389 0-2.487 1.209-2.487 2.597a2.467 2.467 0 002.487 2.487c1.388 0 2.597-1.098 2.597-2.487 0-1.388-1.209-2.597-2.597-2.597zm-7.354 0c-1.384 0-2.487 1.209-2.487 2.597a2.47 2.47 0 002.487 2.487c1.389 0 2.597-1.098 2.597-2.487 0-1.388-1.208-2.597-2.597-2.597zm-7.349 0c-1.389 0-2.487 1.209-2.487 2.597a2.467 2.467 0 002.487 2.487c1.384 0 2.593-1.098 2.593-2.487 0-1.388-1.209-2.597-2.593-2.597zm-7.354 0c-1.388 0-2.486 1.209-2.486 2.597a2.467 2.467 0 002.486 2.487c1.389 0 2.593-1.098 2.593-2.487 0-1.388-1.204-2.597-2.593-2.597zm-7.353 0c-1.389 0-2.487 1.209-2.487 2.597a2.467 2.467 0 002.487 2.487c1.388 0 2.597-1.098 2.597-2.487 0-1.388-1.209-2.597-2.597-2.597zm-7.354 0c-1.384 0-2.487 1.209-2.487 2.597a2.47 2.47 0 002.487 2.487c1.389 0 2.597-1.098 2.597-2.487 0-1.388-1.208-2.597-2.597-2.597zm-7.349 0c-1.389 0-2.487 1.209-2.487 2.597a2.467 2.467 0 002.487 2.487c1.384 0 2.593-1.098 2.593-2.487 0-1.388-1.209-2.597-2.593-2.597zm-7.354 0c-1.388 0-2.486 1.209-2.486 2.597a2.467 2.467 0 002.486 2.487c1.389 0 2.593-1.098 2.593-2.487 0-1.388-1.204-2.597-2.593-2.597zm-7.353 0c-1.389 0-2.487 1.209-2.487 2.597a2.467 2.467 0 002.487 2.487c1.388 0 2.597-1.098 2.597-2.487 0-1.388-1.209-2.597-2.597-2.597zm-7.354 0c-1.384 0-2.487 1.209-2.487 2.597a2.47 2.47 0 002.487 2.487 2.467 2.467 0 002.487-2.487c0-1.388-1.098-2.597-2.487-2.597zm-58.82 0c-1.384 0-2.593 1.209-2.593 2.597 0 1.39 1.209 2.487 2.593 2.487a2.467 2.467 0 002.487-2.487c0-1.388-1.098-2.597-2.487-2.597zm-7.349 0c-1.389 0-2.597 1.209-2.597 2.597 0 1.39 1.208 2.487 2.597 2.487a2.47 2.47 0 002.487-2.487c0-1.388-1.103-2.597-2.487-2.597zm-7.354 0c-1.388 0-2.597 1.209-2.597 2.597 0 1.39 1.209 2.487 2.597 2.487a2.467 2.467 0 002.487-2.487c0-1.388-1.098-2.597-2.487-2.597zm-7.353 0c-1.389 0-2.593 1.209-2.593 2.597 0 1.39 1.204 2.487 2.593 2.487a2.467 2.467 0 002.486-2.487c0-1.388-1.098-2.597-2.486-2.597zm-7.354 0c-1.384 0-2.593 1.209-2.593 2.597 0 1.39 1.209 2.487 2.593 2.487a2.467 2.467 0 002.487-2.487c0-1.388-1.098-2.597-2.487-2.597zm-7.349 0c-1.389 0-2.597 1.209-2.597 2.597 0 1.39 1.208 2.487 2.597 2.487a2.47 2.47 0 002.487-2.487c0-1.388-1.103-2.597-2.487-2.597zm-7.354 0c-1.388 0-2.597 1.209-2.597 2.597 0 1.39 1.209 2.487 2.597 2.487a2.467 2.467 0 002.487-2.487c0-1.388-1.098-2.597-2.487-2.597zm228.037-7.243c-1.388 0-2.597 1.098-2.597 2.487 0 1.388 1.209 2.597 2.597 2.597 1.384 0 2.487-1.209 2.487-2.597a2.47 2.47 0 00-2.487-2.487zm-7.353 0c-1.389 0-2.598 1.098-2.598 2.487 0 1.388 1.21 2.597 2.598 2.597s2.486-1.209 2.486-2.597a2.467 2.467 0 00-2.486-2.487zm-7.354 0c-1.389 0-2.593 1.098-2.593 2.487 0 1.388 1.204 2.597 2.593 2.597s2.487-1.209 2.487-2.597a2.467 2.467 0 00-2.487-2.487zm-7.354 0c-1.384 0-2.592 1.098-2.592 2.487 0 1.388 1.208 2.597 2.592 2.597 1.389 0 2.487-1.209 2.487-2.597a2.467 2.467 0 00-2.487-2.487zm-7.349 0c-1.388 0-2.597 1.098-2.597 2.487 0 1.388 1.209 2.597 2.597 2.597 1.384 0 2.487-1.209 2.487-2.597a2.47 2.47 0 00-2.487-2.487zm-7.353 0c-1.389 0-2.598 1.098-2.598 2.487 0 1.388 1.21 2.597 2.598 2.597s2.486-1.209 2.486-2.597a2.467 2.467 0 00-2.486-2.487zm-7.354 0c-1.389 0-2.593 1.098-2.593 2.487 0 1.388 1.204 2.597 2.593 2.597s2.487-1.209 2.487-2.597a2.467 2.467 0 00-2.487-2.487zm-7.46 0a2.467 2.467 0 00-2.486 2.487c0 1.388 1.098 2.597 2.486 2.597 1.389 0 2.593-1.209 2.593-2.597 0-1.389-1.204-2.487-2.593-2.487zm-7.353 0a2.467 2.467 0 00-2.487 2.487c0 1.388 1.098 2.597 2.487 2.597 1.388 0 2.597-1.209 2.597-2.597 0-1.389-1.209-2.487-2.597-2.487zm-7.354 0a2.47 2.47 0 00-2.487 2.487c0 1.388 1.103 2.597 2.487 2.597 1.389 0 2.597-1.209 2.597-2.597 0-1.389-1.208-2.487-2.597-2.487zm-7.349 0a2.467 2.467 0 00-2.487 2.487c0 1.388 1.098 2.597 2.487 2.597 1.384 0 2.593-1.209 2.593-2.597 0-1.389-1.209-2.487-2.593-2.487zm-7.354 0a2.467 2.467 0 00-2.486 2.487c0 1.388 1.098 2.597 2.486 2.597 1.389 0 2.593-1.209 2.593-2.597 0-1.389-1.204-2.487-2.593-2.487zm-7.353 0a2.467 2.467 0 00-2.487 2.487c0 1.388 1.098 2.597 2.487 2.597 1.388 0 2.597-1.209 2.597-2.597 0-1.389-1.209-2.487-2.597-2.487zm-7.354 0a2.47 2.47 0 00-2.487 2.487c0 1.388 1.103 2.597 2.487 2.597 1.389 0 2.597-1.209 2.597-2.597 0-1.389-1.208-2.487-2.597-2.487zm-7.349 0a2.467 2.467 0 00-2.487 2.487c0 1.388 1.098 2.597 2.487 2.597 1.384 0 2.593-1.209 2.593-2.597 0-1.389-1.209-2.487-2.593-2.487zm-7.354 0a2.467 2.467 0 00-2.486 2.487c0 1.388 1.098 2.597 2.486 2.597 1.389 0 2.593-1.209 2.593-2.597 0-1.389-1.204-2.487-2.593-2.487zm-14.707 0a2.47 2.47 0 00-2.487 2.487c0 1.388 1.103 2.597 2.487 2.597 1.389 0 2.487-1.209 2.487-2.597a2.467 2.467 0 00-2.487-2.487zm-51.466 0c-1.389 0-2.593 1.098-2.593 2.487 0 1.388 1.204 2.597 2.593 2.597 1.388 0 2.486-1.209 2.486-2.597a2.467 2.467 0 00-2.486-2.487zm-7.354 0c-1.384 0-2.593 1.098-2.593 2.487 0 1.388 1.209 2.597 2.593 2.597 1.389 0 2.487-1.209 2.487-2.597a2.467 2.467 0 00-2.487-2.487zm-14.703 0c-1.388 0-2.597 1.098-2.597 2.487 0 1.388 1.209 2.597 2.597 2.597 1.389 0 2.487-1.209 2.487-2.597a2.467 2.467 0 00-2.487-2.487zm-7.353 0c-1.389 0-2.593 1.098-2.593 2.487 0 1.388 1.204 2.597 2.593 2.597 1.388 0 2.486-1.209 2.486-2.597a2.467 2.467 0 00-2.486-2.487zm-7.354 0c-1.384 0-2.593 1.098-2.593 2.487 0 1.388 1.209 2.597 2.593 2.597 1.389 0 2.487-1.209 2.487-2.597a2.467 2.467 0 00-2.487-2.487zm-7.349 0c-1.389 0-2.597 1.098-2.597 2.487 0 1.388 1.208 2.597 2.597 2.597 1.384 0 2.487-1.209 2.487-2.597a2.47 2.47 0 00-2.487-2.487zm-7.354 0c-1.388 0-2.597 1.098-2.597 2.487 0 1.388 1.209 2.597 2.597 2.597 1.389 0 2.487-1.209 2.487-2.597a2.467 2.467 0 00-2.487-2.487zm-29.52 0A2.47 2.47 0 000 112.437c0 1.388 1.103 2.597 2.487 2.597 1.388 0 2.597-1.209 2.597-2.597 0-1.389-1.209-2.487-2.597-2.487zm279.614-7.353c-1.389 0-2.598 1.208-2.598 2.597s1.21 2.486 2.598 2.486a2.467 2.467 0 002.486-2.486c0-1.389-1.098-2.597-2.486-2.597zm-7.354 0c-1.389 0-2.593 1.208-2.593 2.597s1.204 2.486 2.593 2.486a2.467 2.467 0 002.487-2.486c0-1.389-1.098-2.597-2.487-2.597zm-7.354 0c-1.384 0-2.592 1.208-2.592 2.597s1.208 2.486 2.592 2.486a2.467 2.467 0 002.487-2.486c0-1.389-1.098-2.597-2.487-2.597zm-7.349 0c-1.388 0-2.597 1.208-2.597 2.597s1.209 2.486 2.597 2.486a2.47 2.47 0 002.487-2.486c0-1.389-1.103-2.597-2.487-2.597zm-7.353 0c-1.389 0-2.598 1.208-2.598 2.597s1.21 2.486 2.598 2.486a2.467 2.467 0 002.486-2.486c0-1.389-1.098-2.597-2.486-2.597zm-7.354 0c-1.389 0-2.593 1.208-2.593 2.597s1.204 2.486 2.593 2.486a2.467 2.467 0 002.487-2.486c0-1.389-1.098-2.597-2.487-2.597zm-7.354 0c-1.384 0-2.592 1.208-2.592 2.597s1.208 2.486 2.592 2.486a2.467 2.467 0 002.487-2.486c0-1.389-1.098-2.597-2.487-2.597zm-7.349 0c-1.388 0-2.597 1.208-2.597 2.597s1.209 2.486 2.597 2.486a2.47 2.47 0 002.487-2.486c0-1.389-1.103-2.597-2.487-2.597zm-7.353 0c-1.389 0-2.598 1.208-2.598 2.597s1.21 2.486 2.598 2.486a2.467 2.467 0 002.486-2.486c0-1.389-1.098-2.597-2.486-2.597zm-7.354 0c-1.389 0-2.593 1.208-2.593 2.597s1.204 2.486 2.593 2.486a2.467 2.467 0 002.487-2.486c0-1.389-1.098-2.597-2.487-2.597zm-7.46 0c-1.388 0-2.486 1.208-2.486 2.597a2.467 2.467 0 002.486 2.486c1.389 0 2.593-1.097 2.593-2.486 0-1.389-1.204-2.597-2.593-2.597zm-7.353 0c-1.389 0-2.487 1.208-2.487 2.597a2.467 2.467 0 002.487 2.486c1.388 0 2.597-1.097 2.597-2.486 0-1.389-1.209-2.597-2.597-2.597zm-7.354 0c-1.384 0-2.487 1.208-2.487 2.597a2.47 2.47 0 002.487 2.486c1.389 0 2.597-1.097 2.597-2.486 0-1.389-1.208-2.597-2.597-2.597zm-7.349 0c-1.389 0-2.487 1.208-2.487 2.597a2.467 2.467 0 002.487 2.486c1.384 0 2.593-1.097 2.593-2.486 0-1.389-1.209-2.597-2.593-2.597zm-7.354 0c-1.388 0-2.486 1.208-2.486 2.597a2.467 2.467 0 002.486 2.486c1.389 0 2.593-1.097 2.593-2.486 0-1.389-1.204-2.597-2.593-2.597zm-7.353 0c-1.389 0-2.487 1.208-2.487 2.597a2.467 2.467 0 002.487 2.486c1.388 0 2.597-1.097 2.597-2.486 0-1.389-1.209-2.597-2.597-2.597zm-7.354 0c-1.384 0-2.487 1.208-2.487 2.597a2.47 2.47 0 002.487 2.486c1.389 0 2.597-1.097 2.597-2.486 0-1.389-1.208-2.597-2.597-2.597zm-7.349 0c-1.389 0-2.487 1.208-2.487 2.597a2.467 2.467 0 002.487 2.486c1.384 0 2.593-1.097 2.593-2.486 0-1.389-1.209-2.597-2.593-2.597zm-7.354 0c-1.388 0-2.486 1.208-2.486 2.597a2.467 2.467 0 002.486 2.486c1.389 0 2.593-1.097 2.593-2.486 0-1.389-1.204-2.597-2.593-2.597zm-22.056 0c-.346 0-.669.092-.973.216-.905.379-1.514 1.334-1.514 2.38a2.467 2.467 0 002.487 2.487 2.47 2.47 0 002.487-2.486c0-1.389-1.103-2.597-2.487-2.597zm-29.41 0c-1.389 0-2.487 1.208-2.487 2.597a2.467 2.467 0 002.487 2.486 2.47 2.47 0 002.487-2.486c0-1.389-1.103-2.597-2.487-2.597zm-7.354 0c-1.388 0-2.597 1.208-2.597 2.597s1.209 2.486 2.597 2.486a2.467 2.467 0 002.487-2.486c0-1.389-1.098-2.597-2.487-2.597zm-22.056 0c-1.389 0-2.597 1.208-2.597 2.597s1.208 2.486 2.597 2.486a2.47 2.47 0 002.487-2.486c0-1.389-1.103-2.597-2.487-2.597zm-7.354 0c-1.388 0-2.597 1.208-2.597 2.597s1.209 2.486 2.597 2.486a2.467 2.467 0 002.487-2.486c0-1.389-1.098-2.597-2.487-2.597zm-7.353 0c-1.389 0-2.593 1.208-2.593 2.597s1.204 2.486 2.593 2.486a2.467 2.467 0 002.486-2.486c0-1.389-1.098-2.597-2.486-2.597zm-7.354 0c-1.384 0-2.593 1.208-2.593 2.597s1.209 2.486 2.593 2.486a2.467 2.467 0 002.487-2.486c0-1.389-1.098-2.597-2.487-2.597zm-7.349 0c-1.389 0-2.597 1.208-2.597 2.597s1.208 2.486 2.597 2.486a2.47 2.47 0 002.487-2.486c0-1.389-1.103-2.597-2.487-2.597zm-7.354 0c-1.388 0-2.597 1.208-2.597 2.597s1.209 2.486 2.597 2.486a2.467 2.467 0 002.487-2.486c0-1.389-1.098-2.597-2.487-2.597zm-7.353 0c-1.389 0-2.593 1.208-2.593 2.597s1.204 2.486 2.593 2.486a2.467 2.467 0 002.486-2.486c0-1.389-1.098-2.597-2.486-2.597zm-7.354 0c-1.384 0-2.593 1.208-2.593 2.597s1.209 2.486 2.593 2.486a2.467 2.467 0 002.487-2.486c0-1.389-1.098-2.597-2.487-2.597zm-7.46 0c-1.388 0-2.486 1.208-2.486 2.597a2.467 2.467 0 002.486 2.486c1.389 0 2.598-1.097 2.598-2.486 0-1.389-1.21-2.597-2.598-2.597zm279.614-7.243c-1.388 0-2.597 1.098-2.597 2.486 0 1.389 1.209 2.487 2.597 2.487a2.47 2.47 0 002.487-2.487 2.47 2.47 0 00-2.487-2.486zm-7.353 0c-1.389 0-2.598 1.098-2.598 2.486 0 1.389 1.21 2.487 2.598 2.487a2.467 2.467 0 002.486-2.487 2.467 2.467 0 00-2.486-2.486zm-7.354 0c-1.389 0-2.593 1.098-2.593 2.486 0 1.389 1.204 2.487 2.593 2.487a2.467 2.467 0 002.487-2.487 2.467 2.467 0 00-2.487-2.486zm-7.354 0c-1.384 0-2.592 1.098-2.592 2.486 0 1.389 1.208 2.487 2.592 2.487a2.467 2.467 0 002.487-2.487 2.467 2.467 0 00-2.487-2.486zm-7.349 0c-1.388 0-2.597 1.098-2.597 2.486 0 1.389 1.209 2.487 2.597 2.487a2.47 2.47 0 002.487-2.487 2.47 2.47 0 00-2.487-2.486zm-7.353 0c-1.389 0-2.598 1.098-2.598 2.486 0 1.389 1.21 2.487 2.598 2.487a2.467 2.467 0 002.486-2.487 2.467 2.467 0 00-2.486-2.486zm-7.354 0c-1.389 0-2.593 1.098-2.593 2.486 0 1.389 1.204 2.487 2.593 2.487a2.467 2.467 0 002.487-2.487 2.467 2.467 0 00-2.487-2.486zm-7.354 0c-1.384 0-2.592 1.098-2.592 2.486 0 1.389 1.208 2.487 2.592 2.487a2.467 2.467 0 002.487-2.487 2.467 2.467 0 00-2.487-2.486zm-7.349 0c-1.388 0-2.597 1.098-2.597 2.486 0 1.389 1.209 2.487 2.597 2.487a2.47 2.47 0 002.487-2.487 2.47 2.47 0 00-2.487-2.486zm-7.353 0c-1.389 0-2.598 1.098-2.598 2.486 0 1.389 1.21 2.487 2.598 2.487a2.467 2.467 0 002.486-2.487 2.467 2.467 0 00-2.486-2.486zm-7.354 0c-1.389 0-2.593 1.098-2.593 2.486 0 1.389 1.204 2.487 2.593 2.487a2.467 2.467 0 002.487-2.487 2.467 2.467 0 00-2.487-2.486zm-7.46 0a2.467 2.467 0 00-2.486 2.486 2.467 2.467 0 002.486 2.487c1.389 0 2.593-1.098 2.593-2.487 0-1.388-1.204-2.486-2.593-2.486zm-7.353 0a2.467 2.467 0 00-2.487 2.486 2.467 2.467 0 002.487 2.487c1.388 0 2.597-1.098 2.597-2.487 0-1.388-1.209-2.486-2.597-2.486zm-7.354 0a2.47 2.47 0 00-2.487 2.486 2.47 2.47 0 002.487 2.487c1.389 0 2.597-1.098 2.597-2.487 0-1.388-1.208-2.486-2.597-2.486zm-7.349 0a2.467 2.467 0 00-2.487 2.486 2.467 2.467 0 002.487 2.487c1.384 0 2.593-1.098 2.593-2.487 0-1.388-1.209-2.486-2.593-2.486zm-7.354 0a2.467 2.467 0 00-2.486 2.486 2.467 2.467 0 002.486 2.487c1.389 0 2.593-1.098 2.593-2.487 0-1.388-1.204-2.486-2.593-2.486zm-14.707 0a2.47 2.47 0 00-2.487 2.486 2.47 2.47 0 002.487 2.487c1.389 0 2.597-1.098 2.597-2.487 0-1.388-1.208-2.486-2.597-2.486zm-7.349 0a2.467 2.467 0 00-2.487 2.486 2.467 2.467 0 002.487 2.487c1.384 0 2.593-1.098 2.593-2.487 0-1.388-1.209-2.486-2.593-2.486zm-36.764 0a2.467 2.467 0 00-2.486 2.486 2.467 2.467 0 002.486 2.487 2.467 2.467 0 002.487-2.487 2.467 2.467 0 00-2.487-2.486zm-7.353 0a2.467 2.467 0 00-2.487 2.486 2.467 2.467 0 002.487 2.487 2.467 2.467 0 002.486-2.487 2.467 2.467 0 00-2.486-2.486zm-7.354 0a2.47 2.47 0 00-2.487 2.486 2.47 2.47 0 002.487 2.487 2.467 2.467 0 002.487-2.487 2.467 2.467 0 00-2.487-2.486zm-7.349 0a2.467 2.467 0 00-2.487 2.486 2.467 2.467 0 002.487 2.487 2.47 2.47 0 002.487-2.487 2.47 2.47 0 00-2.487-2.486zm-7.354 0c-1.388 0-2.597 1.098-2.597 2.486 0 1.389 1.209 2.487 2.597 2.487a2.467 2.467 0 002.487-2.487 2.467 2.467 0 00-2.487-2.486zm-7.353 0c-1.389 0-2.593 1.098-2.593 2.486 0 1.389 1.204 2.487 2.593 2.487a2.467 2.467 0 002.486-2.487 2.467 2.467 0 00-2.486-2.486zm-7.354 0c-1.384 0-2.593 1.098-2.593 2.486 0 1.389 1.209 2.487 2.593 2.487a2.467 2.467 0 002.487-2.487 2.467 2.467 0 00-2.487-2.486zm-7.349 0c-1.389 0-2.597 1.098-2.597 2.486 0 1.389 1.208 2.487 2.597 2.487a2.47 2.47 0 002.487-2.487 2.47 2.47 0 00-2.487-2.486zm-7.354 0c-1.388 0-2.597 1.098-2.597 2.486 0 1.389 1.209 2.487 2.597 2.487a2.467 2.467 0 002.487-2.487 2.467 2.467 0 00-2.487-2.486zm-7.353 0c-1.389 0-2.593 1.098-2.593 2.486 0 1.389 1.204 2.487 2.593 2.487a2.467 2.467 0 002.486-2.487 2.467 2.467 0 00-2.486-2.486zm-7.354 0c-1.384 0-2.593 1.098-2.593 2.486 0 1.389 1.209 2.487 2.593 2.487a2.467 2.467 0 002.487-2.487 2.467 2.467 0 00-2.487-2.486zm-7.349 0c-1.389 0-2.597 1.098-2.597 2.486 0 1.389 1.208 2.487 2.597 2.487a2.47 2.47 0 002.487-2.487 2.47 2.47 0 00-2.487-2.486zm-7.354 0c-1.388 0-2.597 1.098-2.597 2.486 0 1.389 1.209 2.487 2.597 2.487a2.467 2.467 0 002.487-2.487 2.467 2.467 0 00-2.487-2.486zm-7.353 0c-1.389 0-2.593 1.098-2.593 2.486 0 1.389 1.204 2.487 2.593 2.487a2.467 2.467 0 002.486-2.487 2.467 2.467 0 00-2.486-2.486zM245.337 88c-1.389 0-2.593 1.103-2.593 2.487 0 1.388 1.204 2.597 2.593 2.597s2.487-1.209 2.487-2.597A2.47 2.47 0 00245.337 88zm-7.354 0c-1.384 0-2.592 1.103-2.592 2.487 0 1.388 1.208 2.597 2.592 2.597 1.389 0 2.487-1.209 2.487-2.597A2.47 2.47 0 00237.983 88zm-7.349 0c-1.388 0-2.597 1.103-2.597 2.487 0 1.388 1.209 2.597 2.597 2.597 1.384 0 2.487-1.209 2.487-2.597A2.473 2.473 0 00230.634 88zm-7.353 0c-1.389 0-2.598 1.103-2.598 2.487 0 1.388 1.21 2.597 2.598 2.597s2.486-1.209 2.486-2.597A2.47 2.47 0 00223.281 88zm-7.354 0c-1.389 0-2.593 1.103-2.593 2.487 0 1.388 1.204 2.597 2.593 2.597s2.487-1.209 2.487-2.597A2.47 2.47 0 00215.927 88zm-7.46 0a2.47 2.47 0 00-2.486 2.487c0 1.388 1.098 2.597 2.486 2.597 1.389 0 2.593-1.209 2.593-2.597 0-1.384-1.204-2.487-2.593-2.487zm-80.876 0a2.47 2.47 0 00-2.487 2.487c0 1.388 1.098 2.597 2.487 2.597 1.384 0 2.487-1.209 2.487-2.597A2.473 2.473 0 00127.59 88zm-7.354 0a2.47 2.47 0 00-2.486 2.487c0 1.388 1.098 2.597 2.486 2.597 1.389 0 2.487-1.209 2.487-2.597A2.47 2.47 0 00120.237 88zm-7.353 0a2.47 2.47 0 00-2.487 2.487c0 1.388 1.098 2.597 2.487 2.597 1.388 0 2.486-1.209 2.486-2.597A2.47 2.47 0 00112.884 88zm-7.354 0a2.473 2.473 0 00-2.487 2.487c0 1.388 1.103 2.597 2.487 2.597 1.389 0 2.487-1.209 2.487-2.597A2.47 2.47 0 00105.53 88zm-7.349 0a2.47 2.47 0 00-2.487 2.487c0 1.388 1.098 2.597 2.487 2.597 1.384 0 2.487-1.209 2.487-2.597A2.473 2.473 0 0098.18 88zm-7.354 0c-1.388 0-2.597 1.103-2.597 2.487 0 1.388 1.209 2.597 2.597 2.597 1.389 0 2.487-1.209 2.487-2.597A2.47 2.47 0 0090.827 88z" id="Page-1"/></g></g></svg>