<svg width="140" height="37" xmlns="http://www.w3.org/2000/svg"><g id="Page-1" stroke="none" stroke-width="1" fill="none" fill-rule="evenodd"><g id="included" fill="#9B9B9B"><g id="Shape-+-Shape" transform="translate(2 1)"><path d="M19.102 1.6H17.08l2.103 2.28v1.084h-4.332v-1.27h2.103L14.85 1.415V.33h4.251v1.272zm-5.11 0h-2.023l2.104 2.28v1.084H9.74v-1.27h2.103L9.74 1.415V.33h4.252v1.272zm-5.06.052H6.748v1.989H8.93v1.323H5.198V.329H8.93v1.323zm3.264 10.29h7.644l-.073.817-.75 8.393H19l-.5 5.79-.047.515-6.243 1.727-.014.005-6.25-1.732-.427-4.782H8.58l.218 2.429 3.397.916.003-.001 3.403-.917.355-3.95H12.19v-3.045h4.037l.28-3.12H4.831l-.061-.684-.14-1.544-.072-.817h7.637zm-9.972 19.97L.006 7.08h24.369l-2.22 24.828-9.98 2.761-9.951-2.757zm9.966-11.914v1.147l-3.344.007-.071-.684-.14-1.544-.072-.817h3.627v1.891z" id="Shape"/></g><g id="Group" transform="translate(30.013 1)"><path d="M12.863 15.481h-4.37l.282 3.18h11.273l-.075.835-.727 8.176-.047.524-6.33 1.762-.015.004-6.336-1.766-.434-4.876H9.19l.22 2.477 3.446.934.003-.001 3.45-.935.359-4.028H5.946l-.76-8.558-.074-.833h15.495l-.074.833-.141 1.574-.062.698h-7.467zm-10.1 17.04L.512 7.2h24.71l-2.251 25.318-10.119 2.816-10.09-2.812zM2.813.318h1.572v1.56h1.438V.318h1.572V5.04H5.823V3.46H4.385v1.58H2.813V.318zm6.649 1.566H8.078V.318h4.34v1.566h-1.384V5.04H9.462V1.884zM13.108.318h1.639l1.008 1.66 1.007-1.66h1.64V5.04h-1.565V2.7l-1.082 1.679h-.027l-1.082-1.68V5.04h-1.538V.318zm6.076 0h1.573V3.48h2.21v1.56h-3.783V.318z" id="Shape"/></g><g id="Group" transform="translate(64.665 3)"><path d="M2.82 16.198c0 5.403 3.149 10.072 7.716 12.284l-6.532-17.84a13.563 13.563 0 00-1.185 5.556zm22.933-.689c0-1.687-.607-2.855-1.129-3.765-.694-1.124-1.344-2.076-1.344-3.2 0-1.255.954-2.423 2.299-2.423.06 0 .118.007.177.01a13.664 13.664 0 00-9.245-3.583A13.686 13.686 0 005.07 8.701c.321.01.624.016.881.016 1.432 0 3.649-.173 3.649-.173.738-.044.825 1.037.088 1.124 0 0-.742.087-1.567.13l4.986 14.786 2.996-8.96-2.133-5.826c-.738-.043-1.436-.13-1.436-.13-.738-.043-.651-1.168.087-1.125 0 0 2.26.174 3.606.174 1.432 0 3.649-.174 3.649-.174.738-.043.825 1.038.088 1.125 0 0-.744.087-1.567.13l4.947 14.673 1.366-4.55c.592-1.888 1.042-3.244 1.042-4.412z" id="Shape"/><path d="M16.75 17.392l-4.107 11.9a13.73 13.73 0 008.414-.217 1.197 1.197 0 01-.097-.188l-4.21-11.495zm11.774-7.743c.06.435.093.901.093 1.403 0 1.385-.26 2.943-1.041 4.89l-4.183 12.054c4.07-2.366 6.809-6.762 6.809-11.798 0-2.373-.608-4.605-1.678-6.55z" id="Shape"/><path d="M16.51.286C7.71.286.55 7.424.55 16.198c0 8.774 7.16 15.912 15.96 15.912s15.962-7.138 15.962-15.912C32.472 7.424 25.31.286 16.51.286zm0 31.094c-8.396 0-15.228-6.81-15.228-15.182S8.114 1.016 16.511 1.016c8.396 0 15.227 6.81 15.227 15.182 0 8.371-6.831 15.182-15.227 15.182z" id="Shape"/></g><g id="Shape-+-INCLUDED" transform="translate(105 2)"><path d="M.782 1.133c0-.148.31-.26.497-.26C2.705.798 4.8.76 6.995.76c6.149 0 8.541 3.414 8.541 7.786 0 5.705-4.086 8.153-9.097 8.153-.843 0-1.131-.038-1.719-.038v8.63c0 .186-.073.26-.255.26H1.037c-.177 0-.255-.071-.255-.258V1.133zm3.936 11.934c.51.036.916.036 1.796.036 2.594 0 5.033-.928 5.033-4.488 0-2.852-1.745-4.299-4.707-4.299-.878 0-1.718.038-2.122.076v8.675zM23.802 10.4c-1.756 0-2.342.89-2.342 1.63 0 .818.404 1.375 2.743 2.597 3.481 1.707 4.574 3.336 4.574 5.744 0 3.593-2.705 5.525-6.363 5.525-1.94 0-3.592-.41-4.541-.966-.146-.074-.184-.186-.184-.373V21.26c0-.225.11-.299.257-.186a8.152 8.152 0 004.468 1.334c1.756 0 2.488-.741 2.488-1.739 0-.817-.51-1.52-2.743-2.706-3.149-1.517-4.463-3.073-4.463-5.67 0-2.89 2.23-5.3 6.108-5.3 1.902 0 3.246.298 3.978.633.184.112.222.292.222.442v3.077c0 .187-.111.297-.333.225-.987-.597-2.439-.966-3.867-.966l-.002-.004z" id="Shape"/><path d="M1.382 29.084h.822v3.686h-.822v-3.686zm4.308 0h.822v3.686H5.69l-1.756-2.31v2.31H3.11v-3.686h.77l1.809 2.373v-2.373zm3.422 2.958c.404 0 .734-.16.99-.48l.528.544c-.418.47-.911.706-1.479.706-.568 0-1.035-.18-1.402-.538-.368-.358-.551-.81-.551-1.357 0-.547.187-1.003.561-1.369A1.891 1.891 0 019.133 29c.604 0 1.11.23 1.518.69l-.511.58c-.26-.323-.584-.484-.97-.484-.31 0-.574.1-.794.303-.22.202-.33.474-.33.817 0 .343.104.618.312.825.207.208.458.311.754.311zm2.167.728v-3.686h.822v2.953h1.571v.733H11.28zm4.444-.696a.666.666 0 00.551-.256c.136-.17.203-.403.203-.698v-2.036h.823v2.062c0 .534-.148.945-.443 1.231-.295.287-.673.43-1.134.43-.46 0-.839-.144-1.136-.433-.297-.288-.445-.697-.445-1.228v-2.062h.822v2.036c0 .295.069.528.206.698.137.17.321.256.553.256zm5.247-2.507c.351.321.527.769.527 1.342 0 .573-.171 1.026-.514 1.36-.343.334-.866.5-1.569.5h-1.26v-3.685h1.303c.657 0 1.161.161 1.513.483zm-.604 2.19c.202-.19.303-.465.303-.827 0-.362-.1-.64-.303-.836-.202-.195-.512-.293-.93-.293h-.46v2.241h.523c.376 0 .665-.095.867-.284zm4.5-2.673v.733h-1.835v.76h1.65v.7h-1.65v.765h1.893v.728H22.21v-3.686h2.657zm3.607.483c.351.321.527.769.527 1.342 0 .573-.171 1.026-.514 1.36-.343.334-.866.5-1.569.5h-1.26v-3.685h1.302c.658 0 1.162.161 1.514.483zm-.604 2.19c.202-.19.303-.465.303-.827 0-.362-.1-.64-.303-.836-.202-.195-.512-.293-.93-.293h-.46v2.241h.523c.376 0 .665-.095.867-.284z" id="INCLUDED"/></g></g></g></svg>