<?xml version="1.0" encoding="utf-8"?>
<!-- Generator: Adobe Illustrator 16.0.0, SVG Export Plug-In . SVG Version: 6.00 Build 0)  -->
<!DOCTYPE svg PUBLIC "-//W3C//DTD SVG 1.1//EN" "http://www.w3.org/Graphics/SVG/1.1/DTD/svg11.dtd">
<svg version="1.1" id="Layer_1" xmlns="http://www.w3.org/2000/svg" xmlns:xlink="http://www.w3.org/1999/xlink" x="0px" y="0px"
	 width="125px" height="55px" viewBox="0 0 125 55" enable-background="new 0 0 125 55" xml:space="preserve">
<path fill="#FFFFFF" d="M7.878,24.429h0.783c0.725,0,1.247-0.228,1.566-0.682l4.756-6.902c0.261-0.377,0.559-0.633,0.892-0.768
	s0.742-0.203,1.225-0.203h4.263L15.1,24.414c-0.223,0.309-0.455,0.565-0.696,0.769s-0.488,0.372-0.739,0.507
	c0.367,0.135,0.703,0.321,1.008,0.558c0.304,0.237,0.583,0.554,0.833,0.95L21.886,37h-4.379c-0.28,0-0.52-0.02-0.718-0.059
	c-0.198-0.038-0.37-0.096-0.515-0.174c-0.145-0.077-0.271-0.171-0.377-0.282s-0.208-0.239-0.305-0.384l-4.785-7.352
	c-0.174-0.271-0.394-0.462-0.66-0.573c-0.266-0.111-0.626-0.167-1.081-0.167H7.878V37H2.978V15.874h4.901V24.429z M43.346,37h-3.799
	c-0.425,0-0.776-0.1-1.051-0.297c-0.275-0.199-0.466-0.452-0.573-0.762l-1.247-3.684h-8.033l-1.247,3.684
	c-0.097,0.271-0.285,0.515-0.565,0.732C26.55,36.891,26.207,37,25.8,37h-3.828l8.178-21.126h5.017L43.346,37z M29.773,28.924h5.771
	l-1.943-5.786c-0.125-0.368-0.273-0.8-0.442-1.298c-0.169-0.498-0.336-1.037-0.5-1.617c-0.155,0.589-0.314,1.136-0.479,1.638
	c-0.165,0.503-0.319,0.938-0.464,1.305L29.773,28.924z M49.958,33.085h7.83V37H45.057V15.874h4.901V33.085z M65.008,33.085h7.83V37
	h-12.73V15.874h4.9V33.085z M82.205,28.967V37h-4.9v-8.033l-7.656-13.093h4.321c0.425,0,0.764,0.099,1.015,0.297
	c0.252,0.198,0.455,0.452,0.609,0.761l2.986,6.148c0.242,0.493,0.465,0.947,0.668,1.363s0.381,0.827,0.536,1.232
	c0.146-0.416,0.319-0.831,0.522-1.247c0.202-0.416,0.42-0.865,0.652-1.349l2.957-6.148c0.059-0.126,0.139-0.251,0.24-0.377
	c0.102-0.126,0.217-0.239,0.348-0.341s0.28-0.184,0.449-0.247c0.17-0.063,0.355-0.094,0.559-0.094h4.35L82.205,28.967z M108.074,37
	h-3.8c-0.425,0-0.776-0.1-1.052-0.297c-0.275-0.199-0.466-0.452-0.572-0.762l-1.247-3.684h-8.032l-1.248,3.684
	c-0.096,0.271-0.285,0.515-0.564,0.732C91.277,36.891,90.935,37,90.528,37h-3.827l8.178-21.126h5.017L108.074,37z M94.502,28.924
	h5.771l-1.942-5.786c-0.127-0.368-0.273-0.8-0.443-1.298c-0.168-0.498-0.336-1.037-0.5-1.617c-0.154,0.589-0.314,1.136-0.479,1.638
	c-0.164,0.503-0.318,0.938-0.464,1.305L94.502,28.924z M121.559,20.166c-0.145,0.232-0.297,0.406-0.457,0.522
	c-0.159,0.116-0.365,0.174-0.616,0.174c-0.222,0-0.462-0.07-0.718-0.21s-0.546-0.297-0.869-0.471
	c-0.324-0.174-0.694-0.331-1.109-0.471c-0.416-0.141-0.89-0.21-1.422-0.21c-0.918,0-1.602,0.196-2.051,0.587
	c-0.45,0.391-0.675,0.92-0.675,1.587c0,0.425,0.136,0.778,0.405,1.059c0.271,0.28,0.627,0.522,1.066,0.725s0.942,0.389,1.508,0.558
	c0.565,0.169,1.143,0.358,1.732,0.565c0.59,0.208,1.168,0.452,1.733,0.732s1.067,0.638,1.508,1.073
	c0.44,0.435,0.795,0.964,1.065,1.588c0.271,0.624,0.406,1.375,0.406,2.255c0,0.977-0.169,1.89-0.508,2.74
	c-0.338,0.852-0.828,1.593-1.471,2.227c-0.644,0.633-1.436,1.131-2.379,1.493c-0.942,0.362-2.013,0.544-3.211,0.544
	c-0.658,0-1.327-0.068-2.009-0.203c-0.682-0.136-1.341-0.326-1.979-0.573c-0.638-0.246-1.237-0.538-1.798-0.877
	s-1.049-0.716-1.464-1.131l1.449-2.291c0.106-0.175,0.256-0.314,0.449-0.421c0.193-0.105,0.402-0.159,0.624-0.159
	c0.29,0,0.583,0.092,0.878,0.275c0.294,0.184,0.627,0.387,1,0.608c0.372,0.223,0.8,0.426,1.283,0.609s1.054,0.275,1.711,0.275
	c0.889,0,1.58-0.195,2.073-0.587s0.739-1.013,0.739-1.863c0-0.493-0.135-0.894-0.406-1.204c-0.27-0.309-0.625-0.564-1.064-0.768
	c-0.44-0.203-0.941-0.383-1.502-0.537s-1.135-0.326-1.725-0.515s-1.165-0.421-1.726-0.696c-0.562-0.275-1.062-0.638-1.501-1.087
	c-0.439-0.45-0.795-1.01-1.066-1.682c-0.27-0.672-0.405-1.5-0.405-2.487c0-0.792,0.159-1.566,0.479-2.32s0.788-1.426,1.406-2.016
	s1.378-1.061,2.276-1.414c0.899-0.353,1.929-0.529,3.089-0.529c0.647,0,1.278,0.051,1.892,0.152
	c0.614,0.102,1.197,0.251,1.748,0.449s1.065,0.435,1.544,0.71c0.479,0.276,0.906,0.587,1.283,0.936L121.559,20.166z"/>
</svg>
