<svg version="1.1" id="Layer_1" xmlns="http://www.w3.org/2000/svg" x="0" y="0" width="125" height="39.25" xml:space="preserve"><path fill="#464646" d="M7.878 15.429h.783c.725 0 1.247-.228 1.566-.682l4.756-6.902c.261-.377.559-.633.892-.769.334-.135.742-.203 1.226-.203h4.263L15.1 15.414c-.223.309-.455.565-.696.769s-.488.372-.739.507c.367.135.703.321 1.008.558.304.237.582.554.833.95L21.886 28h-4.379c-.28 0-.52-.02-.718-.059a1.801 1.801 0 01-.515-.174 1.493 1.493 0 01-.377-.282 2.846 2.846 0 01-.305-.384l-4.785-7.352a1.444 1.444 0 00-.66-.573c-.266-.111-.626-.167-1.081-.167H7.878V28h-4.9V6.874h4.901v8.555zM43.346 28h-3.799c-.425 0-.776-.1-1.051-.297a1.545 1.545 0 01-.573-.762l-1.247-3.683h-8.033l-1.247 3.683c-.097.271-.285.515-.565.732-.281.218-.624.327-1.031.327h-3.828L30.15 6.874h5.017L43.346 28zm-13.573-8.077h5.771l-1.943-5.785-.442-1.298a32.894 32.894 0 01-.5-1.617 28.51 28.51 0 01-.479 1.638c-.165.503-.319.938-.464 1.305l-1.943 5.757zm20.185 4.162h7.83V28H45.057V6.874h4.901v17.211zm15.05 0h7.83V28h-12.73V6.874h4.9v17.211zm17.197-4.118V28h-4.9v-8.033L69.648 6.874h4.321c.425 0 .764.099 1.015.297.252.198.455.452.609.761l2.986 6.148.668 1.363c.203.416.381.827.536 1.232.146-.416.319-.831.522-1.247.202-.416.42-.865.652-1.349l2.957-6.148c.059-.126.139-.251.24-.377.102-.126.217-.239.348-.341s.28-.184.449-.247c.17-.063.355-.094.559-.094h4.35l-7.655 13.095zM108.074 28h-3.8c-.425 0-.776-.1-1.052-.297a1.537 1.537 0 01-.572-.762l-1.247-3.683h-8.032l-1.248 3.683c-.096.271-.285.515-.564.732-.282.218-.624.327-1.031.327h-3.827l8.178-21.126h5.017L108.074 28zm-13.572-8.077h5.771l-1.942-5.785c-.127-.368-.273-.8-.443-1.298a34.014 34.014 0 01-.5-1.617 27.728 27.728 0 01-.943 2.943l-1.943 5.757zm27.057-8.757a1.833 1.833 0 01-.457.522c-.159.116-.365.174-.616.174-.222 0-.462-.07-.718-.21s-.546-.297-.869-.471a7.235 7.235 0 00-1.109-.471 4.422 4.422 0 00-1.422-.21c-.918 0-1.602.196-2.051.587-.45.391-.675.92-.675 1.587 0 .425.136.778.405 1.059.271.28.627.522 1.066.725s.942.389 1.508.558c.565.169 1.143.358 1.732.565.59.208 1.168.452 1.733.732s1.067.638 1.508 1.073c.44.435.795.964 1.065 1.588.271.624.406 1.375.406 2.255 0 .977-.169 1.89-.508 2.74a6.417 6.417 0 01-1.471 2.227c-.644.633-1.436 1.131-2.379 1.493-.942.362-2.013.544-3.211.544-.658 0-1.327-.068-2.009-.203a11.926 11.926 0 01-1.979-.573c-.638-.246-1.237-.538-1.798-.877s-1.049-.716-1.464-1.131l1.449-2.291c.106-.174.256-.314.449-.421.193-.106.402-.159.624-.159.29 0 .583.092.878.275.294.184.627.387 1 .609.372.222.8.425 1.283.609.483.184 1.054.276 1.711.276.889 0 1.58-.196 2.073-.587s.739-1.013.739-1.863c0-.493-.135-.894-.406-1.204a3.15 3.15 0 00-1.064-.769 9.76 9.76 0 00-1.502-.536c-.561-.155-1.135-.327-1.725-.515s-1.165-.42-1.726-.696a5.413 5.413 0 01-1.501-1.087c-.439-.45-.795-1.01-1.066-1.682-.27-.672-.405-1.5-.405-2.487 0-.792.159-1.566.479-2.32s.788-1.426 1.406-2.016 1.378-1.061 2.276-1.414c.899-.353 1.929-.529 3.089-.529.647 0 1.278.051 1.892.152.614.102 1.197.251 1.748.449s1.065.435 1.544.71a7.08 7.08 0 011.283.936l-1.215 2.277z"/></svg>