<?xml version="1.0" encoding="utf-8"?>
<!-- Generator: Adobe Illustrator 16.0.0, SVG Export Plug-In . SVG Version: 6.00 Build 0)  -->
<!DOCTYPE svg PUBLIC "-//W3C//DTD SVG 1.1//EN" "http://www.w3.org/Graphics/SVG/1.1/DTD/svg11.dtd">
<svg version="1.1" id="Layer_1" xmlns:sketch="http://www.bohemiancoding.com/sketch/ns"
	 xmlns="http://www.w3.org/2000/svg" xmlns:xlink="http://www.w3.org/1999/xlink" x="0px" y="0px" width="115px" height="37px"
	 viewBox="0 0 115 37" enable-background="new 0 0 115 37" xml:space="preserve">
<title>Artboard 1</title>
<desc>Created with Sketch.</desc>
<g id="Page-1" sketch:type="MSPage">
	<g id="Artboard-1" sketch:type="MSArtboardGroup">
		<path id="Shape_1_" sketch:type="MSShapeGroup" fill="#FFFFFF" fill-opacity="0.6" d="M4.5,8.537h0.703
			c0.652,0,1.121-0.204,1.407-0.613l4.273-6.202c0.234-0.338,0.501-0.569,0.801-0.69s0.667-0.182,1.101-0.182h3.831l-5.628,7.674
			c-0.2,0.278-0.408,0.508-0.625,0.69C10.146,9.397,9.925,9.549,9.699,9.67c0.33,0.122,0.632,0.289,0.905,0.501
			c0.274,0.213,0.523,0.498,0.75,0.854l5.732,8.807h-3.935c-0.252,0-0.467-0.017-0.645-0.051c-0.178-0.035-0.332-0.088-0.462-0.157
			s-0.243-0.153-0.339-0.254c-0.096-0.1-0.187-0.215-0.273-0.345l-4.299-6.606c-0.157-0.243-0.354-0.415-0.593-0.515
			c-0.239-0.1-0.562-0.15-0.97-0.15H4.5v8.077H0.097V0.85H4.5V8.537L4.5,8.537z M36.369,19.832h-3.414
			c-0.382,0-0.697-0.088-0.945-0.267c-0.248-0.178-0.419-0.405-0.515-0.684l-1.121-3.31h-7.218l-1.12,3.31
			c-0.087,0.243-0.256,0.462-0.508,0.657s-0.56,0.293-0.925,0.293h-3.439L24.512,0.85h4.508L36.369,19.832L36.369,19.832z
			 M24.173,12.576h5.186l-1.746-5.198c-0.113-0.33-0.246-0.719-0.397-1.166c-0.152-0.448-0.302-0.932-0.45-1.453
			c-0.139,0.53-0.282,1.021-0.43,1.472c-0.148,0.452-0.287,0.842-0.417,1.172L24.173,12.576L24.173,12.576z M42.31,16.315h7.035
			v3.517H37.906V0.85h4.404V16.315L42.31,16.315z M55.833,16.315h7.036v3.517H51.43V0.85h4.403V16.315L55.833,16.315z
			 M71.285,12.615v7.217h-4.404v-7.217L60.002,0.85h3.883c0.383,0,0.687,0.089,0.912,0.267c0.227,0.178,0.408,0.406,0.547,0.684
			l2.684,5.524c0.218,0.443,0.418,0.851,0.6,1.225c0.183,0.374,0.344,0.743,0.482,1.107c0.131-0.374,0.287-0.747,0.469-1.12
			c0.183-0.374,0.379-0.777,0.586-1.212l2.658-5.524c0.053-0.113,0.124-0.226,0.215-0.338c0.092-0.113,0.195-0.215,0.313-0.306
			c0.118-0.091,0.252-0.165,0.404-0.222s0.319-0.084,0.502-0.084h3.908L71.285,12.615L71.285,12.615z M94.528,19.832h-3.413
			c-0.383,0-0.697-0.088-0.945-0.267c-0.247-0.178-0.419-0.405-0.514-0.684l-1.121-3.31h-7.218l-1.12,3.31
			c-0.088,0.243-0.257,0.462-0.509,0.657c-0.251,0.195-0.56,0.293-0.925,0.293h-3.439L82.672,0.85h4.508L94.528,19.832
			L94.528,19.832z M82.334,12.576h5.186l-1.746-5.198c-0.113-0.33-0.246-0.719-0.398-1.166c-0.151-0.448-0.301-0.932-0.449-1.453
			c-0.139,0.53-0.281,1.021-0.43,1.472c-0.147,0.452-0.287,0.842-0.416,1.172L82.334,12.576L82.334,12.576z M106.645,4.707
			c-0.13,0.208-0.267,0.365-0.41,0.469c-0.143,0.104-0.328,0.157-0.554,0.157c-0.2,0-0.415-0.063-0.645-0.189
			c-0.23-0.126-0.491-0.267-0.782-0.423c-0.291-0.157-0.623-0.298-0.996-0.424s-0.799-0.189-1.277-0.189
			c-0.824,0-1.439,0.176-1.844,0.528c-0.403,0.352-0.605,0.827-0.605,1.427c0,0.382,0.121,0.699,0.365,0.951
			c0.242,0.252,0.563,0.469,0.957,0.651c0.396,0.182,0.848,0.35,1.355,0.501s1.027,0.321,1.557,0.508
			c0.529,0.187,1.049,0.406,1.557,0.658s0.96,0.573,1.355,0.964c0.395,0.391,0.715,0.866,0.957,1.426
			c0.244,0.561,0.365,1.236,0.365,2.026c0,0.877-0.152,1.698-0.456,2.462c-0.304,0.764-0.745,1.431-1.322,2
			c-0.577,0.569-1.29,1.016-2.137,1.342s-1.81,0.488-2.886,0.488c-0.591,0-1.192-0.061-1.805-0.182
			c-0.612-0.122-1.205-0.294-1.778-0.516c-0.573-0.221-1.112-0.484-1.616-0.788c-0.503-0.304-0.941-0.643-1.315-1.016l1.304-2.059
			c0.095-0.156,0.229-0.282,0.403-0.377c0.173-0.096,0.36-0.144,0.56-0.144c0.262,0,0.523,0.083,0.789,0.248
			c0.265,0.165,0.564,0.348,0.898,0.547s0.719,0.382,1.153,0.547s0.946,0.248,1.537,0.248c0.8,0,1.421-0.176,1.863-0.527
			c0.442-0.352,0.665-0.91,0.665-1.674c0-0.443-0.122-0.803-0.365-1.082c-0.243-0.278-0.563-0.508-0.957-0.69
			c-0.396-0.182-0.846-0.343-1.35-0.482c-0.504-0.139-1.02-0.293-1.55-0.462s-1.047-0.378-1.551-0.625
			c-0.503-0.248-0.953-0.573-1.349-0.977c-0.395-0.404-0.714-0.908-0.957-1.511c-0.243-0.604-0.365-1.349-0.365-2.235
			c0-0.712,0.144-1.407,0.43-2.084c0.287-0.677,0.709-1.281,1.264-1.811c0.557-0.53,1.238-0.953,2.046-1.27
			c0.808-0.317,1.733-0.476,2.775-0.476c0.582,0,1.148,0.045,1.7,0.137s1.074,0.226,1.57,0.404c0.494,0.178,0.957,0.391,1.387,0.639
			s0.814,0.527,1.153,0.84L106.645,4.707L106.645,4.707z"/>
	</g>
</g>
</svg>
