<svg version="1.1" id="Layer_1" xmlns="http://www.w3.org/2000/svg" x="0" y="0" width="115" height="37" xml:space="preserve"><g id="Page-1"><g id="Artboard-1"><path id="Shape_1_" fill="#FFF" fill-opacity=".6" d="M4.5 8.537h.703c.652 0 1.121-.204 1.407-.613l4.273-6.202c.234-.338.501-.569.801-.69S12.351.85 12.785.85h3.831l-5.628 7.674A3.756 3.756 0 019.699 9.67c.33.122.632.289.905.501.274.213.523.498.75.854l5.732 8.807h-3.935c-.252 0-.467-.017-.645-.051-.178-.035-.332-.088-.462-.157s-.243-.153-.339-.254a2.441 2.441 0 01-.273-.345l-4.299-6.606a1.3 1.3 0 00-.593-.515c-.239-.1-.562-.15-.97-.15H4.5v8.077H.097V.85H4.5v7.687zm31.869 11.295h-3.414c-.382 0-.697-.088-.945-.267a1.375 1.375 0 01-.515-.684l-1.121-3.31h-7.218l-1.12 3.31c-.087.243-.256.462-.508.657s-.56.293-.925.293h-3.439L24.512.85h4.508l7.349 18.982zm-12.196-7.256h5.186l-1.746-5.198c-.113-.33-.246-.719-.397-1.166a30.313 30.313 0 01-.45-1.453c-.139.53-.282 1.021-.43 1.472-.148.452-.287.842-.417 1.172l-1.746 5.173zm18.137 3.739h7.035v3.517H37.906V.85h4.404v15.465zm13.523 0h7.036v3.517H51.43V.85h4.403v15.465zm15.452-3.7v7.217h-4.404v-7.217L60.002.85h3.883c.383 0 .687.089.912.267.227.178.408.406.547.684l2.684 5.524c.218.443.418.851.6 1.225.183.374.344.743.482 1.107.131-.374.287-.747.469-1.12.183-.374.379-.777.586-1.212l2.658-5.524c.053-.113.124-.226.215-.338a1.89 1.89 0 01.313-.306c.118-.091.252-.165.404-.222s.319-.084.502-.084h3.908l-6.88 11.764zm23.243 7.217h-3.413c-.383 0-.697-.088-.945-.267a1.373 1.373 0 01-.514-.684l-1.121-3.31h-7.218l-1.12 3.31c-.088.243-.257.462-.509.657-.251.195-.56.293-.925.293h-3.439L82.672.85h4.508l7.348 18.982zm-12.194-7.256h5.186l-1.746-5.198-.398-1.166a31.54 31.54 0 01-.449-1.453 24.664 24.664 0 01-.846 2.644l-1.747 5.173zm24.311-7.869c-.13.208-.267.365-.41.469a.92.92 0 01-.554.157c-.2 0-.415-.063-.645-.189-.23-.126-.491-.267-.782-.423-.291-.157-.623-.298-.996-.424s-.799-.189-1.277-.189c-.824 0-1.439.176-1.844.528-.403.352-.605.827-.605 1.427 0 .382.121.699.365.951.242.252.563.469.957.651.396.182.848.35 1.355.501s1.027.321 1.557.508c.529.187 1.049.406 1.557.658s.96.573 1.355.964.715.866.957 1.426c.244.561.365 1.236.365 2.026 0 .877-.152 1.698-.456 2.462a5.777 5.777 0 01-1.322 2c-.577.569-1.29 1.016-2.137 1.342s-1.81.488-2.886.488a9.303 9.303 0 01-1.805-.182A10.707 10.707 0 0196 18.554a6.917 6.917 0 01-1.315-1.016l1.304-2.059c.095-.156.229-.282.403-.377.173-.096.36-.144.56-.144.262 0 .523.083.789.248.265.165.564.348.898.547s.719.382 1.153.547.946.248 1.537.248c.8 0 1.421-.176 1.863-.527.442-.352.665-.91.665-1.674 0-.443-.122-.803-.365-1.082a2.818 2.818 0 00-.957-.69 8.913 8.913 0 00-1.35-.482c-.504-.139-1.02-.293-1.55-.462s-1.047-.378-1.551-.625a4.926 4.926 0 01-1.349-.977c-.395-.404-.714-.908-.957-1.511-.243-.604-.365-1.349-.365-2.235 0-.712.144-1.407.43-2.084a5.406 5.406 0 011.264-1.811c.557-.53 1.238-.953 2.046-1.27.808-.317 1.733-.476 2.775-.476.582 0 1.148.045 1.7.137s1.074.226 1.57.404c.494.178.957.391 1.387.639s.814.527 1.153.84l-1.093 2.045z"/></g></g></svg>