<svg id="Layer_3" enable-background="new 0 0 64 64" height="512" viewBox="0 0 64 64" width="512" xmlns="http://www.w3.org/2000/svg"><g><path d="m56 41h2v2h-2z"/><path d="m52 41h2v2h-2z"/><path d="m48 41h2v2h-2z"/><path d="m53 51c.553 0 1-.447 1-1v-3h4c2.757 0 5-2.243 5-5v-36c0-2.757-2.243-5-5-5h-52c-2.757 0-5 2.243-5 5v36c0 2.757 2.243 5 5 5h17v8h-1c-1.654 0-3 1.346-3 3v4c0 .553.447 1 1 1h24c.553 0 1-.447 1-1v-4c0-1.654-1.346-3-3-3h-1v-8h7v3c0 .553.447 1 1 1h1v7c0 2.757 2.243 5 5 5h8v-2h-8c-1.654 0-3-1.346-3-3v-7zm-47-48h52c1.654 0 3 1.346 3 3v31h-8v-6h1c.553 0 1-.448 1-1v-4c0-.552-.447-1-1-1h-10c-.553 0-1 .448-1 1v4c0 .552.447 1 1 1h1v6h-6v-6h1c.553 0 1-.448 1-1v-4c0-.552-.447-1-1-1h-10c-.553 0-1 .448-1 1v4c0 .552.447 1 1 1h1v6h-28v-31c0-1.654 1.346-3 3-3zm39 26v-2h8v2zm6 2v6h-4v-6zm-20-2v-2h8v2zm6 2v6h-4v-6zm-34 11v-3h58v3c0 1.654-1.346 3-3 3h-52c-1.654 0-3-1.346-3-3zm40 16v3h-22v-3c0-.552.448-1 1-1h20c.552 0 1 .448 1 1zm-4-3h-14v-8h14zm13-8v2h-2v-2z"/><path d="m9 23c.762 0 1.467-.225 2.074-.596l7.185 6.387c-.164.37-.259.778-.259 1.209 0 1.654 1.346 3 3 3s3-1.346 3-3-1.346-3-3-3c-.492 0-.95.13-1.361.342l-7.176-6.378c.332-.583.537-1.247.537-1.964 0-.74-.215-1.424-.567-2.019l4.281-4.281c.392.187.824.3 1.286.3 1.654 0 3-1.346 3-3s-1.346-3-3-3-3 1.346-3 3c0 .462.113.894.301 1.285l-4.281 4.281c-.596-.351-1.28-.566-2.02-.566-2.206 0-4 1.794-4 4s1.794 4 4 4zm13 7c0 .551-.448 1-1 1s-1-.449-1-1 .448-1 1-1 1 .449 1 1zm-4-21c.552 0 1 .449 1 1s-.448 1-1 1-1-.449-1-1 .448-1 1-1zm-9 8c1.103 0 2 .897 2 2s-.897 2-2 2-2-.897-2-2 .897-2 2-2z"/><path d="m26 21h32c.553 0 1-.448 1-1v-12c0-.552-.447-1-1-1h-32c-.553 0-1 .448-1 1v12c0 .552.447 1 1 1zm1-12h30v10h-30z"/><path d="m29 11h26v2h-26z"/><path d="m29 15h26v2h-26z"/></g></svg>