<svg width="150" height="60" xmlns="http://www.w3.org/2000/svg"><g id="Page-1" stroke="none" stroke-width="1" fill="none" fill-rule="evenodd"><g id="logo8" fill="#FFF"><path d="M52.014 10.378c0-.238.51-.419.816-.419 2.341-.12 5.782-.18 9.386-.18 10.097 0 14.026 5.493 14.026 12.526 0 9.18-6.71 13.12-14.94 13.12-1.383 0-1.856-.062-2.821-.062V49.25c0 .3-.12.42-.419.42h-5.629c-.291 0-.419-.116-.419-.416V10.378zm6.463 19.203c.838.058 1.504.058 2.95.058 4.26 0 8.264-1.493 8.264-7.222 0-4.59-2.865-6.917-7.73-6.917-1.441 0-2.821.061-3.484.123V29.58zm31.338-4.294c-2.883 0-3.845 1.431-3.845 2.624 0 1.316.663 2.212 4.504 4.178 5.717 2.747 7.512 5.367 7.512 9.242 0 5.782-4.442 8.89-10.45 8.89-3.186 0-5.898-.66-7.457-1.554-.24-.119-.302-.3-.302-.6v-5.305c0-.362.182-.48.422-.3 2.287 1.489 4.934 2.147 7.337 2.147 2.884 0 4.085-1.193 4.085-2.798 0-1.315-.837-2.447-4.504-4.355-5.17-2.44-7.33-4.944-7.33-9.122 0-4.652 3.664-8.53 10.032-8.53 3.124 0 5.33.481 6.532 1.02.302.18.364.47.364.712v4.951c0 .3-.182.477-.546.361-1.62-.961-4.005-1.554-6.35-1.554l-.004-.007z" id="Shape"/></g></g></svg>