<svg width="150" height="60" xmlns="http://www.w3.org/2000/svg"><g id="Page-1" stroke="none" stroke-width="1" fill="none" fill-rule="evenodd"><g id="logo5_dark" fill-opacity=".3" fill="#000"><path d="M142.672 27.647c.216.096.48.188.79.277.312.089.664.198 1.057.325.622.19 1.184.4 1.686.63.501.229.93.5 1.286.811.355.313.628.69.819 1.137.19.446.285.987.285 1.623 0 .815-.15 1.5-.447 2.053a3.67 3.67 0 01-1.182 1.327 4.96 4.96 0 01-1.656.717 8.032 8.032 0 01-1.857.22c-.495 0-1.003-.039-1.523-.116a13.495 13.495 0 01-3.038-.821 9.445 9.445 0 01-1.324-.649l1.6-3.265c.444.28.908.528 1.39.744.407.191.867.363 1.381.516a5.513 5.513 0 001.57.229c.407 0 .69-.054.848-.163a.497.497 0 00.239-.43.615.615 0 00-.239-.486 2.176 2.176 0 00-.656-.353c-.28-.102-.6-.204-.962-.306a20.612 20.612 0 01-1.152-.363 9.86 9.86 0 01-1.543-.659 4.199 4.199 0 01-1.067-.802 2.868 2.868 0 01-.618-1.021 3.988 3.988 0 01-.2-1.319c0-.75.136-1.412.409-1.986a4.083 4.083 0 011.114-1.432 4.98 4.98 0 011.61-.869 6.101 6.101 0 011.914-.296c.495 0 .977.048 1.447.143.47.095.923.217 1.362.363.437.147.847.306 1.228.478s.724.334 1.028.487l-1.6 3.074a10.748 10.748 0 00-2.333-1.041 4.168 4.168 0 00-1.247-.2c-.33 0-.593.051-.79.153-.197.102-.296.274-.296.516 0 .178.057.324.172.439.114.114.28.22.495.315zm-15.445-4.612h9.465v3.246h-5.751v1.91h4.913v3.018h-4.913v2.139h5.923v3.246h-9.637v-13.56zm-10.646 6.894v6.665h-3.714v-13.56h2.895l5.428 6.895v-6.894h3.714v13.56h-2.952l-5.371-6.666zm-7.141 4.689a6.562 6.562 0 01-2.057 1.518c-.8.382-1.676.573-2.629.573-.965 0-1.844-.197-2.637-.592a6.582 6.582 0 01-2.038-1.556 7.086 7.086 0 01-1.314-2.206 7.206 7.206 0 01-.467-2.56c0-.89.162-1.75.486-2.578a6.86 6.86 0 011.362-2.187 6.689 6.689 0 012.066-1.508c.793-.375 1.666-.564 2.619-.564.964 0 1.844.198 2.637.592a6.537 6.537 0 012.038 1.566c.565.65 1 1.388 1.305 2.216.305.828.457 1.674.457 2.54 0 .891-.162 1.747-.486 2.569a7.067 7.067 0 01-1.342 2.177zm-2.115-6.15a3.654 3.654 0 00-.504-1.126 2.563 2.563 0 00-.848-.784c-.343-.197-.742-.295-1.2-.295-.47 0-.872.101-1.209.305a2.622 2.622 0 00-.838.812 3.707 3.707 0 00-.495 1.145 5.328 5.328 0 00-.162 1.308c0 .459.054.902.162 1.328.107.427.276.805.505 1.136.228.331.514.6.857.802.342.204.742.306 1.2.306.47 0 .876-.105 1.219-.315a2.58 2.58 0 00.837-.821c.216-.337.378-.723.486-1.156a5.44 5.44 0 00.162-1.318c0-.458-.057-.9-.172-1.327zm-11.388 6.446c-.38.598-.936 1.063-1.666 1.394-.73.33-1.711.497-2.943.497-1.142 0-2.12-.28-2.933-.84l.781-3.038a3.654 3.654 0 00.723.325c.191.064.41.122.658.172.247.05.504.076.771.076.394 0 .711-.063.952-.19s.426-.335.553-.621c.127-.286.209-.656.247-1.108.038-.451.058-1.002.058-1.652v-6.894h3.713v6.894c0 1.031-.057 1.97-.171 2.817-.114.847-.362 1.57-.743 2.168zm-20.835-4.985v6.665h-3.714v-13.56h2.895l5.428 6.895v-6.894h3.714v13.56h-2.952l-5.371-6.666zm-7.141 4.689a6.562 6.562 0 01-2.057 1.518c-.8.382-1.676.573-2.629.573-.965 0-1.844-.197-2.637-.592A6.582 6.582 0 0158.6 34.56a7.086 7.086 0 01-1.314-2.206 7.206 7.206 0 01-.467-2.56c0-.89.162-1.75.486-2.578a6.86 6.86 0 011.362-2.187 6.689 6.689 0 012.066-1.508c.793-.375 1.666-.564 2.619-.564.964 0 1.844.198 2.637.592a6.537 6.537 0 012.038 1.566c.565.65 1 1.388 1.305 2.216.305.828.457 1.674.457 2.54 0 .891-.162 1.747-.486 2.569a7.067 7.067 0 01-1.342 2.177zm-2.114-6.15a3.654 3.654 0 00-.505-1.126 2.563 2.563 0 00-.848-.784c-.343-.197-.742-.295-1.2-.295-.469 0-.872.101-1.209.305a2.622 2.622 0 00-.837.812 3.708 3.708 0 00-.496 1.145 5.328 5.328 0 00-.161 1.308c0 .459.053.902.161 1.328.108.427.276.805.505 1.136.228.331.514.6.857.802.342.204.742.306 1.2.306.47 0 .876-.105 1.219-.315a2.58 2.58 0 00.837-.821c.216-.337.378-.723.486-1.156.108-.432.162-.872.162-1.318 0-.458-.057-.9-.171-1.327zm-13.465 8.126l-2.571-4.163h-1.39v4.163h-3.714v-13.56h6.208c.66 0 1.27.138 1.83.412.557.273 1.037.63 1.436 1.069.4.44.715.942.944 1.508.228.567.342 1.137.342 1.71 0 .79-.171 1.525-.514 2.206a4.497 4.497 0 01-1.428 1.67l3.047 4.985h-4.19zm-1.028-9.94c-.23-.248-.458-.373-.686-.373H48.42v2.904h2.342c.229 0 .441-.128.638-.383.197-.254.296-.61.296-1.07 0-.47-.115-.83-.343-1.078zM3.891 51v-2.56h33.176V15.173h2.552V51H3.89zM1.34 46.735V12.613h34.027v34.122H1.339zm27.13-13.989c-.115.847-.362 1.57-.744 2.168-.38.598-.936 1.063-1.666 1.394-.73.33-1.71.497-2.942.497-1.143 0-2.12-.28-2.933-.84l.78-3.038a3.647 3.647 0 00.723.325c.192.064.411.122.659.172.247.05.504.076.77.076.394 0 .712-.063.953-.19a1.24 1.24 0 00.552-.621c.127-.286.21-.656.248-1.108.038-.451.057-1.002.057-1.652v-6.894h3.714v6.894c0 1.031-.057 1.97-.171 2.817zm-12.61 3.848l-2.571-4.163H11.9v4.163H8.185v-13.56h6.208a4.1 4.1 0 011.829.412c.558.273 1.037.63 1.437 1.069.4.44.715.942.943 1.508.229.567.343 1.137.343 1.71 0 .79-.171 1.525-.514 2.206a4.496 4.496 0 01-1.429 1.67l3.048 4.985h-4.19zm-1.028-9.94c-.23-.248-.458-.373-.686-.373h-2.248v2.904h2.343c.229 0 .441-.128.638-.383.197-.254.295-.61.295-1.07 0-.47-.114-.83-.342-1.078z" id="Shape"/></g></g></svg>