<svg width="150" height="60" xmlns="http://www.w3.org/2000/svg"><g id="Page-1" stroke="none" stroke-width="1" fill="none" fill-rule="evenodd"><g id="logo6"><path d="M113.962 10.88h32.677v39.718h-143V10.879h32.669" id="Shape" stroke="#FFF" stroke-width="3"/><path d="M122.924 28.309c.342.2 1.034.452 2.078.753 1.238.35 2.124.675 2.658.974.534.297.957.644 1.267 1.04.311.394.55.869.714 1.419.165.55.247 1.185.247 1.902 0 1.69-.468 2.981-1.404 3.874-.937.893-2.311 1.34-4.123 1.34-1.653 0-2.95-.392-3.889-1.175-.94-.783-1.543-1.97-1.812-3.561l2.608-.576c.177.914.522 1.577 1.034 1.989.513.412 1.223.618 2.133.618 1.884 0 2.827-.767 2.827-2.3 0-.49-.109-.894-.325-1.211a2.523 2.523 0 00-.915-.796c-.393-.212-1.148-.47-2.265-.77-.964-.303-1.635-.546-2.013-.73-.378-.182-.72-.4-1.025-.648a3.488 3.488 0 01-.778-.9 4.46 4.46 0 01-.499-1.235 6.72 6.72 0 01-.178-1.627c0-1.56.438-2.752 1.313-3.58.875-.828 2.15-1.243 3.82-1.243 1.6 0 2.8.335 3.602 1.005.802.668 1.319 1.774 1.55 3.316l-2.616.476c-.135-.742-.407-1.301-.82-1.676-.411-.375-1.002-.563-1.77-.563-1.635 0-2.453.686-2.453 2.056 0 .448.087.816.26 1.102.175.285.432.528.774.727zm-11.492.068l-.238-6.253h2.49l-.247 6.253h-2.005zm-9.597 10.99h-2.69v-7.075L94.55 22.124h2.827l3.093 7.293 3.13-7.293h2.827l-4.593 10.168v7.074zM87.93 32.58c-.704.476-1.541.716-2.511.716h-3.203v6.07h-2.7V22.123h5.793c1.544 0 2.732.475 3.565 1.425.832.95 1.248 2.295 1.248 4.033 0 1.108-.189 2.1-.567 2.974-.378.872-.92 1.547-1.625 2.025zm-2.923-7.654h-2.791v5.591h2.864c.744 0 1.318-.246 1.72-.74.403-.493.604-1.206.604-2.136 0-1.81-.799-2.715-2.397-2.715zM71.964 32.58c-.705.476-1.542.716-2.512.716h-3.203v6.07h-2.7V22.123h5.794c1.543 0 2.731.475 3.564 1.425.832.95 1.249 2.295 1.249 4.033 0 1.108-.19 2.1-.567 2.974-.38.872-.92 1.547-1.625 2.025zm-2.924-7.654h-2.79v5.591h2.864c.744 0 1.317-.246 1.72-.74.403-.493.604-1.206.604-2.136 0-1.81-.8-2.715-2.398-2.715zm-14.164-2.803h2.7v17.242h-2.7V22.124zm-8.684 9.851h-5.618v7.391h-2.7V22.124h2.7v6.865h5.618v-6.865h2.7v17.242h-2.7v-7.391zm-19.297 4.797c1.628 0 2.76-1.094 3.395-3.28l2.352 1.187c-.507 1.664-1.25 2.902-2.229 3.713-.98.812-2.151 1.22-3.518 1.22-2.074 0-3.677-.787-4.809-2.357-1.131-1.57-1.697-3.768-1.697-6.59 0-2.83.545-5.004 1.637-6.522 1.093-1.517 2.675-2.277 4.75-2.277 1.513 0 2.745.407 3.697 1.219.952.811 1.62 2.004 2.004 3.578l-2.38.87c-.2-.865-.596-1.552-1.184-2.063a3.08 3.08 0 00-2.082-.765c-1.22 0-2.146.507-2.777 1.518-.632 1.012-.948 2.493-.948 4.442 0 1.983.325 3.496.975 4.54.65 1.045 1.587 1.567 2.814 1.567zm78.415-25.236l1.178 1.793h-.648l-1.078-1.728h-1.293v1.728h-.562V9.166h1.952c.468 0 .829.104 1.083.314.254.21.381.502.381.876 0 .31-.09.57-.27.78-.18.21-.427.344-.743.399zm.202-1.726c-.164-.128-.4-.19-.709-.19h-1.334v1.535h1.358c.296 0 .526-.07.687-.21.163-.138.244-.332.244-.582 0-.243-.082-.427-.246-.553zm-5.469 2.302h-1.89l-.478 1.217h-.583l1.693-4.162h.64l1.667 4.162h-.575l-.474-1.217zm-.7-1.814a6.365 6.365 0 01-.166-.461l-.079-.245-.027.083a9.778 9.778 0 01-.218.63l-.53 1.367h1.553l-.534-1.374zm-3.89 1.858c0 .37-.134.658-.402.864-.27.206-.644.31-1.123.31h-1.684V9.165h1.508c.973 0 1.46.336 1.46 1.01a.947.947 0 01-.206.62c-.137.167-.331.28-.583.337.33.04.584.15.762.332a.94.94 0 01.269.69zm-1.028-1.39c.148-.113.222-.287.222-.52 0-.225-.077-.386-.23-.483-.153-.097-.375-.144-.665-.144h-.946v1.317h.946c.3 0 .525-.056.673-.17zm-.57.61h-1.05v1.5H93.9c.343 0 .594-.063.751-.192.157-.127.236-.319.236-.572 0-.491-.344-.736-1.032-.736zm-7.4-.823c0-.308.009-.603.026-.887a8.787 8.787 0 01-.26.827l-1.072 2.836h-.393l-1.088-2.836-.165-.503-.097-.324.01.328.01.559v2.776h-.5V9.166h.74l1.104 2.886a6.007 6.007 0 01.186.662c.015-.08.048-.2.098-.36a4 4 0 01.102-.302l1.084-2.886h.721v4.162h-.507v-2.776zm-6.393 1.56h-1.89l-.478 1.216h-.583l1.693-4.162h.64l1.666 4.162h-.574l-.474-1.217zm-.701-1.815a6.365 6.365 0 01-.165-.461l-.079-.245-.027.083c-.049.164-.122.373-.218.63l-.53 1.367h1.552l-.533-1.374zm-7.099-1.131h3.15v.46h-2.587v1.336h2.41v.455h-2.41v1.45h2.707v.461h-3.27V9.166zm-2.731 4.162L68.453 11.6H67.16v1.728h-.562V9.166h1.952c.468 0 .829.104 1.083.314.254.21.381.502.381.876 0 .31-.09.57-.27.78-.18.21-.427.344-.743.399l1.178 1.793h-.648zm-.326-2.383c.163-.139.244-.333.244-.583 0-.243-.082-.427-.246-.553-.164-.128-.4-.19-.709-.19H67.16v1.535h1.358c.296 0 .526-.07.687-.21zm-6.41 1.978c.582 0 1.018-.289 1.311-.866l.46.231a1.871 1.871 0 01-.72.818c-.31.187-.669.281-1.078.281-.417 0-.779-.088-1.084-.261a1.71 1.71 0 01-.699-.748c-.16-.324-.24-.707-.24-1.15 0-.665.179-1.185.536-1.56.358-.376.853-.565 1.485-.565.441 0 .81.087 1.107.26.296.174.514.43.654.772l-.534.177a1.102 1.102 0 00-.463-.555 1.44 1.44 0 00-.758-.193c-.46 0-.817.149-1.072.446-.255.295-.383.702-.383 1.217 0 .511.133.921.399 1.23.265.31.626.466 1.08.466zM52.618 9.166h3.149v.46H53.18v1.336h2.41v.455h-2.41v1.45h2.707v.461h-3.27V9.166zm-3.804 3.757c.582 0 1.018-.289 1.311-.866l.46.231a1.872 1.872 0 01-.72.818c-.31.187-.669.281-1.078.281-.417 0-.779-.088-1.084-.261a1.71 1.71 0 01-.699-.748c-.16-.324-.24-.707-.24-1.15 0-.665.179-1.185.537-1.56.357-.376.852-.565 1.484-.565.442 0 .811.087 1.107.26.296.174.514.43.654.772l-.533.177a1.102 1.102 0 00-.464-.555 1.44 1.44 0 00-.758-.193c-.46 0-.817.149-1.072.446-.255.295-.383.702-.383 1.217 0 .511.133.921.399 1.23.266.31.626.466 1.08.466zm-4.783-3.757h.562v4.162h-.562V9.166z" id="Shape" fill="#FFF"/></g></g></svg>