<svg width="150" height="60" xmlns="http://www.w3.org/2000/svg"><g id="Page-1" stroke="none" stroke-width="1" fill="none" fill-rule="evenodd"><g id="logo2_dark" fill-opacity=".3" fill="#000"><path d="M134.975 48.855l-5.048-8.021.033.648.034 1.117v6.256h-1.138v-9.419h1.486l5.102 8.076a34.822 34.822 0 01-.08-1.899v-6.177h1.15v9.419h-1.54zm-18.857-9.419h7.157v1.043h-5.878v3.022h5.476v1.03h-5.476v3.281h6.153v1.043h-7.432v-9.419zm-9.953 9.419l-3.85-9.419h1.346l2.611 6.632.563 1.664.562-1.664 2.598-6.632h1.346l-3.85 9.419h-1.326zm-8.895-2.753h-4.298l-1.085 2.753h-1.325l3.85-9.419h1.453l3.788 9.419h-1.305l-1.078-2.753zm-1.593-4.105c-.125-.307-.25-.655-.375-1.043l-.18-.555-.06.188c-.113.37-.278.844-.497 1.423l-1.205 3.096h3.529l-1.212-3.109zm-16.755-2.56h7.157v1.042h-5.878v3.022h5.476v1.03h-5.476v3.281h6.152v1.043h-7.43v-9.419zm-7.114 5.053h-5.101v4.365h-1.279v-9.419h1.279v3.985h5.101v-3.985h1.279v9.419h-1.279V44.49zm-12.837 4.365l-3.77-4.546-1.232.936v3.61h-1.278v-9.419h1.278v4.72l4.546-4.72h1.506l-4.017 4.092 4.553 5.327H58.97zm-19.018-9.419h7.157v1.043h-5.878v3.022h5.476v1.03h-5.476v3.281h6.152v1.043h-7.431v-9.419zm-12.738 0h7.157v1.043h-5.878v3.022h5.476v1.03h-5.476v3.281h6.152v1.043h-7.43v-9.419zm-9.94 9.552c-.986 0-1.835-.195-2.55-.587a3.928 3.928 0 01-1.637-1.695c-.376-.737-.566-1.605-.566-2.604 0-1.528.411-2.71 1.233-3.55.82-.836 1.974-1.255 3.46-1.255 1.045 0 1.893.175 2.545.527.651.353 1.154.916 1.506 1.691l-1.218.362c-.268-.535-.637-.925-1.108-1.17-.47-.245-1.057-.368-1.758-.368-1.088 0-1.921.329-2.497.987-.576.656-.863 1.582-.863 2.776 0 1.19.305 2.129.916 2.818.612.689 1.458 1.033 2.538 1.033.616 0 1.19-.094 1.724-.28.533-.188.965-.442 1.295-.763v-1.698h-2.818v-1.07h3.997v3.25c-.5.507-1.113.9-1.838 1.18a6.532 6.532 0 01-2.36.416zm-10.3-19.85h135.604v1.804H6.975v-1.805zM142.65 14.741c.29.133.868.294 1.734.485.29.068.579.135.866.204.289.07.564.152.827.247.264.096.51.209.74.338.23.13.43.288.6.475.17.187.302.408.398.661.096.255.144.554.144.896 0 .87-.34 1.542-1.022 2.02-.68.476-1.639.714-2.875.714-2.298 0-3.63-.798-3.997-2.393l1.24-.247c.142.566.445.981.91 1.246.463.266 1.095.398 1.894.398.826 0 1.463-.141 1.912-.425.448-.282.672-.698.672-1.246 0-.307-.07-.556-.21-.749-.14-.19-.339-.35-.593-.474a4.434 4.434 0 00-.91-.315c-.353-.083-.743-.175-1.172-.273-.746-.165-1.311-.33-1.698-.495-.385-.165-.69-.348-.913-.551a2.073 2.073 0 01-.512-.713 2.321 2.321 0 01-.178-.935c0-.807.31-1.428.927-1.865.618-.437 1.503-.655 2.655-.655 1.07 0 1.89.163 2.457.49.566.328.964.887 1.192 1.676l-1.259.22c-.138-.499-.402-.86-.79-1.086-.388-.225-.926-.338-1.614-.338-.754 0-1.33.125-1.727.375s-.595.621-.595 1.116c0 .29.076.53.23.719.155.19.376.35.667.48zm-8.909 5.906l-2.45-3.91h-2.939v3.91h-1.278V11.23h4.438c1.062 0 1.883.238 2.46.712.578.475.868 1.136.868 1.982 0 .7-.205 1.288-.613 1.764-.409.478-.972.778-1.691.903l2.678 4.057h-1.473zm-.74-5.39c.369-.314.553-.755.553-1.32 0-.549-.187-.967-.559-1.254-.373-.288-.91-.431-1.61-.431h-3.033v3.476h3.086c.674 0 1.195-.157 1.564-.471zm-18.665-4.028h7.157v1.043h-5.878v3.022h5.477v1.029h-5.477v3.282h6.153v1.042h-7.432V11.23zm-9.953 9.418l-3.849-9.418h1.346l2.61 6.631.563 1.665.562-1.665 2.598-6.631h1.346l-3.85 9.418h-1.326zm-10.347-.461c-.705.396-1.537.595-2.497.595-.969 0-1.804-.196-2.507-.588a3.882 3.882 0 01-1.61-1.701c-.371-.742-.556-1.608-.556-2.597 0-1.506.413-2.684 1.238-3.533.826-.848 1.976-1.273 3.449-1.273.959 0 1.791.19 2.497.572a3.83 3.83 0 011.617 1.66c.372.727.559 1.585.559 2.574 0 .985-.19 1.847-.566 2.587a3.988 3.988 0 01-1.624 1.704zm.003-7.052c-.586-.668-1.415-1.002-2.486-1.002-1.081 0-1.915.33-2.505.989-.588.66-.883 1.584-.883 2.774 0 1.18.298 2.118.894 2.81.596.693 1.422 1.04 2.48 1.04 1.09 0 1.925-.335 2.507-1.006.583-.67.874-1.618.874-2.844 0-1.172-.294-2.092-.88-2.76zM76.124 11.23h1.278v8.376h4.767v1.042h-6.045V11.23zM63.7 12.627l.033.648.033 1.117v6.256H62.63V11.23h1.486l5.102 8.075a34.822 34.822 0 01-.08-1.898V11.23h1.151v9.418h-1.54l-5.047-8.021zm-11.01 8.155c-.987 0-1.837-.196-2.552-.588a3.928 3.928 0 01-1.637-1.694c-.376-.738-.565-1.605-.565-2.604 0-1.528.41-2.712 1.232-3.55.821-.837 1.975-1.256 3.46-1.256 1.046 0 1.894.176 2.545.528.652.352 1.154.916 1.507 1.69l-1.219.362c-.268-.535-.637-.924-1.108-1.17-.47-.245-1.057-.367-1.757-.367-1.09 0-1.922.328-2.497.986-.576.657-.864 1.582-.864 2.777 0 1.19.305 2.128.917 2.817.611.69 1.457 1.033 2.537 1.033.617 0 1.191-.094 1.725-.28.532-.188.964-.442 1.294-.763v-1.697H52.89v-1.07h3.997v3.249c-.5.508-1.112.9-1.838 1.18a6.532 6.532 0 01-2.36.417zM41.11 11.23h1.28v9.418h-1.28V11.23zm-9.383 9.552c-2.298 0-3.63-.798-3.997-2.393l1.239-.247c.143.566.446.981.91 1.246.464.266 1.096.398 1.895.398.825 0 1.462-.141 1.911-.425.448-.282.673-.698.673-1.246 0-.307-.07-.556-.21-.749-.141-.19-.34-.35-.594-.474a4.434 4.434 0 00-.91-.315c-.353-.083-.743-.175-1.172-.273-.745-.165-1.31-.33-1.697-.495-.385-.165-.69-.348-.914-.551a2.073 2.073 0 01-.512-.713 2.32 2.32 0 01-.177-.935c0-.807.309-1.428.927-1.865.618-.437 1.503-.655 2.654-.655 1.072 0 1.891.163 2.458.49.566.328.964.887 1.191 1.676l-1.258.22c-.139-.499-.402-.86-.79-1.086-.388-.225-.927-.338-1.614-.338-.754 0-1.33.125-1.727.375-.398.25-.595.621-.595 1.116 0 .29.076.53.23.719.154.19.376.35.666.48.29.133.868.294 1.734.485.29.068.58.135.867.204.288.07.564.152.827.247.263.096.51.209.74.338.23.13.429.288.599.475.17.187.302.408.399.661.095.255.143.554.143.896 0 .87-.34 1.542-1.021 2.02-.68.476-1.64.714-2.875.714zM15.495 11.23h7.157v1.043h-5.878v3.022h5.477v1.029h-5.477v3.282h6.153v1.042h-7.432V11.23zM7.94 20.067c-.696.387-1.5.581-2.41.581H2.002V11.23h3.12c1.598 0 2.83.4 3.699 1.2.868.8 1.302 1.938 1.302 3.413 0 .97-.19 1.821-.569 2.55a3.967 3.967 0 01-1.614 1.674zm-.063-6.895c-.641-.613-1.568-.919-2.782-.919H3.28v7.373h2.102c.692 0 1.3-.152 1.824-.454.525-.304.927-.74 1.21-1.31.28-.57.42-1.244.42-2.02 0-1.167-.32-2.057-.96-2.67z" id="Shape"/></g></g></svg>