<svg width="150" height="60" xmlns="http://www.w3.org/2000/svg"><g id="Page-1" stroke="none" stroke-width="1" fill="none" fill-rule="evenodd"><g id="logo7_dark"><g id="Rectangle-path-+-Shape" transform="translate(49 4)"><path id="Rectangle-path" stroke-opacity=".3" stroke="#000" stroke-width="2" d="M.17.945h50.879v50.686H.17z"/><path d="M34.33 21.107V31.61h-2.51V21.107h-1.822v-1.87h6.12v1.87h-1.786zm-6.637-15.95h2.512v10.656h2.47v1.719h-4.982V5.157zm1.469 14.073v12.381h-1.74l-2.718-6.868v6.868h-2.16v-12.38h1.808l2.726 6.475V19.23h2.084zM21.909 5.157h2.512v10.656h2.47v1.719H21.91V5.157zm-3.788 9.728h-1.622l-.483 2.647h-2.492L16.21 5.157h2.222l2.678 12.375h-2.48l-.51-2.647zm-.794-6.132l-.656 4.592h1.284l-.628-4.592zm-7.515 8.779L8.769 9.433l-1.021 8.099H5.602L3.883 5.157h2.14l.773 8.195 1.062-8.195h1.843l1.043 8.147.807-8.147h2.146l-1.739 12.375H9.812zM6.61 42.329c.009.193.033.402.072.629.04.227.092.412.159.557.066.144.16.266.283.364a.662.662 0 00.43.148c.498 0 .746-.316.746-.949 0-.866-.49-1.728-1.47-2.585l-.78-.66a14.192 14.192 0 01-.593-.515 7.074 7.074 0 01-.52-.557 3.617 3.617 0 01-.47-.677 3.787 3.787 0 01-.29-.787 3.832 3.832 0 01-.12-.977c0-1.003.319-1.797.958-2.382.64-.584 1.489-.876 2.547-.876.879 0 1.626.311 2.243.935a3.09 3.09 0 01.924 2.255l-.006.09v.205l-2.595.358c0-.05.003-.13.01-.237a3.123 3.123 0 00-.024-.74A2.577 2.577 0 008 35.476a.784.784 0 00-.245-.36.615.615 0 00-.4-.135c-.276 0-.483.108-.621.323-.138.215-.207.47-.207.763a2.037 2.037 0 00.486 1.35c.164.196.314.357.452.486.138.128.322.285.552.47.23.186.393.323.49.41.355.311.654.604.897.876.244.273.474.581.69.925.217.344.38.715.487 1.114.108.398.163.83.163 1.292 0 .866-.311 1.575-.932 2.128-.621.552-1.376.828-2.264.828-.575 0-1.086-.106-1.532-.316a2.851 2.851 0 01-1.08-.86 4.177 4.177 0 01-.631-1.202 5.187 5.187 0 01-.256-1.417l2.547-.488c0 .253.004.475.014.667zm8.467-23.092l2.677 12.374h-2.477l-.51-2.646h-1.622l-.484 2.646H10.17l2.685-12.374h2.222zm-.476 8.188l-.628-4.592-.656 4.592H14.6zM4.477 31.61V19.237H7.48c1.081 0 1.868.3 2.36.9.493.601.739 1.469.739 2.606 0 .56-.055 1.045-.162 1.457-.109.413-.26.753-.452 1.021a2.16 2.16 0 01-.746.646 3.41 3.41 0 01-.986.344 7.08 7.08 0 01-1.23.107v5.293H4.478zm2.533-7.06a2.36 2.36 0 00.628-.079.49.49 0 00.207-.114 3.23 3.23 0 00.148-.144.503.503 0 00.1-.203 1.716 1.716 0 00.093-.518c.008-.134.01-.24.01-.32v-.478c0-.18 0-.314-.002-.406a5.48 5.48 0 00-.025-.35 1.163 1.163 0 00-.065-.32 1.736 1.736 0 00-.131-.244.53.53 0 00-.21-.2 1.618 1.618 0 00-.315-.11 1.806 1.806 0 00-.438-.047v3.533zm7.246 13.839h1.801v-5.074h2.526V45.69h-2.526v-5.52h-1.8v5.52h-2.512V33.316h2.511v5.074zm4.299-19.153h2.512V31.61h-2.512V19.237zm4.976 13.838c2.425 0 3.636 1.463 3.636 4.387v4.097c0 .495-.036.952-.11 1.371-.073.42-.199.818-.376 1.193a3.222 3.222 0 01-.676.96c-.274.263-.62.47-1.039.622a4.209 4.209 0 01-1.435.227c-.534 0-1.01-.075-1.428-.224a2.923 2.923 0 01-1.036-.605 3.102 3.102 0 01-.673-.935 4.632 4.632 0 01-.38-1.179 7.683 7.683 0 01-.113-1.368v-4.159c0-2.924 1.21-4.387 3.63-4.387zm-1.118 9.11c0 1.215.372 1.822 1.118 1.822.75 0 1.124-.607 1.124-1.822v-5.349c0-1.219-.374-1.829-1.124-1.829a.956.956 0 00-.573.169.977.977 0 00-.345.46 2.92 2.92 0 00-.155.578c-.03.19-.045.398-.045.622v5.349zm11.435-7.968c.492.6.738 1.469.738 2.605 0 .56-.054 1.045-.162 1.458-.108.412-.26.753-.452 1.02a2.161 2.161 0 01-.746.647 3.405 3.405 0 01-.986.344 7.08 7.08 0 01-1.23.106v5.294h-2.524V33.316h3.001c1.081 0 1.868.3 2.36.901zm-2.83.88v3.533a2.36 2.36 0 00.628-.078.49.49 0 00.207-.114 3.23 3.23 0 00.148-.144.502.502 0 00.1-.203 4.14 4.14 0 00.063-.23c.013-.06.024-.156.03-.289a5.45 5.45 0 00.011-.32v-.477c0-.18-.001-.315-.003-.406a5.385 5.385 0 00-.025-.351 1.162 1.162 0 00-.065-.32 1.732 1.732 0 00-.131-.243.53.53 0 00-.21-.2 1.613 1.613 0 00-.315-.11 1.806 1.806 0 00-.438-.048z" id="Shape" fill-opacity=".3" fill="#000"/></g></g></g></svg>