<svg width="150" height="60" xmlns="http://www.w3.org/2000/svg"><g id="Page-1" stroke="none" stroke-width="1" fill="none" fill-rule="evenodd"><g id="logo7" fill="#FFF"><path d="M15.5 45C6.94 45 0 38.06 0 29.5 0 20.94 6.94 14 15.5 14 24.06 14 31 20.94 31 29.5 31 38.06 24.06 45 15.5 45zm11.625-15.5a11.6 11.6 0 00-.639-3.776l-4.599 5.022a4.948 4.948 0 01-.797.715 6.59 6.59 0 01-.905.543c.253.177.473.381.661.614.187.233.353.5.497.8l2.187 4.475a11.585 11.585 0 003.595-8.393zm-8.283 11.132a1.436 1.436 0 01-.214-.316l-2.608-5.702c-.132-.258-.274-.427-.425-.505-.151-.077-.395-.116-.733-.116h-.58l-.983 6.917a11.65 11.65 0 002.201.215 11.63 11.63 0 003.342-.493zM3.875 29.5a11.6 11.6 0 004.233 8.972l2.816-19.659C6.779 20.59 3.875 24.705 3.875 29.5zm12.716-11.57l-1.856 12.971h.38c.314 0 .567-.041.761-.124.193-.083.386-.233.579-.451l3.875-4.536c.229-.269.482-.466.76-.59.278-.125.616-.187 1.014-.187h4.121a11.63 11.63 0 00-9.634-7.083zm116.869 9.31c.4.232.854.434 1.362.603.508.171 1.028.347 1.56.53a17.9 17.9 0 011.56.617c.507.229.961.516 1.362.865.401.348.722.776.965 1.283.245.506.366 1.13.366 1.868 0 .78-.133 1.513-.396 2.198a5.07 5.07 0 01-1.157 1.786 5.426 5.426 0 01-1.87 1.197c-.74.29-1.578.435-2.52.435-1.146 0-2.193-.21-3.139-.628a7.368 7.368 0 01-2.419-1.7l.694-1.146a.895.895 0 01.24-.23.56.56 0 01.316-.094c.174 0 .372.094.594.281.224.185.502.391.836.615.334.225.738.43 1.214.617.474.187 1.053.281 1.738.281.57 0 1.077-.08 1.523-.238a3.185 3.185 0 001.133-.666c.31-.286.546-.628.712-1.028.165-.397.248-.842.248-1.332 0-.539-.121-.981-.366-1.326a3.023 3.023 0 00-.958-.865 6.7 6.7 0 00-1.357-.592l-1.56-.497a15.509 15.509 0 01-1.559-.593 5.067 5.067 0 01-1.356-.871 4.006 4.006 0 01-.959-1.339c-.244-.535-.366-1.198-.366-1.986 0-.631.122-1.241.366-1.831a4.717 4.717 0 011.058-1.57c.461-.456 1.033-.822 1.714-1.095.68-.275 1.464-.41 2.347-.41.99 0 1.894.157 2.712.472.816.315 1.53.772 2.14 1.37l-.58 1.145a.998.998 0 01-.236.281.522.522 0 01-.322.093c-.141 0-.304-.07-.49-.21a7.509 7.509 0 00-.706-.47 5.807 5.807 0 00-1.027-.466c-.4-.14-.885-.21-1.454-.21-.537 0-1.011.071-1.424.217a3.01 3.01 0 00-1.033.59c-.277.25-.486.543-.627.88-.139.335-.209.7-.209 1.09 0 .498.121.91.364 1.238.245.329.566.608.967.84zm-7.509 11.02a1.007 1.007 0 01-.297-.41l-1.658-4.31h-7.96l-1.66 4.31a.968.968 0 01-.298.4.79.79 0 01-.52.174h-1.856l7.094-17.848h2.439l7.094 17.848h-1.857a.795.795 0 01-.52-.163zm-5.41-13.723c-.18-.449-.36-1.008-.532-1.68-.09.34-.179.653-.267.939-.086.288-.17.538-.252.754l-2.787 7.248h6.625l-2.787-7.26zm-13.519 13.887h-2.39v-7.1l-6.5-10.748h2.105c.215 0 .385.055.508.163a1.5 1.5 0 01.32.398l4.062 6.938c.165.29.304.564.416.821.11.257.212.511.302.76.09-.257.19-.516.297-.773a6.68 6.68 0 01.409-.808l4.049-6.938c.073-.132.176-.259.303-.38a.703.703 0 01.502-.18h2.128l-6.51 10.748v7.099zm-6.859 0H90.084V20.576h2.403v15.817h7.676v2.03zM77.358 20.576h2.401v15.817h7.676v2.03H77.358V20.577zM72.74 38.261a.979.979 0 01-.297-.411l-1.658-4.31h-7.962l-1.659 4.31a.968.968 0 01-.297.4.793.793 0 01-.52.174H58.49l7.094-17.848h2.44l7.094 17.848H73.26c-.215 0-.389-.055-.52-.163zm-5.41-13.724a13.425 13.425 0 01-.532-1.68c-.091.34-.18.653-.267.939-.086.288-.17.538-.254.754l-2.785 7.248h6.623l-2.785-7.26zm-16.318 5.43l7.057 8.457h-2.08a1.74 1.74 0 01-.396-.039 1.11 1.11 0 01-.278-.099.914.914 0 01-.218-.161 5.165 5.165 0 01-.198-.213l-6.127-7.086a4.283 4.283 0 00-.254-.255 1.193 1.193 0 00-.631-.286 3.429 3.429 0 00-.502-.03h-1.09v8.169h-2.39V20.576h2.39v7.822h.905c.313 0 .562-.039.747-.119.187-.078.361-.212.528-.404l5.905-6.725c.18-.208.356-.355.526-.443.17-.086.385-.13.65-.13h2.042l-6.759 7.685c-.174.19-.337.351-.489.485-.153.133-.316.24-.488.323.23.075.433.187.605.337.174.149.355.336.545.56z" id="Shape"/></g></g></svg>