<svg width="150" height="60" xmlns="http://www.w3.org/2000/svg"><g id="Page-1" stroke="none" stroke-width="1" fill="none" fill-rule="evenodd"><g id="logo6" fill="#FFF"><g id="Group" transform="translate(22 2)"><path d="M.092 50.863h3.51V36.875L9.035 49.07c.641 1.476 1.519 1.998 3.24 1.998 1.72 0 2.564-.522 3.206-1.998l5.433-12.195v13.988h3.51V36.898c0-1.362-.54-2.021-1.654-2.362-2.666-.84-4.455-.113-5.265 1.703l-5.332 12.036L7.01 36.239c-.776-1.816-2.598-2.543-5.264-1.703-1.114.34-1.654 1-1.654 2.362v13.965zm27.249-11.385h3.509v7.706c-.033.419.133 1.401 2.056 1.432.98.015 7.57 0 7.631 0V39.44h3.517c.016 0-.004 12.513-.003 12.567.02 3.086-3.794 3.756-5.552 3.808H27.418v-2.383c.02 0 11.073.002 11.101 0 2.259-.241 1.992-1.375 1.992-1.756v-.93h-7.46c-3.47-.031-5.68-1.56-5.708-3.319-.002-.163.075-7.872-.002-7.95zm19.418 11.385h10.09c1.18 0 2.328-.25 3.24-.681 1.518-.704 2.26-1.657 2.26-2.907v-2.588c0-1.022-.843-1.976-2.497-2.612-.877-.34-1.957-.522-3.003-.522h-4.253c-1.417 0-2.092-.431-2.26-1.385-.034-.114-.034-.205-.034-.318v-1.612c0-.091 0-.182.034-.295.168-.727.54-.932 1.788-1.045.102 0 .236-.023.338-.023h10.022v-2.361H52.63c-1.417 0-2.16.09-2.834.295-2.093.658-3.004 1.703-3.004 3.52v2.066c0 1.59 1.789 2.952 4.792 3.27.338.023.675.045 1.012.045h3.645c.135 0 .27 0 .371.023 1.114.091 1.586.295 1.924.704a.85.85 0 01.27.636v2.066c0 .25-.169.568-.506.84-.304.273-.81.455-1.485.5-.135 0-.236.023-.371.023h-9.685v2.361zm37.484-4.11c0 2.43 1.789 3.793 5.4 4.065.337.023.675.045 1.012.045H99.8v-2.361h-9.213c-2.058 0-2.834-.523-2.834-1.771V34.514h-3.51v12.24zm-19.653.124v-8.42c0-2.138 1.487-3.435 4.429-3.845a6.67 6.67 0 01.947-.068h6.662c.338 0 .642.023.98.068 2.943.41 4.43 1.707 4.43 3.846v8.42c0 1.734-.632 2.663-2.088 3.268l3.457 3.15h-4.075l-2.797-2.548-2.815.18h-3.754a7.712 7.712 0 01-2.063-.296c-2.231-.614-3.314-1.798-3.314-3.755zm3.787-.205c0 .114.034.228.068.365.203.978 1.116 1.524 2.502 1.524h3.189l-2.93-2.669h4.076l2.554 2.328c.47-.253.78-.64.889-1.138.034-.114.034-.227.034-.341v-8.078c0-.091 0-.205-.034-.32-.203-.91-1.116-1.432-2.469-1.432h-5.309c-1.555 0-2.57.682-2.57 1.752v8.01zm34.511-16.076c-2.157-.059-3.805.144-5.214.743-.4.17-1.039.175-1.104.682.22.232.254.58.429.866.336.55.904 1.286 1.41 1.672.554.422 1.125.873 1.719 1.238 1.055.65 2.234 1.021 3.25 1.672.6.384 1.195.867 1.78 1.3.288.214.483.547.858.681v-.061c-.197-.254-.248-.603-.43-.867-.265-.268-.53-.537-.797-.805-.78-1.045-1.77-1.962-2.821-2.725-.84-.607-2.717-1.429-3.067-2.414l-.062-.062c.595-.068 1.292-.285 1.84-.434.923-.25 1.747-.185 2.7-.433l1.288-.372v-.247c-.482-.499-.825-1.159-1.35-1.61-1.373-1.18-2.873-2.36-4.416-3.344-.857-.545-1.915-.9-2.822-1.362-.305-.155-.842-.236-1.043-.495-.477-.614-.737-1.391-1.104-2.106a79.908 79.908 0 01-2.209-4.705c-.465-1.074-.769-2.133-1.35-3.096C87.59 9.689 84.59 6.899 79.947 4.157c-.988-.583-2.178-.813-3.436-1.114l-2.024-.124c-.412-.174-.84-.683-1.227-.93-1.538-.98-5.485-3.114-6.625-.309-.72 1.771 1.076 3.5 1.718 4.397.45.63 1.027 1.335 1.35 2.043.211.465.248.932.429 1.424.446 1.213.834 2.532 1.41 3.653.292.567.613 1.165.982 1.672.226.311.613.448.675.929-.38.535-.4 1.365-.614 2.043-.958 3.051-.597 6.844.798 9.102.428.693 1.436 2.18 2.822 1.61 1.212-.499.941-2.043 1.288-3.406.078-.309.03-.536.184-.743v.062l1.104 2.23c.817 1.328 2.268 2.716 3.497 3.653.637.485 1.139 1.325 1.963 1.61v-.063h-.062c-.16-.25-.41-.355-.613-.557a14.149 14.149 0 01-1.411-1.61c-1.118-1.531-2.106-3.208-3.006-4.953-.43-.833-.803-1.753-1.166-2.6-.14-.328-.138-.822-.429-.991-.396.621-.981 1.123-1.288 1.857-.49 1.173-.554 2.603-.736 4.087-.108.039-.06.012-.123.062-.854-.208-1.155-1.096-1.472-1.858-.803-1.926-.952-5.027-.246-7.244.183-.574 1.01-2.38.675-2.91-.16-.53-.686-.835-.981-1.239a9.767 9.767 0 01-.982-1.734c-.657-1.501-.964-3.187-1.656-4.705-.33-.726-.89-1.46-1.35-2.105-.508-.715-1.078-1.241-1.472-2.106-.14-.307-.33-.799-.122-1.114.066-.213.159-.302.368-.372.356-.277 1.347.092 1.717.248.984.412 1.805.805 2.638 1.362.4.268.805.786 1.288.929h.552c.864.2 1.831.062 2.638.31 1.426.437 2.704 1.117 3.865 1.857 3.535 2.253 6.426 5.461 8.404 9.288.318.616.456 1.204.736 1.857.565 1.318 1.277 2.674 1.84 3.963.561 1.286 1.108 2.583 1.902 3.653.417.563 2.028.864 2.76 1.177.513.219 1.354.447 1.84.743.93.565 1.829 1.238 2.7 1.857.435.31 1.773.989 1.84 1.548z" id="Shape"/><path d="M75.468 7.005a4.35 4.35 0 00-1.105.124v.062h.062c.214.445.593.731.858 1.115l.614 1.3.061-.062c.38-.27.554-.702.552-1.362-.152-.162-.174-.365-.306-.558-.176-.256-.515-.402-.736-.619zm25.98 41.43c0 1.56 1.22 2.61 2.586 2.61 1.366 0 2.586-1.05 2.586-2.61 0-1.56-1.22-2.61-2.586-2.61-1.366 0-2.586 1.05-2.586 2.61zm4.593 0c0 1.183-.896 2.067-2.007 2.067-1.124 0-2.007-.884-2.007-2.067 0-1.184.883-2.068 2.007-2.068 1.11 0 2.007.884 2.007 2.068zm-1.31 1.49h.58l-.849-1.31c.455-.048.8-.27.8-.814 0-.606-.38-.856-1.11-.856H103v2.98h.496v-1.289h.462l.773 1.288zm-1.235-1.706v-.856h.573c.296 0 .655.055.655.403 0 .418-.324.453-.697.453h-.53z" id="Shape"/></g></g></g></svg>