<svg width="150" height="60" xmlns="http://www.w3.org/2000/svg"><g id="Page-1" stroke="none" stroke-width="1" fill="none" fill-rule="evenodd"><g id="logo3" fill="#FFF"><g id="Shape-+-Shape" transform="translate(37 3)"><path d="M75.81 52.085v1.494h-6.117v-8.764h6.005v1.494h-4.293v2.11h3.71v1.383h-3.71v2.283h4.405zM63.613 53.58h-1.7v-3.086l-3.19-5.678h1.862l2.172 4.221 2.209-4.22h1.848l-3.201 5.701v3.062zm-13.426-8.764h6.006v1.494H51.9v2.11h3.71v1.383H51.9v2.283h4.404v1.494h-6.117v-8.764zm-4.293 8.27a3.044 3.044 0 01-1.042.45 5.347 5.347 0 01-1.24.143 6.642 6.642 0 01-1.962-.297 6.046 6.046 0 01-1.737-.84l.757-1.468c.075.074.209.171.403.29.195.12.424.24.689.359.264.119.559.22.881.302.323.082.654.123.993.123.943 0 1.414-.3 1.414-.9a.757.757 0 00-.161-.495 1.379 1.379 0 00-.46-.346 4.446 4.446 0 00-.719-.27 35.037 35.037 0 00-.943-.26 8.14 8.14 0 01-1.098-.376 2.99 2.99 0 01-.776-.476 1.732 1.732 0 01-.465-.641 2.256 2.256 0 01-.155-.877c0-.444.083-.839.248-1.185a2.41 2.41 0 01.689-.864 3.12 3.12 0 011.024-.524c.388-.12.806-.18 1.253-.18.62 0 1.191.097 1.712.29a6.49 6.49 0 011.365.685l-.757 1.383a2.15 2.15 0 00-.316-.234 3.856 3.856 0 00-.558-.29 4.838 4.838 0 00-.714-.241 3.143 3.143 0 00-.782-.099c-.471 0-.823.087-1.054.26-.232.172-.348.414-.348.728 0 .18.043.33.13.45.087.12.214.224.38.315.164.09.373.172.625.247.253.074.544.152.875.234.43.116.821.24 1.173.37.352.132.65.296.893.495.244.196.433.434.565.709.132.276.198.615.198 1.018 0 .47-.089.87-.266 1.204a2.252 2.252 0 01-.714.808zm-14.641-8.27h1.712v7.27h4.492v1.494h-6.204v-8.764zm-9.319 0h1.713v7.27h4.491v1.494h-6.204v-8.764zm-4.622 7.541a3.27 3.27 0 01-1.198.94c-.488.23-1.07.345-1.749.345-.703 0-1.3-.122-1.793-.365a3.342 3.342 0 01-1.198-.963 3.84 3.84 0 01-.663-1.388 6.535 6.535 0 01-.205-1.642v-4.468h1.713v4.468c0 .37.035.727.105 1.068.07.342.19.644.36.907.17.264.39.476.664.636.273.16.607.24 1.005.24.405 0 .746-.082 1.024-.246.276-.165.5-.378.67-.642.169-.264.289-.566.36-.907.07-.341.105-.693.105-1.056v-4.468h1.7v4.468c0 .601-.073 1.165-.217 1.691a3.86 3.86 0 01-.683 1.382zM7.292 51.32c0 .37-.075.696-.223.975a2.05 2.05 0 01-.614.704 2.87 2.87 0 01-.906.432 3.94 3.94 0 01-1.098.148H.195v-8.764H4.91c.306 0 .583.067.831.198.249.131.46.303.633.512.174.21.308.448.403.716a2.38 2.38 0 01-.18 2.012 1.96 1.96 0 01-.943.833c.504.148.904.414 1.198.796.293.382.44.862.44 1.438zm-2.339-4.752a.91.91 0 00-.688-.296H1.907v2.21H4.19c.29 0 .536-.1.739-.298.202-.196.303-.468.303-.814 0-.337-.093-.605-.279-.802zm.534 3.98a1.262 1.262 0 00-.217-.376 1.01 1.01 0 00-.323-.253.906.906 0 00-.41-.093h-2.63v2.309h2.544a1.114 1.114 0 00.794-.327A1.15 1.15 0 005.567 51a1.28 1.28 0 00-.08-.452zM37.793 36.34c-10.005 0-18.116-8.069-18.116-18.021 0-9.953 8.11-18.021 18.116-18.021 10.005 0 18.116 8.068 18.116 18.02 0 9.953-8.11 18.021-18.116 18.021zm0-29.177c-6.194 0-11.215 4.994-11.215 11.156 0 6.16 5.021 11.155 11.215 11.155S49.008 24.48 49.008 18.32c0-6.162-5.021-11.156-11.215-11.156zm0 13.73a2.581 2.581 0 01-2.588-2.574 2.581 2.581 0 012.588-2.575 2.581 2.581 0 012.588 2.575 2.581 2.581 0 01-2.588 2.574z" id="Shape"/></g></g></g></svg>