<svg width="150" height="60" xmlns="http://www.w3.org/2000/svg"><g id="Page-1" stroke="none" stroke-width="1" fill="none" fill-rule="evenodd"><g id="logo7"><g id="Rectangle-path-+-Shape" transform="translate(50 5)"><path id="Rectangle-path" stroke="#FFF" stroke-width="2" d="M.152.845h49.697v49.612H.152z"/><path d="M33.518 20.58v10.282h-2.453V20.58h-1.78v-1.83h5.979v1.83h-1.746zM27.035 4.969h2.453v10.43h2.413v1.682h-4.866V4.969zm1.435 13.774v12.119h-1.7l-2.656-6.723v6.723h-2.11V18.743h1.766l2.663 6.338v-6.338h2.036zM21.386 4.97h2.453V15.4h2.413v1.682h-4.866V4.969zm-3.7 9.521H16.1l-.472 2.59h-2.433L15.818 4.97h2.17l2.616 12.112h-2.42l-.499-2.59zm-.776-6.002l-.64 4.495h1.254l-.614-4.495zm-7.34 8.593L8.55 9.154l-.997 7.927H5.458L3.779 4.969h2.09l.755 8.02 1.037-8.02h1.8l1.019 7.973.788-7.973h2.097l-1.7 12.112H9.57zM6.441 41.353c.009.188.032.393.07.615.039.222.09.404.156.545.064.142.157.26.276.357.119.097.26.145.42.145.486 0 .729-.31.729-.929 0-.848-.478-1.691-1.436-2.53l-.761-.646a13.87 13.87 0 01-.58-.505 6.918 6.918 0 01-.509-.545 3.531 3.531 0 01-.458-.662 3.712 3.712 0 01-.283-.77 3.757 3.757 0 01-.118-.957c0-.982.312-1.76.936-2.331.625-.572 1.454-.858 2.488-.858a2.96 2.96 0 012.19.915c.603.61.904 1.346.904 2.207l-.007.088v.201l-2.534.35c0-.049.003-.126.01-.232a3.063 3.063 0 00-.024-.723 2.526 2.526 0 00-.11-.444.768.768 0 00-.24-.353.6.6 0 00-.391-.132c-.27 0-.472.106-.607.316-.135.211-.202.46-.202.747a1.995 1.995 0 00.475 1.322c.16.191.307.35.442.475.134.126.314.28.539.461.225.182.384.316.479.4.345.305.638.592.875.858.239.267.464.57.674.905.212.337.37.7.476 1.09.105.39.159.813.159 1.266 0 .847-.304 1.542-.91 2.082-.607.54-1.344.81-2.212.81-.561 0-1.06-.103-1.496-.308a2.786 2.786 0 01-1.055-.842 4.091 4.091 0 01-.617-1.177 5.086 5.086 0 01-.25-1.387l2.488-.477c0 .247.005.464.014.653zm8.27-22.603l2.615 12.112h-2.42l-.498-2.59h-1.584l-.472 2.59H9.919l2.623-12.112h2.17zm-.465 8.014l-.613-4.495-.641 4.495h1.254zM4.36 30.862V18.75h2.932c1.056 0 1.824.294 2.305.881.481.588.722 1.438.722 2.55a5.7 5.7 0 01-.159 1.427 3.01 3.01 0 01-.441 1 2.112 2.112 0 01-.728.632c-.297.159-.618.271-.964.336s-.746.1-1.2.105v5.181H4.359zm2.474-6.911a2.3 2.3 0 00.613-.077.478.478 0 00.203-.111c.058-.054.106-.101.144-.141a.492.492 0 00.098-.2 3.38 3.38 0 00.06-.225 1.77 1.77 0 00.03-.282c.008-.13.011-.235.011-.313v-.467c0-.176-.001-.308-.003-.398a5.375 5.375 0 00-.024-.343 1.14 1.14 0 00-.064-.313 1.7 1.7 0 00-.128-.238.519.519 0 00-.205-.196 1.578 1.578 0 00-.307-.107 1.76 1.76 0 00-.428-.047v3.458zm7.078 13.546h1.759V32.53h2.467v12.112H15.67v-5.404h-1.76v5.404h-2.453V32.531h2.454v4.966zM18.11 18.75h2.454v12.112H18.11V18.75zm4.86 13.545c2.369 0 3.553 1.431 3.553 4.294v4.01c0 .485-.036.932-.108 1.342-.072.411-.195.8-.368 1.168a3.17 3.17 0 01-.66.939c-.268.258-.606.46-1.014.609a4.103 4.103 0 01-1.403.222c-.521 0-.986-.073-1.395-.22a2.854 2.854 0 01-1.011-.591 3.036 3.036 0 01-.657-.916A4.54 4.54 0 0119.535 42a7.535 7.535 0 01-.111-1.34v-4.07c0-2.863 1.182-4.294 3.545-4.294zm-1.091 8.916c0 1.19.364 1.784 1.091 1.784.733 0 1.099-.595 1.099-1.784v-5.235c0-1.193-.366-1.79-1.099-1.79a.932.932 0 00-.559.165.956.956 0 00-.337.45 2.87 2.87 0 00-.152.566 3.95 3.95 0 00-.043.609v5.235zm11.168-7.798c.481.587.722 1.437.722 2.55a5.7 5.7 0 01-.159 1.426 3.01 3.01 0 01-.441 1 2.113 2.113 0 01-.728.632c-.297.16-.618.271-.964.336s-.746.1-1.2.105v5.181H27.81V32.531h2.932c1.056 0 1.824.294 2.305.882zm-2.763.86v3.46a2.3 2.3 0 00.613-.078.478.478 0 00.203-.111c.058-.054.106-.101.144-.141a.492.492 0 00.098-.199 4.11 4.11 0 00.06-.226 1.77 1.77 0 00.03-.282c.008-.13.011-.234.011-.313v-.467c0-.176-.001-.308-.003-.398a5.282 5.282 0 00-.024-.343 1.14 1.14 0 00-.064-.313 1.743 1.743 0 00-.128-.238.518.518 0 00-.205-.196 1.574 1.574 0 00-.307-.107 1.76 1.76 0 00-.428-.047z" id="Shape" fill="#FFF"/></g></g></g></svg>