<svg width="150" height="60" xmlns="http://www.w3.org/2000/svg"><g id="Page-1" stroke="none" stroke-width="1" fill="none" fill-rule="evenodd"><g id="logo4_dark" fill="#000" fill-opacity=".3"><path d="M114.037 47.12c-.097.133-.376.287-.595.287-.123 0-.115-.06-.167-.086-.026-.012-.037-.042-.037-.072 0-.064.055-.076.089-.182-.699.038-1.416.635-1.416.76 0 .144.624.098 1.263.4.23.11.346.34.346.48 0 .68-1.16 1.108-1.777 1.108-.496 0-.676-.218-.702-.403-.246.203-.547.395-.855.395-.297-.007-.625-.242-.625-.612 0-.48.406-1.119.718-1.587.037-.057.186-.28.197-.355l-.008-.008c-.193.015-1.2 1.092-1.386 1.3a13.63 13.63 0 00-.777.975c-.052.068-.145.162-.234.162-.063 0-.298-.094-.342-.132-.026-.015-.026-.038-.026-.06v-.002c-.463.31-1.046.742-1.454 1.241-.416.51-.657.858-.799 1.104-.063.113-.19.162-.323.162-.26 0-.398-.147-.398-.404 0-.733 1.108-1.463 1.216-1.599.067-.102.067-.079.747-1.19-.565.6-1.112.933-1.342.933-.22 0-.43-.053-.521-.248-.29.223-.64.343-.895.343-.335 0-.677-.318-.677-.65 0-.378.818-1.587.818-1.648 0-.087-.152-.162-.152-.25 0-.06.576-.702.895-.702.123 0 .275.185.275.302 0 .08-.776 1.444-.884 1.633-.09.15-.279.423-.279.604 0 .106.097.129.19.129.255 0 .521-.245.726-.458.332-1.177 1.867-2.15 2.604-2.15.178 0 .29.072.327.148.171-.193.368-.185.565-.185.1 0 .1.117.13.192.004.008.004.012.004.02 0 .048-.078.101-.09.12a34.916 34.916 0 00-1.68 2.732c.244-.218.81-.732 1.474-1.087.238-.414.479-.824.72-1.233.108-.181.197-.37.327-.537.126-.162.368-.215.565-.215.082 0 .089.083.089.147 0 .178-.372.696-.48.873.357-.4.93-1.012 1.502-1.012.19 0 .35.132.35.34 0 .23-.45.842-.595 1.07-.123.192-.539.82-.539 1.08 0 .12.115.166.223.166.353 0 .955-.775 1.063-.775.104 0 .097.273.097.34l-.002.045a.06.06 0 01.024.05c0 .019-.004.042-.004.06 0 .14.134.231.201.231.625 0 1.134-.238 1.134-.408 0-.14-.51-.197-.996-.344-.25-.076-.525-.189-.525-.525 0-.911 1.688-1.485 2.253-1.485.546 0 .539.257.539.325v.026c0 .121-.045.26-.09.321zm-6.472-.053c-1.527.34-2.193 1.727-2.193 2.041 0 .042.011.064.034.064.089 0 .94-.559 2.16-2.105zm-2.297-.892c-.145 0-.22-.075-.22-.222 0-.303.298-.643.603-.643.134 0 .22.076.22.216 0 .28-.32.65-.603.65zm-2.29 1.232c-.122 0-.115-.06-.167-.086-.026-.012-.037-.042-.037-.072 0-.064.056-.076.09-.182-.7.038-1.417.635-1.417.76 0 .144.624.098 1.264.4.23.11.345.34.345.48 0 .68-1.16 1.108-1.776 1.108-.54 0-.707-.257-.707-.45 0-.059.008-.117.02-.171-.356.289-.887.628-1.47.628-.442 0-1.022-.14-1.022-.695 0-.42.361-.658.71-.79-.204-.094-.223-.242-.223-.442 0-.745 1.235-1.277 1.866-1.277.13 0 .376.068.376.23 0 .337-.32.628-.65.628-.12 0-.134-.06-.134-.17 0-.038.007-.069.014-.099-.107.038-.208.09-.304.148-.123.068-.632.408-.632.548 0 .03.06.03.074.03.2 0 .368-.125.558-.125a.25.25 0 01.074.008c.063.034.16.189.16.249 0 .064-.082.129-.13.17-.108.09-.235.098-.35.163-.152.086-.784.442-.784.612 0 .264.297.295.494.295.543 0 1.06-.522 1.402-.783.022-.015.055-.038.085-.038.097 0 .097.231.097.3 0 .024 0 .05-.002.077a.164.164 0 01.076-.021c.093 0 .182.007.182.079l-.003.06c0 .14.133.231.2.231.625 0 1.134-.238 1.134-.408 0-.14-.51-.197-.996-.344-.25-.076-.524-.189-.524-.525 0-.911 1.687-1.485 2.252-1.485.547 0 .54.257.54.325v.026a.63.63 0 01-.09.321c-.097.133-.375.287-.595.287zm-8.924 2.268c-.755 0-.67-.147-.8-.238-.052-.034-.07-.125-.07-.22 0-.098.018-.2.03-.245.17-.627 2.062-3.344 2.49-3.934.022-.03.115-.06.42-.083.204 0 .275.023.275.11 0 .041-.026.09-.085.173-.41.579-2.398 3.696-2.398 3.753 0 .034.056.05.212.05 1.844 0 3.907-1.834 3.907-2.888 0-.71-.647-1.315-1.814-1.315-.863 0-1.595.397-1.818.574-.1.08-.141.132-.141.166 0 .02.018.03.044.03.07 0 .13-.03.16-.03.022 0 .034.008.034.016 0 .01-.023.03-.067.056-.108.06-.097.095-.168.14-.245.151-.349.178-.408.181-.038 0-.056-.01-.078-.01h-.015a.299.299 0 01-.29-.31c0-.605 1.133-1.395 2.754-1.395 1.632 0 2.535.73 2.535 1.72 0 1.957-2.661 3.699-4.71 3.699zm-3.844-2.2c-.119 0-.134-.06-.134-.17a.39.39 0 01.015-.098c-.108.038-.208.09-.305.148-.122.068-.632.408-.632.548 0 .03.06.03.075.03.2 0 .368-.125.557-.125a.24.24 0 01.075.008c.063.034.16.189.16.249 0 .064-.082.129-.13.17-.108.09-.235.098-.35.163-.152.086-.784.442-.784.612 0 .264.297.295.494.295.543 0 1.06-.522 1.401-.783.023-.015.056-.038.086-.038.097 0 .097.231.097.3 0 .063 0 .139-.023.203a.524.524 0 01-.152.178c-.357.294-.903.657-1.506.657-.442 0-1.022-.14-1.022-.695 0-.42.36-.658.71-.79-.204-.094-.223-.242-.223-.442 0-.745 1.234-1.277 1.866-1.277.13 0 .376.068.376.23 0 .337-.32.628-.651.628zm-2.305.658c-.16 0-.245-.144-.245-.29 0-.22.145-.436.275-.59l-.007-.008c-.194.015-1.2 1.092-1.387 1.3-.279.31-.539.639-.784.975-.048.068-.141.162-.227.162a1.01 1.01 0 01-.265-.087c-.18.122-.38.212-.567.212-.223 0-.543-.132-.543-.487 0-.155.022-.412.16-.665-.365.464-.974 1.175-1.446 1.175-.238 0-.399-.174-.448-.367-.236.183-.52.356-.786.356a.464.464 0 01-.104-.012c-.294-.055-.478-.174-.546-.451-.31.307-.745.474-1.045.474-.249 0-.501-.175-.615-.402-.242.197-.535.38-.835.38-.297-.008-.624-.243-.624-.613 0-.48.405-1.119.717-1.587.037-.057.186-.28.197-.355l-.008-.008c-.193.015-1.2 1.092-1.386 1.3-.279.314-.532.642-.777.975-.052.068-.145.162-.234.162-.063 0-.297-.094-.342-.132-.026-.015-.026-.038-.026-.06 0-.125.141-.325.223-.465.32-.567.647-1.122.974-1.678.108-.181.197-.37.327-.537.126-.162.368-.215.565-.215.082 0 .09.083.09.147 0 .178-.373.696-.48.873.356-.4.929-1.012 1.501-1.012.19 0 .35.132.35.34 0 .23-.45.842-.595 1.07-.123.192-.539.82-.539 1.08 0 .12.115.166.223.166.216 0 .525-.29.758-.515.233-.5.677-1.167.677-1.212 0-.087-.152-.162-.152-.25 0-.06.576-.702.895-.702.123 0 .275.185.275.302 0 .08-.776 1.444-.884 1.633-.09.15-.28.423-.28.604 0 .106.098.129.19.129.374 0 .774-.528.964-.705.293-.76.98-1.893 1.24-2.303-.003-.004-.56.068-.642.068h-.034c-.093 0-.265-.03-.301-.141a.356.356 0 01-.078.008c-.145 0-.22-.075-.22-.222 0-.303.298-.643.603-.643.134 0 .22.076.22.216a.464.464 0 01-.022.134.349.349 0 01.073-.017c.16-.012.32-.015.48-.023l.334-.015c.16-.234.32-.488.51-.7.044-.06.052-.075.13-.075.06 0 .115-.022.174-.022.093 0 .093.037.153.037.044 0 .085.06.085.102 0 .06-.32.548-.375.643.048-.004.279-.023.368-.023.089 0 .175.004.204.015.09.038.116.14.197.2.037.03.063.053.063.11 0 .151-.185.212-.297.223-.342.034-.61.072-.951.09-.268.42-1.365 2.325-1.417 2.703-.007.056-.015.106-.015.147 0 .147.064.185.183.185.218 0 .544-.282.786-.501.167-.44.444-.894.56-1.1.36-.643.497-.92.698-.92.13 0 .253.17.253.246 0 .133-.985 1.75-.985 2.079 0 .038.01.057.04.057.265 0 1.595-1.561 1.722-1.81.145-.292.3-.5.364-.541a.96.96 0 01.413-.113c.018 0 .04 0 .059.003.037.008.085.121.085.159a.017.017 0 01-.003.011c-.32.628-.495.885-.584 1.07-.111.234-.438.895-.438 1.202 0 .098.033.158.119.158.252-.036.615-.444.779-.63.244-.425.49-.844.737-1.263.108-.181.197-.37.327-.537.127-.162.368-.215.565-.215.075 0 .09.083.09.147 0 .178-.372.696-.48.873.35-.4.93-1.012 1.494-1.012.197 0 .35.132.35.34 0 .215-.443.873-.588 1.07-.052.067-.115.12-.212.12zm-11.746 0c-.16 0-.245-.144-.245-.29 0-.22.145-.436.275-.59l-.007-.008c-.194.015-1.201 1.092-1.387 1.3-.279.31-.539.639-.784.975-.048.068-.141.162-.227.162a1.01 1.01 0 01-.265-.087c-.18.122-.38.212-.568.212-.223 0-.542-.132-.542-.487 0-.155.022-.412.16-.665-.365.464-.974 1.175-1.446 1.175-.29 0-.465-.257-.465-.495 0-.544.524-1.39.695-1.697.36-.642.498-.918.699-.918.13 0 .253.17.253.245 0 .133-.985 1.75-.985 2.079 0 .038.01.057.04.057.264 0 1.595-1.561 1.722-1.81.144-.292.3-.5.364-.541a.961.961 0 01.412-.113c.019 0 .041 0 .06.003.037.008.085.121.085.159a.017.017 0 01-.003.011c-.32.628-.495.885-.584 1.07-.111.234-.439.895-.439 1.202 0 .098.034.158.12.158.252-.036.614-.444.779-.63.243-.425.49-.844.737-1.263.108-.181.197-.37.327-.537.127-.162.368-.215.565-.215.074 0 .09.083.09.147 0 .178-.372.696-.48.873.35-.4.93-1.012 1.494-1.012.197 0 .35.132.35.34 0 .215-.443.873-.588 1.07-.052.067-.115.12-.212.12zm-4.445-3.22c-.298.382-.755.994-1.342 1.89.193.007.375.023.55.045.167.023.234.102.234.197 0 .06-.145.2-.212.26-.078.087-.085.17-.197.17-.085 0-.07-.007-.108-.015-.096-.003-.249-.01-.435-.01-.074 0-.156.003-.241.003-.48.76-1.297 2.052-1.342 2.135-.06.11-.108.181-.253.181a.836.836 0 01-.148-.019c-.205-.037-.302-.071-.302-.177 0-.034.015-.08.034-.136.078-.227.792-1.285 1.249-1.954-.532.027-1.037.064-1.197.08-.037.007-.115.045-.175.045-.067 0-.104-.064-.104-.132 0-.023.008-.05.015-.069.09-.207.134-.207.167-.28.034-.067.156-.21.264-.237.07-.015.725-.087 1.502-.095.26-.4.77-1.175 1.212-1.7-.327.06-.848.128-1.706.128-1.06 0-1.372-.268-1.372-.623 0-.227.245-.442.632-.442.197 0 .26.037.26.064 0 .019-.026.034-.063.034-.153 0-.25.117-.25.181 0 .06.235.17 1.15.17.862 0 1.509-.064 1.988-.14.35-.294.677-.495 1.126-.495.156 0 .26.06.32.148a.31.31 0 01.067.143c0 .182-.472.59-1.323.65zm.836-.718a.78.78 0 00-.145.07c.093-.043.145-.06.145-.07zm-8.022 3.28c-.119 0-.133-.06-.133-.17a.39.39 0 01.014-.098c-.107.038-.208.09-.304.148-.123.068-.632.408-.632.548 0 .03.06.03.074.03.2 0 .368-.125.558-.125a.25.25 0 01.074.008c.063.034.16.189.16.249 0 .064-.082.129-.13.17-.108.09-.234.098-.35.163-.152.086-.784.442-.784.612 0 .264.297.295.494.295.543 0 1.06-.522 1.402-.783.022-.015.056-.038.085-.038.097 0 .097.231.097.3 0 .063 0 .139-.022.203a.524.524 0 01-.153.178c-.357.294-.903.657-1.505.657-.364 0-.82-.094-.971-.437-.23.214-.542.422-.828.422-.223 0-.543-.132-.543-.487 0-.155.022-.412.16-.665-.364.464-.974 1.175-1.446 1.175-.29 0-.465-.257-.465-.495 0-.544.524-1.39.695-1.697.36-.642.498-.918.7-.918.13 0 .252.17.252.245 0 .133-.985 1.75-.985 2.079 0 .038.011.057.04.057.265 0 1.595-1.561 1.722-1.81.145-.292.3-.5.364-.541a.962.962 0 01.413-.113c.018 0 .04 0 .06.003.036.008.085.121.085.159a.016.016 0 01-.004.011c-.32.628-.494.885-.584 1.07-.111.234-.438.895-.438 1.202 0 .098.033.158.119.158.312-.045.791-.657.858-.718.03-.022.056-.034.082-.034a.08.08 0 01.056.024c.107-.072.227-.13.346-.175-.205-.094-.223-.242-.223-.442 0-.745 1.234-1.277 1.865-1.277.13 0 .376.068.376.23 0 .337-.32.628-.65.628zm-5.471.9c-.51.922-.877 1.538-1.35 2.475.093-.09.428-.472.543-.472.168 0 .227.087.327.204.023.022.037.03.037.068 0 .143-.223.295-.349.42-.17.17-.888.903-1.082.903-.182 0-.356-.178-.356-.363 0-.465.988-2.128 1.286-2.638-.283.325-.9.843-1.342.843a.49.49 0 01-.472-.301c-.282.206-.614.316-.859.316-.248 0-.5-.175-.614-.402-.243.197-.536.38-.836.38-.297-.008-.624-.243-.624-.613 0-.48.405-1.119.717-1.587.037-.057.186-.28.197-.355l-.007-.008c-.193.015-1.2 1.092-1.387 1.3a13.63 13.63 0 00-.776.975c-.053.068-.145.162-.235.162-.063 0-.297-.094-.342-.132-.026-.015-.026-.038-.026-.06 0-.125.142-.325.223-.465.32-.567.647-1.122.974-1.678.108-.181.197-.37.327-.537.127-.162.368-.215.565-.215.082 0 .09.083.09.147 0 .178-.372.696-.48.873.357-.4.93-1.012 1.502-1.012.19 0 .35.132.35.34 0 .23-.45.842-.595 1.07-.123.192-.54.82-.54 1.08 0 .12.116.166.224.166.216 0 .525-.29.757-.515.234-.5.677-1.167.677-1.212 0-.087-.152-.162-.152-.25 0-.06.576-.702.896-.702.122 0 .275.185.275.302 0 .08-.777 1.444-.885 1.633-.089.15-.279.423-.279.604 0 .106.097.129.19.129.23 0 .468-.198.662-.393.215-.802 1.09-1.583 1.724-1.935.234-.128.532-.265.807-.265.175 0 .39.042.457.235a.401.401 0 01.078-.132c.06-.08.35-.178.439-.178.078 0 .13.098.13.162 0 .038 0 .068-.015.099-.256.521-.569 1.024-.851 1.534zm-.16-1.232c-.368 0-.989.457-1.242.714-.211.216-.747.91-.747 1.206 0 .045.023.079.071.079.264 0 1.134-.767 1.338-.982.283-.295.532-.628.762-.968-.052-.042-.115-.049-.182-.049zm-2.122-.968c-.145 0-.22-.075-.22-.222 0-.303.298-.643.602-.643.134 0 .22.076.22.216 0 .28-.32.65-.602.65zm-6.353 2.634s0 .004.004.004c.037 0 .394-.181.736-.476.304-.26.624-.552.77-.722.018-.022.033-.03.047-.03.067 0 .1.185.1.363a.862.862 0 01-.033.264c-.23.605-1.56 1.516-2.208 1.516-.193 0-.353-.163-.353-.423 0-.48.658-1.58 1.297-2.472-.9 1.062-2.438 2.857-3.397 2.857-.409 0-.554-.34-.554-.59 0-.51.357-1.213.822-1.942.45-.71.88-1.315 1.316-1.833-.25.223-.554.48-.762.48-.25 0-.38-.208-.38-.434 0-.208.298-.424.365-.424.04 0 .07 0 .07.015 0 .023-.111.129-.111.17 0 .02.011.03.048.03.2 0 1.03-.524 1.465-.88a.334.334 0 01.219-.08c.078 0 .156.024.227.061.01-.037.23.083.23.204a.152.152 0 01-.03.084c-.512.672-1.698 2.267-2.103 2.894-.238.37-.647 1.085-.647 1.38 0 .083.03.132.108.132.145 0 .903-.62 1.765-1.474.96-.948 2.037-2.177 2.773-3.03.086-.099.13-.114.19-.11h.033c.078 0 .041-.027.309-.027.256 0 .371.046.371.14 0 .038-.022.09-.081.174-.145.2-2.606 3.677-2.606 4.18zm93.455-19.472c-.56 0-1.002.135-1.325.405-.323.27-.485.628-.485 1.073 0 .446.198.8.592 1.063.395.263 1.307.573 2.737.93 1.429.359 2.538.895 3.328 1.61.79.716 1.185 1.76 1.185 3.132 0 1.374-.506 2.486-1.519 3.34-1.012.854-2.345 1.282-3.996 1.282-2.384 0-4.532-.898-6.442-2.694l2.004-2.497c1.622 1.445 3.123 2.168 4.502 2.168.617 0 1.102-.135 1.455-.405.351-.27.527-.635.527-1.095 0-.46-.186-.825-.56-1.096-.373-.269-1.113-.543-2.218-.82-1.754-.424-3.035-.975-3.846-1.654-.812-.679-1.217-1.744-1.217-3.198 0-1.452.513-2.573 1.54-3.362 1.027-.788 2.309-1.182 3.845-1.182 1.005 0 2.011.175 3.017.526 1.005.35 1.88.846 2.628 1.488l-1.702 2.498c-1.307-1.009-2.657-1.512-4.05-1.512zm-11.484 12.66l-3.338-4.884h-2.327v4.884h-3.361v-15.31h5.71c2.34 0 4.01.402 5.008 1.205.998.803 1.497 2.095 1.497 3.876 0 2.453-.955 4.038-2.865 4.753l3.814 5.476h-4.138zm-.883-11.915c-.43-.306-1.185-.46-2.261-.46h-2.521v4.534h2.456c1.149 0 1.932-.19 2.348-.57.416-.38.625-.982.625-1.807 0-.824-.216-1.39-.647-1.697zM112.617 42.15c-2.226 0-4.1-.756-5.623-2.267-1.522-1.511-2.283-3.392-2.283-5.64 0-2.248.76-4.128 2.283-5.64 1.522-1.51 3.397-2.266 5.623-2.266 2.226 0 4.1.755 5.623 2.266 1.523 1.512 2.284 3.392 2.284 5.64 0 2.248-.761 4.129-2.284 5.64-1.522 1.511-3.397 2.267-5.623 2.267zm3.188-11.389c-.861-.964-1.92-1.446-3.177-1.446-1.257 0-2.316.482-3.178 1.446-.862.964-1.292 2.128-1.292 3.493 0 1.365.43 2.526 1.292 3.483.862.956 1.92 1.435 3.178 1.435 1.256 0 2.316-.479 3.177-1.435.862-.957 1.293-2.118 1.293-3.483 0-1.365-.431-2.53-1.293-3.493zm-12.559-9.408h-6.312l-1.4 3.307h-3.577l6.507-15.31h3.253l6.505 15.31h-3.575l-1.401-3.307zm-3.145-7.446l-1.896 4.445h3.77l-1.874-4.445zM87.28 24.66l-3.338-4.884h-2.327v4.884h-3.36V9.35h5.709c2.34 0 4.01.403 5.008 1.206.998.802 1.497 2.095 1.497 3.876 0 2.453-.955 4.038-2.865 4.753l3.814 5.475h-4.137zm-.88-11.914c-.43-.307-1.185-.46-2.262-.46h-2.52v4.534h2.455c1.149 0 1.932-.19 2.348-.57.416-.38.625-.981.625-1.807 0-.825-.215-1.39-.646-1.697zM82.715 28.69c1.436 1.336 2.154 3.195 2.154 5.574 0 2.38-.7 4.264-2.1 5.651-1.4 1.387-3.537 2.08-6.41 2.08H71.21V26.688h5.322c2.686 0 4.747.668 6.183 2.004zm-6.27.974h-1.874v9.31h2.133c1.537 0 2.718-.395 3.544-1.184.826-.789 1.239-1.934 1.239-3.438 0-1.504-.413-2.66-1.239-3.472-.826-.81-2.093-1.216-3.802-1.216zm-4.911-8.312H65.22l-1.4 3.307h-3.576L66.75 9.35h3.254l6.505 15.31h-3.576l-1.4-3.307zm-3.146-7.446l-1.895 4.445h3.77l-1.875-4.445zm-14.693-1.643c-1.264 0-2.344.42-3.242 1.259-.898.84-1.346 1.97-1.346 3.395 0 1.424.423 2.566 1.271 3.428.847.862 1.874 1.293 3.08 1.293 1.652 0 3.002-.666 4.051-1.994l2.154 2.256c-1.71 1.957-3.723 2.935-6.043 2.935-2.32 0-4.23-.745-5.73-2.235-1.502-1.488-2.252-3.369-2.252-5.64 0-2.27.765-4.164 2.294-5.683C49.462 9.76 51.332 9 53.544 9c2.47 0 4.539.957 6.205 2.87l-2.09 2.409c-1.062-1.344-2.384-2.015-3.964-2.015zm-3.791 29.733h-3.361v-15.31h3.36v15.31zm14.24-5.454v-9.856h3.361v15.31h-3.36l-7.175-9.594v9.594h-3.361v-15.31h3.145l7.39 9.856zm30.678-10.206c2.227 0 4.101.755 5.624 2.266 1.522 1.512 2.283 3.392 2.283 5.64 0 2.248-.761 4.129-2.283 5.64-1.523 1.511-3.397 2.267-5.624 2.267-2.226 0-4.1-.756-5.622-2.267-1.523-1.511-2.284-3.392-2.284-5.64 0-2.248.761-4.128 2.284-5.64 1.521-1.51 3.396-2.266 5.622-2.266zm-3.167 11.4c.863.956 1.921 1.435 3.178 1.435s2.316-.479 3.178-1.435c.861-.957 1.293-2.118 1.293-3.483 0-1.365-.432-2.53-1.293-3.493-.862-.964-1.921-1.446-3.178-1.446s-2.315.482-3.178 1.446c-.861.964-1.292 2.128-1.292 3.493 0 1.365.43 2.526 1.292 3.483zM31.861 20.772c-2.627 0-4.756-2.164-4.756-4.835 0-2.67 2.13-4.835 4.756-4.835 2.627 0 4.756 2.165 4.756 4.835s-2.13 4.835-4.756 4.835zm0 3.482c2.832 0 5.137 2.342 5.137 5.222 0 2.879-2.305 5.222-5.137 5.222-2.832 0-5.136-2.343-5.136-5.222 0-2.88 2.304-5.222 5.136-5.222zm0 9.67c2.413 0 4.376-1.995 4.376-4.448 0-2.454-1.963-4.449-4.376-4.449-2.413 0-4.375 1.995-4.375 4.449 0 2.453 1.962 4.448 4.375 4.448zM18.544 21.159c-2.832 0-5.136-2.343-5.136-5.222 0-2.879 2.304-5.222 5.136-5.222 2.832 0 5.137 2.343 5.137 5.222 0 2.88-2.305 5.222-5.137 5.222zm0-9.67c-2.413 0-4.375 1.995-4.375 4.448 0 2.453 1.962 4.449 4.375 4.449 2.413 0 4.376-1.996 4.376-4.449s-1.963-4.448-4.376-4.448zM5.228 48.236c-2.832 0-5.137-2.343-5.137-5.222 0-2.88 2.305-5.222 5.137-5.222 2.832 0 5.136 2.343 5.136 5.222 0 2.88-2.304 5.222-5.136 5.222zm0-9.67c-2.413 0-4.376 1.995-4.376 4.448 0 2.453 1.963 4.448 4.376 4.448 2.413 0 4.375-1.995 4.375-4.448 0-2.453-1.962-4.448-4.375-4.448zm0-13.926c2.626 0 4.756 2.165 4.756 4.836 0 2.67-2.13 4.835-4.756 4.835-2.627 0-4.756-2.165-4.756-4.835s2.13-4.836 4.756-4.836zm0-3.48C2.396 21.16.09 18.815.09 15.936s2.305-5.222 5.137-5.222c2.832 0 5.136 2.343 5.136 5.222 0 2.88-2.304 5.222-5.136 5.222zm0-9.671c-2.413 0-4.376 1.995-4.376 4.448 0 2.453 1.963 4.449 4.376 4.449 2.413 0 4.375-1.996 4.375-4.449S7.641 11.49 5.228 11.49zM18.544 24.64c2.627 0 4.756 2.165 4.756 4.836 0 2.67-2.129 4.835-4.756 4.835-2.626 0-4.756-2.165-4.756-4.835s2.13-4.836 4.756-4.836zm0 13.539c2.627 0 4.756 2.165 4.756 4.835s-2.129 4.835-4.756 4.835c-2.626 0-4.756-2.165-4.756-4.835s2.13-4.835 4.756-4.835zm13.317 0c2.627 0 4.756 2.165 4.756 4.835s-2.13 4.835-4.756 4.835c-2.627 0-4.756-2.165-4.756-4.835s2.13-4.835 4.756-4.835z" id="Shape"/><path id="Rectangle-path" d="M40.469 9.229h1.827v40.585h-1.827z"/></g></g></svg>