<svg width="150" height="60" xmlns="http://www.w3.org/2000/svg"><g id="Page-1" stroke="none" stroke-width="1" fill="none" fill-rule="evenodd"><g id="logo3" fill="#FFF"><g id="Group" transform="translate(18 3)"><path d="M61.955 27.939c-.803 1.206-2.565 3.112-5.026 2.806-2.158-.27 1.193-7.671 4.49-9.533-.885 1.207-1.987 4.447 1.284 4.824l.111.01a6.82 6.82 0 01-.859 1.893zm-16.016.73c-2.103.003-1.138-2.456.327-2.544 1.169-.071 1.627.923 1.506 2.25a6.33 6.33 0 01-1.833.295zm17.304-6.573c-.032.249-.027.664-.043 1.18-.507-.236-.575-.669.043-1.18zM8.218 45.205c-5.603 3.955-5.23-11.674 5.87-15.714 1.153-.42 2.282-.76 3.444-1.05-2.182 7-5.354 13.97-9.314 16.764zm71.655-17.219c.604-3.283 3.037-9.457 4.28-10.041-.948-.653-3.908-2.464-6.006 1.896-1.646 3.42-2.81 6.672-3.187 9.35-.697 1.187-1.576 2.123-2.784 2.301-2.965.438-.947-11.741 5.7-12.316-.919-2.19-6.134-1.707-9.487 3.026a9.513 9.513 0 01-2.4 1.027c.055-.625.017-1.214-.141-1.739-.496-1.645-2.266-1.307-3.29-.97-.546-.555-1.584-1.206-2.176-1.258-2.977-.267-6.1 2.599-7.891 5.932a12.76 12.76 0 01-2.039 1.829c.484-3.284-.544-6.592-4.966-4.93-3.811 1.433-6.467 9.938-.706 9.42a12.95 12.95 0 002.07-.357c-.054.094-.109.188-.165.281-1.857 3.005-4.181 4.598-5.588 4.78-1.406.18-3.655.285-2.85-4.987.335-2.191 1.896-5.3 3.188-7.276a.94.94 0 00.047-.985.891.891 0 00-.865-.43c-1.138.106-2.286.214-3.438.327-1.117.11-2.238.224-3.36.346 1.496-4.117 3.243-8.865 3.55-9.77 1.017-2.998 1.628-10.728-5.536-7.801 1.748 2.53-1.402 12.024-2.73 16.658a51.2 51.2 0 01-.474 1.548c-1.83.253-3.639.54-5.402.873.504-1.805 1.193-4.19 2.373-8.05 1.973-6.457-1.76-8.022-4.971-6.58.802.249-.077 7.655-2.321 15.723-8.91 2.332-15.906 6.372-17.515 14.17-2.241 10.874 13.139 14.888 20.368-8.095.583-1.858.94-3.103 1.298-4.39a184.62 184.62 0 015.185-.673c-1.78 5.303-4.16 12.301-3.714 14.762.507 2.797 2.54 4.815 7.508 2.67-2.154-1.741-.686-12.339.528-15.858.197-.575.464-1.325.771-2.183.934-.115 1.917-.24 2.95-.373-1.005 1.504-1.483 3.12-2.127 4.926-1.385 3.892-1.12 9.512 4.286 9.855 5.011.318 9.933-6.547 11.691-10.5a13.975 13.975 0 002-1.264c.06 1.626.763 3.085 1.896 4.015-1.147.805-2.535 1.733-3.238 2.55-.743.863-.616 1.835.403 2.298 1.018.465 5.325 1.218 6.794 1.744 5.412 1.927 2.318 7.442-.244 10.043-6.393 6.489-13.945.22-5.402-6.621.095.334-.668 1.337-1.219 1.942 1.81-1.042 2.238-2.081 1.817-2.719-.717-1.086-2.529-.746-3.422-.433-1.163.407-2.374 1.285-3.128 3.01-2.223 5.08 1.503 11.435 8.577 9.958 8.558-1.785 18.123-16.828.081-19.765.34-.267.81-.65 1.245-1.007 1.52.223 3.338-.262 5.252-1.8 1.613-1.296 3.443-3.814 4.4-6.286.47-.14.952-.332 1.437-.59-1.743 4.372-1.075 8.319.766 9.894 1.644 1.406 5.084.804 7.347-2.9.446 4.619 2.528 7.09 5.863 7.507 2.337.292 3.808-1.09 3.754-1.518-5.01.616-6.008-2.79-4.643-10.196z" id="Fill-10"/><path d="M88.582 31.483c-1.157 2.687-4.439 2.976-4.496 1.678-.031-.715.81-1.44 2.127-2.184a45.88 45.88 0 002.55-1.546 3.223 3.223 0 01-.18 2.052zm21.385-10.227c1.112-3.24 2.88-7.38-.358-7.478-2.43-.074-5.035 2.294-7.08 4.488.57-1.67 1.247-3.57 2.602-7.515 1.716-4.994 4.192-12.418-5.022-10.397 1.633 1.592.572 8.933-.835 13.713-.407 1.383-.825 2.87-1.229 4.343-2.261 2.952-4.306 4.779-6.803 6.583-.837-1.188-1.668-2.1-1.915-2.466-1.896-2.817.784-4.777 3.315-4.394 3.028.458-.783 3.241-1.728 3.6.523.359 1.59.726 2.968-.227 1.378-.951 3.787-4.621-1.31-5.416-6.243-.975-11.98 5.82-5.874 10.497.36.276.675.562.946.857-.895.59-1.854 1.222-2.897 1.924-1.831 1.23-3.315 2.747-3.349 3.985-.154 5.483 11.097 1.736 11.811-2.64.213-1.3-.217-2.673-.863-3.923a45.824 45.824 0 004.643-4.463c-.552 2.08-1.017 3.868-1.303 4.93-.64 2.382-.817 6.703 4.891 4.85-.659-2.704-.1-7.372.883-10.58 1.777-2.036 3.646-3.708 4.164-3.4.63.376.172 2.182-.45 3.762-2.105 5.345-.751 12.67 4.984 13.389 2.336.292 3.808-1.09 3.752-1.519-6.88.846-6.315-5.905-3.943-12.503z" id="Fill-11"/><path d="M69.88 49.076a3.24 3.24 0 001.543.406c.748 0 1.165-.35 1.165-.87 0-.48-.322-.763-1.136-1.057-1.051-.377-1.724-.935-1.724-1.85 0-1.04.871-1.832 2.254-1.832.691 0 1.202.151 1.534.32l-.284.936a2.712 2.712 0 00-1.27-.303c-.738 0-1.06.397-1.06.765 0 .49.37.718 1.222 1.048 1.108.416 1.648.973 1.648 1.889 0 1.02-.777 1.908-2.425 1.908-.672 0-1.373-.19-1.723-.397l.256-.963" id="Fill-12"/><path d="M77.938 44.95H76.12v-.973h4.82v.973h-1.837v5.391h-1.165V44.95" id="Fill-13"/><path d="M84.737 43.977v3.71c0 1.247.52 1.823 1.307 1.823.842 0 1.344-.576 1.344-1.823v-3.71h1.165v3.635c0 1.964-1.014 2.833-2.547 2.833-1.478 0-2.434-.822-2.434-2.823v-3.645h1.165" id="Fill-14"/><path d="M92.947 49.454c.16.028.406.028.643.028 1.516.008 2.415-.822 2.415-2.436.01-1.407-.805-2.21-2.263-2.21-.37 0-.635.029-.795.066v4.552zm-1.165-5.392a11.782 11.782 0 011.855-.132c1.194 0 2.018.245 2.605.736.615.5.995 1.256.995 2.341 0 1.134-.39 1.984-.995 2.531-.634.577-1.648.87-2.889.87-.681 0-1.192-.038-1.571-.086v-6.26z" id="Fill-15"/><path d="M100.143 43.977h1.165v6.364h-1.165v-6.364z" id="Fill-16"/><path d="M105.436 47.187c0 1.294.654 2.323 1.771 2.323 1.127 0 1.762-1.039 1.762-2.37 0-1.199-.597-2.333-1.762-2.333-1.155 0-1.771 1.067-1.771 2.38zm4.764-.095c0 2.135-1.298 3.353-3.06 3.353-1.798 0-2.935-1.369-2.935-3.239 0-1.954 1.231-3.333 3.03-3.333 1.866 0 2.965 1.407 2.965 3.22z" id="Fill-17"/></g></g></g></svg>