<svg width="150" height="60" xmlns="http://www.w3.org/2000/svg"><g id="Page-1" stroke="none" stroke-width="1" fill="none" fill-rule="evenodd"><g id="logo3_dark" fill-opacity=".3" fill="#000"><g id="Shape-+-Shape" transform="translate(39 5)"><path d="M71.82 49.192v1.41h-5.795v-8.276h5.69v1.41h-4.068v1.994h3.515v1.306h-3.515v2.156h4.173zm-11.555 1.41h-1.61v-2.914l-3.022-5.362h1.763l2.058 3.986 2.092-3.986h1.752l-3.033 5.385v2.892zm-12.72-8.276h5.69v1.41h-4.067v1.994h3.515v1.306h-3.515v2.156h4.173v1.41h-5.795v-8.276zm-4.067 7.81a2.888 2.888 0 01-.987.425 5.08 5.08 0 01-1.175.134 6.31 6.31 0 01-1.858-.28 5.735 5.735 0 01-1.645-.792l.716-1.387c.071.07.198.161.382.274.185.112.402.226.653.338.25.113.53.208.835.285.305.078.619.117.94.117.893 0 1.34-.284 1.34-.85a.714.714 0 00-.153-.468 1.306 1.306 0 00-.435-.326 4.22 4.22 0 00-.681-.256 33.275 33.275 0 00-.894-.245 7.727 7.727 0 01-1.04-.355 2.834 2.834 0 01-.735-.45 1.636 1.636 0 01-.44-.605 2.125 2.125 0 01-.148-.828c0-.42.079-.793.236-1.119.156-.326.374-.598.652-.816.278-.217.601-.383.97-.496a4.04 4.04 0 011.187-.17c.588 0 1.129.093 1.622.275.494.182.925.399 1.293.647l-.717 1.306a2.037 2.037 0 00-.3-.222 3.657 3.657 0 00-.528-.274 4.593 4.593 0 00-.676-.227 2.986 2.986 0 00-.74-.093c-.448 0-.78.081-1 .245-.22.163-.33.392-.33.688a.7.7 0 00.124.425c.082.112.202.212.359.297.156.086.354.163.593.233.24.07.515.144.83.222.407.11.777.226 1.11.35.333.123.615.279.847.466.23.186.409.41.534.67.126.26.188.581.188.962 0 .443-.084.822-.253 1.136a2.13 2.13 0 01-.676.764zm-13.87-7.81h1.622v6.866h4.255v1.41h-5.877v-8.276zm-8.828 0h1.622v6.866h4.255v1.41H20.78v-8.276zm-4.38 7.122a3.075 3.075 0 01-1.134.886c-.462.218-1.014.327-1.657.327-.666 0-1.232-.115-1.699-.344a3.165 3.165 0 01-1.134-.91c-.29-.377-.5-.814-.629-1.311a6.154 6.154 0 01-.194-1.55v-4.22h1.623v4.22c0 .35.033.686.1 1.008.066.323.18.608.34.856.16.25.37.45.629.601.259.151.576.227.952.227.384 0 .707-.077.97-.233a1.9 1.9 0 00.635-.606c.16-.25.274-.534.341-.857.066-.322.1-.655.1-.997v-4.22h1.61v4.22c0 .568-.068 1.1-.205 1.597a3.64 3.64 0 01-.647 1.306zm-9.492-.98c0 .351-.07.658-.211.921a1.934 1.934 0 01-.582.665 2.723 2.723 0 01-.858.408c-.326.094-.672.14-1.04.14H.183v-8.276H4.65c.29 0 .553.062.788.186s.435.286.6.483c.164.199.292.424.381.677a2.242 2.242 0 01-.17 1.9 1.855 1.855 0 01-.893.787c.477.14.856.39 1.134.752.278.36.417.814.417 1.358zm-2.215-4.487a.863.863 0 00-.653-.28H1.807v2.087H3.97a.965.965 0 00.7-.28c.191-.186.287-.443.287-.77 0-.318-.088-.57-.264-.757zm.505 3.76a1.191 1.191 0 00-.206-.356.956.956 0 00-.306-.24.86.86 0 00-.387-.087H1.807v2.18h2.41c.148 0 .288-.027.416-.081a.995.995 0 00.336-.228 1.085 1.085 0 00.305-.763c0-.148-.025-.29-.076-.426zM35.804 34.32c-9.479 0-17.163-7.62-17.163-17.02 0-9.399 7.684-17.019 17.163-17.019s17.163 7.62 17.163 17.02c0 9.4-7.684 17.02-17.163 17.02zm0-27.555c-5.868 0-10.625 4.717-10.625 10.536s4.757 10.536 10.625 10.536S46.428 23.12 46.428 17.3 41.672 6.765 35.804 6.765zm0 12.967a2.442 2.442 0 01-2.452-2.431 2.442 2.442 0 012.452-2.431 2.442 2.442 0 012.452 2.43 2.442 2.442 0 01-2.452 2.432z" id="Shape"/></g></g></g></svg>