<svg width="150" height="60" xmlns="http://www.w3.org/2000/svg"><g id="Page-1" stroke="none" stroke-width="1" fill="none" fill-rule="evenodd"><g id="logo1" fill="#FFF"><path d="M0 7.228h46.091v45.708H0V7.228zM31.72 33.03v-3.225c0-.907-.335-1.36-1.006-1.36-.331 0-.619.119-.863.356-.243.238-.364.587-.364 1.048v3.181h-1.67v-3.225c0-.468-.073-.812-.217-1.031-.143-.22-.375-.33-.696-.33-.321 0-.605.12-.852.357-.247.238-.371.587-.371 1.048v3.181h-1.659v-5.902h1.659v.67c.457-.512.981-.768 1.571-.768.376 0 .717.11 1.023.329.306.22.537.486.692.8.229-.358.536-.636.923-.833a2.545 2.545 0 011.167-.296c.701 0 1.265.206 1.693.62.427.413.642 1.01.642 1.793v3.587H31.72zm-10.408-1.541a.552.552 0 00.42.192c.31 0 .571-.139.786-.417l.619 1.152c-.516.468-1.06.702-1.632.702-.571 0-1.054-.187-1.449-.56-.394-.373-.591-.88-.591-1.524v-2.721h-.697v-1.185h.697v-1.766h1.67v1.766h1.438v1.185h-1.438v2.644c0 .227.059.404.177.532zm-5.741.17c.553 0 1.05-.274 1.493-.823l.985 1.097c-.767.79-1.597 1.185-2.489 1.185-.892 0-1.647-.28-2.263-.84-.615-.559-.923-1.29-.923-2.193s.311-1.638.935-2.205a3.186 3.186 0 012.217-.85c.428 0 .862.087 1.3.263.44.175.824.435 1.156.779l-.862 1.119a1.964 1.964 0 00-.703-.527 2.002 2.002 0 00-.824-.186c-.435 0-.81.14-1.123.422-.313.282-.47.673-.47 1.174 0 .5.157.89.47 1.168.313.278.68.417 1.1.417zM147.25 52.8l-5.791-7.555V52.8h-2.713V40.745h2.539l5.965 7.761v-7.761h2.714V52.8h-2.714zm-14.209-12.056h2.714V52.8h-2.714V40.745zm-5.426 9.451h-5.096l-1.13 2.605h-2.887l5.253-12.056h2.626l5.252 12.056h-2.887l-1.13-2.605zm-2.539-5.864l-1.53 3.501h3.043l-1.513-3.5zm-9.53 8.469h-2.714v-9.728h-3.443v-2.328h9.6v2.328h-3.443V52.8zm-16.644-7.555V52.8H96.19V40.745h2.539l5.965 7.761v-7.761h2.714V52.8h-2.714l-5.791-7.555zm3.496-25.842h-5.322V7.348h4.731c.823 0 1.533.098 2.13.293.597.196 1.047.46 1.348.794.545.62.817 1.322.817 2.104 0 .943-.307 1.644-.92 2.104a3.312 3.312 0 01-.436.302c-.081.04-.226.106-.434.198.753.161 1.353.498 1.8 1.01.445.51.67 1.146.67 1.905 0 .84-.291 1.58-.87 2.225-.673.747-1.844 1.12-3.514 1.12zm.4-9.52c-.336-.173-.904-.26-1.704-.26H99.79v2.605h1.287c.754 0 1.313-.08 1.679-.241.365-.161.548-.51.548-1.044s-.169-.888-.505-1.06zm.565 4.734c-.411-.178-1.07-.268-1.974-.268h-1.6v2.777h1.861c.777 0 1.36-.095 1.748-.284.388-.19.583-.564.583-1.121 0-.558-.206-.926-.618-1.104zm-11.991-2.803l-3.287 6.588h-1.618l-3.27-6.588v7.589h-2.713V7.348h3.67l3.13 6.623 3.148-6.623h3.653v12.056h-2.713v-7.589zM74.78 7.348h2.713v12.056H74.78V7.348zm4.209 34.906c1.229 1.19 1.843 2.67 1.843 4.441 0 1.77-.614 3.251-1.843 4.441-1.23 1.19-2.742 1.785-4.54 1.785-1.797 0-3.31-.595-4.539-1.785-1.229-1.19-1.843-2.67-1.843-4.44 0-1.771.614-3.252 1.843-4.442 1.229-1.19 2.742-1.785 4.54-1.785 1.797 0 3.31.595 4.539 1.785zm-4.53.56c-1.016 0-1.87.38-2.566 1.139-.696.759-1.043 1.676-1.043 2.75 0 1.076.347 1.99 1.043 2.743.696.753 1.55 1.13 2.565 1.13s1.87-.377 2.565-1.13c.696-.753 1.044-1.667 1.044-2.742s-.348-1.992-1.044-2.751c-.695-.759-1.55-1.138-2.565-1.138zM70.293 31.36h-4.835v4.743h-2.713V24.046h2.713v5.037h4.835v-5.037h2.713v12.056h-2.713V31.36zm-5.39-24.01h2.713v9.657h5.183v2.398h-7.896V7.348zm-6.957 2.293c-1.02 0-1.893.33-2.618.992-.725.66-1.086 1.552-1.086 2.673s.341 2.02 1.026 2.7c.683.677 1.513 1.017 2.487 1.017 1.333 0 2.423-.523 3.27-1.57l1.739 1.777c-1.38 1.54-3.007 2.31-4.879 2.31-1.872 0-3.415-.586-4.627-1.758-1.211-1.173-1.817-2.654-1.817-4.441 0-1.788.618-3.28 1.852-4.476 1.235-1.196 2.745-1.794 4.53-1.794 1.995 0 3.665.753 5.01 2.26l-1.687 1.897c-.858-1.058-1.925-1.587-3.2-1.587zm2.817 16.733H57.32v9.727h-2.714v-9.727h-3.443v-2.329h9.6v2.329zm-1.791 20.993l3.148-6.623h3.652V52.8H63.06v-7.59l-3.287 6.59h-1.618l-3.27-6.59v7.59h-2.712V40.745h3.67l3.13 6.623zm25.983-13.646v2.38h-8.957V24.046h8.766v2.398H78.71v2.483h5.444v2.294H78.71v2.501h6.244zm.713 13.68c0 .966.226 1.728.678 2.286.452.557 1.06.836 1.826.836.765 0 1.371-.279 1.818-.836.446-.558.67-1.32.67-2.286v-6.657h2.712v6.744c0 1.747-.486 3.09-1.46 4.027-.974.937-2.22 1.405-3.74 1.405-1.519 0-2.768-.471-3.748-1.414-.98-.943-1.47-2.282-1.47-4.018v-6.744h2.714v6.657z" id="Rectangle-path"/></g></g></svg>