<svg width="150" height="60" xmlns="http://www.w3.org/2000/svg"><g id="Page-1" stroke="none" stroke-width="1" fill="none" fill-rule="evenodd"><g id="logo8" fill="#FFF"><path d="M148.916 37.678c-.055.123-.13.231-.223.324a1.045 1.045 0 01-.73.296.995.995 0 01-.733-.296.993.993 0 01-.295-.731 1.045 1.045 0 01.295-.731c.093-.093.202-.168.324-.223a.975.975 0 01.408-.084c.141 0 .275.028.402.084a1.061 1.061 0 01.636.954.965.965 0 01-.084.407zm-5.92-1.668a6.677 6.677 0 01-2.379 1.573c-.922.365-1.945.547-3.068.547h-5.759V22.338h5.759c1.123 0 2.146.183 3.068.547.923.365 1.715.89 2.378 1.573.662.685 1.175 1.515 1.54 2.49.364.974.547 2.068.547 3.28 0 1.221-.183 2.318-.547 3.293-.365.975-.878 1.804-1.54 2.489zm.445-8.728c-.305-.863-.734-1.592-1.289-2.187a5.483 5.483 0 00-2.003-1.362c-.781-.312-1.648-.469-2.6-.469h-4.61v13.94h4.61c.952 0 1.819-.156 2.6-.469a5.473 5.473 0 002.003-1.361c.555-.595.984-1.325 1.29-2.188.304-.863.457-1.849.457-2.957 0-1.102-.153-2.084-.458-2.947zm-17.912-4.944h1.149V38.13h-1.15V22.338zm-3.27 15.792h-.994a.657.657 0 01-.307-.067.803.803 0 01-.25-.223l-5.056-6.406a1.123 1.123 0 00-.408-.346c-.145-.067-.37-.1-.675-.1h-2.065v7.142h-1.138V22.338h4.03c1.821 0 3.183.352 4.084 1.055.9.703 1.35 1.735 1.35 3.097a4.25 4.25 0 01-.312 1.652 3.873 3.873 0 01-.899 1.31 4.796 4.796 0 01-1.412.927c-.55.242-1.171.4-1.863.475.178.111.338.26.48.446l5.435 6.83zm-5.129-8.242a4.038 4.038 0 001.407-.72c.383-.312.675-.688.875-1.127.202-.439.302-.933.302-1.484 0-1.124-.368-1.957-1.104-2.5-.738-.543-1.81-.815-3.215-.815h-2.89v6.897h2.745c.699 0 1.326-.084 1.88-.25zm-12.706 7.97c-.484.144-1.004.255-1.563.334-.558.078-1.167.117-1.83.117-1.138 0-2.178-.191-3.12-.575a6.918 6.918 0 01-2.42-1.63c-.675-.702-1.197-1.552-1.57-2.55-.371-.997-.557-2.105-.557-3.325 0-1.22.186-2.327.558-3.32.372-.994.9-1.842 1.585-2.545.684-.703 1.515-1.246 2.494-1.63.978-.383 2.074-.574 3.287-.574.603 0 1.159.04 1.669.122a7.77 7.77 0 011.422.363c.44.16.849.357 1.228.591.38.235.744.505 1.094.81l-.302.49c-.067.112-.16.168-.278.168a.419.419 0 01-.19-.044c-.112-.045-.274-.15-.486-.313a5.19 5.19 0 00-.86-.513 7.185 7.185 0 00-1.355-.48c-.543-.142-1.202-.212-1.975-.212-1.027 0-1.954.163-2.78.49a5.9 5.9 0 00-2.115 1.407c-.584.61-1.033 1.354-1.35 2.232-.317.878-.474 1.864-.474 2.958 0 1.115.16 2.116.48 3.002.32.886.768 1.635 1.344 2.249a5.796 5.796 0 002.076 1.411c.808.328 1.698.492 2.673.492.543 0 1.038-.028 1.485-.084a7.8 7.8 0 002.338-.658c.346-.16.693-.341 1.044-.542v-4.252h-3.036a.291.291 0 01-.207-.078.237.237 0 01-.083-.179v-.625h4.363v5.614c-.394.275-.803.52-1.227.737a8.166 8.166 0 01-1.362.541zm-16.485.138c-.2-.089-.394-.252-.58-.49l-7.667-9.688c.023.283.041.56.055.831.016.272.023.527.023.765v8.716h-3.326V21.87h1.987c.163 0 .301.007.412.022.113.015.213.043.302.083.09.041.175.099.257.174.082.074.175.174.279.3l7.723 9.766a20.24 20.24 0 01-.067-.91 16.98 16.98 0 01-.023-.83v-8.606h3.327V38.13h-1.964c-.291 0-.537-.044-.738-.134zM63.833 21.87h10.469v2.902h-6.674v3.795h5.111v2.79h-5.111v3.872h6.674v2.902H63.833V21.87zm-4.128 13.957c-.737.725-1.624 1.29-2.662 1.696-1.038.406-2.19.608-3.454.608h-6.317V21.87h6.317c1.265 0 2.416.204 3.454.613 1.038.41 1.925.975 2.662 1.697a7.554 7.554 0 011.713 2.572c.406.993.608 2.074.608 3.242 0 1.176-.202 2.26-.608 3.253a7.612 7.612 0 01-1.713 2.579zm-1.853-8.008c-.209-.647-.508-1.196-.899-1.646a3.901 3.901 0 00-1.433-1.038c-.566-.242-1.21-.363-1.93-.363h-2.524v10.457h2.523c.721 0 1.365-.12 1.93-.362a3.9 3.9 0 001.434-1.038c.391-.45.69-.999.899-1.646.208-.648.312-1.377.312-2.188 0-.803-.104-1.529-.312-2.176zM35.687 21.87h3.772v13.248h6.027v3.013h-9.8V21.87zm-4.129 14.046a7.865 7.865 0 01-2.662 1.758c-1.038.424-2.19.636-3.454.636-1.265 0-2.418-.212-3.46-.636a7.904 7.904 0 01-2.673-1.758 7.86 7.86 0 01-1.718-2.64c-.406-1.011-.609-2.105-.609-3.28 0-1.176.203-2.27.609-3.282a7.803 7.803 0 011.718-2.634 7.957 7.957 0 012.673-1.752c1.042-.424 2.195-.636 3.46-.636 1.264 0 2.416.214 3.454.641a7.986 7.986 0 012.662 1.758 7.848 7.848 0 011.713 2.634 8.71 8.71 0 01.608 3.27c0 1.176-.203 2.27-.608 3.281a7.908 7.908 0 01-1.713 2.64zm-1.853-8.091c-.208-.644-.508-1.189-.898-1.635a3.878 3.878 0 00-1.435-1.027c-.565-.238-1.209-.357-1.93-.357-.73 0-1.379.119-1.948.357a3.873 3.873 0 00-1.44 1.027c-.39.446-.69.991-.898 1.635-.208.643-.313 1.367-.313 2.17 0 .811.105 1.539.313 2.182.208.644.508 1.189.898 1.635.391.447.871.787 1.44 1.021.57.235 1.218.352 1.948.352.721 0 1.365-.117 1.93-.352a3.817 3.817 0 001.435-1.02c.39-.447.69-.992.898-1.636.209-.643.313-1.37.313-2.182 0-.803-.104-1.527-.313-2.17zm-15.53-1.915a.885.885 0 01-.474.134c-.223 0-.454-.074-.692-.223a12.07 12.07 0 00-.842-.463 5.205 5.205 0 00-1.68-.497 8.522 8.522 0 00-1.027-.055c-.707 0-1.343.124-1.909.374a4.085 4.085 0 00-1.444 1.054 4.765 4.765 0 00-.921 1.635c-.217.636-.324 1.345-.324 2.126 0 .864.119 1.63.357 2.3.238.669.567 1.235.988 1.696.42.461.919.813 1.495 1.055a4.848 4.848 0 001.892.362c.52 0 .982-.044 1.384-.134.402-.089.78-.208 1.138-.357V32.45H10.51c-.238 0-.424-.064-.558-.19a.63.63 0 01-.2-.48v-2.076h5.78v6.864a8.314 8.314 0 01-2.74 1.328 10.7 10.7 0 01-1.63.312c-.576.067-1.195.101-1.857.101-1.19 0-2.292-.21-3.304-.63a8.02 8.02 0 01-2.628-1.742 8.015 8.015 0 01-1.741-2.633C1.21 32.288 1 31.184 1 29.994c0-1.212.201-2.327.603-3.342a7.537 7.537 0 011.724-2.629c.748-.736 1.652-1.31 2.712-1.718 1.06-.41 2.246-.614 3.555-.614a10.4 10.4 0 011.908.167 9.346 9.346 0 011.646.458 7.462 7.462 0 012.495 1.562l-1.094 1.663a1.207 1.207 0 01-.374.368z" id="Shape"/></g></g></svg>