<svg id="Layer_1" enable-background="new 0 0 512.066 512.066" height="60" viewBox="0 0 512.066 512.066" width="60" xmlns="http://www.w3.org/2000/svg" xmlns:xlink="http://www.w3.org/1999/xlink"><linearGradient id="SVGID_1_" gradientUnits="userSpaceOnUse" x1="256.033" x2="256.033" y1="0" y2="512.066"><stop offset="0" stop-color="#5a8104"/><stop offset="1" stop-color="#8fc400"/></linearGradient><path d="m434.033 357c0 11.046-8.954 20-20 20s-20-8.954-20-20 8.954-20 20-20 20 8.954 20 20zm78-297v194.114c-11.487-11.73-25.011-21.455-40-28.592v-165.522c0-1.531-.189-3.016-.516-4.449l-227.386 227.386 32.694 32.694c-3.118 11.589-4.792 24.81-4.792 37.37 0 4.554.266 10.556.795 15.203l-117.357-117.358-68.154 68.154 89 89-64 64h209.377c1.075 1.394 2.167 2.793 3.278 4.197 11.452 14.482 22.755 26.876 31.36 35.803h-296.299c-33.084 0-60-26.916-60-60v-392c0-33.084 26.916-60 60-60h392c33.084 0 60 26.916 60 60zm-453 287.284-19 19v85.716c0 9.775 7.063 17.894 16.346 19.618l63.37-63.618zm68.154-124.722-87.154-87.154v174.309zm303.311-182.562h-370.465c-11.028 0-20 8.972-20 20v18.839l175.814 175.813 66.464-66.465-68.484-69.11 28.413-28.155 68.356 68.981zm81.535 315.954c0 27.158-14.9 59.851-44.286 97.172-20.721 26.314-41.23 45.47-42.094 46.273l-13.62 12.667-13.62-12.667c-.863-.803-21.373-19.958-42.094-46.273-29.386-37.321-44.286-70.014-44.286-97.172 0-55.667 44.859-100.954 100-100.954s100 45.288 100 100.954zm-40 0c0-33.61-26.916-60.954-60-60.954s-60 27.344-60 60.954c0 30.4 36.232 75.293 59.971 100.471 6.982-7.379 15.853-17.263 24.636-28.452 22.824-29.075 35.393-54.651 35.393-72.019z" fill="url(#SVGID_1_)"/></svg>
