<?xml version="1.0"?>
<svg xmlns="http://www.w3.org/2000/svg" xmlns:xlink="http://www.w3.org/1999/xlink" xmlns:svgjs="http://svgjs.com/svgjs" version="1.1" width="512" height="512" x="0" y="0" viewBox="0 0 512 512" style="enable-background:new 0 0 512 512" xml:space="preserve" class=""><circle r="256" cx="256" cy="256" fill="#699634" shape="circle"/><g transform="matrix(0.7,0,0,0.7,76.80000000000001,76.8002883911133)"><g xmlns="http://www.w3.org/2000/svg" id="_x37_6_x2C__Goal_x2C__Management_x2C__Set_x2C__Strategic_x2C__Target"><g><path d="m246.739 243.415c-12.039 0-21.833 9.794-21.833 21.833s9.794 21.834 21.833 21.834 21.834-9.795 21.834-21.834-9.795-21.833-21.834-21.833zm0 23.667c-1.011 0-1.833-.822-1.833-1.834 0-1.011.822-1.834 1.833-1.834s1.834.823 1.834 1.834c0 1.012-.823 1.834-1.834 1.834z" fill="#ffffff" data-original="#000000" style="" class=""/><path d="m282.814 157.925c29.971 10.07 54.541 32.444 67.408 61.386 1.657 3.727 5.313 5.94 9.144 5.94 7.18 0 12.083-7.427 9.132-14.065-15.138-34.047-44.047-60.37-79.314-72.22-5.233-1.757-10.904 1.06-12.664 6.294-1.759 5.236 1.059 10.906 6.294 12.665z" fill="#ffffff" data-original="#000000" style="" class=""/><path d="m218.489 374.887c-36.966-9.494-66.439-36.739-78.841-72.883-1.792-5.223-7.48-8.005-12.704-6.213-5.224 1.793-8.005 7.48-6.213 12.705 14.593 42.528 49.278 74.589 92.784 85.762 5.301 1.365 10.789-1.807 12.173-7.198 1.374-5.349-1.849-10.799-7.199-12.173z" fill="#ffffff" data-original="#000000" style="" class=""/><path d="m366.556 255.248h-17.112c-4.751-49.179-44.165-88.366-93.443-92.771v-17.785c0-5.523-4.477-10-10-10s-10 4.477-10 10v17.922c-48.586 5.047-87.261 43.947-91.965 92.633h-18.591c-5.523 0-10 4.478-10 10s4.477 10 10 10h18.591c4.704 48.687 43.378 87.586 91.965 92.633v17.923c0 5.522 4.477 10 10 10s10-4.478 10-10v-17.785c49.278-4.404 88.692-43.592 93.443-92.771h17.112c5.522 0 10-4.478 10-10s-4.478-9.999-10-9.999zm-37.248 0h-21.618c-4.303-26.312-25.276-47.088-51.69-51.077v-21.585c38.236 4.256 68.715 34.526 73.308 72.662zm-82.569 51.773c-23.033 0-41.772-18.739-41.772-41.772s18.739-41.772 41.772-41.772 41.772 18.739 41.772 41.772-18.739 41.772-41.772 41.772zm-10.739-124.247v21.656c-25.713 4.528-45.99 25.002-50.211 50.818h-21.617c4.533-37.642 34.287-67.61 71.828-72.474zm-71.829 92.474h21.617c4.222 25.816 24.499 46.29 50.211 50.818v21.655c-37.54-4.863-67.294-34.831-71.828-72.473zm91.829 72.662v-21.586c26.414-3.988 47.388-24.765 51.69-51.076h21.617c-4.592 38.136-35.071 68.406-73.307 72.662z" fill="#ffffff" data-original="#000000" style="" class=""/><path d="m396.304 346.086c5.419-10.07 9.812-20.704 13.116-31.754l38.865-3.047c5.204-.408 9.219-4.75 9.219-9.97v-72.134c0-5.213-4.005-9.552-9.201-9.968l-38.888-3.116c-3.311-11.024-7.701-21.636-13.111-31.688l25.263-29.666c3.38-3.969 3.144-9.868-.542-13.555l-50.965-50.964c-3.685-3.685-9.585-3.922-13.555-.542l-29.663 25.26c-10.148-5.477-20.784-9.894-31.759-13.189l-3.046-38.791c-.409-5.204-4.751-9.217-9.97-9.217h-72.134c-5.212 0-9.551 4.004-9.968 9.2l-3.116 38.813c-10.948 3.3-21.562 7.715-31.692 13.184l-29.662-25.259c-3.97-3.38-9.868-3.144-13.555.542l-50.965 50.965c-3.686 3.687-3.922 9.586-.542 13.555l25.259 29.662c-5.468 10.13-9.883 20.744-13.184 31.692l-38.813 3.116c-5.196.417-9.2 4.755-9.2 9.968v72.134c0 5.219 4.014 9.561 9.217 9.97l38.791 3.046c3.296 10.975 7.712 21.61 13.189 31.759l-25.26 29.663c-3.38 3.969-3.144 9.868.542 13.555l50.965 50.965c3.687 3.687 9.586 3.921 13.555.542l29.666-25.263c10.054 5.412 20.665 9.802 31.688 13.111l3.116 38.888c.417 5.196 4.755 9.201 9.968 9.201h72.134c5.22 0 9.562-4.015 9.97-9.219l3.047-38.865c11.049-3.304 21.683-7.696 31.755-13.116l29.666 25.263c3.968 3.381 9.868 3.145 13.555-.542l50.965-50.965c3.686-3.687 3.922-9.586.542-13.555zm-33.86 73.518-27.962-23.812c-3.258-2.775-7.92-3.166-11.598-.98-12.289 7.313-25.641 12.829-39.684 16.396-4.154 1.055-7.174 4.639-7.509 8.911l-2.872 36.634h-53.657l-2.937-36.651c-.342-4.261-3.353-7.833-7.495-8.891-14.015-3.578-27.344-9.095-39.618-16.398-3.678-2.189-8.34-1.795-11.597.98l-27.961 23.812-37.911-37.911 23.811-27.962c2.774-3.258 3.168-7.92.98-11.598-7.404-12.442-12.947-25.794-16.475-39.685-1.055-4.152-4.638-7.172-8.91-7.508l-36.555-2.87v-53.66l36.573-2.937c4.26-.342 7.832-3.353 8.889-7.494 3.54-13.862 9.083-27.191 16.479-39.618 2.188-3.677 1.794-8.339-.98-11.597l-23.811-27.961 37.911-37.911 27.961 23.811c3.257 2.775 7.919 3.169 11.597.98 12.427-7.396 25.756-12.939 39.618-16.479 4.141-1.057 7.152-4.629 7.494-8.889l2.937-36.573h53.66l2.87 36.555c.336 4.272 3.355 7.855 7.508 8.91 13.891 3.528 27.242 9.071 39.685 16.475 3.677 2.188 8.339 1.794 11.598-.98l27.962-23.811 37.911 37.911-23.812 27.961c-2.774 3.258-3.169 7.92-.98 11.597 7.302 12.271 12.819 25.6 16.398 39.618 1.058 4.141 4.63 7.152 8.891 7.494l36.651 2.937v53.657l-36.634 2.872c-4.272.335-7.856 3.354-8.911 7.508-3.567 14.047-9.084 27.398-16.396 39.685-2.188 3.678-1.794 8.34.98 11.598l23.812 27.962z" fill="#ffffff" data-original="#000000" style="" class=""/><circle cx="106" cy="45.248" r="10" fill="#ffffff" data-original="#000000" style="" class=""/><circle cx="36" cy="115.248" r="10" fill="#ffffff" data-original="#000000" style="" class=""/><circle cx="456" cy="375.248" r="10" fill="#ffffff" data-original="#000000" style="" class=""/><circle cx="386" cy="465.248" r="10" fill="#ffffff" data-original="#000000" style="" class=""/><circle cx="36" cy="345.248" r="10" fill="#ffffff" data-original="#000000" style="" class=""/><circle cx="446" cy="175.248" r="10" fill="#ffffff" data-original="#000000" style="" class=""/><path d="m56 415.248c-16.542 0-30 13.458-30 30s13.458 30 30 30 30-13.458 30-30-13.458-30-30-30zm0 40c-5.514 0-10-4.486-10-10s4.486-10 10-10 10 4.486 10 10-4.486 10-10 10z" fill="#ffffff" data-original="#000000" style="" class=""/><path d="m446 35.248c-22.056 0-40 17.944-40 40s17.944 40 40 40 40-17.944 40-40-17.944-40-40-40zm0 60c-11.028 0-20-8.972-20-20s8.972-20 20-20 20 8.972 20 20-8.972 20-20 20z" fill="#ffffff" data-original="#000000" style="" class=""/></g></g></g></svg>
