<?xml version="1.0" encoding="UTF-8" standalone="no"?>
<svg
   xmlns:dc="http://purl.org/dc/elements/1.1/"
   xmlns:cc="http://creativecommons.org/ns#"
   xmlns:rdf="http://www.w3.org/1999/02/22-rdf-syntax-ns#"
   xmlns:svg="http://www.w3.org/2000/svg"
   xmlns="http://www.w3.org/2000/svg"
   xmlns:sodipodi="http://sodipodi.sourceforge.net/DTD/sodipodi-0.dtd"
   xmlns:inkscape="http://www.inkscape.org/namespaces/inkscape"
   version="1.1"
   width="100"
   height="100"
   x="0"
   y="0"
   viewBox="0 0 100 100"
   xml:space="preserve"
   class=""
   id="svg1025"
   sodipodi:docname="mission.svg"
   inkscape:version="1.0.1 (3bc2e813f5, 2020-09-07)"><metadata
     id="metadata1031"><rdf:RDF><cc:Work
         rdf:about=""><dc:format>image/svg+xml</dc:format><dc:type
           rdf:resource="http://purl.org/dc/dcmitype/StillImage" /><dc:title></dc:title></cc:Work></rdf:RDF></metadata><defs
     id="defs1029" /><sodipodi:namedview
     pagecolor="#ffffff"
     bordercolor="#666666"
     borderopacity="1"
     objecttolerance="10"
     gridtolerance="10"
     guidetolerance="10"
     inkscape:pageopacity="0"
     inkscape:pageshadow="2"
     inkscape:window-width="1920"
     inkscape:window-height="1033"
     id="namedview1027"
     showgrid="false"
     inkscape:zoom="1.6835938"
     inkscape:cx="44.096327"
     inkscape:cy="144.26753"
     inkscape:window-x="-4"
     inkscape:window-y="-4"
     inkscape:window-maximized="1"
     inkscape:current-layer="svg1025" /><g
     id="g1611"
     transform="scale(0.1953125)"><circle
       r="256"
       cx="256"
       cy="256"
       fill="#699634"
       shape="circle"
       id="circle992"
       style="stroke-width:1" /><g
       transform="matrix(0.7,0,0,0.7,76.8,76.800288)"
       id="g1023"><g
         id="_x37_6_x2C__Goal_x2C__Management_x2C__Set_x2C__Strategic_x2C__Target"><g
           id="g1020"><path
             d="m 246.739,243.415 c -12.039,0 -21.833,9.794 -21.833,21.833 0,12.039 9.794,21.834 21.833,21.834 12.039,0 21.834,-9.795 21.834,-21.834 0,-12.039 -9.795,-21.833 -21.834,-21.833 z m 0,23.667 c -1.011,0 -1.833,-0.822 -1.833,-1.834 0,-1.011 0.822,-1.834 1.833,-1.834 1.011,0 1.834,0.823 1.834,1.834 0,1.012 -0.823,1.834 -1.834,1.834 z"
             fill="#ffffff"
             data-original="#000000"
             class=""
             id="path994" /><path
             d="m 282.814,157.925 c 29.971,10.07 54.541,32.444 67.408,61.386 1.657,3.727 5.313,5.94 9.144,5.94 7.18,0 12.083,-7.427 9.132,-14.065 -15.138,-34.047 -44.047,-60.37 -79.314,-72.22 -5.233,-1.757 -10.904,1.06 -12.664,6.294 -1.759,5.236 1.059,10.906 6.294,12.665 z"
             fill="#ffffff"
             data-original="#000000"
             class=""
             id="path996" /><path
             d="m 218.489,374.887 c -36.966,-9.494 -66.439,-36.739 -78.841,-72.883 -1.792,-5.223 -7.48,-8.005 -12.704,-6.213 -5.224,1.793 -8.005,7.48 -6.213,12.705 14.593,42.528 49.278,74.589 92.784,85.762 5.301,1.365 10.789,-1.807 12.173,-7.198 1.374,-5.349 -1.849,-10.799 -7.199,-12.173 z"
             fill="#ffffff"
             data-original="#000000"
             class=""
             id="path998" /><path
             d="m 366.556,255.248 h -17.112 c -4.751,-49.179 -44.165,-88.366 -93.443,-92.771 v -17.785 c 0,-5.523 -4.477,-10 -10,-10 -5.523,0 -10,4.477 -10,10 v 17.922 c -48.586,5.047 -87.261,43.947 -91.965,92.633 h -18.591 c -5.523,0 -10,4.478 -10,10 0,5.522 4.477,10 10,10 h 18.591 c 4.704,48.687 43.378,87.586 91.965,92.633 v 17.923 c 0,5.522 4.477,10 10,10 5.523,0 10,-4.478 10,-10 v -17.785 c 49.278,-4.404 88.692,-43.592 93.443,-92.771 h 17.112 c 5.522,0 10,-4.478 10,-10 0,-5.522 -4.478,-9.999 -10,-9.999 z m -37.248,0 H 307.69 C 303.387,228.936 282.414,208.16 256,204.171 v -21.585 c 38.236,4.256 68.715,34.526 73.308,72.662 z m -82.569,51.773 c -23.033,0 -41.772,-18.739 -41.772,-41.772 0,-23.033 18.739,-41.772 41.772,-41.772 23.033,0 41.772,18.739 41.772,41.772 0,23.033 -18.739,41.772 -41.772,41.772 z M 236,182.774 v 21.656 c -25.713,4.528 -45.99,25.002 -50.211,50.818 h -21.617 c 4.533,-37.642 34.287,-67.61 71.828,-72.474 z m -71.829,92.474 h 21.617 c 4.222,25.816 24.499,46.29 50.211,50.818 v 21.655 c -37.54,-4.863 -67.294,-34.831 -71.828,-72.473 z M 256,347.91 v -21.586 c 26.414,-3.988 47.388,-24.765 51.69,-51.076 h 21.617 C 324.715,313.384 294.236,343.654 256,347.91 Z"
             fill="#ffffff"
             data-original="#000000"
             class=""
             id="path1000" /><path
             d="m 396.304,346.086 c 5.419,-10.07 9.812,-20.704 13.116,-31.754 l 38.865,-3.047 c 5.204,-0.408 9.219,-4.75 9.219,-9.97 v -72.134 c 0,-5.213 -4.005,-9.552 -9.201,-9.968 l -38.888,-3.116 c -3.311,-11.024 -7.701,-21.636 -13.111,-31.688 l 25.263,-29.666 c 3.38,-3.969 3.144,-9.868 -0.542,-13.555 L 370.06,90.224 c -3.685,-3.685 -9.585,-3.922 -13.555,-0.542 l -29.663,25.26 c -10.148,-5.477 -20.784,-9.894 -31.759,-13.189 l -3.046,-38.791 c -0.409,-5.204 -4.751,-9.217 -9.97,-9.217 h -72.134 c -5.212,0 -9.551,4.004 -9.968,9.2 l -3.116,38.813 c -10.948,3.3 -21.562,7.715 -31.692,13.184 L 135.495,89.683 c -3.97,-3.38 -9.868,-3.144 -13.555,0.542 L 70.975,141.19 c -3.686,3.687 -3.922,9.586 -0.542,13.555 l 25.259,29.662 c -5.468,10.13 -9.883,20.744 -13.184,31.692 l -38.813,3.116 c -5.196,0.417 -9.2,4.755 -9.2,9.968 v 72.134 c 0,5.219 4.014,9.561 9.217,9.97 l 38.791,3.046 c 3.296,10.975 7.712,21.61 13.189,31.759 l -25.26,29.663 c -3.38,3.969 -3.144,9.868 0.542,13.555 l 50.965,50.965 c 3.687,3.687 9.586,3.921 13.555,0.542 l 29.666,-25.263 c 10.054,5.412 20.665,9.802 31.688,13.111 l 3.116,38.888 c 0.417,5.196 4.755,9.201 9.968,9.201 h 72.134 c 5.22,0 9.562,-4.015 9.97,-9.219 l 3.047,-38.865 c 11.049,-3.304 21.683,-7.696 31.755,-13.116 l 29.666,25.263 c 3.968,3.381 9.868,3.145 13.555,-0.542 l 50.965,-50.965 c 3.686,-3.687 3.922,-9.586 0.542,-13.555 z m -33.86,73.518 -27.962,-23.812 c -3.258,-2.775 -7.92,-3.166 -11.598,-0.98 -12.289,7.313 -25.641,12.829 -39.684,16.396 -4.154,1.055 -7.174,4.639 -7.509,8.911 l -2.872,36.634 h -53.657 l -2.937,-36.651 c -0.342,-4.261 -3.353,-7.833 -7.495,-8.891 -14.015,-3.578 -27.344,-9.095 -39.618,-16.398 -3.678,-2.189 -8.34,-1.795 -11.597,0.98 l -27.961,23.812 -37.911,-37.911 23.811,-27.962 c 2.774,-3.258 3.168,-7.92 0.98,-11.598 -7.404,-12.442 -12.947,-25.794 -16.475,-39.685 -1.055,-4.152 -4.638,-7.172 -8.91,-7.508 l -36.555,-2.87 v -53.66 l 36.573,-2.937 c 4.26,-0.342 7.832,-3.353 8.889,-7.494 3.54,-13.862 9.083,-27.191 16.479,-39.618 2.188,-3.677 1.794,-8.339 -0.98,-11.597 l -23.811,-27.961 37.911,-37.911 27.961,23.811 c 3.257,2.775 7.919,3.169 11.597,0.98 12.427,-7.396 25.756,-12.939 39.618,-16.479 4.141,-1.057 7.152,-4.629 7.494,-8.889 l 2.937,-36.573 h 53.66 l 2.87,36.555 c 0.336,4.272 3.355,7.855 7.508,8.91 13.891,3.528 27.242,9.071 39.685,16.475 3.677,2.188 8.339,1.794 11.598,-0.98 l 27.962,-23.811 37.911,37.911 -23.812,27.961 c -2.774,3.258 -3.169,7.92 -0.98,11.597 7.302,12.271 12.819,25.6 16.398,39.618 1.058,4.141 4.63,7.152 8.891,7.494 l 36.651,2.937 v 53.657 l -36.634,2.872 c -4.272,0.335 -7.856,3.354 -8.911,7.508 -3.567,14.047 -9.084,27.398 -16.396,39.685 -2.188,3.678 -1.794,8.34 0.98,11.598 l 23.812,27.962 z"
             fill="#ffffff"
             data-original="#000000"
             class=""
             id="path1002" /><circle
             cx="106"
             cy="45.248001"
             r="10"
             fill="#ffffff"
             data-original="#000000"
             class=""
             id="circle1004" /><circle
             cx="36"
             cy="115.248"
             r="10"
             fill="#ffffff"
             data-original="#000000"
             class=""
             id="circle1006" /><circle
             cx="456"
             cy="375.24799"
             r="10"
             fill="#ffffff"
             data-original="#000000"
             class=""
             id="circle1008" /><circle
             cx="386"
             cy="465.24799"
             r="10"
             fill="#ffffff"
             data-original="#000000"
             class=""
             id="circle1010" /><circle
             cx="36"
             cy="345.24799"
             r="10"
             fill="#ffffff"
             data-original="#000000"
             class=""
             id="circle1012" /><circle
             cx="446"
             cy="175.248"
             r="10"
             fill="#ffffff"
             data-original="#000000"
             class=""
             id="circle1014" /><path
             d="m 56,415.248 c -16.542,0 -30,13.458 -30,30 0,16.542 13.458,30 30,30 16.542,0 30,-13.458 30,-30 0,-16.542 -13.458,-30 -30,-30 z m 0,40 c -5.514,0 -10,-4.486 -10,-10 0,-5.514 4.486,-10 10,-10 5.514,0 10,4.486 10,10 0,5.514 -4.486,10 -10,10 z"
             fill="#ffffff"
             data-original="#000000"
             class=""
             id="path1016" /><path
             d="m 446,35.248 c -22.056,0 -40,17.944 -40,40 0,22.056 17.944,40 40,40 22.056,0 40,-17.944 40,-40 0,-22.056 -17.944,-40 -40,-40 z m 0,60 c -11.028,0 -20,-8.972 -20,-20 0,-11.028 8.972,-20 20,-20 11.028,0 20,8.972 20,20 0,11.028 -8.972,20 -20,20 z"
             fill="#ffffff"
             data-original="#000000"
             class=""
             id="path1018" /></g></g></g></g></svg>
