<svg xmlns="http://www.w3.org/2000/svg" version="1.1" id="Capa_1" x="0" y="0" viewBox="0 0 470 470" xml:space="preserve" width="512" height="512"><g fill="#FFF"><path d="M157.046 152.966l21.701-16.537 21.703 16.537a7.501 7.501 0 009.09 0l21.708-16.537 21.707 16.537a7.46 7.46 0 004.539 1.534 7.5 7.5 0 004.551-13.466l-26.252-20a7.501 7.501 0 00-9.09 0l-21.707 16.537-21.704-16.537a7.503 7.503 0 00-9.091 0l-26.248 20a7.501 7.501 0 009.093 11.932z"/><path d="M462.5 67.5h-61.572c-4.143 0-7.5 3.357-7.5 7.5s3.357 7.5 7.5 7.5H455V405c0 12.406-10.094 22.5-22.5 22.5h-395C25.093 427.5 15 417.406 15 405V42.5h296V119c0 4.143 3.357 7.5 7.5 7.5H395V405c0 4.143 3.357 7.5 7.5 7.5h30c4.143 0 7.5-3.357 7.5-7.5s-3.357-7.5-7.5-7.5H410V119c0-.251-.013-.501-.038-.749-.018-.184-.05-.364-.081-.544-.011-.061-.016-.123-.028-.183a7.257 7.257 0 00-.161-.642c-.006-.022-.01-.045-.017-.067a7.548 7.548 0 00-.227-.633l-.02-.056a7.46 7.46 0 00-.27-.572c-.016-.03-.028-.063-.045-.093a7.64 7.64 0 00-.295-.493c-.029-.045-.054-.093-.084-.138a7.414 7.414 0 00-.317-.429c-.042-.053-.078-.11-.121-.162a7.573 7.573 0 00-.381-.421c-.038-.04-.071-.083-.11-.122l-84-84c-.039-.039-.082-.072-.122-.11a7.573 7.573 0 00-.421-.381c-.052-.043-.109-.08-.162-.122a7.752 7.752 0 00-.428-.317c-.045-.03-.093-.055-.139-.084a7.211 7.211 0 00-.493-.295c-.03-.017-.062-.029-.093-.045a7.287 7.287 0 00-.572-.27c-.018-.008-.037-.013-.056-.021a7.548 7.548 0 00-.633-.227c-.022-.006-.045-.01-.067-.017a7.257 7.257 0 00-.642-.161c-.06-.012-.122-.018-.183-.028-.18-.031-.36-.063-.544-.082a7.453 7.453 0 00-.749-.038H7.5A7.503 7.503 0 000 35v370c0 20.678 16.822 37.5 37.5 37.5h395c20.678 0 37.5-16.822 37.5-37.5V75c0-4.143-3.357-7.5-7.5-7.5zM326 53.106l58.394 58.394H326V53.106z"/><path d="M175 364.5H67.5c-4.142 0-7.5 3.357-7.5 7.5s3.358 7.5 7.5 7.5H175c4.142 0 7.5-3.357 7.5-7.5s-3.358-7.5-7.5-7.5zm167.5 0H235c-4.142 0-7.5 3.357-7.5 7.5s3.358 7.5 7.5 7.5h107.5c4.143 0 7.5-3.357 7.5-7.5s-3.357-7.5-7.5-7.5zm0-45H235c-4.142 0-7.5 3.357-7.5 7.5s3.358 7.5 7.5 7.5h107.5c4.143 0 7.5-3.357 7.5-7.5s-3.357-7.5-7.5-7.5zm0-45H235c-4.142 0-7.5 3.357-7.5 7.5s3.358 7.5 7.5 7.5h107.5c4.143 0 7.5-3.357 7.5-7.5s-3.357-7.5-7.5-7.5zm-167.5-10a7.5 7.5 0 007.5-7.5v-20a7.5 7.5 0 00-7.5-7.5H67.5A7.5 7.5 0 0060 237v90a7.5 7.5 0 007.5 7.5H175a7.5 7.5 0 007.5-7.5v-40c0-4.143-3.358-7.5-7.5-7.5s-7.5 3.357-7.5 7.5v32.5H75v-75h92.5V257a7.5 7.5 0 007.5 7.5zm167.5-35H235c-4.142 0-7.5 3.357-7.5 7.5s3.358 7.5 7.5 7.5h107.5c4.143 0 7.5-3.357 7.5-7.5s-3.357-7.5-7.5-7.5zm0-45h-275c-4.142 0-7.5 3.357-7.5 7.5s3.358 7.5 7.5 7.5h275c4.143 0 7.5-3.357 7.5-7.5s-3.357-7.5-7.5-7.5z"/></g></svg>