<svg xmlns="http://www.w3.org/2000/svg" xmlns:xlink="http://www.w3.org/1999/xlink" version="1.1" x="0px" y="0px" viewBox="0 0 100 125" style="enable-background:new 0 0 100 100;" xml:space="preserve"><style type="text/css">
	.st0{fill:none;}
	.st1{fill:#010101;}
</style><g><polygon class="st0" points="50.4,26 50.4,26.7 50.4,79.4 55.7,74.7 86.2,74.7 86.2,26.7 86.2,25.7 86.2,20.8 55.7,20.8 50.7,25.7     "/><polygon class="st0" points="43.9,74.7 49.2,79.4 49.2,26.7 49.2,26 48.9,25.7 43.9,20.8 13.4,20.8 13.4,25.7 13.4,26.7 13.4,74.7     "/><polygon class="st0" points="87.2,26.7 87.2,75.7 56.1,75.7 50.5,80.7 90.6,80.7 90.4,26.7  "/><polygon class="st0" points="12.4,75.7 12.4,26.7 9,26.7 9.2,80.7 49.1,80.7 43.5,75.7  "/><path d="M91.4,25.7h-4.2v-5.9H55.2l-5.5,5.4l-5.5-5.4H12.4v5.9H8l0.2,56h42h41.4L91.4,25.7z M13.4,25.7v-4.9h30.5l5,4.9l0.3,0.3   v0.7v52.7l-5.3-4.8H13.4v-48V25.7z M86.2,20.8v4.9v1v48H55.7l-5.3,4.8V26.7V26l0.3-0.3l5-4.9H86.2z M9.2,80.7L9,26.7h3.4v49h31.1   l5.6,5.1H9.2z M50.5,80.7l5.6-5.1h31.1v-49h3.2l0.2,54H50.5z"/></g><text x="0" y="115" fill="#000000" font-size="5px" font-weight="bold" font-family="'Helvetica Neue', Helvetica, Arial-Unicode, Arial, Sans-serif">Created by Martha Ormiston</text><text x="0" y="120" fill="#000000" font-size="5px" font-weight="bold" font-family="'Helvetica Neue', Helvetica, Arial-Unicode, Arial, Sans-serif">from the Noun Project</text></svg>