<svg xmlns="http://www.w3.org/2000/svg" viewBox="0 0 100 100"><path style="text-indent:0;text-transform:none;block-progression:tb" d="M81.364 6.765c-.473.015-.94.057-1.416.115-3.806.46-7.772 2.194-11.41 4.997A2.109 2.109 0 1071.11 15.2c3.116-2.4 6.48-3.782 9.36-4.13 2.88-.349 5.158.277 6.672 1.79 1.723 1.724 2.312 4.499 1.588 7.915-.723 3.417-2.812 7.319-6.152 10.659-.93.93-1.895 1.78-2.889 2.513a2.109 2.109 0 00-.173.116c-2.527 1.83-5.185 3.013-7.597 3.524-3.417.723-6.162.106-7.886-1.618a5.906 5.906 0 01-1.184-1.646 2.112 2.112 0 10-3.813 1.82 10.202 10.202 0 001.993 2.83c1.431 1.43 3.2 2.324 5.142 2.773a5.56 5.56 0 01-8.203.318 5.595 5.595 0 010-7.944 5.561 5.561 0 017.914 0c.226.226.43.474.606.722a2.112 2.112 0 103.438-2.455 9.927 9.927 0 00-1.069-1.242 9.761 9.761 0 00-6.932-2.86c-2.518 0-5.053.952-6.962 2.86-3.817 3.817-3.817 10.077 0 13.894s10.077 3.817 13.894 0a9.736 9.736 0 002.08-3.033 17.906 17.906 0 001.849-.289c1.996-.423 4.025-1.19 6.008-2.253v11.468L41.588 88.106 11.894 58.412l37.175-37.205h18.978l9.273 9.273a2.114 2.114 0 003.004-2.975l-9.88-9.88a2.109 2.109 0 00-1.501-.635H48.174a2.109 2.109 0 00-1.473.636L7.388 56.91a2.109 2.109 0 000 3.004l32.698 32.699a2.109 2.109 0 003.004 0l39.285-39.314a2.109 2.109 0 00.635-1.473V36.661a30.287 30.287 0 002.542-2.253c3.864-3.864 6.381-8.391 7.308-12.767.927-4.376.219-8.794-2.744-11.757-1.952-1.951-4.554-2.917-7.337-3.09a15.13 15.13 0 00-1.415-.03zM36.389 39.636a2.109 2.109 0 00-1.271 3.611l21.635 21.635a2.109 2.109 0 102.975-2.975L38.093 40.272a2.109 2.109 0 00-1.704-.636zm-3.582 10.428a2.109 2.109 0 00-1.271 3.61l14.79 14.79A2.114 2.114 0 1049.3 65.46L34.54 50.7a2.109 2.109 0 00-1.734-.636zm-10.399 3.553a2.109 2.109 0 00-1.27 3.64l21.606 21.606a2.114 2.114 0 103.004-2.975L24.112 54.253a2.109 2.109 0 00-1.502-.636 2.109 2.109 0 00-.202 0z" fill="#FFF" overflow="visible" color="#000"/></svg>