<svg xmlns="http://www.w3.org/2000/svg" viewBox="0 0 100 100"><circle cx="37.965" cy="84.071" r="8.447"/><path d="M35.946 84.015C16.728 74.4 12.403 53.046 12.403 46.324c0-20.9 17.003-37.903 37.902-37.903 20.9 0 37.903 17.003 37.903 37.903 0 2.765-.332 5.613-.986 8.469l-3.899-.893c.587-2.563.885-5.112.885-7.576C84.208 27.629 69 12.42 50.305 12.42c-18.694 0-33.902 15.209-33.902 33.903 0 6.081 3.919 25.401 21.333 34.113l-1.79 3.579z"/><path d="M98.616 45.778c0-8.394-7.483-15.201-16.719-15.201v30.395c9.235 0 16.719-6.801 16.719-15.194zm-97.161 0c0-8.394 7.484-15.201 16.72-15.201v30.395c-9.236 0-16.72-6.801-16.72-15.194zm63.592-.249c-9.987 0-18.534-5.878-22.57-14.326-3.33 6.979-9.728 12.22-17.506 13.812 0 .177-.049.337-.049.515 0 13.852 11.227 25.078 25.078 25.078S75.078 59.381 75.078 45.53c0-.687-.147-1.332-.201-2.008a25.015 25.015 0 01-9.83 2.007z"/></svg>