<svg xmlns="http://www.w3.org/2000/svg" viewBox="0 0 100 100"><path style="text-indent:0;text-transform:none;block-progression:tb" d="M74.227 5a20.749 20.749 0 00-16.193 7.732 2.137 2.137 0 103.326 2.684A16.444 16.444 0 0174.227 9.26c9.15 0 16.513 7.364 16.513 16.513 0 9.15-7.364 16.514-16.513 16.514a16.487 16.487 0 01-12.225-5.398 2.137 2.137 0 10-3.15 2.888c1.482 1.627 3.257 2.997 5.193 4.085-2.224 1.626-5.34 1.459-7.353-.554a5.652 5.652 0 010-8.024 5.652 5.652 0 018.024 0c.582.583.98 1.269 1.254 1.984a2.143 2.143 0 103.997-1.546 9.888 9.888 0 00-2.246-3.443c-1.928-1.927-4.489-2.888-7.032-2.888a9.86 9.86 0 00-7.002 2.888c-3.855 3.856-3.855 10.178 0 14.034 3.856 3.855 10.178 3.855 14.034 0 .204-.204.4-.423.583-.642a20.75 20.75 0 005.923.875c1.195 0 2.39-.097 3.53-.292l-.029 6.04-37.55 37.52-30.02-29.993 37.577-37.578h19.169l10.853 10.853v3.968a2.13 2.13 0 104.26 0v-4.843a2.13 2.13 0 00-.613-1.517L69.296 18.625a2.13 2.13 0 00-1.488-.642H46.831a2.13 2.13 0 00-1.488.642L5.635 58.304a2.13 2.13 0 000 3.034l33.027 33.027a2.13 2.13 0 003.034 0l39.679-39.708a2.13 2.13 0 00.613-1.488l.029-8.14C89.624 41.942 95 34.473 95 25.773 95 14.322 85.679 5 74.227 5zM46.306 42.14a2.13 2.13 0 00-.263.03 2.13 2.13 0 00-1.254.642L22.965 64.635a2.135 2.135 0 103.005 3.034l21.853-21.852a2.13 2.13 0 00-1.517-3.676zm9.132 9.395a2.13 2.13 0 00-1.255.642L32.331 74.03a2.135 2.135 0 103.034 3.005l21.823-21.853a2.13 2.13 0 00-1.546-3.647 2.13 2.13 0 00-.204 0z" overflow="visible" color="#000"/></svg>