<svg xmlns="http://www.w3.org/2000/svg" viewBox="0 0 100 125"><style>.st0{fill:none}</style><path class="st0" d="M50.4 26v53.4l5.3-4.7h30.5V20.8H55.7l-5 4.9zm-6.5 48.7l5.3 4.7V26l-.3-.3-5-4.9H13.4v53.9z"/><path class="st0" d="M87.2 26.7v49H56.1l-5.6 5h40.1l-.2-54zm-74.8 49v-49H9l.2 54h39.9l-5.6-5z"/><path d="M91.4 25.7h-4.2v-5.9h-32l-5.5 5.4-5.5-5.4H12.4v5.9H8l.2 56h83.4l-.2-56zm-78 0v-4.9h30.5l5 4.9.3.3v53.4l-5.3-4.8H13.4V25.7zm72.8-4.9v53.9H55.7l-5.3 4.8V26l.3-.3 5-4.9h30.5zm-77 59.9l-.2-54h3.4v49h31.1l5.6 5.1H9.2zm41.3 0l5.6-5.1h31.1v-49h3.2l.2 54H50.5z"/><text y="115" font-size="5" font-weight="bold" font-family="'Helvetica Neue', Helvetica, Arial-Unicode, Arial, Sans-serif">Created by Martha Ormiston</text><text y="120" font-size="5" font-weight="bold" font-family="'Helvetica Neue', Helvetica, Arial-Unicode, Arial, Sans-serif">from the Noun Project</text></svg>