<svg xmlns="http://www.w3.org/2000/svg" viewBox="0 0 100 125"><path fill="none" d="M93.02 15.996H6.036v49.026h86.986V15.996h-.002zM42.972 41.031h4.169v1.462h-4.169v-1.462zm-8.575-2.409h4.169v1.462h-4.169v-1.462zm7.575 2.409v1.462h-23.71v-1.462h23.71zm-8.574-.947H18.262v-1.463h15.136v1.463zM13.066 21.332h4.169v1.462h-4.169v-1.462zm0 2.462h10.391v1.463H13.066v-1.463zm0 2.463h13.855v1.462H13.066v-1.462zm0 2.462h10.391v1.463H13.066v-1.463zm0 2.463h10.391v1.462H13.066v-1.462zm0 2.462h4.169v1.463h-4.169v-1.463zm0 2.462h6.97v1.462h-6.97v-1.462zm0 2.515h4.169v1.463h-4.169v-1.463zm0 2.41h4.169v1.462h-4.169v-1.462zm0 2.462h4.169v1.463h-4.169v-1.463zm0 2.463H46.28v1.462H13.066v-1.462zm0 2.462h4.169v1.463h-4.169v-1.463zm0 2.463h20.331v1.463H13.066v-1.463zm-2.264-29.549h1.264v1.462h-1.264v-1.462zm1.265 38.398h-1.265v-1.463h1.265v1.463zm0-2.462h-1.265v-1.461h1.265v1.461zm0-2.461h-1.265v-1.464h1.265v1.464zm0-2.463h-1.265v-1.463h1.265v1.463zm0-2.463h-1.265v-1.463h1.265v1.463zm0-2.463h-1.265v-1.462h1.265v1.462zm0-2.462h-1.265v-1.463h1.265v1.463zm0-2.463h-1.265v-1.462h1.265v1.462zm0-2.462h-1.265v-1.463h1.265v1.463zm0-2.463h-1.265v-1.462h1.265v1.462zm0-2.461h-1.264v-.001h-.001v-1.463h1.264v.001h.001v1.463zm0-2.463h-1.265v-1.462h1.265v1.462zm0-2.462h-1.265v-1.463h1.265v1.463zm0-2.463h-1.265v-1.462h1.265v1.462zm0-2.462h-1.265v-1.463h1.265v1.463zm7.969 34.473h-6.97v-1.463h6.97v1.463zm1.556-2.462h-8.526v-1.461h8.526v1.461zm8.525-2.461H13.066v-1.464h17.051v1.464zm5.239 0h-4.17v-1.463h4.17v1.463zm10.925-4.926H18.262v-1.463h28.019v1.463zm5.158-4.925H18.262v-1.463h33.177v1.463zm5.168 0h-4.168v-1.463h4.168v1.463z"/><circle fill="none" cx="49.528" cy="72.829" r="1.847"/><path d="M12.066 33.643h-1.264v1.463h.001v.001h1.264v-1.463h-.001zm19.121 19.701h-.001v1.463h4.17v-1.463h-.001zm11.785-12.313h4.169v1.462h-4.169zm-8.575-2.409h4.169v1.462h-4.169zm-21.331-17.29h4.169v1.462h-4.169zm0 12.312h4.169v1.463h-4.169zm0 4.977h4.169v1.463h-4.169zm0 2.41h4.169v1.462h-4.169zm0-4.925h6.97v1.462h-6.97zm5.196 3.978h15.136v-1.463H18.262zm0 .947h23.71v1.462h-23.71zm-5.196 2.462h4.169v1.463h-4.169zm0 4.925h4.169v1.463h-4.169zm39.373-4.925h4.168v1.463h-4.168zm-34.177 0h33.177v1.463H18.262zm-5.196 2.463H46.28v1.462H13.066zm5.196 2.462v1.463h28.019v-1.463h-.001zm-5.196 2.463h20.331v1.463H13.066zm0 2.462h17.051v1.464H13.066zm.001 2.464h-.001v1.461h8.526v-1.461h-.001zm-.001 2.461h6.97v1.463h-6.97zm0-34.474h10.391v1.463H13.066zm0 2.463h13.855v1.462H13.066zm0 2.462h10.391v1.463H13.066zm0 2.463h10.391v1.462H13.066zm-1-8.388v-1.462h-1.264v1.462h.001zm-1.263 1h-.001v1.463h1.265v-1.463h-.001zm0 2.463h-.001v1.462h1.265v-1.462h-.001zm0 2.462h-.001v1.463h1.265v-1.463h-.001zm0 2.463h-.001v1.462h1.265v-1.462h-.001zm0 4.924h-.001v1.462h1.265v-1.462h-.001zm0 2.462h-.001v1.463h1.265v-1.463h-.001zm0 2.463h-.001v1.462h1.265v-1.462h-.001zm0 2.462h-.001v1.463h1.265v-1.463h-.001zm0 2.463h-.001v1.462h1.265v-1.462h-.001zm0 2.462h-.001v1.463h1.265v-1.463h-.001zm0 2.463h-.001v1.463h1.265v-1.463h-.001zm0 2.462h-.001v1.464h1.265v-1.464h-.001zm0 2.464h-.001v1.461h1.265v-1.461h-.001zm0 2.461h-.001v1.462h1.265v-1.462h-.001z"/><path d="M94.195 12.179H4.939c-1.563 0-2.91 1.189-2.91 2.752v59.607c0 1.563 1.347 2.877 2.91 2.877h35.146c-.041.896-.321 4.753-2.155 6.623-1.445 1.473-3.453 2.854-2.669 3.563.19.436 1.091.688 3.14.688h23.123c2.334 0 3.149-.382 3.158-.953h-.08v-.188h-.082c-.104-.77-1.662-1.907-2.84-3.105-1.834-1.87-2.113-5.727-2.154-6.623H94.2c1.563 0 2.829-1.313 2.829-2.877v-59.61c-.002-1.565-1.269-2.754-2.834-2.754zM49.528 74.676a1.844 1.844 0 01-1.847-1.846 1.846 1.846 0 113.694 0 1.844 1.844 0 01-1.847 1.846zm43.495-9.656h-.002v.002H6.036V15.996h86.988V65.02z"/><path d="M93.021 15.996h.002v49.023h-.002z"/><text y="115" font-size="5" font-weight="bold" font-family="'Helvetica Neue', Helvetica, Arial-Unicode, Arial, Sans-serif">Created by Wilson Joseph</text><text y="120" font-size="5" font-weight="bold" font-family="'Helvetica Neue', Helvetica, Arial-Unicode, Arial, Sans-serif">from the Noun Project</text></svg>