<svg xmlns="http://www.w3.org/2000/svg" viewBox="0 0 100 100"><g fill="#FFF"><path d="M85.3 90.3h-69c-1.9 0-3.4-1.5-3.4-3.4v-69c0-1.9 1.5-3.4 3.4-3.4h69.1c1.9 0 3.4 1.5 3.4 3.4V87c-.1 1.8-1.6 3.3-3.5 3.3zm-69-73.8c-.8 0-1.4.6-1.4 1.4V87c0 .8.6 1.4 1.4 1.4h69.1c.8 0 1.4-.6 1.4-1.4V17.9c0-.8-.6-1.4-1.4-1.4H16.3z"/><path d="M13.9 31.9h73.8v2H13.9zm9.1-9.4c-.6 0-1-.4-1-1v-12c0-.6.4-1 1-1s1 .4 1 1v12.1c0 .5-.4.9-1 .9zm11.1 0c-.6 0-1-.4-1-1v-12c0-.6.4-1 1-1s1 .4 1 1v12.1c0 .5-.4.9-1 .9zm11.1 0c-.6 0-1-.4-1-1v-12c0-.6.4-1 1-1s1 .4 1 1v12.1c0 .5-.4.9-1 .9zm11.1 0c-.6 0-1-.4-1-1v-12c0-.6.4-1 1-1s1 .4 1 1v12.1c0 .5-.4.9-1 .9zm11.1 0c-.6 0-1-.4-1-1v-12c0-.6.4-1 1-1s1 .4 1 1v12.1c0 .5-.4.9-1 .9zm11.1 0c-.6 0-1-.4-1-1v-12c0-.6.4-1 1-1s1 .4 1 1v12.1c0 .5-.4.9-1 .9zM30.6 68.3l3.8-.5c.4 2.2 1.2 3.7 2.3 4.7s2.4 1.4 3.9 1.4c1.8 0 3.3-.6 4.6-1.9 1.2-1.3 1.9-2.8 1.9-4.7 0-1.8-.6-3.2-1.7-4.4-1.2-1.1-2.6-1.7-4.4-1.7-.7 0-1.6.1-2.7.4l.4-3.4h.6c1.6 0 3.1-.4 4.4-1.3 1.3-.9 2-2.2 2-3.9 0-1.4-.5-2.6-1.4-3.5-1-.9-2.2-1.4-3.7-1.4s-2.7.5-3.7 1.4c-1 .9-1.6 2.3-1.9 4.2l-4-.4c.5-2.6 1.5-4.6 3.2-6 1.7-1.4 3.7-2.1 6.2-2.1 1.7 0 3.3.4 4.7 1.1 1.4.7 2.5 1.7 3.3 3 .8 1.3 1.1 2.6 1.1 4s-.4 2.6-1.1 3.7-1.8 2-3.2 2.6c1.8.4 3.3 1.3 4.3 2.7 1 1.3 1.5 3 1.5 5 0 2.7-1 5-3 6.9S43.5 77 40.4 77c-2.7 0-5-.8-6.8-2.5s-2.7-3.6-3-6.2zm38.8 8.3h-3.8V52.1c-.9.9-2.1 1.8-3.6 2.6-1.5.9-2.8 1.5-4 2V53c2.1-1 4-2.2 5.6-3.7 1.6-1.4 2.7-2.8 3.4-4.2h2.5v31.5z"/></g></svg>