<svg xmlns="http://www.w3.org/2000/svg" viewBox="0 0 80 80"><path fill="#FFF" d="M24.2 59.9c-3.8 0-6.9-2.9-6.9-6.9h2c0 3 2.2 4.9 4.9 4.9S29 56 29 53h2c0 4-3 6.9-6.8 6.9zM48 52H10v-1c0-6.7 3.2-10.8 5.5-13H11v-7h29.7L39 38h-4.6c-.2 1.8-.4 6.3 2.9 8.7l-1.2 1.6c-5.1-3.9-3.6-11.2-3.5-11.5l.2-.8h4.7l.7-3H13v3h9.1l-3.3 1.9c-.3.1-6.1 3.6-6.5 12.1H48v2zm4.095-30.951l5.854 22.243-1.934.51-5.854-22.244z"/><path fill="#FFF" d="M44 21h7v2h-7zm9 11v-2h2.8c.2 0 1.3-.2 1.3-2.5S56 25 55.8 25H52v-2h3.8c.1 0 1.2 0 2.1.9.8.8 1.2 2 1.2 3.6s-.4 2.8-1.2 3.6c-.9.9-1.9.9-2.1.9H53zm6.3 27.9c-3.8 0-6.9-2.9-6.9-6.9h2c0 3 2.2 4.9 4.9 4.9s4.9-1.9 4.9-4.9h2c0 4-3.1 6.9-6.9 6.9zM20 40h7v2h-7zm-2 5h9v2h-9zm51.9 7H47.6l.2-1.2c0-.1 1.4-7.9 11.5-7.9 8.9 0 10.3 7.8 10.4 7.9l.2 1.2zm-19.7-2h17.2c-.7-1.8-2.7-5-8-5-6.2 0-8.5 3.2-9.2 5z"/></svg>