<svg width="90" height="75" xmlns="http://www.w3.org/2000/svg"><g id="Page-1" stroke="none" stroke-width="1" fill="none" fill-rule="evenodd"><g id="process3" fill="#444444"><path d="M59.017 36.8a3.98 3.98 0 002.77-1.14 3.845 3.845 0 001.145-2.76c0-1.08-.422-2.04-1.144-2.76a3.874 3.874 0 00-2.77-1.14 3.98 3.98 0 00-2.771 1.14 3.845 3.845 0 00-1.144 2.76c0 1.08.421 2.04 1.144 2.76.783.72 1.747 1.14 2.77 1.14zm12.949-18.3c-11.865 0-23.067 4.62-31.438 12.96l-5.902 5.88h-8.312c-.421 0-.782.18-1.084.42l-5.54 5.52c-.904.9-.241 2.58 1.084 2.58h8.13l4.577 6.54-2.77 6.72c-.482 1.2.783 2.46 1.987 1.98l6.746-2.76 6.504 4.56V71c0 1.32 1.626 1.98 2.59 1.08l5.54-5.52c.302-.3.422-.66.422-1.08V57.2l5.903-5.88c8.431-8.34 13.069-19.5 13.069-31.32 0-.84-.663-1.5-1.506-1.5zM48.96 67.4v-5.22c0-.48-.241-.96-.663-1.26l-7.89-5.46c-.421-.3-.963-.36-1.445-.18l-4.216 1.74 1.747-4.2c.18-.48.12-1.02-.181-1.44l-5.48-7.86c-.302-.42-.723-.66-1.265-.66h-5.24l2.53-2.52h8.13c3.553 7.2 9.335 12.96 16.562 16.38v8.1l-2.59 2.58zm9.335-18.18l-6.143 6.12a32.884 32.884 0 01-15.66-15.6l6.144-6.12c7.468-7.44 17.285-11.7 27.824-12.12-.421 10.5-4.697 20.28-12.165 27.72zM27.579 71.9c.06.36.362.6.723.6.18 0 .361-.06.542-.24l4.396-4.38 1.145 3.36c.24.72 1.024.6 1.385.12.18-.24.361-.48.482-.72.662-.96 1.265-1.92 1.927-2.88.602-.9 1.144-1.74 1.747-2.64.12-.12.24-.3.3-.42.422-.84-.722-1.68-1.264-.84l-3.674 5.46-1.024-3.06c-.18-.54-.843-.66-1.264-.3l-4.216 4.2-.482-3.06c-.06-.48-.663-.78-1.144-.54l-4.939 2.94 2.951-4.92c.241-.42 0-1.02-.542-1.14l-3.071-.54 4.215-4.2c.362-.36.241-1.08-.3-1.26L22.4 56.42l5.48-3.66c.844-.54 0-1.68-.843-1.26-.18.06-.3.18-.421.3-.904.6-1.747 1.14-2.65 1.74-.964.66-1.928 1.26-2.891 1.92-.241.18-.482.3-.723.48-.482.36-.602 1.14.12 1.38l3.373 1.14-4.396 4.38c-.422.42-.181 1.2.421 1.26l3.433.54-3.915 6.72c-.421.66.362 1.44 1.024 1.02l6.565-3.96.602 3.48z" id="Shape"/></g></g></svg>
