<svg width="90" height="90" xmlns="http://www.w3.org/2000/svg"><g id="Page-1" stroke="none" stroke-width="1" fill="none" fill-rule="evenodd"><g id="process1" fill="#CD2122"><path d="M38.009 63.786l-.067-.002c-1.275-.06-1.601-1.255-1.946-2.52-.496-1.824-1.327-4.874-4.224-8.13-5.01-5.634-6.484-13.637-3.667-19.914 2.52-5.615 8.079-8.836 15.249-8.836s12.729 3.221 15.249 8.836c2.816 6.277 1.344 14.28-3.668 19.915-3.245 3.648-4.89 5.829-4.89 6.48a1.36 1.36 0 01-1.005 1.312c-10.455 2.833-10.804 2.859-11.031 2.859zM43.355 27.1c-6.143 0-10.679 2.568-12.772 7.233-2.387 5.318-1.095 12.148 3.219 16.996 3.322 3.735 4.292 7.305 4.814 9.223l.087.318a836.134 836.134 0 008.814-2.344c.436-1.269 1.775-3.13 5.391-7.197 4.313-4.848 5.607-11.678 3.219-16.996-2.093-4.665-6.63-7.233-12.772-7.233zm-.342 50.887a1.358 1.358 0 01-.333-2.674l6.72-1.708a1.358 1.358 0 01.67 2.632l-6.72 1.708a1.404 1.404 0 01-.337.043zm-5.246-6.244a1.358 1.358 0 01-.34-2.671l11.965-3.106a1.352 1.352 0 011.655.971 1.356 1.356 0 01-.972 1.655L38.11 71.698c-.115.03-.23.045-.343.045zm0 3.869a1.358 1.358 0 01-.34-2.671l11.965-3.107a1.353 1.353 0 011.655.972 1.356 1.356 0 01-.972 1.655L38.11 75.567c-.115.03-.23.045-.343.045zm0-7.738a1.358 1.358 0 01-.34-2.67l11.965-3.107a1.351 1.351 0 011.655.972 1.356 1.356 0 01-.972 1.654L38.11 67.83c-.115.03-.23.044-.343.044zM20.51 43.42h-5.546a1.357 1.357 0 110-2.715h5.546a1.357 1.357 0 110 2.715zm3.099-11.573c-.231 0-.464-.059-.678-.182l-4.801-2.773a1.357 1.357 0 111.358-2.352l4.802 2.773a1.357 1.357 0 01-.681 2.534zm8.475-8.473a1.36 1.36 0 01-1.177-.679l-2.773-4.801a1.36 1.36 0 01.496-1.855 1.36 1.36 0 011.855.496l2.773 4.802a1.36 1.36 0 01-1.174 2.037zm11.573-3.101c-.75 0-1.358-.608-1.358-1.358V13.37a1.358 1.358 0 012.716 0v5.544c0 .75-.608 1.358-1.358 1.358zm11.573 3.102a1.357 1.357 0 01-1.174-2.038l2.773-4.8a1.357 1.357 0 112.351 1.359l-2.773 4.8a1.36 1.36 0 01-1.177.68zm8.475 8.473a1.36 1.36 0 01-.68-2.534l4.8-2.773a1.36 1.36 0 011.856.497 1.36 1.36 0 01-.496 1.855l-4.802 2.773a1.35 1.35 0 01-.678.182zm4.8 25.92c-.231 0-.464-.058-.678-.182l-4.801-2.773a1.357 1.357 0 111.358-2.351l4.802 2.773a1.357 1.357 0 01-.681 2.534zm-49.696-.001a1.36 1.36 0 01-.68-2.534l4.8-2.773a1.358 1.358 0 011.36 2.351l-4.802 2.773a1.336 1.336 0 01-.678.183z" id="Shape"/></g></g></svg>