<svg width="90" height="90" xmlns="http://www.w3.org/2000/svg"><g id="Page-1" stroke="none" stroke-width="1" fill="none" fill-rule="evenodd"><g id="process2" fill="#CD2122"><path d="M18.886 32.372a1.639 1.639 0 00-2.31 0l-11.55 11.48a1.615 1.615 0 000 2.296l11.55 11.48a1.637 1.637 0 002.31.001 1.615 1.615 0 000-2.296L8.49 45l10.395-10.333a1.615 1.615 0 000-2.295zm55.538 0a1.639 1.639 0 00-2.31 0 1.615 1.615 0 000 2.295L82.51 45 72.114 55.333a1.615 1.615 0 000 2.296c.319.316.737.475 1.155.475.418 0 .836-.159 1.155-.475l11.55-11.48a1.615 1.615 0 000-2.297l-11.55-11.48zm3.968-21.832c-.312-.233-.623-.388-1.013-.388-.702 0-1.248.465-1.716 1.008l-.857.62c-.078 0-.078.077-.078.077L42.213 50.841c-.078.078-.078.155-.078.233l-1.092 5.503c-.312-.233-.857-.233-1.247.232-1.56 2.093-5.692-1.162-7.876.388-1.559 1.085-1.793 2.712-1.247 4.495.78 2.325 2.417 4.418 3.82 6.355.079.078.079.155.156.233-3.976-1.473-8.888-4.108-12.241-2.17-2.34 1.317-2.807 3.797-2.184 6.277.312 1.085.78 2.093 1.17 3.1 0 .078.078.156.078.233-.078 0-.078.078-.156.155-.936.62-1.092 1.783-.312 2.635 1.56 1.783 4.133 1.705 5.926.233 1.638-1.473 1.326-3.72.702-5.658.702.232 1.325.465 2.027.697 2.885 1.008 6.004 2.17 9.123 2.093 2.495-.077 5.458-2.325 4.445-5.115-.858-2.403-2.885-4.03-4.679-5.735-1.091-1.008-2.105-2.093-3.119-3.178-1.091-1.163-2.885-2.868 0-2.403 2.34.388 5.302.93 5.926-2.015v-.232c.078 0 .156.077.156.077.078 0 .156 0 .234-.077l5.146-2.325c.078 0 .156-.078.234-.155l30.8-40.302s.078-.078.078-.155l.39-1.008c.39-.465 1.247-1.705 0-2.712zm-36.18 45.34l.859-4.263c.39 0 1.013.31 1.87.93.859.697 1.248 1.395 1.326 1.627l-4.054 1.705zm19.806-22.322l-14.97 19.609c-.313-.543-.936-1.163-1.482-1.628a4.693 4.693 0 00-1.716-.93l15.75-18.91.079-.078s.078 0 .078-.078h.156c.234 0 .78.155 1.325.62.624.465.858 1.008.858 1.24 0 .078-.078.078-.078.155zm.858-1.085c-.234-.387-.624-.775-1.092-1.162-.468-.31-.858-.543-1.325-.698l14.97-17.903c.078.31.312.62.624.852.312.233.624.388 1.014.388L62.876 32.473zm14.737-19.84c-.078 0-.078.077-.156.077-.078.077-.234.155-.312.155-.156 0-.312-.078-.468-.155-.156-.155-.312-.388-.312-.543 0-.077 0-.155.078-.232.234-.31.624-.698.936-.698.078 0 .234.078.39.155.311.233.39.388-.156 1.24z" id="Shape"/></g></g></svg>