<svg xmlns="http://www.w3.org/2000/svg" preserveAspectRatio="xMidYMid" width="110" height="104"><defs><style>.cls-1,.cls-2{fill:#fff}.cls-1{fill-rule:evenodd}</style></defs><path d="M114 104H3a3 3 0 01-3-3V3a3 3 0 013-3h111a3 3 0 013 3v98a3 3 0 01-3 3zm1-99a3 3 0 00-3-3H5a3 3 0 00-3 3v94a3 3 0 003 3h107a3 3 0 003-3V5zM17.5 8a1.5 1.5 0 11.001-3.001A1.5 1.5 0 0117.5 8zm-5 0a1.5 1.5 0 11.001-3.001A1.5 1.5 0 0112.5 8zm-5 0a1.5 1.5 0 11.001-3.001A1.5 1.5 0 017.5 8z" class="cls-1"/><rect x="9" y="33" width="55" height="8" rx="2" ry="2" class="cls-2"/><rect x="9" y="19" width="55" height="8" rx="2" ry="2" class="cls-2"/><rect x="9" y="82" width="23" height="8" rx="2" ry="2" opacity=".4" fill="#fff"/><rect x="9" y="61" width="92" height="16" rx="2" ry="2" class="cls-2"/><path d="M19 51v-1h13v1H19zm-6.5 2a2.5 2.5 0 110-5 2.5 2.5 0 010 5zm0-4a1.5 1.5 0 10.001 3.001A1.5 1.5 0 0012.5 49zM49 51v-1h19v1H49z" class="cls-1"/><circle cx="42.5" cy="50.5" r="2.5" class="cls-2"/></svg>