<svg width="66" height="66" xmlns="http://www.w3.org/2000/svg"><defs><linearGradient x1="49.085%" y1="50%" x2="49.39%" y2="49.258%" id="linearGradient-1"><stop stop-color="#E74C3C" offset="0%"/><stop stop-color="#A82A1D" offset="100%"/></linearGradient></defs><g id="Page-1" stroke="none" stroke-width="1" fill="none" fill-rule="evenodd"><g id="set-03-02"><path d="M46.257 17.073c.258.328.898 1.129 1.375 1.785 1.046 1.383 3.264 3.514 3.483 3.369.277-.146-.787-2.641-1.43-3.406-.732-.874-1.686-1.511-2.95-1.985l-.992-.364.514.601zm-28.219.436c-1.1.565-2.2 1.567-2.659 2.44-.33.656-.953 2.568-.862 2.66.147.145 2.604-2.277 3.246-3.188.404-.564.972-1.33 1.302-1.711.477-.565.514-.674.22-.674-.184 0-.734.219-1.247.473zm32.785 1.676c.385.436 1.265 2.931 1.687 4.825l.11.528-.477-.473c-.257-.256-.953-.82-1.522-1.239a28.863 28.863 0 01-1.852-1.492c-.715-.674-.788-.71-.66-.292.312 1.201.952 2.076 2.274 3.15.77.619 1.778 1.511 2.237 1.985.476.491.917.874.972.874.055 0 .11-1.02.11-2.277 0-2.003-.055-2.385-.441-3.259-.475-1.074-1.65-2.349-2.291-2.53-.386-.091-.404-.073-.147.2zM13.51 20.277c-1.228 1.312-1.412 2.076-1.284 5.736l.037 1.42 1.32-1.238c2.824-2.658 3.374-3.277 3.777-4.133.24-.473.367-.929.312-.984-.055-.073-.367.146-.697.474-.33.31-1.045.947-1.614 1.402a13.48 13.48 0 00-1.724 1.584c-.385.437-.623.62-.55.419.074-.2.294-1.056.495-1.912.202-.856.569-2.02.807-2.604.551-1.329.258-1.384-.879-.164zm40.852 5.663c-.074 1.803-.074 3.497-.018 3.788l.092.51-.202-.455c-.13-.255-.367-.784-.568-1.202-.202-.456-.972-1.311-2.035-2.258-.916-.838-1.577-1.402-1.449-1.275.11.146.22.474.22.728 0 .529 1.082 2.404 2.31 4.025.44.564 1.046 1.512 1.339 2.112.532 1.056.532 1.056.66.51.074-.31.292-1.038.476-1.64.66-1.966.752-2.53.678-4.187-.055-1.184-.2-1.894-.494-2.586-.788-1.784-.862-1.639-1.009 1.93zm-43.657-2.076c-.605 1.294-.899 2.841-.752 4.097.073.546.44 1.93.825 3.078l.715 2.094.422-.91c.22-.492.807-1.457 1.302-2.131 1.137-1.566 2.09-3.314 2.255-4.115l.129-.619-1.119.965c-1.302 1.147-2.145 2.258-2.604 3.441l-.311.838-.018-2.003c-.019-1.11-.092-2.495-.184-3.114-.092-.6-.11-1.438-.018-1.857.183-1.056-.074-.947-.642.236zm45.93 5.19c0 .6-.402 1.912-1.173 3.824-.35.855-.733 1.912-.86 2.349l-.24.8-.22-1.183c-.127-.655-.366-1.475-.531-1.802-.514-.966-1.778-3.078-1.908-3.169-.366-.219.57 4.388 1.21 6.008.147.402.331 1.348.404 2.095l.11 1.366 1.393-1.876c1.853-2.495 2.256-3.642 2.256-6.228 0-1.11-.091-2.075-.22-2.276-.202-.345-.202-.345-.22.092zm-47.599.455c-.275.6-.147 3.896.183 5.025.312 1.02.679 1.62 2.403 3.789l.917 1.146.127-1.074c.056-.582.404-2.13.752-3.441.368-1.294.697-2.968.77-3.715l.11-1.366-.568 1.002c-1.521 2.713-1.852 3.57-1.87 4.807-.018.655-.092 1.148-.183 1.092-.073-.054-.147-.255-.147-.455 0-.4-.696-2.694-.917-2.986-.256-.364-1.136-2.75-1.265-3.46-.129-.618-.165-.674-.312-.364zm4.804 8.103c-.348 2.258-.293 3.55.202 4.734.293.71.165.62-.642-.51-.311-.438-1.247-1.53-2.09-2.422-.844-.91-1.742-2.04-2.017-2.495-.495-.836-.514-.855-.514-.309 0 1.457.752 3.315 1.907 4.644.953 1.128 5.097 4.023 5.373 3.77.055-.056-.037-.365-.202-.675-.257-.528-.403-1.402-.844-5.098-.238-1.948-.568-3.623-.715-3.733-.073-.036-.275.91-.458 2.094zm37.699-1.875c-.22.382-.514 2.403-.77 5.08-.184 2.002-.275 2.494-.569 3.205-.11.272-.164.564-.146.673.128.328 3.337-1.876 4.602-3.132 1.576-1.584 2.346-3.096 2.474-4.807l.093-1.239-.477.983c-.275.529-1.045 1.548-1.723 2.277-.699.71-1.541 1.657-1.889 2.111-.331.456-.68.893-.77 1.002-.074.091-.257.346-.422.546-.24.328-.24.292 0-.273.642-1.602.678-2.276.293-4.516-.22-1.165-.422-2.148-.459-2.185-.036-.035-.146.093-.237.275zm-2.457 5.462c-.459.673-1.008 1.766-1.229 2.422-.237.655-.494 1.348-.568 1.548-.092.2-.293.765-.475 1.238a7.21 7.21 0 01-.844 1.62c-.294.401-.495.765-.46.82.22.218 4.144-.746 5.172-1.274 1.156-.583 2.695-1.839 3.447-2.86.624-.836 1.229-1.947 1.229-2.293 0-.055-.477.328-1.065.856-.64.582-1.74 1.31-2.713 1.784-.899.456-2.072 1.074-2.585 1.42-.532.329-.972.564-.972.528 0-.054.275-.637.623-1.329a9.385 9.385 0 00.844-2.604c.11-.746.293-1.73.385-2.166.11-.438.147-.82.11-.875-.056-.037-.46.492-.899 1.165zm-32.877.146c.275 2.404.807 4.17 1.577 5.244.404.564.825 1.038.935 1.038.11 0 .165.036.11.091-.055.055-.66-.273-1.357-.728-.696-.474-2.089-1.24-3.116-1.73-1.339-.638-2.109-1.148-2.824-1.857-.77-.765-.935-.874-.825-.51.275.928 1.815 2.968 2.805 3.732.935.747 2.017 1.348 2.88 1.64.585.2 4.033.8 4.106.71.036-.037-.128-.383-.367-.747-.495-.765-.935-1.748-1.833-4.06-.569-1.493-1.12-2.514-1.852-3.46l-.367-.455.128 1.092zm28.054 5.59c-1.081 1.037-2.09 1.948-2.256 2.04-.183.09-.402.272-.531.381-.11.11-.678.365-1.248.528-.567.183-.989.365-.952.4.037.037.441.147.88.238.44.09 1.54.345 2.439.546 2.952.673 4.84.42 6.894-.93 1.082-.709 2.145-1.71 1.981-1.874-.056-.055-.458.109-.899.346-1.1.6-1.907.783-4.382 1.002-1.155.109-2.439.236-2.842.309l-.733.11.861-.548c.935-.601 1.87-1.73 2.291-2.768.13-.345.349-.819.46-1.037.44-.891-.093-.547-1.963 1.257zm-24.661-1.566c0 .072.348.801.77 1.603.825 1.602 1.76 2.567 2.86 2.95.825.29.715.29-1.064.073a70.603 70.603 0 00-3.355-.365c-1.467-.127-2.255-.29-3.007-.637-.569-.255-1.063-.437-1.1-.4-.202.217 1.705 1.73 2.878 2.294 1.284.601 1.504.655 3.118.638 1.302 0 2.255-.128 3.759-.511 1.118-.292 2.09-.582 2.163-.655.092-.073-.202-.219-.641-.328-1.064-.274-1.944-.91-4.163-2.95-1.815-1.676-2.218-2.003-2.218-1.712zm8.893 5.244c-.495.127-1.87.62-3.026 1.092-2.787 1.148-4.75 1.311-6.693.565-.752-.291.734.838 1.742 1.311.862.42 1.247.473 2.75.473 2.018 0 2.66-.219 4.878-1.693 1.613-1.093 2.42-1.457 3.19-1.457.807 0 .679.255-.44.837-1.43.747-3.96 2.786-3.96 3.186 0 .182.147.401.312.51.257.128.587-.072 1.705-1.128 1.595-1.53 3.521-2.858 4.126-2.858.587 0 2.512 1.31 4.053 2.768.715.692 1.375 1.237 1.466 1.237.092 0 .312-.163.495-.363.293-.346.275-.382-.201-.838-.715-.673-2.915-2.203-3.833-2.658-.66-.328-.752-.42-.495-.564.55-.31 1.559.036 3.246 1.092.934.582 1.888 1.166 2.145 1.275 2.072.965 4.766.728 6.765-.583.936-.619.973-.91.093-.546-1.357.564-3.889.328-5.85-.546-2.695-1.202-4.07-1.494-6.032-1.275-1.578.164-1.962.164-3.96.037-1.028-.074-1.871-.038-2.476.126z" id="Shape" fill="#EAEAEA"/><path d="M41.303 35.624c.478-.418.955-.776 1.433-1.253h.06c4.6 0 9.557-1.014 12.961-4.354 3.106-3.043 4.3-7.338 4.122-11.573v-.119c0-1.372-.299-2.744-1.135-3.818-1.135-1.491-2.987-1.968-4.779-1.968h-1.97c-.717 0-1.434.298-2.091.596.537-1.67-.358-3.579-2.33-3.579H18.367c-1.971 0-2.867 1.91-2.33 3.58-.657-.299-1.374-.597-2.03-.597h-1.972c-1.732 0-3.524.477-4.659 1.849-.896 1.074-1.254 2.505-1.254 3.877v.18c-.18 4.175.956 8.47 4.002 11.452 3.405 3.4 8.422 4.414 13.08 4.414h.06c1.792 1.67 3.943 3.043 5.257 5.19-1.314.298-2.21 1.551-2.031 2.863.179 1.313 1.314 2.327 2.628 2.327h.299c-.657 2.207-2.27 6.203-5.555 6.203h-6.57c-1.315 0-2.39.955-2.569 2.327-.239 1.55 1.135 2.923 2.628 2.923H48.77c1.434 0 2.748-1.313 2.628-2.744-.12-1.491-1.254-2.506-2.628-2.506H42.2c-3.166 0-4.779-3.579-5.555-6.203h.299c1.314 0 2.448-1.014 2.628-2.327.179-1.312-.717-2.624-2.031-2.863.597-1.074 1.851-2.326 3.763-3.877.478-.418-1.912 1.55 0 0zm10.691-21.952h1.971c1.374 0 2.927.358 3.823 1.491.717.895.896 2.029.896 3.162v.179c.18 3.758-.776 7.576-3.404 10.38-2.927 3.101-7.228 4.175-11.35 4.294.538-.596 1.076-1.193 1.494-1.79 3.405-.357 6.929-1.49 9.139-4.235 1.911-2.386 2.568-5.547 2.449-8.59v-.298c0-.835-.12-1.73-.777-2.326-.597-.537-1.493-.656-2.27-.656h-1.97c-.897 0-.956.537-.956.656v.835H48.29c.299-.656.657-1.253.896-1.909.538-.298 1.852-1.193 2.807-1.193zm-4.36 10.737c0-2.147-.418-4.295.18-6.382h3.762a.598.598 0 00.598-.597v-.954h1.791c.478 0 1.315 0 1.613.477.24.358.24.895.24 1.312v.299c.119 2.624-.419 5.368-1.972 7.516-1.792 2.386-4.719 3.519-7.586 3.937.956-1.67 1.374-3.64 1.374-5.608zm-36.793 4.594c-1.732-1.79-3.763-5.07-3.524-10.5v-.178c0-1.133.179-2.267.896-3.162.896-1.133 2.389-1.49 3.822-1.49h1.971c.956 0 2.27.834 2.808 1.311.298.657.597 1.253.896 1.91h-2.748v-.836c0-.179-.06-.716-.956-.716h-1.97c-.777 0-1.673.12-2.27.657-.657.536-.777 1.49-.777 2.266v.299c-.12 3.042.538 6.144 2.449 8.59 2.21 2.743 5.734 3.877 9.139 4.235.477.656.955 1.252 1.493 1.79-4.898-.18-8.661-1.552-11.23-4.176-1.731-1.79 2.569 2.624 0 0zm7.526-4.116c.06 1.849.477 3.579 1.373 5.19-2.687-.418-5.435-1.373-7.227-3.52-1.852-2.207-2.449-5.19-2.33-7.993v-.299c0-.417 0-1.073.3-1.372.358-.358 1.074-.358 1.552-.358h1.792v.955c0 .298.24.596.597.596h3.763c.657 2.207.12 4.534.18 6.8zM48.709 55.07H17.291c-.597 0-1.134-.358-1.314-.895h34.106a1.51 1.51 0 01-1.374.895zm.06-2.923c.657 0 1.195.298 1.195.895H16.097c-.06-.477.597-.895 1.194-.895H48.77zm-9.855-1.193H27.087c1.971-1.61 2.987-4.414 3.524-6.204h4.779c.776 2.923 1.97 5.011 3.524 6.204zm-1.971-7.337h-7.885a1.51 1.51 0 01-1.374-.895h10.513c-.18.477-.657.895-1.254.895zm1.314-2.088H27.744c.24-.537.717-.895 1.374-.895h7.825c.597 0 1.075.358 1.314.895zm-2.09-2.028h-6.332c-1.135-2.386-3.405-3.877-5.316-5.547-2.21-1.969-4.36-4.415-4.838-7.397-.478-2.744.418-5.488-.24-8.172-.358-1.611-1.313-2.983-1.91-4.534-.24-.537-.598-1.253-.538-1.85.06-.655.657-1.192 1.374-1.192h29.207c.598 0 1.195.417 1.314 1.014.18.597-.179 1.312-.418 1.85-.597 1.49-1.553 2.922-1.911 4.473-.717 2.744.18 5.488-.239 8.232-.418 3.042-2.509 5.488-4.719 7.456-1.91 1.67-4.24 3.221-5.435 5.667z" id="Shape" fill="url(#linearGradient-1)"/><path d="M43.137 24.817a.414.414 0 00.413-.412v-6.353c0-.536-.826-.536-.826 0v6.353c0 .247.206.412.413.412zm-1.404 1.65a.414.414 0 00.413-.412v-9.653c0-.536-.826-.536-.826 0v9.694c0 .206.206.371.413.371z" id="Shape" fill="#818181"/></g></g></svg>