<svg width="66" height="66" xmlns="http://www.w3.org/2000/svg"><defs><linearGradient x1="49.085%" y1="50%" x2="49.39%" y2="49.258%" id="linearGradient-1"><stop stop-color="#E74C3C" offset="0%"/><stop stop-color="#A82A1D" offset="100%"/></linearGradient></defs><g id="Page-1" stroke="none" stroke-width="1" fill="none" fill-rule="evenodd"><g id="set-03-01"><path d="M43.744 23.152H21.488c-.46 0-.767-.304-.767-.758 0-.455.307-.758.767-.758h22.256c.46 0 .768.303.768.758 0 .454-.307.758-.768.758zm-4.604 3.03H25.326c-.46 0-.768-.303-.768-.758 0-.454.307-.757.768-.757H39.14c.46 0 .767.303.767.757 0 .455-.307.758-.767.758z" id="Shape" fill="#676767"/><path d="M28.395 35.273H18.42c-.46 0-.768-.303-.768-.758 0-.454.307-.757.768-.757h9.976c.46 0 .768.303.768.757 0 .455-.307.758-.768.758zm-3.837 2.272h-6.14c-.46 0-.767-.303-.767-.757 0-.455.307-.758.768-.758h6.14c.46 0 .767.303.767.758 0 .454-.307.757-.768.757zm30.698-2.272h-9.977c-.46 0-.767-.303-.767-.758 0-.454.307-.757.767-.757h9.977c.46 0 .767.303.767.757 0 .455-.307.758-.767.758zm-4.605 2.272H45.28c-.46 0-.767-.303-.767-.757 0-.455.307-.758.767-.758h5.372c.46 0 .768.303.768.758 0 .454-.307.757-.768.757zm-22.256 7.576H18.42c-.46 0-.768-.303-.768-.757 0-.455.307-.758.768-.758h9.976c.46 0 .768.303.768.758 0 .454-.307.757-.768.757zm-3.837 2.273h-6.14c-.46 0-.767-.303-.767-.758 0-.454.307-.757.768-.757h6.14c.46 0 .767.303.767.757 0 .455-.307.758-.768.758zm30.698-2.273h-9.977c-.46 0-.767-.303-.767-.757 0-.455.307-.758.767-.758h9.977c.46 0 .767.303.767.758 0 .454-.307.757-.767.757zm-4.605 2.273H45.28c-.46 0-.767-.303-.767-.758 0-.454.307-.757.767-.757h5.372c.46 0 .768.303.768.757 0 .455-.307.758-.768.758z" id="Shape" fill="#909090"/><path d="M63.698 57.621H2.302C.998 57.621 0 56.636 0 55.348V10.652c0-1.288.998-2.273 2.302-2.273h61.396c1.304 0 2.302.985 2.302 2.273v44.696c0 1.288-.998 2.273-2.302 2.273zM1.535 14.061v-3.41c0-.454.307-.757.767-.757h61.396c.46 0 .767.303.767.758v3.409H1.535zm0 1.515v39.772c0 .455.307.758.767.758h61.396c.46 0 .767-.303.767-.758V15.576H1.535zm2.61-2.349a.99.99 0 00.997-.985.991.991 0 00-.998-.984.991.991 0 00-.997.984.99.99 0 00.997.985zm3.683 0c.55 0 .998-.44.998-.985a.991.991 0 00-.998-.984.991.991 0 00-.998.984c0 .544.447.985.998.985zm3.607 0c.55 0 .998-.44.998-.985a.991.991 0 00-.998-.984.991.991 0 00-.998.984c0 .544.447.985.998.985z" id="Shape" fill="url(#linearGradient-1)"/><path d="M12.97 39.212c-1.996 0-3.607-1.59-3.607-3.56s1.611-3.561 3.607-3.561c1.995 0 3.607 1.59 3.607 3.56s-1.612 3.561-3.607 3.561zm0-5.606a2.05 2.05 0 00-2.072 2.046 2.05 2.05 0 002.072 2.045 2.05 2.05 0 002.072-2.045 2.05 2.05 0 00-2.072-2.046zm26.63 5.606c-1.995 0-3.607-1.59-3.607-3.56s1.612-3.561 3.607-3.561 3.607 1.59 3.607 3.56c-.077 1.97-1.612 3.561-3.607 3.561zm0-5.606a2.05 2.05 0 00-2.072 2.046 2.05 2.05 0 002.072 2.045 2.05 2.05 0 002.072-2.045c0-1.137-.998-2.046-2.072-2.046zm-26.63 15.53c-1.996 0-3.607-1.59-3.607-3.56s1.611-3.56 3.607-3.56c1.995 0 3.607 1.59 3.607 3.56s-1.612 3.56-3.607 3.56zm0-5.606a2.05 2.05 0 00-2.072 2.046 2.05 2.05 0 002.072 2.045 2.05 2.05 0 002.072-2.045 2.05 2.05 0 00-2.072-2.046zm26.63 5.606c-1.995 0-3.607-1.59-3.607-3.56s1.612-3.56 3.607-3.56 3.607 1.59 3.607 3.56-1.612 3.56-3.607 3.56zm0-5.606a2.05 2.05 0 00-2.072 2.046A2.05 2.05 0 0039.6 47.62a2.05 2.05 0 002.072-2.045c0-1.137-.998-2.046-2.072-2.046z" id="Shape" fill="#CD2122"/></g></g></svg>