<svg width="66" height="66" xmlns="http://www.w3.org/2000/svg"><defs><linearGradient x1="49.085%" y1="50%" x2="49.39%" y2="49.258%" id="linearGradient-1"><stop stop-color="#E74C3C" offset="0%"/><stop stop-color="#A82A1D" offset="100%"/></linearGradient></defs><g id="Page-1" stroke="none" stroke-width="1" fill="none" fill-rule="evenodd"><g id="set-03-03" fill="url(#linearGradient-1)"><path d="M33.297 17.506a4.217 4.217 0 01-4.213-4.215 4.218 4.218 0 014.213-4.214 4.22 4.22 0 014.216 4.214 4.224 4.224 0 01-4.216 4.215zm0-7.012a2.8 2.8 0 00-2.794 2.794 2.798 2.798 0 002.794 2.797 2.8 2.8 0 002.797-2.797 2.801 2.801 0 00-2.797-2.794zM57.16 33.949c.554-4.216-.578-7.975-3.19-10.584-3.38-3.383-8.82-4.24-14.273-2.287-1.91-1.307-4.09-2.048-6.4-2.048-2.422 0-4.7.811-6.677 2.242l.024-.065c-5.56-2.124-11.16-1.295-14.615 2.158-2.61 2.61-3.742 6.368-3.19 10.584.546 4.145 2.665 8.247 5.967 11.549.792.792 1.628 1.373 2.503 1.917h-3.73c-2.692 0-3.005 1.686-3.005 2.955 0 1.268.313 2.952 3.005 2.952h4.942a.71.71 0 000-1.42H13.58c-1.436 0-1.586-.466-1.586-1.532 0-1.067.15-1.534 1.586-1.534h39.436c1.822 0 2.029.875 2.029 1.534 0 .658-.209 1.533-2.029 1.533H28.532a.709.709 0 100 1.419h24.486c2.162 0 3.45-1.103 3.45-2.952 0-1.852-1.288-2.955-3.45-2.955h-4.32c.87-.544 1.707-1.125 2.497-1.917 3.305-3.302 5.419-7.404 5.965-11.55zM19.467 47.415a20.55 20.55 0 01-3.657-2.92c-3.081-3.082-5.06-6.894-5.562-10.73-.493-3.772.493-7.108 2.787-9.397 2.896-2.899 7.579-3.681 12.358-2.1-3.499 3.193-5.79 8.45-5.79 14.38 0 3.917 1.008 7.698 2.864 10.77h-3v-.003zm4.677 0c-2.012-2.964-3.12-6.787-3.12-10.77 0-8.931 5.509-16.196 12.276-16.196 6.764 0 12.265 7.265 12.265 16.197 0 3.982-1.103 7.805-3.117 10.769H24.144zm22.39 0h-2.407c1.854-3.071 2.857-6.85 2.857-10.77 0-6.018-2.357-11.337-5.94-14.515 4.628-1.394 9.111-.578 11.923 2.236 2.293 2.289 3.282 5.625 2.784 9.396-.503 3.836-2.478 7.649-5.562 10.73a20.356 20.356 0 01-3.654 2.923zm9.934 8.798a.709.709 0 00-.71-.71H11.25a.71.71 0 000 1.419h44.51a.71.71 0 00.709-.709z" id="Shape"/></g></g></svg>