<svg width="66" height="66" xmlns="http://www.w3.org/2000/svg"><defs><linearGradient x1="49.085%" y1="50%" x2="49.39%" y2="49.409%" id="linearGradient-1"><stop stop-color="#E74C3C" offset="0%"/><stop stop-color="#A82A1D" offset="100%"/></linearGradient></defs><g id="Page-1" stroke="none" stroke-width="1" fill="none" fill-rule="evenodd"><g id="set-03-04"><g id="ib-ico-4" transform="translate(9 6)"><g id="Page-1"><g id="ib-ico-4"><g id="Group"><path d="M45.637 11.994L26.3.864c-1.358-.784-3.148-.784-4.506 0L2.378 11.995C.998 12.791 0 14.276 0 15.871v22.258c0 1.595.982 3.081 2.362 3.877L21.7 53.136c.68.391 1.485.6 2.27.6.785 0 1.574-.209 2.253-.6l19.408-11.13C47.01 41.209 48 39.723 48 38.129V15.87c0-1.595-.982-3.08-2.363-3.877zM9.527 43.871C9.575 41.245 11.675 39 14.254 39H22.8v12.695c0-.037-.113-.135-.19-.18L9.526 43.87zM15.6 27.247c.6-2.415 3.096-4.447 5.782-4.447h5.149c3.161 0 5.767 2.557 6.075 5.638-.236 4.516-3.975 8.193-8.549 8.193-4.27 0-7.857-3.07-8.457-7.163v-2.22zm2.435-5.35c1.549-1.531 3.676-2.408 6.021-2.408 2.433 0 4.628.916 6.19 2.55C29.137 21.446 27.873 21 26.531 21h-5.149c-1.197 0-2.329.418-3.347.897zm7.302 29.679a2.98 2.98 0 01-.688.261c0-.015-.048-.03-.048-.046V39h9.79c2.459 0 4.484 2.053 4.707 4.51l-13.76 8.066zM46.2 38.129c0 .953-.637 1.841-1.463 2.318l-4.02 2.221c-.509-2.374-2.317-4.275-4.717-4.953v-.837c0-.496-.181-.878-.678-.878H34.8v-1.414a.9.9 0 00-1.8 0V36h-2.182c1.419-1.2 2.505-2.834 3.098-4.656 1.661-.088 2.842-1.46 2.842-3.141 0-.041-.16-.086-.16-.127v-6.394c.6-.302 1.001-.85 1.001-1.482 0-.953-.703-1.729-1.655-1.729-.954 0-1.838.775-1.838 1.729 0 .611.692 1.146.692 1.453v3.702c0-.163-.58-.26-.98-.288-1.31-4.228-5.185-7.308-9.837-7.308-4.665 0-8.583 3.098-9.882 7.343a3.136 3.136 0 00-2.572 3.095 3.168 3.168 0 002.644 3.111c.593 1.837 1.694 3.492 3.123 4.692h-4.801c-.497 0-1.093.382-1.093.879v1.148c-1.8.896-3.32 2.752-3.68 4.98l-4.507-2.56C2.388 39.971 1.8 39.083 1.8 38.13V15.87c0-.954.637-1.842 1.462-2.318L22.6 2.423a2.8 2.8 0 011.37-.358c.468 0 .946.124 1.353.358l19.408 11.13c.825.476 1.469 1.365 1.469 2.318v22.258z" id="Shape" fill="url(#linearGradient-1)"/><path d="M28.72 30.497a.9.9 0 001.274-1.273l-3.776-3.774a.9.9 0 10-1.273 1.272l3.775 3.775zm-1.708-.56a.9.9 0 10-1.273 1.273l1.614 1.615a.898.898 0 001.274 0 .9.9 0 000-1.273l-1.615-1.614zM16.152 41.02a2.17 2.17 0 00-2.168 2.167 2.17 2.17 0 002.168 2.167 2.17 2.17 0 002.168-2.167 2.17 2.17 0 00-2.168-2.167zm10.333 5.556l-.887.886a.9.9 0 101.274 1.273l.886-.886a.9.9 0 10-1.273-1.273zm0-3.261l-.887.886a.9.9 0 101.274 1.272l.886-.886a.9.9 0 10-1.273-1.272zM9.808 20.229l-.593-.324-.324-.593a.9.9 0 00-1.579 0l-.324.592-.593.325a.9.9 0 000 1.58l.593.324.324.593a.9.9 0 001.58-.001l.323-.593.593-.324a.9.9 0 000-1.579zm11.91-9.47l-.592-.324-.324-.593a.9.9 0 00-1.58 0l-.324.593-.593.324a.9.9 0 000 1.58l.593.324.325.593a.9.9 0 001.579 0l.324-.594.593-.324a.9.9 0 000-1.579zm21.447 10.804l-.594-.324-.324-.594a.9.9 0 00-1.579.001l-.323.593-.593.324a.9.9 0 000 1.579l.593.324.323.593a.902.902 0 001.579 0l.324-.592.594-.324a.902.902 0 000-1.58zM30.938 10.52a2.79 2.79 0 00-2.787 2.787 2.79 2.79 0 002.787 2.788 2.79 2.79 0 002.787-2.788 2.79 2.79 0 00-2.787-2.787z" id="Shape" fill="#CD2122"/></g></g></g></g></g></g></svg>