<svg height="50" viewBox="0 0 496 496" width="50" xmlns="http://www.w3.org/2000/svg"><path d="m380.464844 425.199219-84.464844-15.839844v-17.359375h-.046875c2.320313-1.753906 4.589844-3.601562 6.742187-5.617188 8.023438-7.519531 14.335938-16.582031 18.648438-26.519531 21.425781-.726562 38.65625-18.269531 38.65625-39.863281v-96.671875c0-21.152344-13.6875-39.808594-33.609375-46.289063l-.871094-1.101562c-20.320312-25.386719-50.609375-39.9375-83.105469-39.9375-58.679687 0-106.414062 47.734375-106.414062 106.414062v77.585938c0 21.839844 17.617188 39.601562 39.382812 39.9375 5.6875 12.734375 14.359376 23.796875 25.210938 32.0625h-.59375v17.359375l-84.464844 15.839844c-25.679687 4.816406-46.773437 23.199219-55.03125 47.992187l-7.609375 22.808594h390.203125l-7.609375-22.808594c-8.257812-24.785156-29.34375-43.175781-55.023437-47.992187zm-68.464844-145.199219h-128c0-4.414062 3.585938-8 8-8h32c17.617188 0 34.167969-6.855469 46.625-19.3125l1.375-1.375 1.375 1.375c8.890625 8.886719 20.082031 15.03125 32.351562 17.753906 3.699219.816406 6.273438 4.007813 6.273438 7.75zm-128 45.527344v-29.527344h128v32h-127.886719c-.023437-.824219-.113281-1.640625-.113281-2.472656zm142.511719 17.464844c.945312-4.921876 1.488281-9.929688 1.488281-14.992188v-30.527344c9.289062 3.3125 16 12.113282 16 22.527344 0 10.960938-7.433594 20.128906-17.488281 22.992188zm-84.097657-190.992188c27.609376 0 53.347657 12.367188 70.601563 33.929688l4.097656 5.125 2.550781.679687c14.328126 3.785156 24.335938 16.777344 24.335938 31.59375v64.878906c-4.671875-3.535156-10.054688-6.183593-16-7.390625v-2.617187c0-11.304688-7.734375-20.917969-18.816406-23.382813-9.296875-2.054687-17.769532-6.703125-24.496094-13.441406l-12.6875-12.6875-12.6875 12.6875c-9.433594 9.433594-21.976562 14.625-35.3125 14.625h-32c-13.230469 0-24 10.769531-24 24v.808594c-5.945312 1.214844-11.328125 3.855468-16 7.390625v-45.792969c0-49.847656 40.558594-90.40625 90.414062-90.40625zm-90.414062 168c0-10.414062 6.710938-19.214844 16-22.527344v28.054688c0 6.03125.695312 11.90625 1.894531 17.585937-10.269531-2.722656-17.894531-12-17.894531-23.113281zm34.527344 24h123.394531c-2.976563 11.640625-9.121094 22.230469-18.167969 30.710938-13.050781 12.21875-30.105468 18.296874-48.035156 17.152343-27.367188-1.773437-49.871094-21.566406-57.191406-47.863281zm56.167968 63.832031c1.800782.113281 3.601563.167969 5.382813.167969 11.179687 0 21.960937-2.34375 31.921875-6.703125v13.167969c-1.734375 3.816406-9.550781 17.535156-32 17.535156-22.28125 0-30.175781-13.617188-32-17.566406v-13.34375c8.265625 3.726562 17.230469 6.125 26.695312 6.742187zm-167.589843 72.167969.574219-1.742188c6.433593-19.28125 22.832031-33.585937 42.816406-37.335937l85.0625-15.953125c5.210937 8.6875 17.816406 23.03125 44.441406 23.03125s39.230469-14.34375 44.441406-23.023438l85.0625 15.953126c19.976563 3.75 36.382813 18.054687 42.816406 37.335937l.574219 1.734375zm0 0"/><path d="m112 240h-112v176h112zm-16 160h-80v-144h80zm0 0"/><path d="m32 272h48v16h-48zm0 0"/><path d="m32 304h48v16h-48zm0 0"/><path d="m32 336h48v16h-48zm0 0"/><path d="m32 368h48v16h-48zm0 0"/><path d="m208 104h-16v-48h-48v48h-16v-80h-48v80h-16v-104h-48v104h-16v16h208zm-48-32h16v32h-16zm-64-32h16v64h-16zm-64-24h16v88h-16zm0 0"/><path d="m388.6875 0-106.34375 106.34375 11.3125 11.3125 101.65625-101.65625h100.6875v-16zm0 0"/><path d="m400 32h96v16h-96zm0 0"/><path d="m400 64h96v16h-96zm0 0"/><path d="m480 96h16v16h-16zm0 0"/><path d="m400 96h64v16h-64zm0 0"/><path d="m440 184h16v24h-16zm0 0"/><path d="m408.402344 203.726562 11.3125-11.316406 16.972656 16.972656-11.316406 11.3125zm0 0"/><path d="m400 224h24v16h-24zm0 0"/><path d="m408.40625 260.28125 16.96875-16.96875 11.316406 11.3125-16.972656 16.96875zm0 0"/><path d="m440 256h16v24h-16zm0 0"/><path d="m459.308594 254.625 11.316406-11.3125 16.96875 16.96875-11.3125 11.316406zm0 0"/><path d="m472 224h24v16h-24zm0 0"/><path d="m459.308594 209.375 16.96875-16.972656 11.3125 11.3125-16.96875 16.972656zm0 0"/><path d="m440 296h16v56h-16zm0 0"/><path d="m440 368h16v16h-16zm0 0"/></svg>
