<svg id="Capa_1" enable-background="new 0 0 512 512" height="512" viewBox="0 0 512 512" width="512" xmlns="http://www.w3.org/2000/svg"><path d="m186 301.528-31.758 32v168.472h195.758v-396h-164zm8.498 8.472h103.094l-19.849 20h-103.093zm111.502-140h-108v-20h108zm0 12v20h-108v-20zm0 32v20h-108v-20zm0 32v20h-108v-20zm0 32v20h-108v-20zm-31.758 64v20h-108v-20zm0 32v20h-108v-20zm0 32v20h-108v-20zm0 32v20h-108v-20zm-108 32h108v20h-108zm171.758 20h-51.758v-151.528l31.758-32v-188.472h20zm-32-372v20h-108v-20z"/><path d="m504 226v-24h-16v-24h-11.941l-38.059-29.602-38.059 29.602h-11.941v24h-16v24h-8v276h148v-276zm-66-62.398 18.513 14.398h-37.025zm-38 26.398h76v12h-76zm-16 24h108v12h-108zm116 276h-124v-252h124z"/><path d="m432 258h-44v44h44zm-12 32h-20v-20h20z"/><path d="m488 258h-44v44h44zm-12 32h-20v-20h20z"/><path d="m432 322h-44v44h44zm-12 32h-20v-20h20z"/><path d="m488 322h-44v44h44zm-12 32h-20v-20h20z"/><path d="m432 386h-44v44h44zm-12 32h-20v-20h20z"/><path d="m488 386h-44v44h44zm-12 32h-20v-20h20z"/><path d="m124 132.95c6.98-2.479 12-9.131 12-16.95 0-9.925-8.075-18-18-18s-18 8.075-18 18c0 7.819 5.02 14.471 12 16.95v63.839l-12-8v-36.789h-12v28.789l-72-48v69.211h-16v300h140v-300h-16zm-6-22.95c3.309 0 6 2.691 6 6s-2.691 6-6 6-6-2.691-6-6 2.691-6 6-6zm-90 45.211 70.184 46.789h-70.184zm60 270.789h-76v-20h76zm0 12v20h-76v-20zm0-44h-76v-20h76zm0-32h-76v-20h76zm0-32h-76v-20h76zm0-32h-76v-20h76zm0-32h-76v-20h76zm40 224h-116v-20h88v-236h-88v-20h116z"/><path d="m434.029 124.498 3.936 3.475 3.966-3.439c1.391-1.208 34.069-29.897 34.069-60.534 0-20.953-17.047-38-38-38s-38 17.047-38 38c0 30.11 32.64 59.271 34.029 60.498zm3.971-86.498c14.337 0 26 11.663 26 26 0 19.503-17.834 39.563-25.97 47.701-8.138-8.24-26.03-28.536-26.03-47.701 0-14.337 11.663-26 26-26z"/><path d="m456 64c0-9.925-8.075-18-18-18s-18 8.075-18 18 8.075 18 18 18 18-8.075 18-18zm-18 6c-3.309 0-6-2.691-6-6s2.691-6 6-6 6 2.691 6 6-2.691 6-6 6z"/><path d="m91.13 89.131 8.485 8.484c10.138-10.137 26.632-10.137 36.77 0l8.485-8.484c-14.816-14.817-38.924-14.817-53.74 0z"/><path d="m118 58c-15.492 0-30.058 6.033-41.012 16.988l8.485 8.484c8.688-8.687 20.24-13.472 32.527-13.472s23.839 4.785 32.527 13.473l8.485-8.484c-10.954-10.956-25.52-16.989-41.012-16.989z"/><path d="m164.669 69.331 8.485-8.486c-30.412-30.41-79.896-30.41-110.309 0l8.485 8.486c25.734-25.734 67.606-25.734 93.339 0z"/><path d="m232 78h80c12.131 0 22-9.869 22-22 0-10.289-7.099-18.95-16.656-21.344-2.394-9.557-11.055-16.656-21.344-16.656-5.694 0-10.89 2.174-14.801 5.736-5.349-8.26-14.646-13.736-25.199-13.736-14.736 0-27.024 10.679-29.532 24.704-9.462 2.46-16.468 11.075-16.468 21.296 0 12.131 9.869 22 22 22zm0-32h6v-6c0-9.925 8.075-18 18-18s18 8.075 18 18h12c0-5.514 4.486-10 10-10s10 4.486 10 10v6h6c5.514 0 10 4.486 10 10s-4.486 10-10 10h-80c-5.514 0-10-4.486-10-10s4.486-10 10-10z"/></svg>