<svg id="Capa_1" enable-background="new 0 0 512 512" height="512" viewBox="0 0 512 512" width="512" xmlns="http://www.w3.org/2000/svg"><g><g><path d="m258.877 383.303c4.143 0 7.5-3.358 7.5-7.5s-3.357-7.5-7.5-7.5h-34.528c-4.143 0-7.5 3.358-7.5 7.5s3.357 7.5 7.5 7.5z"/><path d="m233.96 106v27.213c0 4.142 3.357 7.5 7.5 7.5s7.5-3.358 7.5-7.5v-27.213c0-4.142-3.357-7.5-7.5-7.5s-7.5 3.358-7.5 7.5z"/><path d="m198.96 183v39c0 4.142 3.357 7.5 7.5 7.5s7.5-3.358 7.5-7.5v-39c0-4.142-3.357-7.5-7.5-7.5s-7.5 3.358-7.5 7.5z"/><path d="m276.46 133.5c-4.143 0-7.5 3.358-7.5 7.5v70c0 4.142 3.357 7.5 7.5 7.5s7.5-3.358 7.5-7.5v-70c0-4.142-3.357-7.5-7.5-7.5z"/><path d="m365.038 53.102c11.98 3.901 15.41 7.33 19.311 19.312 1.279 3.927 4.911 6.565 9.036 6.565s7.757-2.639 9.037-6.567c3.899-11.98 7.329-15.409 19.311-19.31 3.928-1.279 6.566-4.911 6.566-9.037 0-4.125-2.639-7.757-6.566-9.036-11.981-3.901-15.411-7.33-19.312-19.313-1.28-3.926-4.911-6.564-9.036-6.564s-7.756 2.638-9.037 6.567c-3.899 11.981-7.329 15.41-19.309 19.31-3.929 1.279-6.568 4.911-6.568 9.037 0 4.125 2.639 7.757 6.567 9.036zm23.305-14.079c1.896-1.895 3.547-4.021 5.042-6.537 1.495 2.516 3.146 4.642 5.042 6.537s4.021 3.546 6.537 5.042c-2.516 1.495-4.642 3.146-6.537 5.042s-3.547 4.021-5.042 6.537c-1.495-2.516-3.146-4.642-5.042-6.537-1.895-1.895-4.021-3.546-6.537-5.042 2.515-1.495 4.642-3.147 6.537-5.042z"/><path d="m124 247.164h-5.164v-5.164c0-4.142-3.357-7.5-7.5-7.5s-7.5 3.358-7.5 7.5v5.164h-5.163c-4.143 0-7.5 3.358-7.5 7.5s3.357 7.5 7.5 7.5h5.163v5.164c0 4.142 3.357 7.5 7.5 7.5s7.5-3.358 7.5-7.5v-5.164h5.164c4.143 0 7.5-3.358 7.5-7.5s-3.357-7.5-7.5-7.5z"/><path d="m387.989 164.271c-4.143 0-7.5 3.358-7.5 7.5v5.164h-5.163c-4.143 0-7.5 3.358-7.5 7.5s3.357 7.5 7.5 7.5h5.163v5.164c0 4.142 3.357 7.5 7.5 7.5s7.5-3.358 7.5-7.5v-5.164h5.164c4.143 0 7.5-3.358 7.5-7.5s-3.357-7.5-7.5-7.5h-5.164v-5.164c0-4.142-3.357-7.5-7.5-7.5z"/><path d="m460.293 275.5c4.143 0 7.5-3.358 7.5-7.5v-40.482c0-6.893-5.607-12.5-12.5-12.5h-16.273v-99.748c0-9.905-8.059-17.963-17.963-17.963h-18.057c-4.143 0-7.5 3.358-7.5 7.5s3.357 7.5 7.5 7.5h18.057c1.634 0 2.963 1.329 2.963 2.963v99.748h-125.091c-6.893 0-12.5 5.607-12.5 12.5v59.076c-6.094-3.025-12.951-4.733-20.204-4.733-5.986 0-11.834 1.181-17.265 3.402v-119.263c0-4.142-3.357-7.5-7.5-7.5s-7.5 3.358-7.5 7.5v105.181c-11.268-12.465-27.518-20.063-45.273-20.063-4.442 0-8.815.472-13.085 1.409-.43-40.409-33.436-73.149-73.944-73.149-15.325 0-30.117 4.781-42.45 13.438v-77.545c0-1.634 1.329-2.963 2.963-2.963h88.035l10.397 10.059-57.495 14.391c-3.338.835-5.679 3.834-5.679 7.275s2.341 6.44 5.679 7.275l70.592 17.668c.611.153 1.224.227 1.827.227 3.359 0 6.417-2.274 7.27-5.681 1.006-4.018-1.437-8.091-5.454-9.096l-41.524-10.393 41.524-10.394c2.643-.661 4.718-2.703 5.423-5.334s-.071-5.438-2.029-7.331l-30.764-29.762 41.157 11.761c2.617.748 5.437.017 7.364-1.908 1.926-1.926 2.656-4.745 1.907-7.364l-11.761-41.157 29.76 30.763c1.896 1.958 4.702 2.734 7.332 2.03 2.631-.705 4.673-2.781 5.334-5.424l10.394-41.523 10.393 41.523c.661 2.643 2.703 4.719 5.334 5.424 2.633.705 5.438-.072 7.332-2.03l29.763-30.765-11.761 41.158c-.749 2.619-.019 5.438 1.907 7.364 1.926 1.925 4.743 2.656 7.364 1.908l41.156-11.761-30.764 29.762c-1.958 1.894-2.734 4.7-2.029 7.331s2.78 4.673 5.423 5.334l41.524 10.394-41.524 10.393c-4.018 1.005-6.46 5.078-5.454 9.096s5.075 6.463 9.097 5.455l70.593-17.668c3.338-.835 5.679-3.834 5.679-7.275s-2.341-6.44-5.679-7.275l-57.495-14.391 10.397-10.058h35.284c4.143 0 7.5-3.358 7.5-7.5s-3.357-7.5-7.5-7.5h-19.78l16.695-16.151c2.473-2.392 3.001-6.16 1.28-9.14s-5.249-4.408-8.556-3.461l-56.987 16.283 16.284-56.987c.946-3.308-.481-6.835-3.461-8.556-2.979-1.72-6.749-1.192-9.141 1.28l-41.21 42.597-14.39-57.495c-.834-3.338-3.834-5.679-7.274-5.679s-6.44 2.341-7.275 5.679l-14.391 57.495-41.21-42.597c-2.392-2.473-6.16-3-9.141-1.28-2.979 1.72-4.407 5.248-3.461 8.556l16.285 56.987-56.987-16.285c-3.309-.945-6.835.482-8.556 3.461s-1.192 6.748 1.28 9.14l16.696 16.152h-72.53c-9.904 0-17.963 8.058-17.963 17.963v279.366c0 12.79 10.405 23.195 23.194 23.195h70.599c4.143 0 7.5-3.358 7.5-7.5s-3.357-7.5-7.5-7.5h-70.599c-4.519 0-8.194-3.676-8.194-8.195v-40.63h227.222v16.797c0 6.893 5.607 12.5 12.5 12.5h125.091v11.333c0 4.519-3.677 8.195-8.195 8.195h-242.825c-4.143 0-7.5 3.358-7.5 7.5s3.357 7.5 7.5 7.5h21.354v36.27h-51.094c-24.905 0-45.168 20.262-45.168 45.167 0 7.02 5.711 12.731 12.731 12.731h261.579c7.021 0 12.731-5.711 12.731-12.731 0-24.905-20.262-45.167-45.167-45.167h-51.094v-36.27h126.951c12.79 0 23.195-10.405 23.195-23.195v-11.333h16.273c6.893 0 12.5-5.607 12.5-12.5v-67.804c0-4.142-3.357-7.5-7.5-7.5s-7.5 3.358-7.5 7.5v65.303h-151.362v-138.285h151.364v37.982c0 4.142 3.357 7.5 7.5 7.5zm-173.864 63.506h-227.222v-126.555c11.097-11.519 26.415-18.074 42.45-18.074 32.504 0 58.948 26.444 58.948 58.948 0 2.847-.213 5.748-.634 8.622-.395 2.693.702 5.388 2.863 7.042s5.049 2.007 7.546.922c5.796-2.518 11.955-3.794 18.306-3.794 21.204 0 39.567 14.358 44.656 34.916.634 2.562 2.568 4.602 5.093 5.372 2.526.77 5.269.155 7.224-1.616 5.642-5.113 12.945-7.929 20.565-7.929 7.737 0 14.807 2.89 20.204 7.639v34.507zm83.621 157.994h-256.874c1.165-15.578 14.213-27.899 30.084-27.899h196.707c15.871 0 28.918 12.321 30.083 27.899zm-96.177-42.899h-64.52v-36.27h64.52z"/><path d="m427.334 275.966h-5.726c-3.166-9.706-12.299-16.741-23.048-16.741s-19.882 7.035-23.048 16.741h-48.625c-4.143 0-7.5 3.358-7.5 7.5s3.357 7.5 7.5 7.5h48.625c3.166 9.706 12.299 16.741 23.048 16.741s19.882-7.035 23.048-16.741h5.726c4.143 0 7.5-3.358 7.5-7.5s-3.357-7.5-7.5-7.5zm-28.773 16.741c-5.096 0-9.241-4.146-9.241-9.241s4.146-9.241 9.241-9.241 9.241 4.146 9.241 9.241-4.146 9.241-9.241 9.241z"/><path d="m427.334 322.789h-47.578c-3.166-9.706-12.299-16.741-23.048-16.741s-19.882 7.035-23.048 16.741h-6.772c-4.143 0-7.5 3.358-7.5 7.5s3.357 7.5 7.5 7.5h6.772c3.167 9.706 12.299 16.741 23.048 16.741s19.881-7.035 23.048-16.741h47.578c4.143 0 7.5-3.358 7.5-7.5s-3.357-7.5-7.5-7.5zm-70.626 16.74c-5.096 0-9.241-4.146-9.241-9.241 0-5.096 4.146-9.241 9.241-9.241s9.241 4.146 9.241 9.241c0 5.096-4.145 9.241-9.241 9.241z"/><path d="m327.934 259.139c4.334 0 7.847-3.513 7.847-7.847s-3.513-7.847-7.847-7.847-7.847 3.513-7.847 7.847 3.513 7.847 7.847 7.847z"/><circle cx="352" cy="251.292" r="7.847"/><circle cx="426.288" cy="251.292" r="7.847"/><path d="m73.883 57.125c7.51 2.598 9.691 4.78 12.289 12.288 1.322 3.824 4.93 6.393 8.977 6.393s7.654-2.569 8.976-6.391c2.599-7.51 4.78-9.692 12.29-12.29h.002c3.822-1.324 6.39-4.931 6.389-8.977 0-4.045-2.568-7.652-6.391-8.975-7.51-2.598-9.692-4.781-12.289-12.288-1.322-3.824-4.93-6.393-8.977-6.393s-7.654 2.569-8.976 6.391c-2.598 7.509-4.78 9.692-12.289 12.29-3.823 1.322-6.393 4.929-6.393 8.975-.001 4.045 2.568 7.653 6.392 8.977zm21.265-14.806c1.648 2.273 3.556 4.181 5.83 5.83-2.274 1.648-4.182 3.556-5.83 5.83-1.648-2.274-3.556-4.182-5.83-5.83 2.274-1.649 4.182-3.557 5.83-5.83z"/></g></g></svg>