<svg width="60" height="60" xmlns="http://www.w3.org/2000/svg"><g id="Page-1" stroke="none" stroke-width="1" fill="none" fill-rule="evenodd"><g id="stage-battery" fill="#9B9B9B"><path d="M54.556 23.857H53.11v-7.143c0-.8-.635-1.428-1.444-1.428H5.444c-.808 0-1.444.628-1.444 1.428v28.572c0 .8.636 1.428 1.444 1.428h46.223c.809 0 1.444-.628 1.444-1.428v-7.143h1.445c.808 0 1.444-.629 1.444-1.429V25.286c0-.8-.636-1.429-1.444-1.429zM53.11 35.286h-1.444c-.81 0-1.445.628-1.445 1.428v7.143H6.89V18.143h43.333v7.143c0 .8.636 1.428 1.445 1.428h1.444v8.572z" id="Shape"/><path d="M40.111 30.314h-8.493V23.63c0-.229-.116-.458-.347-.629a.744.744 0 00-.693 0l-13.868 7.37c-.289.172-.462.515-.347.8.058.343.347.515.694.515h8.55v6.685c0 .229.116.458.348.629.115.057.23.114.346.114.116 0 .231 0 .347-.057l13.867-7.371c.288-.172.462-.515.346-.8-.115-.4-.404-.572-.75-.572zM26.996 37.23V31a.76.76 0 00-.752-.743H19.89l10.284-5.486V31c0 .4.347.743.751.743h6.356l-10.284 5.486z" id="Shape"/></g></g></svg>