<svg width="60" height="60" xmlns="http://www.w3.org/2000/svg"><g id="Page-1" stroke="none" stroke-width="1" fill="none" fill-rule="evenodd"><g id="stage-bluetooth" fill="#9B9B9B"><path d="M44.229 14.206c6.67 6.537 6.614 14.748 6.614 15.794 0 0 .656 8.357-6.609 15.797-.218.224-.387.496-.387.822 0 .612.526 1.108 1.174 1.108.4 0 .981-.463.981-.463C53.898 39.257 53.223 30 53.223 30c0-10.61-7.163-17.251-7.163-17.251-.212-.288-.64-.476-1.039-.476-.648 0-1.174.496-1.174 1.108 0 .326.15.619.387.822l-.005.003zm-5.027 4.473c5.1 5.1 4.76 11.258 4.76 11.258 0 5.385-2.47 9.054-4.78 11.399-.257.203-.422.51-.422.851 0 .612.526 1.108 1.174 1.108.34 0 .645-.136.86-.353 0 0 5.548-4.822 5.548-12.912 0-8.275-5.549-12.972-5.549-12.972a1.205 1.205 0 00-.859-.353c-.648 0-1.174.496-1.174 1.108 0 .35.173.663.442.866zm-1.893 11.336c0 2.889-1.267 5.468-3.287 7.309l.016.013a1.063 1.063 0 00-.235.665c0 .612.526 1.108 1.174 1.108.319 0 .608-.12.82-.314l.012.01c2.392-2.25 3.88-5.363 3.88-8.821 0-3.443-1.488-6.548-3.879-8.794l-.015.013a1.207 1.207 0 00-.818-.314c-.648 0-1.174.496-1.174 1.108 0 .25.087.48.234.664l-.01.01c2.033 1.864 3.282 4.475 3.282 7.343zm-6 0c0 3.008-2.071 3.07-2.071 4.17 0 .612.525 1.108 1.174 1.108.31 0 .856-.254.856-.254 1.47-1.237 2.421-3.026 2.421-5.024 0-1.975-.93-3.799-2.416-5.06 0 0-1.014-.818-1.76.16-.563.737.062 1.435.41 1.782.821.822 1.385 1.91 1.385 3.118zm-1.101-9.49a1.346 1.346 0 000-1.907L18.755 7.167a1.348 1.348 0 00-2.299.951v18.068L9.06 18.79a1.347 1.347 0 00-1.903 1.905l9.3 9.296v.475L7.696 39.23a1.344 1.344 0 00.952 2.296c.343 0 .69-.133.955-.394l6.857-6.86v17.613a1.345 1.345 0 001.347 1.344c.35 0 .694-.136.951-.391l11.453-11.453a1.345 1.345 0 000-1.906l-9.477-9.48 1.125-1.124 8.349-8.35zm-11.059-9.158l8.206 8.2-7.403 7.404-.803.802V11.367zm0 37.272v-16.4c.003 0 .009.005.011.005l8.19 8.19-8.201 8.205z" id="Shape"/></g></g></svg>