<svg width="60" height="60" xmlns="http://www.w3.org/2000/svg"><g id="Page-1" stroke="none" stroke-width="1" fill="none" fill-rule="evenodd"><g id="stage-water" fill="#9B9B9B"><path d="M16.32 44.607h-.004c-2.043-.002-3.998-1.293-5.813-3.84a1.55 1.55 0 01.364-2.163 1.556 1.556 0 012.166.364c.825 1.157 2.065 2.536 3.285 2.537h.001c1.222 0 2.466-1.38 3.294-2.536l.001-.003c1.822-2.546 3.781-3.838 5.825-3.838h.003c2.03.002 3.974 1.277 5.781 3.79l.037.05c.824 1.157 2.064 2.536 3.286 2.537 1.224 0 2.467-1.38 3.296-2.539l.001-.002c1.823-2.545 3.783-3.836 5.824-3.836h.006c2.042.003 3.997 1.295 5.81 3.84a1.55 1.55 0 01-.364 2.164 1.555 1.555 0 01-2.166-.365c-.824-1.156-2.063-2.535-3.283-2.537h-.003c-1.222 0-2.467 1.38-3.297 2.539-1.821 2.546-3.78 3.838-5.823 3.838h-.003c-2.03-.002-3.974-1.276-5.78-3.79l-.036-.05c-.825-1.156-2.065-2.536-3.287-2.537h-.002c-1.224 0-2.468 1.38-3.297 2.54l-.001.002c-1.822 2.545-3.78 3.835-5.822 3.835zm0-9.443h-.004c-2.043-.002-3.998-1.293-5.813-3.84a1.55 1.55 0 01.364-2.163 1.554 1.554 0 012.166.364c.825 1.157 2.065 2.536 3.285 2.536h.001c1.223 0 2.467-1.38 3.295-2.538l.001-.002c1.821-2.545 3.78-3.836 5.823-3.836h.003c2.03.001 3.975 1.276 5.781 3.79l.037.05c.825 1.157 2.064 2.536 3.286 2.536h.001c1.223 0 2.467-1.38 3.295-2.538l.002-.002c1.823-2.545 3.782-3.836 5.824-3.836h.005c2.043.002 3.997 1.295 5.811 3.84a1.55 1.55 0 01-.365 2.163 1.555 1.555 0 01-2.166-.364c-.824-1.157-2.063-2.536-3.283-2.537h-.002c-1.223 0-2.468 1.38-3.298 2.539-1.82 2.546-3.78 3.838-5.823 3.838h-.003c-2.03-.002-3.973-1.276-5.779-3.79l-.036-.05c-.826-1.157-2.066-2.536-3.288-2.537h-.001c-1.224 0-2.467 1.38-3.295 2.537l-.002.002c-1.82 2.547-3.78 3.838-5.823 3.838zm0-9.444h-.004c-2.043 0-3.998-1.292-5.813-3.838a1.55 1.55 0 01.364-2.163 1.555 1.555 0 012.166.363c.825 1.157 2.065 2.535 3.285 2.537h.001c1.222 0 2.465-1.378 3.293-2.535 0-.002.001-.002.002-.003 1.821-2.547 3.78-3.84 5.824-3.84h.003c2.03.002 3.975 1.277 5.781 3.792l.037.049c.825 1.156 2.064 2.535 3.286 2.536h.001c1.223 0 2.466-1.379 3.294-2.537l.002-.001c1.823-2.547 3.783-3.838 5.825-3.838h.005c2.043.002 3.997 1.294 5.811 3.84a1.55 1.55 0 01-.365 2.163 1.554 1.554 0 01-2.166-.364c-.824-1.157-2.063-2.536-3.283-2.537h-.002c-1.223 0-2.469 1.38-3.299 2.54l-.001.002c-1.82 2.544-3.78 3.834-5.82 3.834h-.004c-2.03-.001-3.973-1.277-5.779-3.79l-.036-.049c-.826-1.157-2.066-2.537-3.288-2.537h-.001c-1.224 0-2.468 1.38-3.297 2.539v.001c-1.821 2.546-3.78 3.836-5.823 3.836z" id="Shape"/></g></g></svg>