<svg width="60" height="60" xmlns="http://www.w3.org/2000/svg"><g id="Page-1" stroke="none" stroke-width="1" fill="none" fill-rule="evenodd"><g id="stage-fingerprint" fill="#9B9B9B"><path d="M13.04 48.975l-1.6-.32c.32-1.688-.56-3.375-1.44-4.981-.24-.482-.56-.964-.72-1.446-.96-1.928-1.6-3.535-2.08-5.06l1.52-.483c.48 1.446 1.12 3.053 2 4.9.16.402.48.884.72 1.285.88 1.687 2.08 3.856 1.6 6.105zM52.88 37.81l-1.52-.482c.72-2.25 1.04-4.66 1.04-7.23 0-6.667-2.72-12.932-7.6-17.11l1.04-1.204C51.04 16.202 54 22.949 54 30.098c0 2.732-.4 5.302-1.12 7.712zM6.72 35.48C6.24 33.633 6 31.866 6 30.098c0-7.872 3.84-15.182 10.24-19.76l.96 1.285c-6 4.257-9.6 11.166-9.6 18.475 0 1.607.24 3.213.64 4.98l-1.52.402zm36.8-23.536C39.76 9.133 35.04 7.607 30 7.607c-4.08 0-8 1.124-11.44 3.213l-.8-1.366A23.495 23.495 0 0130 6c5.36 0 10.4 1.607 14.48 4.659l-.96 1.285zm1.2 37.915l-1.44-.723c.64-1.285 1.04-1.767 3.68-4.338 1.6-1.606 2.88-3.534 3.84-5.864l1.52.563c-1.04 2.49-2.4 4.659-4.16 6.426-2.64 2.57-2.88 2.811-3.44 3.936zm-28.8 1.125l-1.52-.563c1.52-4.177-.24-6.667-1.2-7.952-.4-.562-.8-1.125-1.12-1.687l1.36-.803c.32.562.64 1.044 1.04 1.526 1.04 1.285 3.28 4.498 1.44 9.479zm31.92-9.8l-1.36-.804c1.76-2.891 2.72-6.587 2.72-10.282 0-2.811-.56-5.462-1.76-8.032l1.44-.643a20.196 20.196 0 011.92 8.675c0 4.017-1.04 7.953-2.96 11.086zm-36.48-1.768c-1.44-2.891-2.16-6.024-2.16-9.318 0-3.695.96-7.31 2.8-10.442l1.36.803c-1.68 2.892-2.56 6.266-2.56 9.64 0 3.052.64 5.944 2 8.594l-1.44.723zm35.52-18.555C43.76 15.157 38 11.382 31.6 10.9l.16-1.607c6.96.563 13.12 4.58 16.56 10.764l-1.44.804zm-32.8-1.607l-1.36-.884c3.92-5.703 10.4-9.157 17.28-9.157h.24v1.607H30c-6.32 0-12.32 3.132-15.92 8.434zm27.04 32.131l-1.6-.321c.88-4.338 3.36-6.748 5.12-8.595.4-.402.72-.723 1.04-1.125l1.2 1.045c-.32.401-.72.722-1.12 1.124-1.68 1.928-3.92 4.097-4.64 7.872zM19.2 53.233l-1.52-.482c1.6-5.382-.08-9.8-.88-11.005l1.36-.884c1.04 1.768 2.72 6.587 1.04 12.37zm23.84-11.567l-1.2-1.125c2.8-2.892 4.16-6.426 4.16-10.443 0-3.855-1.36-7.55-3.92-10.442l1.2-1.045a17.913 17.913 0 014.24 11.568c.08 4.337-1.44 8.273-4.48 11.487zM15.76 40.46a17.61 17.61 0 01-3.36-10.363c0-4.82 1.92-9.398 5.44-12.772l1.12 1.125c-3.2 3.052-4.88 7.149-4.88 11.567 0 3.454 1.04 6.667 3.04 9.479l-1.36.964zm25.28-21.93A15.718 15.718 0 0030 14.033c-3.68 0-7.04 1.205-9.92 3.454l-.96-1.285c3.12-2.49 6.88-3.776 10.88-3.776 4.56 0 8.88 1.767 12.16 4.9l-1.12 1.205zm-3.2 34.621h-1.6c.08-4.9 1.76-9.237 3.28-10.362.4-.321.8-.642 1.2-1.044l1.04 1.205c-.4.401-.88.723-1.28 1.124-.88.643-2.56 4.258-2.64 9.077zm-3.44 1.045h-1.6c0-4.82 1.12-8.113 3.28-11.246l1.36.964c-2.08 2.892-3.04 6.265-3.04 10.282zm3.84-11.808l-1.28-1.045c.72-.964 1.52-1.687 2-2.249l.64-.643c2.08-2.249 3.2-5.301 3.2-8.354 0-2.65-.8-5.221-2.32-7.39l1.28-.964c1.76 2.41 2.64 5.302 2.64 8.354 0 3.454-1.28 6.828-3.52 9.479-.16.241-.4.482-.72.723-.56.562-1.2 1.205-1.92 2.089zm-17.84-.563a9.597 9.597 0 00-.64-1.606c-.32-.563-.72-1.125-1.2-1.687-.56-.643-1.12-1.285-1.44-2.089-1.04-2.008-1.52-4.096-1.52-6.346 0-3.293 1.12-6.587 3.28-9.157l1.2 1.044a12.874 12.874 0 00-2.88 8.113c0 2.009.4 3.856 1.28 5.623.32.643.8 1.125 1.28 1.768.56.642 1.04 1.285 1.44 2.008.24.562.48 1.124.72 1.847l-1.52.482zm19.12-20.323c-2.4-2.73-5.92-4.257-9.52-4.257-3.36 0-6.48 1.285-8.88 3.615L20 19.736c2.64-2.65 6.24-4.097 10-4.097 4.08 0 8 1.768 10.72 4.82l-1.2 1.044zM22.4 54.438l-1.6-.322c0-.08 1.04-5.944 0-10.844l1.6-.321c1.04 5.301 0 11.246 0 11.487zm7.6.24c-.16-2.57.08-5.542.72-8.193l1.6.322c-.56 2.49-.8 5.301-.64 7.791l-1.68.08zm2.64-9.317l-1.52-.482c.96-3.213 2.32-5.463 4.08-6.668 2.08-1.365 3.6-3.454 4.16-5.863l1.52.401c-.64 2.812-2.4 5.221-4.8 6.828-1.44.964-2.64 2.972-3.44 5.784zm-8.48-.482c-.56-2.972-1.68-5.141-2.72-6.989-.32-.562-.64-1.205-.96-1.767-.88-1.848-1.36-3.775-1.44-5.703l1.6-.08c.08 1.686.48 3.453 1.28 5.06.24.562.56 1.125.88 1.687 1.12 2.008 2.32 4.257 2.88 7.47l-1.52.322zm16.96-13.817l-1.6-.16v-.884c0-1.848-.56-3.615-1.52-5.221-1.44-2.25-3.68-3.776-6.32-4.258l.32-1.606c3.04.562 5.68 2.33 7.36 4.98 1.2 1.848 1.76 3.936 1.76 6.105.08.402.08.723 0 1.044zm-20.4-2.169l-1.6-.16c.32-3.374 2-6.266 4.8-8.113 1.92-1.286 4.16-1.848 6.48-1.768l-.08 1.607c-1.92-.08-3.92.482-5.52 1.526-2.4 1.526-3.84 4.017-4.08 6.908zm4.8 25.545l-1.6-.322c.56-2.891.72-5.462.48-7.791l1.6-.161c.24 2.57.08 5.221-.48 8.274zm5.36-12.21l-1.6-.16c0-.161.48-4.098 4.72-7.07l.88 1.286c-3.6 2.57-4 5.783-4 5.944zm5.2-6.748l-1.12-1.205c.88-.803 1.44-2.33 1.44-4.177 0-2.41-1.28-4.578-3.44-5.703l.72-1.446C36.4 24.395 38 27.126 38 30.1c0 1.365-.24 3.855-1.92 5.381zM23.6 29.616l-1.6-.08c.32-4.177 3.76-7.47 8-7.47.8 0 1.6.16 2.4.401l-.48 1.526c-.64-.24-1.28-.32-1.92-.32-3.36 0-6.16 2.65-6.4 5.943zm1.28 8.917c-.08-.482-.32-1.687-.56-2.33-.24-.562-.56-1.124-.88-1.767-.56-1.044-1.2-2.169-1.36-3.374l1.6-.321c.16.964.72 1.928 1.2 2.892.4.642.72 1.285.96 1.928.32.883.56 2.49.64 2.65l-1.6.322zm2.56 16.387c0-1.125-.08-2.17-.08-3.213l1.6-.08c.08 1.043.08 2.088.08 3.212l-1.6.08zm-.24-4.66c-.08-.963-.08-1.847-.16-2.73-.08-1.045-.16-2.089-.16-3.053l1.6-.08c0 .964.08 1.928.16 2.972.08.883.08 1.767.16 2.731l-1.6.16zm-.32-7.229v-.803c0-2.33.24-3.936.8-5.221l1.52.642c-.48 1.125-.64 2.49-.64 4.579v.723l-1.68.08zm2.8-6.506l-1.28-.884c.4-.482.8-.964 1.36-1.366l.16-.08.16-.08c1.12-.322 2.08-1.045 2.64-2.008l1.36.803c-.72 1.285-2 2.33-3.44 2.731-.4.241-.64.562-.96.884zm4.96-5.222l-1.6-.321c.08-.241.08-.562.08-.803 0-1.286-.8-2.49-2-2.972l.64-1.527c1.84.723 3.04 2.49 3.04 4.499 0 .321-.08.723-.16 1.124zm-7.84-1.847l-1.6-.16c.24-2.25 2.4-4.017 4.8-4.017h.08v1.606H30c-1.6 0-3.04 1.205-3.2 2.57zm-.4 4.9c-.64-.884-.96-2.49-1.12-3.374l1.6-.241c.16 1.205.48 2.25.8 2.731l-1.28.884zm2.08-1.928c-.4-.643-.56-1.285-.56-1.848 0-1.124.8-2.008 2.08-2.169h.24c1.2 0 2 .804 2 1.848 0 .321-.08.643-.24 1.044l-1.44-.642c.08-.161.08-.322.08-.402 0-.241-.32-.241-.4-.241h-.08c-.64.08-.64.402-.64.562 0 .241.08.563.4 1.125l-1.44.723z" id="Shape"/></g></g></svg>