<svg width="60" height="60" xmlns="http://www.w3.org/2000/svg"><g id="Page-1" stroke="none" stroke-width="1" fill="none" fill-rule="evenodd"><g id="stage-headphones" fill="#9B9B9B"><g id="Group" transform="translate(9 5)"><path d="M21 36.268h-5.25c-.58 0-1.05-.478-1.05-1.066V20.268c0-.59.47-1.067 1.05-1.067H21c4.633 0 8.4 3.827 8.4 8.534 0 4.706-3.767 8.533-8.4 8.533zm-4.2-2.133H21c3.473 0 6.3-2.872 6.3-6.4 0-3.53-2.827-6.4-6.3-6.4h-4.2v12.8z" id="Shape"/><path d="M15.75 34.135h-6.3c-.58 0-1.05-.478-1.05-1.067V22.401c0-.589.47-1.067 1.05-1.067h6.3c.58 0 1.05.478 1.05 1.067v10.667c0 .589-.47 1.067-1.05 1.067zM10.5 32h4.2v-8.533h-4.2V32z" id="Shape"/><path d="M9.45 44.802h-8.4c-.58 0-1.05-.478-1.05-1.067V28.801c0-4.747 3.444-7.467 9.45-7.467.58 0 1.05.478 1.05 1.067v21.334c0 .59-.47 1.067-1.05 1.067zM2.1 42.669h6.3v-19.17c-3.083.201-6.3 1.353-6.3 5.302V42.67z" id="Shape"/><path d="M5.25 50.136c-.58 0-1.05-.478-1.05-1.067v-4.267c0-.589.47-1.067 1.05-1.067.58 0 1.05.478 1.05 1.067v4.267c0 .589-.47 1.067-1.05 1.067zm21-33.069H21c-4.633 0-8.4-3.827-8.4-8.533C12.6 3.827 16.367 0 21 0h5.25c.578 0 1.05.478 1.05 1.067V16a1.06 1.06 0 01-1.05 1.066zM21 2.133c-3.473 0-6.3 2.872-6.3 6.4 0 3.53 2.827 6.401 6.3 6.401h4.2v-12.8H21z" id="Shape"/><path d="M32.55 14.934h-6.3a1.06 1.06 0 01-1.05-1.067V3.2a1.06 1.06 0 011.05-1.067h6.3c.578 0 1.05.478 1.05 1.067v10.667a1.06 1.06 0 01-1.05 1.067zm-5.25-2.133h4.2V4.267h-4.2V12.8z" id="Shape"/><path d="M40.95 25.601h-8.4a1.06 1.06 0 01-1.05-1.067V3.2a1.06 1.06 0 011.05-1.067c6.004 0 9.45 2.72 9.45 7.467v14.934a1.06 1.06 0 01-1.05 1.067zm-7.35-2.133h6.3V9.6c0-3.955-3.217-5.107-6.3-5.301v19.169z" id="Shape"/><path d="M36.75 50.136a1.06 1.06 0 01-1.05-1.067V25.6a1.06 1.06 0 011.05-1.067c.578 0 1.05.478 1.05 1.067v23.47a1.06 1.06 0 01-1.05 1.067z" id="Shape"/></g></g></g></svg>