<svg xmlns:dc="http://purl.org/dc/elements/1.1/" xmlns:cc="http://creativecommons.org/ns#" xmlns:rdf="http://www.w3.org/1999/02/22-rdf-syntax-ns#" xmlns:svg="http://www.w3.org/2000/svg" xmlns="http://www.w3.org/2000/svg" xmlns:sodipodi="http://sodipodi.sourceforge.net/DTD/sodipodi-0.dtd" xmlns:inkscape="http://www.inkscape.org/namespaces/inkscape" version="1.1" width="69" height="54"><rect id="backgroundrect" width="100%" height="100%" x="0" y="0" fill="none" stroke="none" class=""/><g class="currentLayer"><title>Layer 1</title><g id="svg_1" class=""><path style="font-size:medium;font-style:normal;font-variant:normal;font-weight:normal;font-stretch:normal;text-indent:0;text-align:start;text-decoration:none;line-height:normal;letter-spacing:normal;word-spacing:normal;text-transform:none;direction:ltr;block-progression:tb;writing-mode:lr-tb;text-anchor:start;baseline-shift:baseline;opacity:1;color:#000000;fill:#000000;fill-opacity:1;stroke:none;stroke-width:4;marker:none;visibility:visible;display:inline;overflow:visible;enable-background:accumulate;font-family:Sans;-inkscape-font-specification:Sans" d="M15.34611906251908,-0.14755223498324999 C14.627419281801599,-0.1446137372093405 13.819159696971093,0.6556400685808933 13.821515209923355,1.4408249401109519 L13.845337145120162,7.794333640487761 L7.723099799540458,7.794333640487761 C3.948634230159593,7.794333640487761 0.8623824628597011,11.009677614145069 0.8623824628597011,14.942030928411672 L0.8623824628597011,46.70957443029572 C0.8623824628597011,50.64191980267646 3.948634230159593,53.85727171821962 7.723099799540458,53.85727171821962 L61.0842346403908,53.85727171821962 C64.85870020977165,53.85727171821962 67.94495197707155,50.64191980267646 67.94495197707155,46.70957443029572 L67.94495197707155,14.942030928411672 C67.94495197707155,11.009677614145069 64.85870020977165,7.794333640487761 61.0842346403908,7.794333640487761 L54.9619972948111,7.794333640487761 L54.985819230007905,1.4408249401109519 C54.988487286749944,0.5395733774537856 54.17991515812965,-0.14460420694631526 53.46121537741218,-0.14755223498324999 C52.74810860592795,-0.15049073275715893 51.93894188180514,0.6391963938757141 51.936611524816456,1.4160065467501053 L51.91278958961965,7.794333640487761 L16.894544850311608,7.794333640487761 L16.8707229151148,1.4160065467501053 C16.86804494844771,0.5231551167834324 16.05922583400331,-0.15047723155120488 15.34611906251908,-0.14755223498324999 zM7.723099799540458,10.971087990676164 L61.0842346403908,10.971087990676164 C63.2221812867723,10.971087990676164 64.8957442718801,12.714657557662978 64.8957442718801,14.942030928411672 L64.8957442718801,46.70957443029572 C64.8957442718801,48.93695574293026 63.2221812867723,50.68051736803122 61.0842346403908,50.68051736803122 L58.82115079669402,50.68051736803122 L58.82115079669402,42.71381309919936 A1.5247563129809836,1.5885360128117114 0 0 0 57.296546944098296,41.12543592410516 L37.47669686035388,41.12543592410516 A1.5247563129809836,1.5885360128117114 0 0 0 37.30994331397623,41.12543592410516 A1.5247563129809836,1.5885360128117114 0 0 0 35.952093007758165,42.71381309919936 L35.952093007758165,50.68051736803122 L7.723099799540458,50.68051736803122 C5.585153153158957,50.68051736803122 3.9115901680511485,48.93695574293026 3.9115901680511485,46.70957443029572 L3.9115901680511485,14.942030928411672 C3.9115901680511485,12.714657557662978 5.585153153158957,10.971087990676164 7.723099799540458,10.971087990676164 zM39.001300712949615,44.302190274293565 L55.77194309150257,44.302190274293565 L55.77194309150257,50.65569897467037 L39.001300712949615,50.65569897467037 L39.001300712949615,44.302190274293565 z" id="svg_2"/></g></g></svg>