<svg xmlns="http://www.w3.org/2000/svg" width="69" height="54"><rect id="backgroundrect" width="100%" height="100%" x="0" y="0" fill="none" stroke="none"/><g class="currentLayer"><g id="svg_1"><path style="text-indent:0;text-align:start;line-height:normal;text-transform:none;block-progression:tb;marker:none;-inkscape-font-specification:Sans" d="M15.346-.148c-.719.003-1.527.804-1.524 1.589l.023 6.353H7.723c-3.774 0-6.86 3.216-6.86 7.148V46.71c0 3.932 3.086 7.147 6.86 7.147h53.361c3.775 0 6.861-3.215 6.861-7.147V14.942c0-3.932-3.086-7.148-6.86-7.148h-6.123l.024-6.353C54.988.54 54.18-.145 53.46-.148c-.713-.002-1.522.787-1.524 1.564l-.024 6.378H16.895l-.024-6.378c-.003-.893-.812-1.566-1.525-1.564zm-7.623 11.12h53.361c2.138 0 3.812 1.743 3.812 3.97V46.71c0 2.227-1.674 3.97-3.812 3.97h-2.263v-7.966a1.525 1.589 0 00-1.524-1.589h-19.82a1.525 1.589 0 00-.167 0 1.525 1.589 0 00-1.358 1.589v7.967H7.723c-2.138 0-3.811-1.744-3.811-3.971V14.942c0-2.227 1.673-3.97 3.811-3.97zm31.278 33.33h16.77v6.354h-16.77v-6.354z" id="svg_2" font-size="medium" font-style="normal" font-variant="normal" font-weight="400" font-stretch="normal" text-decoration="none" letter-spacing="normal" word-spacing="normal" direction="ltr" writing-mode="lr-tb" text-anchor="start" baseline-shift="baseline" opacity="1" color="#000" fill="#000" fill-opacity="1" stroke="none" stroke-width="4" visibility="visible" display="inline" overflow="visible" font-family="Sans"/></g></g></svg>