<svg id="_x33_0" enable-background="new 0 0 64 64" height="200" viewBox="0 0 64 64" width="200" xmlns="http://www.w3.org/2000/svg" fill="#FFF"><path d="m58 49h-4c-.551 0-1-.448-1-1v-3.101c2.279-.465 4-2.484 4-4.899v-3.84c.367-1.363 1.287-2.497 2.359-3.801 1.707-2.077 3.641-4.431 3.641-8.359 0-6.065-4.935-11-11-11-2.595 0-5.065.929-7.018 2.549-.176-5.11-3.309-9.615-8.004-11.557.009-.091.022-.18.022-.271 0-1.5-1.221-2.721-2.721-2.721h-4.469c-1.547 0-2.831 1.161-2.985 2.701l-.04.397c-4.541 1.996-7.592 6.484-7.767 11.451-1.953-1.62-4.423-2.549-7.018-2.549-6.065 0-11 4.935-11 11 0 3.928 1.934 6.282 3.641 8.359 1.072 1.304 1.992 2.438 2.359 3.801v3.84c0 2.414 1.721 4.434 4 4.899v3.101c0 1.654 1.346 3 3 3h4c.551 0 1 .448 1 1s-.449 1-1 1h-12c-1.654 0-3 1.346-3 3s1.346 3 3 3h4c.551 0 1 .448 1 1v3h2v-3c0-1.654-1.346-3-3-3h-4c-.551 0-1-.448-1-1s.449-1 1-1h12c1.654 0 3-1.346 3-3s-1.346-3-3-3h-4c-.551 0-1-.448-1-1v-3.101c2.279-.465 4-2.484 4-4.899v-3.84c.367-1.363 1.287-2.497 2.359-3.801 1.484-1.806 3.136-3.824 3.543-6.901.064.081.127.164.19.245 1.135 1.452 2.203 2.833 2.907 4.517v5.78c0 1.302.839 2.402 2 2.816v.184c0 1.859 1.28 3.411 3 3.858v1.142c0 .552-.449 1-1 1h-3c-2.206 0-4 1.794-4 4s1.794 4 4 4h9c1.654 0 3 1.346 3 3s-1.346 3-3 3h-2c-1.654 0-3 1.346-3 3v1h2v-1c0-.552.449-1 1-1h2c2.757 0 5-2.243 5-5s-2.243-5-5-5h-9c-1.103 0-2-.897-2-2s.897-2 2-2h3c1.654 0 3-1.346 3-3v-1.142c1.72-.447 3-1.999 3-3.858v-.184c1.161-.414 2-1.514 2-2.816v-5.779c.704-1.684 1.772-3.064 2.907-4.517.063-.081.127-.164.19-.245.407 3.077 2.06 5.095 3.543 6.901 1.072 1.304 1.992 2.438 2.359 3.801v3.839c0 2.414 1.721 4.434 4 4.899v3.101c0 1.654 1.346 3 3 3h4c.551 0 1 .448 1 1s-.449 1-1 1h-11.998c-1.654 0-3 1.346-3 3s1.346 3 3 3h4c.551 0 1 .448 1 1v3h2v-3c0-1.654-1.346-3-3-3h-4c-.551 0-1-.448-1-1s.449-1 1-1h12c1.654 0 3-1.346 3-3s-1.346-3-3-3zm-9-24h-1c-.551 0-1-.448-1-1s.449-1 1-1 1 .448 1 1zm4 10h-2v-8h2zm2 2v2h-6v-2zm-25.19-34h4.469c.398 0 .721.323.721.721 0 .076-.013.155-.037.228l-2.35 7.051h3.721c.367 0 .666.299.666.667 0 .088-.017.174-.051.256l-4.564 10.955c-.073.176-.385.114-.385-.078v-9.8h-3.095c-.499 0-.905-.406-.9-.995l.81-8.105c.051-.513.479-.9.995-.9zm-20.81 22h-1c-.551 0-1-.448-1-1s.449-1 1-1 1 .448 1 1zm4 10h-2v-8h2zm2 2v2h-6v-2zm-3 6c-1.302 0-2.402-.839-2.816-2h5.631c-.413 1.161-1.513 2-2.815 2zm9-19c0 3.211-1.62 5.183-3.186 7.09-.981 1.193-1.986 2.424-2.544 3.91h-.27v-8h1c1.654 0 3-1.346 3-3s-1.346-3-3-3-3 1.346-3 3v1h-2v-1c0-1.654-1.346-3-3-3s-3 1.346-3 3 1.346 3 3 3h1v8h-.27c-.557-1.487-1.563-2.717-2.544-3.91-1.566-1.907-3.186-3.879-3.186-7.09 0-4.963 4.038-9 9-9 2.898 0 5.613 1.404 7.305 3.755.328 1.479.894 2.746 1.588 3.887.067.448.107.903.107 1.358zm-6 1v-1c0-.552.449-1 1-1s1 .448 1 1-.449 1-1 1zm21 8h-8v-2h8zm-4 8c-1.103 0-2-.897-2-2h4c0 1.103-.897 2-2 2zm3-4h-6c-.551 0-1-.448-1-1v-1h8v1c0 .552-.449 1-1 1zm4.332-12.528c-1.074 1.374-2.163 2.806-2.963 4.528h-8.737c-.8-1.722-1.889-3.154-2.963-4.528-1.887-2.413-3.669-4.693-3.669-8.472 0-3.963 2.175-7.619 5.55-9.555l-.536 5.361c-.01.096-.014.192-.014.289 0 1.601 1.303 2.905 2.905 2.905h1.095v7.8c0 1.213.987 2.2 2.2 2.2.892 0 1.688-.531 2.03-1.354l4.563-10.953c.138-.326.207-.672.207-1.026 0-1.471-1.196-2.667-2.667-2.667h-.946l1.026-3.076c3.977 1.738 6.587 5.668 6.587 10.076 0 3.779-1.782 6.059-3.668 8.472zm3.668-.472c0-.455.04-.91.108-1.357.694-1.142 1.26-2.409 1.588-3.889 1.691-2.35 4.406-3.754 7.304-3.754 4.962 0 9 4.037 9 9 0 3.211-1.62 5.183-3.186 7.09-.981 1.193-1.986 2.424-2.544 3.91h-.27v-8h1c1.654 0 3-1.346 3-3s-1.346-3-3-3-3 1.346-3 3v1h-2v-1c0-1.654-1.346-3-3-3s-3 1.346-3 3 1.346 3 3 3h1v8h-.27c-.557-1.487-1.563-2.717-2.544-3.91-1.566-1.907-3.186-3.879-3.186-7.09zm12 1v-1c0-.552.449-1 1-1s1 .448 1 1-.449 1-1 1zm-5.816 16h5.631c-.414 1.161-1.514 2-2.816 2s-2.401-.839-2.815-2z"/></svg>
