<?xml version="1.0" encoding="UTF-8" standalone="no"?>
<svg
   xmlns:dc="http://purl.org/dc/elements/1.1/"
   xmlns:cc="http://creativecommons.org/ns#"
   xmlns:rdf="http://www.w3.org/1999/02/22-rdf-syntax-ns#"
   xmlns:svg="http://www.w3.org/2000/svg"
   xmlns="http://www.w3.org/2000/svg"
   xmlns:sodipodi="http://sodipodi.sourceforge.net/DTD/sodipodi-0.dtd"
   xmlns:inkscape="http://www.inkscape.org/namespaces/inkscape"
   version="1.1"
   width="512"
   height="512"
   x="0"
   y="0"
   viewBox="0 0 64 64"
   style="enable-background:new 0 0 512 512"
   xml:space="preserve"
   class=""
   id="svg943"
   sodipodi:docname="vision.svg"
   inkscape:version="1.0.1 (3bc2e813f5, 2020-09-07)"><metadata
     id="metadata949"><rdf:RDF><cc:Work
         rdf:about=""><dc:format>image/svg+xml</dc:format><dc:type
           rdf:resource="http://purl.org/dc/dcmitype/StillImage" /><dc:title></dc:title></cc:Work></rdf:RDF></metadata><defs
     id="defs947" /><sodipodi:namedview
     pagecolor="#ffffff"
     bordercolor="#666666"
     borderopacity="1"
     objecttolerance="10"
     gridtolerance="10"
     guidetolerance="10"
     inkscape:pageopacity="0"
     inkscape:pageshadow="2"
     inkscape:window-width="1920"
     inkscape:window-height="1033"
     id="namedview945"
     showgrid="false"
     inkscape:zoom="1.3125"
     inkscape:cx="256"
     inkscape:cy="256"
     inkscape:window-x="-4"
     inkscape:window-y="-4"
     inkscape:window-maximized="1"
     inkscape:current-layer="svg943" /><g
     id="g1639"
     transform="scale(0.1953125)"><circle
       r="32"
       cx="32"
       cy="32"
       fill="#699634"
       shape="circle"
       id="circle892" /><g
       transform="matrix(0.7,0,0,0.7,9.6001515,9.5999994)"
       id="g941"><g
         id="_27-vision"
         data-name="27-vision"><path
           d="M 4,24 A 3.994,3.994 0 0 0 6.171,16.649 L 9.721,6 H 13 A 1,1 0 0 0 13,4 H 9 A 1,1 0 0 0 8.051,4.684 L 4.27,16.027 C 4.179,16.021 4.092,16 4,16 a 4,4 0 0 0 0,8 z m 0,-6 a 2,2 0 1 1 -2,2 2,2 0 0 1 2,-2 z"
           fill="#ffffff"
           data-original="#000000"
           class=""
           id="path894" /><path
           d="m 61.839,32.543 a 1,1 0 0 0 0,-1.086 C 61.378,30.744 50.333,14 32,14 13.667,14 2.622,30.744 2.161,31.457 a 1,1 0 0 0 0,1.086 C 2.622,33.256 13.667,50 32,50 50.333,50 61.378,33.256 61.839,32.543 Z M 32,48 C 16.567,48 6.273,34.858 4.217,32 6.269,29.14 16.543,16 32,16 47.433,16 57.727,29.142 59.783,32 57.731,34.86 47.457,48 32,48 Z"
           fill="#ffffff"
           data-original="#000000"
           class=""
           id="path896" /><path
           d="M 56.777,31.359 C 53.5,27.342 44.522,18 32,18 19.55,18 10.527,27.353 7.225,31.374 a 1,1 0 0 0 0,1.267 C 10.5,36.658 19.478,46 32,46 44.45,46 53.473,36.647 56.775,32.626 a 1,1 0 0 0 0.002,-1.267 z M 44,32 A 12,12 0 1 1 32,20 12.013,12.013 0 0 1 44,32 Z M 9.3,32.011 a 37.786,37.786 0 0 1 12.689,-9.78 13.955,13.955 0 0 0 0.03,19.571 A 37.343,37.343 0 0 1 9.3,32.011 Z m 32.707,9.758 a 13.955,13.955 0 0 0 -0.03,-19.571 37.343,37.343 0 0 1 12.723,9.791 37.786,37.786 0 0 1 -12.691,9.78 z"
           fill="#ffffff"
           data-original="#000000"
           class=""
           id="path898" /><path
           d="m 32,26 a 1,1 0 0 0 1,-1 v -2 a 1,1 0 0 0 -2,0 v 2 a 1,1 0 0 0 1,1 z"
           fill="#ffffff"
           data-original="#000000"
           class=""
           id="path900" /><path
           d="m 32,38 a 1,1 0 0 0 -1,1 v 2 a 1,1 0 0 0 2,0 v -2 a 1,1 0 0 0 -1,-1 z"
           fill="#ffffff"
           data-original="#000000"
           class=""
           id="path902" /><path
           d="M 27.077,26.925 A 1.0021358,1.0021358 0 1 0 28.7,25.749 L 27.524,24.131 A 1.0025408,1.0025408 0 0 0 25.9,25.307 Z"
           fill="#ffffff"
           data-original="#000000"
           class=""
           id="path904" /><path
           d="m 36.923,37.075 a 1.0001125,1.0001125 0 1 0 -1.618,1.176 l 1.176,1.618 A 1.000517,1.000517 0 0 0 38.1,38.693 Z"
           fill="#ffffff"
           data-original="#000000"
           class=""
           id="path906" /><path
           d="m 22.489,28.91 a 1,1 0 0 0 0.642,1.26 l 1.9,0.618 a 1,1 0 1 0 0.618,-1.9 l -1.9,-0.618 a 1,1 0 0 0 -1.26,0.64 z"
           fill="#ffffff"
           data-original="#000000"
           class=""
           id="path908" /><path
           d="m 40.869,33.83 -1.9,-0.618 a 1,1 0 0 0 -0.618,1.9 l 1.9,0.618 a 0.988,0.988 0 0 0 0.31,0.049 1,1 0 0 0 0.309,-1.951 z"
           fill="#ffffff"
           data-original="#000000"
           class=""
           id="path910" /><path
           d="m 26.294,33.854 a 1,1 0 0 0 -1.26,-0.642 l -1.9,0.618 a 1,1 0 0 0 0.309,1.951 0.988,0.988 0 0 0 0.31,-0.049 l 1.9,-0.618 a 1,1 0 0 0 0.641,-1.26 z"
           fill="#ffffff"
           data-original="#000000"
           class=""
           id="path912" /><path
           d="m 37.706,30.146 a 1,1 0 0 0 1.26,0.642 l 1.9,-0.618 a 1,1 0 1 0 -0.619,-1.9 l -1.9,0.618 a 1,1 0 0 0 -0.641,1.258 z"
           fill="#ffffff"
           data-original="#000000"
           class=""
           id="path914" /><path
           d="M 27.077,37.075 25.9,38.693 a 1.0001125,1.0001125 0 0 0 1.618,1.176 L 28.7,38.251 a 1.0001125,1.0001125 0 1 0 -1.618,-1.176 z"
           fill="#ffffff"
           data-original="#000000"
           class=""
           id="path916" /><path
           d="m 36.113,27.337 a 1,1 0 0 0 0.81,-0.412 L 38.1,25.307 a 1.0001125,1.0001125 0 1 0 -1.618,-1.176 l -1.176,1.618 a 1,1 0 0 0 0.808,1.588 z"
           fill="#ffffff"
           data-original="#000000"
           class=""
           id="path918" /><path
           d="m 32,36 a 4,4 0 1 0 -4,-4 4,4 0 0 0 4,4 z m 0,-6 a 2,2 0 1 1 -2,2 2,2 0 0 1 2,-2 z"
           fill="#ffffff"
           data-original="#000000"
           class=""
           id="path920" /><path
           d="m 40,10 a 5.009,5.009 0 0 0 4.9,-4 h 9.38 l 3.55,10.649 A 3.99,3.99 0 1 0 60,16 c -0.092,0 -0.179,0.021 -0.27,0.027 L 55.949,4.684 A 1,1 0 0 0 55,4 H 44.9 A 5,5 0 1 0 40,10 Z m 22,10 a 2,2 0 1 1 -2,-2 2,2 0 0 1 2,2 z M 40,2 a 3,3 0 1 1 -3,3 3,3 0 0 1 3,-3 z"
           fill="#ffffff"
           data-original="#000000"
           class=""
           id="path922" /><path
           d="m 17,6 h 2.1 a 5,5 0 1 0 0,-2 H 17 a 1,1 0 0 0 0,2 z m 7,-4 a 3,3 0 1 1 -3,3 3,3 0 0 1 3,-3 z"
           fill="#ffffff"
           data-original="#000000"
           class=""
           id="path924" /><path
           d="m 11,9 a 1,1 0 0 0 1,1 h 3 a 1,1 0 0 0 0,-2 h -3 a 1,1 0 0 0 -1,1 z"
           fill="#ffffff"
           data-original="#000000"
           class=""
           id="path926" /><path
           d="m 49,8 a 1,1 0 0 0 0,2 h 3 a 1,1 0 0 0 0,-2 z"
           fill="#ffffff"
           data-original="#000000"
           class=""
           id="path928" /><path
           d="m 24,54 a 5.009,5.009 0 0 0 -4.9,4 H 9.721 L 6.171,47.351 A 3.99,3.99 0 1 0 4,48 c 0.092,0 0.179,-0.021 0.27,-0.027 L 8.051,59.316 A 1,1 0 0 0 9,60 H 19.1 A 5,5 0 1 0 24,54 Z M 2,44 a 2,2 0 1 1 2,2 2,2 0 0 1 -2,-2 z m 22,18 a 3,3 0 1 1 3,-3 3,3 0 0 1 -3,3 z"
           fill="#ffffff"
           data-original="#000000"
           class=""
           id="path930" /><path
           d="m 60,40 a 3.994,3.994 0 0 0 -2.171,7.351 L 54.279,58 H 51 a 1,1 0 0 0 0,2 h 4 a 1,1 0 0 0 0.949,-0.684 L 59.73,47.973 C 59.821,47.979 59.908,48 60,48 a 4,4 0 0 0 0,-8 z m 0,6 a 2,2 0 1 1 2,-2 2,2 0 0 1 -2,2 z"
           fill="#ffffff"
           data-original="#000000"
           class=""
           id="path932" /><path
           d="m 47,58 h -2.1 a 5,5 0 1 0 0,2 H 47 a 1,1 0 0 0 0,-2 z m -7,4 a 3,3 0 1 1 3,-3 3,3 0 0 1 -3,3 z"
           fill="#ffffff"
           data-original="#000000"
           class=""
           id="path934" /><path
           d="m 15,56 a 1,1 0 0 0 0,-2 h -3 a 1,1 0 0 0 0,2 z"
           fill="#ffffff"
           data-original="#000000"
           class=""
           id="path936" /><path
           d="m 53,55 a 1,1 0 0 0 -1,-1 h -3 a 1,1 0 0 0 0,2 h 3 a 1,1 0 0 0 1,-1 z"
           fill="#ffffff"
           data-original="#000000"
           class=""
           id="path938" /></g></g></g></svg>
