<?xml version="1.0"?>
<svg xmlns="http://www.w3.org/2000/svg" xmlns:xlink="http://www.w3.org/1999/xlink" xmlns:svgjs="http://svgjs.com/svgjs" version="1.1" width="512" height="512" x="0" y="0" viewBox="0 0 64 64" style="enable-background:new 0 0 512 512" xml:space="preserve" class=""><circle r="32" cx="32" cy="32" fill="#699634" shape="circle"/><g transform="matrix(0.7,0,0,0.7,9.600151525627009,9.59999942779541)"><g xmlns="http://www.w3.org/2000/svg" id="_27-vision" data-name="27-vision"><path d="M4,24a3.994,3.994,0,0,0,2.171-7.351L9.721,6H13a1,1,0,0,0,0-2H9a1,1,0,0,0-.949.684L4.27,16.027C4.179,16.021,4.092,16,4,16a4,4,0,0,0,0,8Zm0-6a2,2,0,1,1-2,2A2,2,0,0,1,4,18Z" fill="#ffffff" data-original="#000000" style="" class=""/><path d="M61.839,32.543a1,1,0,0,0,0-1.086C61.378,30.744,50.333,14,32,14S2.622,30.744,2.161,31.457a1,1,0,0,0,0,1.086C2.622,33.256,13.667,50,32,50S61.378,33.256,61.839,32.543ZM32,48C16.567,48,6.273,34.858,4.217,32,6.269,29.14,16.543,16,32,16c15.433,0,25.727,13.142,27.783,16C57.731,34.86,47.457,48,32,48Z" fill="#ffffff" data-original="#000000" style="" class=""/><path d="M56.777,31.359C53.5,27.342,44.522,18,32,18,19.55,18,10.527,27.353,7.225,31.374a1,1,0,0,0,0,1.267C10.5,36.658,19.478,46,32,46c12.45,0,21.473-9.353,24.775-13.374A1,1,0,0,0,56.777,31.359ZM44,32A12,12,0,1,1,32,20,12.013,12.013,0,0,1,44,32Zm-34.7.011a37.786,37.786,0,0,1,12.689-9.78,13.955,13.955,0,0,0,.03,19.571A37.343,37.343,0,0,1,9.3,32.011Zm32.707,9.758a13.955,13.955,0,0,0-.03-19.571A37.343,37.343,0,0,1,54.7,31.989,37.786,37.786,0,0,1,42.009,41.769Z" fill="#ffffff" data-original="#000000" style="" class=""/><path d="M32,26a1,1,0,0,0,1-1V23a1,1,0,0,0-2,0v2A1,1,0,0,0,32,26Z" fill="#ffffff" data-original="#000000" style="" class=""/><path d="M32,38a1,1,0,0,0-1,1v2a1,1,0,0,0,2,0V39A1,1,0,0,0,32,38Z" fill="#ffffff" data-original="#000000" style="" class=""/><path d="M27.077,26.925A1,1,0,1,0,28.7,25.749l-1.176-1.618A1,1,0,0,0,25.9,25.307Z" fill="#ffffff" data-original="#000000" style="" class=""/><path d="M36.923,37.075a1,1,0,1,0-1.618,1.176l1.176,1.618A1,1,0,0,0,38.1,38.693Z" fill="#ffffff" data-original="#000000" style="" class=""/><path d="M22.489,28.91a1,1,0,0,0,.642,1.26l1.9.618a1,1,0,1,0,.618-1.9l-1.9-.618A1,1,0,0,0,22.489,28.91Z" fill="#ffffff" data-original="#000000" style="" class=""/><path d="M40.869,33.83l-1.9-.618a1,1,0,0,0-.618,1.9l1.9.618a.988.988,0,0,0,.31.049,1,1,0,0,0,.309-1.951Z" fill="#ffffff" data-original="#000000" style="" class=""/><path d="M26.294,33.854a1,1,0,0,0-1.26-.642l-1.9.618a1,1,0,0,0,.309,1.951.988.988,0,0,0,.31-.049l1.9-.618A1,1,0,0,0,26.294,33.854Z" fill="#ffffff" data-original="#000000" style="" class=""/><path d="M37.706,30.146a1,1,0,0,0,1.26.642l1.9-.618a1,1,0,1,0-.619-1.9l-1.9.618A1,1,0,0,0,37.706,30.146Z" fill="#ffffff" data-original="#000000" style="" class=""/><path d="M27.077,37.075,25.9,38.693a1,1,0,0,0,1.618,1.176L28.7,38.251a1,1,0,1,0-1.618-1.176Z" fill="#ffffff" data-original="#000000" style="" class=""/><path d="M36.113,27.337a1,1,0,0,0,.81-.412L38.1,25.307a1,1,0,1,0-1.618-1.176l-1.176,1.618a1,1,0,0,0,.808,1.588Z" fill="#ffffff" data-original="#000000" style="" class=""/><path d="M32,36a4,4,0,1,0-4-4A4,4,0,0,0,32,36Zm0-6a2,2,0,1,1-2,2A2,2,0,0,1,32,30Z" fill="#ffffff" data-original="#000000" style="" class=""/><path d="M40,10a5.009,5.009,0,0,0,4.9-4h9.38l3.55,10.649A3.99,3.99,0,1,0,60,16c-.092,0-.179.021-.27.027L55.949,4.684A1,1,0,0,0,55,4H44.9A5,5,0,1,0,40,10ZM62,20a2,2,0,1,1-2-2A2,2,0,0,1,62,20ZM40,2a3,3,0,1,1-3,3A3,3,0,0,1,40,2Z" fill="#ffffff" data-original="#000000" style="" class=""/><path d="M17,6h2.1a5,5,0,1,0,0-2H17a1,1,0,0,0,0,2Zm7-4a3,3,0,1,1-3,3A3,3,0,0,1,24,2Z" fill="#ffffff" data-original="#000000" style="" class=""/><path d="M11,9a1,1,0,0,0,1,1h3a1,1,0,0,0,0-2H12A1,1,0,0,0,11,9Z" fill="#ffffff" data-original="#000000" style="" class=""/><path d="M49,8a1,1,0,0,0,0,2h3a1,1,0,0,0,0-2Z" fill="#ffffff" data-original="#000000" style="" class=""/><path d="M24,54a5.009,5.009,0,0,0-4.9,4H9.721L6.171,47.351A3.99,3.99,0,1,0,4,48c.092,0,.179-.021.27-.027L8.051,59.316A1,1,0,0,0,9,60H19.1A5,5,0,1,0,24,54ZM2,44a2,2,0,1,1,2,2A2,2,0,0,1,2,44ZM24,62a3,3,0,1,1,3-3A3,3,0,0,1,24,62Z" fill="#ffffff" data-original="#000000" style="" class=""/><path d="M60,40a3.994,3.994,0,0,0-2.171,7.351L54.279,58H51a1,1,0,0,0,0,2h4a1,1,0,0,0,.949-.684L59.73,47.973c.091.006.178.027.27.027a4,4,0,0,0,0-8Zm0,6a2,2,0,1,1,2-2A2,2,0,0,1,60,46Z" fill="#ffffff" data-original="#000000" style="" class=""/><path d="M47,58H44.9a5,5,0,1,0,0,2H47a1,1,0,0,0,0-2Zm-7,4a3,3,0,1,1,3-3A3,3,0,0,1,40,62Z" fill="#ffffff" data-original="#000000" style="" class=""/><path d="M15,56a1,1,0,0,0,0-2H12a1,1,0,0,0,0,2Z" fill="#ffffff" data-original="#000000" style="" class=""/><path d="M53,55a1,1,0,0,0-1-1H49a1,1,0,0,0,0,2h3A1,1,0,0,0,53,55Z" fill="#ffffff" data-original="#000000" style="" class=""/></g></g></svg>
